<svg xmlns="http://www.w3.org/2000/svg" viewBox="0 0 64 64"><title>Arts</title><g id="Arts"><path d="M15,38c1.46,0,5.1.08,7,.08,6.31,0,9,1.77,9,5.92,0,6.64,2.69,10,8,10,3.88,0,25-5,25-27C64,2,39.51,0,32,0,19,0,0,10.91,0,28,0,38,10.13,38,15,38ZM32,2c7,0,30,1.8,30,25,0,20.39-19.43,25-23,25-2.79,0-6-.91-6-8s-6.28-7.92-11-7.92c-1.88,0-5.44-.08-7-.08C7.2,36,2,34.64,2,28,2,12.37,20.06,2,32,2Z"/><path d="M33,36a7,7,0,1,0-7-7A7,7,0,0,0,33,36Zm0-12a5,5,0,1,1-5,5A5,5,0,0,1,33,24Z"/><path d="M47,46a5,5,0,1,0-5-5A5,5,0,0,0,47,46Zm0-8a3,3,0,1,1-3,3A3,3,0,0,1,47,38Z"/><path d="M50,28a5,5,0,1,0,5-5A5,5,0,0,0,50,28Zm8,0a3,3,0,1,1-3-3A3,3,0,0,1,58,28Z"/><path d="M50,20a5,5,0,1,0-5-5A5,5,0,0,0,50,20Zm0-8a3,3,0,1,1-3,3A3,3,0,0,1,50,12Z"/><path d="M37,14a5,5,0,1,0-5-5A5,5,0,0,0,37,14Zm0-8a3,3,0,1,1-3,3A3,3,0,0,1,37,6Z"/><path d="M22,16a5,5,0,1,0-5-5A5,5,0,0,0,22,16Zm0-8a3,3,0,1,1-3,3A3,3,0,0,1,22,8Z"/><path d="M12,27a5,5,0,1,0-5-5A5,5,0,0,0,12,27Zm0-8a3,3,0,1,1-3,3A3,3,0,0,1,12,19Z"/><path d="M61,56c-50.46-1.05-47.63-1.42-49.33-.22A5.55,5.55,0,0,0,7.6,54C4.75,54,3.52,57,1,57a1,1,0,0,0-1,1c0,4.45,7.92,8.35,11.69,4.26,1.48,1.05-1.75.82,49.33-.22A3,3,0,0,0,61,56ZM2.17,58.87C4.72,58.28,6,56,7.6,56a3.55,3.55,0,0,1,2.79,1.3,3.9,3.9,0,0,0,0,3.4C8.18,63.53,3.07,61.08,2.17,58.87ZM14,61a2,2,0,0,1,0-4l10,.2v3.61C13.81,61,15.42,61,14,61Zm47-1-35,.73V57.24L61,58A1,1,0,0,1,61,60Z"/></g></svg>