<svg xmlns="http://www.w3.org/2000/svg" viewBox="0 0 64 64"><title>Boy Study</title><g id="Boy_Study" data-name="Boy Study"><path d="M51,44.87V40a1,1,0,0,0-1-1H37V36a13,13,0,0,0,7.83-10c5.28,0,5.59-7.4.61-8A43.43,43.43,0,0,0,46,9.1a7.25,7.25,0,0,0-5.51-7C37.66-.54,34.8,0,29.88,0A11.89,11.89,0,0,0,18,11.88,34.43,34.43,0,0,0,18.56,18c-5,.56-4.68,8,.61,8A12.94,12.94,0,0,0,27,36v3H14a1,1,0,0,0-1,1v4.87c-4.61,5.28-4.69,10.19-6,18a1,1,0,0,0,2,.32c1.36-8.15,1.43-11,4-15V54a5,5,0,0,0-2,4v5a1,1,0,0,0,2,0V58a3,3,0,0,1,6,0v2a2,2,0,0,1-2,2H16a1,1,0,0,0,0,2H47a1,1,0,0,0,0-2,2,2,0,0,1-2-2V58a3,3,0,0,1,6,0v5a1,1,0,0,0,2,0c0-4.58.53-7.06-2-9V48.17c2.62,4,2.68,7,4,15a1,1,0,0,0,2-.32C55.69,55,55.54,50.07,51,44.87ZM47,22a2,2,0,0,1-2,2c0-4.05,0-3.85,0-4A2,2,0,0,1,47,22ZM29.88,2c4.76,0,7.22-.48,9.41,1.71A1,1,0,0,0,39.8,4,5.23,5.23,0,0,1,44,9.1,55,55,0,0,1,43.85,15a14.22,14.22,0,0,0-3.14-4.74,1,1,0,0,0-1.26-.12C35.88,12.55,33.39,12,23,12c-.94,0-.95.67-2.65,4.64A33,33,0,0,1,20,11.88,9.89,9.89,0,0,1,29.88,2ZM17,22a2,2,0,0,1,2-2c0,.13,0-.24,0,4A2,2,0,0,1,17,22Zm4,2V20.2L23.66,14c9.72,0,12.33.49,16.17-1.72,2.45,2.79,2.76,5.36,3.17,7.8V24a11,11,0,0,1-22,0Zm8,12.65a13.35,13.35,0,0,0,6,0V39H29ZM15,53.1V41H31V62H20.44c.71-1.21.56-2,.56-4A5,5,0,0,0,15,53.1ZM43,58c0,2-.13,2.82.56,4H33V41H49V53.1A5,5,0,0,0,43,58Z"/><path d="M34.83,29.41a1,1,0,0,0-1.42,0,2,2,0,0,1-2.82,0,1,1,0,0,0-1.42,1.42C31.86,33.51,36.32,30.91,34.83,29.41Z"/><path d="M25,20v1a1,1,0,0,0,2,0V20A1,1,0,0,0,25,20Z"/><path d="M39,21V20a1,1,0,0,0-2,0v1A1,1,0,0,0,39,21Z"/><path d="M46,44H36a1,1,0,0,0-1,1v5a1,1,0,0,0,1,1H46a1,1,0,0,0,1-1V45A1,1,0,0,0,46,44Zm-1,5H37V46h8Z"/></g></svg>