<svg xmlns="http://www.w3.org/2000/svg" viewBox="0 0 64 64"><title>Calculator</title><g id="Calculator"><path d="M55,0H9A3,3,0,0,0,6,3V61a3,3,0,0,0,3,3H55a3,3,0,0,0,3-3V3A3,3,0,0,0,55,0Zm1,61a1,1,0,0,1-1,1H9a1,1,0,0,1-1-1V3A1,1,0,0,1,9,2H55a1,1,0,0,1,1,1Z"/><path d="M17,51H14a3,3,0,0,0-3,3v2a3,3,0,0,0,3,3h3a3,3,0,0,0,3-3V54A3,3,0,0,0,17,51Zm1,5a1,1,0,0,1-1,1H14a1,1,0,0,1-1-1V54a1,1,0,0,1,1-1h3a1,1,0,0,1,1,1Z"/><path d="M28,51H25a3,3,0,0,0-3,3v2a3,3,0,0,0,3,3h3a3,3,0,0,0,3-3V54A3,3,0,0,0,28,51Zm1,5a1,1,0,0,1-1,1H25a1,1,0,0,1-1-1V54a1,1,0,0,1,1-1h3a1,1,0,0,1,1,1Z"/><path d="M39,51H36a3,3,0,0,0-3,3v2a3,3,0,0,0,3,3h3a3,3,0,0,0,3-3V54A3,3,0,0,0,39,51Zm1,5a1,1,0,0,1-1,1H36a1,1,0,0,1-1-1V54a1,1,0,0,1,1-1h3a1,1,0,0,1,1,1Z"/><path d="M17,41H14a3,3,0,0,0-3,3v2a3,3,0,0,0,3,3h3a3,3,0,0,0,3-3V44A3,3,0,0,0,17,41Zm1,5a1,1,0,0,1-1,1H14a1,1,0,0,1-1-1V44a1,1,0,0,1,1-1h3a1,1,0,0,1,1,1Z"/><path d="M28,41H25a3,3,0,0,0-3,3v2a3,3,0,0,0,3,3h3a3,3,0,0,0,3-3V44A3,3,0,0,0,28,41Zm1,5a1,1,0,0,1-1,1H25a1,1,0,0,1-1-1V44a1,1,0,0,1,1-1h3a1,1,0,0,1,1,1Z"/><path d="M39,41H36a3,3,0,0,0-3,3v2a3,3,0,0,0,3,3h3a3,3,0,0,0,3-3V44A3,3,0,0,0,39,41Zm1,5a1,1,0,0,1-1,1H36a1,1,0,0,1-1-1V44a1,1,0,0,1,1-1h3a1,1,0,0,1,1,1Z"/><path d="M50,41H47a3,3,0,0,0-3,3V56a3,3,0,0,0,3,3h3a3,3,0,0,0,3-3V44A3,3,0,0,0,50,41Zm1,15a1,1,0,0,1-1,1H47a1,1,0,0,1-1-1V44a1,1,0,0,1,1-1h3a1,1,0,0,1,1,1Z"/><path d="M17,31H14a3,3,0,0,0-3,3v2a3,3,0,0,0,3,3h3a3,3,0,0,0,3-3V34A3,3,0,0,0,17,31Zm1,5a1,1,0,0,1-1,1H14a1,1,0,0,1-1-1V34a1,1,0,0,1,1-1h3a1,1,0,0,1,1,1Z"/><path d="M28,31H25a3,3,0,0,0-3,3v2a3,3,0,0,0,3,3h3a3,3,0,0,0,3-3V34A3,3,0,0,0,28,31Zm1,5a1,1,0,0,1-1,1H25a1,1,0,0,1-1-1V34a1,1,0,0,1,1-1h3a1,1,0,0,1,1,1Z"/><path d="M39,31H36a3,3,0,0,0-3,3v2a3,3,0,0,0,3,3h3a3,3,0,0,0,3-3V34A3,3,0,0,0,39,31Zm1,5a1,1,0,0,1-1,1H36a1,1,0,0,1-1-1V34a1,1,0,0,1,1-1h3a1,1,0,0,1,1,1Z"/><path d="M50,31H47a3,3,0,0,0-3,3v2a3,3,0,0,0,3,3h3a3,3,0,0,0,3-3V34A3,3,0,0,0,50,31Zm1,5a1,1,0,0,1-1,1H47a1,1,0,0,1-1-1V34a1,1,0,0,1,1-1h3a1,1,0,0,1,1,1Z"/><path d="M17,23H14a3,3,0,0,0,0,6h3a3,3,0,0,0,0-6Zm0,4H14a1,1,0,0,1,0-2h3A1,1,0,0,1,17,27Z"/><path d="M28,23H25a3,3,0,0,0,0,6h3a3,3,0,0,0,0-6Zm0,4H25a1,1,0,0,1,0-2h3A1,1,0,0,1,28,27Z"/><path d="M39,23H36a3,3,0,0,0,0,6h3a3,3,0,0,0,0-6Zm0,4H36a1,1,0,0,1,0-2h3A1,1,0,0,1,39,27Z"/><path d="M50,23H47a3,3,0,0,0,0,6h3a3,3,0,0,0,0-6Zm0,4H47a1,1,0,0,1,0-2h3A1,1,0,0,1,50,27Z"/><path d="M52,5H12a1,1,0,0,0-1,1V20a1,1,0,0,0,1,1H52a1,1,0,0,0,1-1V6A1,1,0,0,0,52,5ZM51,19H13V7H51Z"/></g></svg>