<svg xmlns="http://www.w3.org/2000/svg" viewBox="0 0 64 64"><title>Chemistry</title><g id="Chemistry"><path d="M30.69,37.48a1,1,0,0,0-1.25-.4c-6,2.65-6.54-4.18-13.78.06-.33.19.34-.79-11.18,17.93A3.24,3.24,0,0,0,7.24,60H38.76A3.24,3.24,0,0,0,42,56.76C42,55.44,42.33,56.38,30.69,37.48ZM38.76,58H7.24A1.25,1.25,0,0,1,6,56.76c0-.5-.86,1.05,10.87-18,5.73-3.23,6,2.76,12.47.51.13,0-.39-.8,10.48,16.85A1.24,1.24,0,0,1,38.76,58Z"/><path d="M53,29.41V5.82A3,3,0,0,0,52,0H40a3,3,0,0,0-1,5.82V29.41a18,18,0,0,0-6,4.16l-3-4.85V5.82A3,3,0,0,0,29,0H17a3,3,0,0,0-1,5.82v22.9C.09,54.58,0,53.94,0,56.76A7.25,7.25,0,0,0,7.24,64c33.93,0,32.41.24,34.32-.56A18,18,0,0,0,53,29.41ZM40,2H52a1,1,0,0,1,0,2H40A1,1,0,0,1,40,2ZM17,2H29a1,1,0,0,1,0,2H17A1,1,0,0,1,17,2ZM7.24,62a5.24,5.24,0,0,1-4.46-8C18.86,27.88,18,29.43,18,29V6H28V9H27a1,1,0,0,0,0,2h1v3H26a1,1,0,0,0,0,2h2v3H27a1,1,0,0,0,0,2h1v3H26a1,1,0,0,0,0,2h2v3H27a1,1,0,0,0,0,2h2.05C44.48,56.06,44,54.71,44,56.76A5.25,5.25,0,0,1,38.76,62Zm37.69-9L36.72,39.64c8.84-1.78,9.74,4.82,19.81.65A12,12,0,0,1,45.89,58,7.21,7.21,0,0,0,44.93,53Zm-1,8.89A7.19,7.19,0,0,0,45.24,60a14,14,0,0,0,12.54-21.5,1,1,0,0,0-1.25-.37c-10.29,4.66-10.22-2.8-20.92-.28l-1.53-2.49A15.87,15.87,0,0,1,40.35,31c.93-.35.65.93.65-25H51V9H50a1,1,0,0,0,0,2h1v3H49a1,1,0,0,0,0,2h2v3H50a1,1,0,0,0,0,2h1v3H49a1,1,0,0,0,0,2h2v3H50a1,1,0,0,0,0,2h1.6C69.94,39.07,61.88,64.23,43.89,61.86Z"/></g></svg>