<svg xmlns="http://www.w3.org/2000/svg" viewBox="0 0 64 64"><title>Energy equivalency</title><g id="Energy_equivalency" data-name="Energy equivalency"><path d="M63,40H62V1a1,1,0,0,0-1-1H3A1,1,0,0,0,2,1V40H1a1,1,0,0,0-1,1v6a1,1,0,0,0,1,1h9.47L4.08,62.6A1,1,0,0,0,5,64c5.26,0,5.57.2,5.92-.6l2.8-6.4H50.28c3,6.81,2.84,7,3.72,7,5.33,0,5.44.15,5.84-.45s.58.2-6.31-15.55H63a1,1,0,0,0,1-1V41A1,1,0,0,0,63,40ZM4,2H60V40H58V5a1,1,0,0,0-1-1H7A1,1,0,0,0,6,5V40H4ZM51,40H41V37a1,1,0,0,1,1-1h8a1,1,0,0,1,1,1Zm-1-6H42a3,3,0,0,0-3,3v3H8V6H56V40H53V37A3,3,0,0,0,50,34ZM9.35,62H6.53l6.12-14h2.82C6.25,69.08,10.52,59.32,9.35,62Zm37-14,1.31,3H16.34l1.31-3ZM14.59,55l.88-2H48.53l.88,2Zm42.88,7H54.65c-17.38-39.73,9.43,21.55-6.12-14h2.82ZM62,46H2V42H62Z"/><path d="M18,17a1,1,0,0,0,0-2H13a1,1,0,0,0-1,1V26a1,1,0,0,0,1,1h5a1,1,0,0,0,0-2H14V22h3a1,1,0,0,0,0-2H14V17Z"/><path d="M24,19H21a1,1,0,0,0,0,2h3A1,1,0,0,0,24,19Z"/><path d="M24,23H21a1,1,0,0,0,0,2h3A1,1,0,0,0,24,23Z"/><path d="M32,18.78A3,3,0,0,0,27,21v5a1,1,0,0,0,2,0V21a1,1,0,0,1,2,0v5a1,1,0,0,0,2,0V21a1,1,0,0,1,2,0v5a1,1,0,0,0,2,0V21A3,3,0,0,0,32,18.78Z"/><path d="M43,20h1a1,1,0,0,0,0-2H43a4,4,0,0,0-4,4v1a4,4,0,0,0,4,4h1a1,1,0,0,0,0-2H43a2,2,0,0,1-2-2V22A2,2,0,0,1,43,20Z"/><path d="M52,19H50.41L52,17.41A3.11,3.11,0,0,0,50,12c-3,0-3.92,4-2,4a1,1,0,0,0,1-1,1,1,0,0,1,1-1c1,0,1.36,1.22.59,2-3.45,3.45-3.85,3.57-3.51,4.38S47.94,21,52,21A1,1,0,0,0,52,19Z"/></g></svg>