<svg xmlns="http://www.w3.org/2000/svg" viewBox="0 0 64 64"><title>Geology</title><g id="Geology"><path d="M49,1A1,1,0,0,0,47.29.29C41.6,6,42.18,5.5,42,5.37A21,21,0,0,0,12.48,35.1L7.29,40.29A1,1,0,0,0,8,42a28.8,28.8,0,0,0,21,8v8H23a4,4,0,0,0-4,4v1a1,1,0,0,0,1,1H44a1,1,0,0,0,1-1V62a4,4,0,0,0-4-4H35V49.15C56.26,43.91,64.5,17.28,49,1ZM22.57,41.28c20,5.36,35.14-18.77,21-34.4l1.4-1.4A23,23,0,0,1,12.48,37.93l1.41-1.41A20.87,20.87,0,0,0,22.57,41.28ZM46,15a18.48,18.48,0,0,1,1,5.67c-.49-1-2.69-3.09-4.38-5A9.36,9.36,0,0,0,46,15Zm-.72,7.36c1.73.47,1.7-1.07,1.64-.14a18.85,18.85,0,0,1-5.47,12.11c.29-6,3.2-6-1.74-9.26-.67-.44-1.91-1.27-2-1.63a5.91,5.91,0,0,1,2.5-2.73C40.85,20.42,43.76,22,45.31,22.4ZM34.06,3a18.92,18.92,0,0,1,6.09,3.4A3.75,3.75,0,0,0,40,7.84c.11,1.8-3.79.86-6.73,2.42C33.38,7.59,35.07,5.15,34.06,3ZM25.67,8.43c.36.64.48.92,1,1.06a1,1,0,0,0,.76-.1c1.75-.23,2.38,3.3,1.36,3.51a6.69,6.69,0,0,0-4.51,3.33c-1.08-.22-2.64-.89-3.84-.2a2,2,0,0,0-1,1.67c-.6-.47-1.38-1.07-2-1.61-.35-.32-1.08-1.47-.08-5.31.28-1-.5-2.24-1.84-4.09a18.43,18.43,0,0,1,3.74-2.55c5,1.53,5.76,2.15,5.82,2.19C25.47,7,24.89,7.09,25.67,8.43ZM23.62,23.08a7.59,7.59,0,0,1,1.78.2c2,.53,5.28,3.48,5,4.45s-2.21,2-3.92,2.85c-2.19,1.1-3.67,1.71-5.18,4.88-.38-.65-.84-.47,1.49-4.4,1.28-2.17,1.45-2.28.4-4.45a7.88,7.88,0,0,1-.58-1.4A2,2,0,0,0,23.62,23.08Zm-14-7a19.14,19.14,0,0,1,4.42-8,9.74,9.74,0,0,1,1.34,2.24c-1.59,6.1.32,7,2.64,8.83a14.77,14.77,0,0,1,2.89,2.62c.87,1.51.78,1.66.55,1.79-2.06,1.19.21,4.05.41,5C21.33,30,18.17,34,19.24,35.83c1.45,2.51,1.53,2.94,2.28,2.94a1,1,0,0,0,1-.74s1-3.48,3-4.67c2.55-1.47,6.18-2.65,6.85-5.11.76-2.88-4.52-6.38-6.44-6.9s-3-.05-3.25-.57c-1.26-2.19-1.31-2.85-1.27-3,.76-.44,4,1.67,4.6-.55a4.44,4.44,0,0,1,3.15-2.36c3.54-.73,2.33-7.62-1.77-7.47-.39-.69.22-.69-.57-2.06-.29-.51-.95-1.11-4.72-2.38A18.61,18.61,0,0,1,29.19,2a1,1,0,0,0,.92.73,3,3,0,0,1,2,.84,2.1,2.1,0,0,1,.14,1.84c-.7,2.62-2.12,7,.59,7a3.23,3.23,0,0,0,1.51-.5c2.09-1.21,7.47,0,7.59-3.81a19,19,0,0,1,3.37,5.05c-2.06,1-4.46,0-5.1,1.53-.53,1.27,1.13,2.64,3.23,4.86-1.56-.66-3-1.19-4.17-.53-.28.16-2.82,1.69-3.43,3.95-.74,2.76,4.6,4.26,4.75,5.45-.73,2.76-1.39,5.73-1,7.59C25.25,47.15,5,33.53,9.65,16.08Zm0,24.71L11,39.37A24.85,24.85,0,0,0,28,46C50,46,61,19.81,46.37,4l1.42-1.41A27,27,0,0,1,9.63,40.79ZM43,62H21a2,2,0,0,1,2-2H41A2,2,0,0,1,43,62ZM33,58H31V49.85c.67-.07,1.34-.17,2-.29Z"/></g></svg>