<svg xmlns="http://www.w3.org/2000/svg" viewBox="0 0 64 64"><title>Geometric</title><g id="Geometric"><path d="M64,51c0-25.71,0-24.11-.08-24.38A1,1,0,0,0,63,26c-25.15,0-24.11,0-24.38.08s-.14,0-4.62,4.51V6C34-2,0-2,0,6V44c0,5.68,16.52,7.09,26,5.14,0,14.33-.27,14.44.65,14.79.22.1,24.4.13,24.73,0S63.72,51.7,63.82,51.54A.8.8,0,0,0,64,51ZM29.41,38l10-10H60.59l-10,10ZM52,39.41l10-10V50.59l-10,10ZM17,2c9.16,0,15,2.37,15,4s-5.84,4-15,4S2,7.63,2,6,7.84,2,17,2ZM2,44V9c6.09,4,23.89,4,30,0V32.59c-6.08,6.07-6,5.82-6,6.41v8.11C15.47,49.41,2,46.82,2,44Zm26-4H50V62H28Z"/><path d="M39,34a1,1,0,0,0,0,2A1,1,0,0,0,39,34Z"/><path d="M39,42a1,1,0,0,0,0,2A1,1,0,0,0,39,42Z"/><path d="M39,32a1,1,0,0,0,0-2A1,1,0,0,0,39,32Z"/><path d="M39,46a1,1,0,0,0,0,2A1,1,0,0,0,39,46Z"/><path d="M59,50a1,1,0,0,0,0,2A1,1,0,0,0,59,50Z"/><path d="M47,50a1,1,0,0,0,0,2A1,1,0,0,0,47,50Z"/><path d="M55,50a1,1,0,0,0,0,2A1,1,0,0,0,55,50Z"/><path d="M43,50a1,1,0,0,0,0,2A1,1,0,0,0,43,50Z"/><path d="M32.29,56.29a1,1,0,1,0,1.42,0A1,1,0,0,0,32.29,56.29Z"/><path d="M35.29,53.29a1,1,0,1,0,1.42,0A1,1,0,0,0,35.29,53.29Z"/><path d="M29.29,59.29a1,1,0,1,0,1.42,0A1,1,0,0,0,29.29,59.29Z"/><path d="M39.56,50.17a1,1,0,0,0-1.27.12,1,1,0,1,0,1.27-.12Z"/><path d="M7.41,39a1,1,0,0,0-1,1.22,1,1,0,1,0,1-1.22Z"/><path d="M3.61,40.26a1,1,0,0,0-.89,1.42,1,1,0,0,0,1.33.48A1,1,0,0,0,3.61,40.26Z"/><path d="M19.39,38.05a1,1,0,1,0,0,2A1,1,0,0,0,19.39,38.05Z"/><path d="M15.35,38a1,1,0,1,0,0,2A1,1,0,0,0,15.35,38Z"/><path d="M23.47,38.42a1,1,0,0,0-1.13.85,1,1,0,1,0,1.13-.85Z"/><path d="M11.37,38.32a1,1,0,1,0,.11,2A1,1,0,0,0,11.37,38.32Z"/></g></svg>