<svg xmlns="http://www.w3.org/2000/svg" viewBox="0 0 64 64"><title>Girl Study</title><g id="Girl_Study" data-name="Girl Study"><path d="M51,44.87V40a1,1,0,0,0-1-1H49V12A10,10,0,0,0,39.3,2C35.53-.37,32.56,0,28,0A13,13,0,0,0,15,13V39H14a1,1,0,0,0-1,1v4.87c-4.61,5.28-4.69,10.19-6,18a1,1,0,0,0,2,.32c1.36-8.15,1.43-11,4-15V54a5,5,0,0,0-2,4v5a1,1,0,0,0,2,0V58a3,3,0,0,1,6,0v2a2,2,0,0,1-2,2H16a1,1,0,0,0,0,2H47a1,1,0,0,0,0-2,2,2,0,0,1-2-2V58a3,3,0,0,1,6,0v5a1,1,0,0,0,2,0c0-4.58.53-7.06-2-9V48.17c2.62,4,2.68,7,4,15a1,1,0,0,0,2-.32C55.69,55,55.54,50.07,51,44.87ZM29,39V36.65a13.35,13.35,0,0,0,6,0V39ZM19,24a2,2,0,0,1,0-4Zm2-3.8.84-2A7,7,0,0,1,28.28,14c4.75,0,7.84.42,11.55-1.72,2.45,2.79,2.76,5.36,3.17,7.8V24a11,11,0,0,1-18.78,7.78C20.5,28.07,21,24.1,21,20.2ZM45,24V20a2,2,0,0,1,0,4ZM37,36a13,13,0,0,0,7.83-10A4,4,0,0,0,47,25.44V39H37ZM28,2c4.4,0,7.12-.37,10.45,1.83A1,1,0,0,0,39,4a8,8,0,0,1,8,8v6.56A4.07,4.07,0,0,0,44.68,18a14.18,14.18,0,0,0-4-7.71C39.48,9.06,38.51,12,33.39,12H28.28c-3.46,0-6.72,1.82-8.51,6a4.6,4.6,0,0,0-2.77.56V13A11,11,0,0,1,28,2ZM17,25.44a3.94,3.94,0,0,0,2.17.56A12.94,12.94,0,0,0,27,36v3H17ZM15,53.1V41H31V62H20.44c.71-1.21.56-2,.56-4A5,5,0,0,0,15,53.1ZM43,58c0,2-.13,2.82.56,4H33V41H49V53.1A5,5,0,0,0,43,58Z"/><path d="M34.83,29.41a1,1,0,0,0-1.42,0,2,2,0,0,1-2.82,0,1,1,0,0,0-1.42,1.42C31.86,33.51,36.32,30.91,34.83,29.41Z"/><path d="M27,21V20a1,1,0,0,0-2,0v1A1,1,0,0,0,27,21Z"/><path d="M39,21V20a1,1,0,0,0-2,0v1A1,1,0,0,0,39,21Z"/><path d="M46,44H36a1,1,0,0,0-1,1v5a1,1,0,0,0,1,1H46a1,1,0,0,0,1-1V45A1,1,0,0,0,46,44Zm-1,5H37V46h8Z"/></g></svg>