<svg xmlns="http://www.w3.org/2000/svg" viewBox="0 0 64 64"><title>Girl Graduation</title><g id="Girl_Graduation" data-name="Girl Graduation"><path d="M33.41,32.41a2,2,0,0,1-2.82,0,1,1,0,0,0-1.42,0C28,33.56,30.25,35,32,35s4-1.44,2.83-2.59A1,1,0,0,0,33.41,32.41Z"/><path d="M25,23v1a1,1,0,0,0,2,0V23A1,1,0,0,0,25,23Z"/><path d="M37,23v1a1,1,0,0,0,2,0V23A1,1,0,0,0,37,23Z"/><path d="M49,42.85C49,42,49,21.08,49,20a1,1,0,0,0,1-1V2h3a1,1,0,0,0,0-2H11a1,1,0,0,0,0,2h7v8.65a17.25,17.25,0,0,0-3,9.74c0,24,0,21.61,0,22.46-6.49,5.59-6.63,11.68-8,20a1,1,0,0,0,2,.32c1.3-7.84,1.4-12.95,6.37-17.91A15.06,15.06,0,0,0,27.54,56.79a5,5,0,1,0,8.92,0A14.94,14.94,0,0,0,48.64,45.25C56.42,53,53.1,64.52,56.16,64A1,1,0,0,0,57,62.84C55.59,54.49,55.46,48.44,49,42.85ZM31,54.11,24.71,43h2.91a6.64,6.64,0,0,0,8.76,0h2.91L33,54.11A5,5,0,0,0,31,54.11ZM17,28.44a3.92,3.92,0,0,0,2.17.56A12.94,12.94,0,0,0,27,39v2H17ZM45,27V23a2,2,0,0,1,0,4Zm-2,0a11,11,0,0,1-22,0c0-4.57-.21-3.3.84-5.76A7,7,0,0,1,28.28,17c4.86,0,7.89.39,11.55-1.72C43,18.89,43,22.53,43,27ZM35,39.65v1.91a4.66,4.66,0,0,1-6,0c0-2.17-.05-1.93.13-1.89A13.05,13.05,0,0,0,35,39.65ZM19,23v4a2,2,0,0,1,0-4ZM37,41V39a13,13,0,0,0,7.83-10A4,4,0,0,0,47,28.44V41ZM48,15.47C45.62,7.88,46,15.4,46,2h2ZM44,2v8H20V2ZM19.51,12h24.9A22.1,22.1,0,0,1,47,21c0,1.19.26,0-2.32,0a14.18,14.18,0,0,0-4-7.71C39.48,12.06,38.51,15,33.39,15H28.28c-3.46,0-6.72,1.82-8.51,6H19c-2.31,0-2,1.57-2-.61A15.21,15.21,0,0,1,19.51,12ZM17,43h5.37c7,12.45,6.77,11.89,6.67,12A13,13,0,0,1,17,43ZM32,62c-3.93,0-4-6,0-6S35.93,62,32,62ZM43.2,51.19a12.87,12.87,0,0,1-8.32,3.74L41.59,43H47A13.12,13.12,0,0,1,43.2,51.19Z"/></g></svg>