<svg xmlns="http://www.w3.org/2000/svg" viewBox="0 0 64 64"><title>Male Teacher</title><g id="Male_Teacher" data-name="Male Teacher"><path d="M28.83,29.41a1,1,0,0,0-1.42,0,2,2,0,0,1-2.82,0,1,1,0,0,0-1.42,1.42C25.86,33.52,30.32,30.91,28.83,29.41Z"/><path d="M63,35c0-3.95-4.27-5.72-8-4.7V1a1,1,0,0,0-2,0V30c-2.28,0-5,1-5,6,0,3.79-.5,5.57,2,8.39V47a1,1,0,0,0-1,1c0,3,.07,3.34-.06,2.53A15,15,0,0,0,34,38H31V36a13,13,0,0,0,7.83-10c5.23,0,5.6-7.3.69-7.95C40.75,13.12,41,12.48,41,10.79A10.8,10.8,0,0,0,30.21,0C25.49,0,22.47-.39,18.7,2c-7.24.25-11.23,8-6.91,16.21A4,4,0,0,0,13.17,26,12.94,12.94,0,0,0,21,36v2H18A15,15,0,0,0,3.06,50.53L1,62.84a1,1,0,0,0,2,.32L5,50.86A12.94,12.94,0,0,1,17.16,40c1.53,9.23.81,8.71,4.92,6.36a4.88,4.88,0,0,0,1.49,2.71c-.94,1-.68.69-2.31,13.78a1,1,0,0,0,2,.24l1.5-12a1.27,1.27,0,0,1,2.52,0l1.5,12a1,1,0,0,0,2-.24c-1.63-13.07-1.38-12.75-2.31-13.78a4.93,4.93,0,0,0,1.49-2.71c2.33,1.34,2.42,1.44,2.78,1.44a1,1,0,0,0,.84-.46c.17-.27,0,.32,1.3-7.34A12.94,12.94,0,0,1,47,50.86C49,63,48.83,64,50,64a1,1,0,0,0,.75-.36c.36-.43.25.4.25-14.64h8V63a1,1,0,0,0,2,0V48a1,1,0,0,0-1-1V44.5C63.52,41.66,63,39.15,63,35ZM32,45.25l-4.32-2.47L30.41,40h2.41Zm-4.35-27a4.52,4.52,0,0,0-3.2,0A4.48,4.48,0,0,0,16.76,18H15.32a16.17,16.17,0,0,1,3.62-7.47A7.69,7.69,0,0,0,24.61,13h9.7l1.87,5h-.94A4.48,4.48,0,0,0,27.6,18.29ZM31.5,18A2.5,2.5,0,1,1,29,20.5,2.5,2.5,0,0,1,31.5,18Zm-11,0A2.5,2.5,0,1,1,18,20.5,2.5,2.5,0,0,1,20.5,18ZM41,22a2,2,0,0,1-2,2c0-4.31,0-3.83,0-4A2,2,0,0,1,41,22ZM19,4c.63,0,2.64-2,6.61-2h4.6A8.81,8.81,0,0,1,39,10.79c0,1.52-.33,2.4-1.19,5.85C35.83,11.37,35.92,11,35,11H24.61a5.75,5.75,0,0,1-4.78-2.55,1,1,0,0,0-1.54-.16,18.14,18.14,0,0,0-4.83,8.8A13.4,13.4,0,0,1,12,11,7,7,0,0,1,19,4ZM12.84,20c.22.36.16-.3.16,4A2,2,0,0,1,12.84,20ZM15,24c0-3.3,0-3.89,0-4,1.35,0,1-.15,1,.5a4.5,4.5,0,0,0,9,0c0-.21-.05-.18,0-.28a2.5,2.5,0,0,1,2,0c0,.1,0,.07,0,.28a4.5,4.5,0,0,0,9,0c0-.65-.36-.5.93-.5.1.26.07-.36.07,4a11,11,0,0,1-22,0ZM29,36.65v1.94l-3,3-3-3V36.65A13.34,13.34,0,0,0,29,36.65ZM21.59,40l2.78,2.78-4.32,2.47L19.18,40Zm6.09,6.79a1.77,1.77,0,0,1-3.36,0l-.47-1.41L26,44.15l2.15,1.23Zm30.77-3.62c-.59.39-.45.7-.45,3.83H52c0-3.26.09-3.32-.29-3.71A5.79,5.79,0,0,1,50,40c0-4.24-.58-7.81,2.66-8-.86,1.65-.66,3.43-.66,6,0,3.12,4,3.86,4,2a1,1,0,0,0-1-1,.91.91,0,0,1-1-1c0-2.47-.15-4,.49-5.14a1.07,1.07,0,0,0,.39-.4C57.07,31.41,61,32.14,61,35v4C61,41.42,58.47,43.15,58.45,43.17Z"/></g></svg>