<svg xmlns="http://www.w3.org/2000/svg" viewBox="0 0 64 64"><title>Online LEarning</title><g id="Online_LEarning" data-name="Online LEarning"><path d="M57,6H56V5a1,1,0,0,0-1-1H52V1a1,1,0,0,0-1-1C42,0,37.12-.86,32,3.65,26.85-.88,22,0,13,0a1,1,0,0,0-1,1V4H9A1,1,0,0,0,8,5V6H7a5,5,0,0,0-5,5V47a5,5,0,0,0,5,5H24.92l-.62,7.92A2.31,2.31,0,0,1,22,62H20a1,1,0,0,0,0,2H44a1,1,0,0,0,0-2H42a2.3,2.3,0,0,1-2.3-2.07L39.08,52H57a5,5,0,0,0,5-5V11A5,5,0,0,0,57,6ZM54,6V36H34.84c3.95-2.54,6.81-2,16.16-2a1,1,0,0,0,1-1V6ZM50,2V32c-8.16,0-12.26-.66-17,2.83V5.42A12.56,12.56,0,0,1,41.66,2ZM14,2c7.83,0,12.48-.82,17,3.42V34.83C26.16,31.27,21.91,32,14,32ZM10,6h2V33a1,1,0,0,0,1,1c9.28,0,12.21-.54,16.16,2H10ZM7,8H8V37a1,1,0,0,0,1,1H55a1,1,0,0,0,1-1V8h1a3,3,0,0,1,3,3V42H4V11A3,3,0,0,1,7,8ZM38.35,62H25.64c.77-1.21.61-1.38,1.29-10H37.08C37.68,59.84,37.52,60.69,38.35,62ZM60,47a3,3,0,0,1-3,3H7a3,3,0,0,1-3-3V44H60Z"/><path d="M31,48h2a1,1,0,0,0,0-2H31A1,1,0,0,0,31,48Z"/><path d="M18,8h9a1,1,0,0,0,0-2H18A1,1,0,0,0,18,8Z"/><path d="M18,13h9a1,1,0,0,0,0-2H18A1,1,0,0,0,18,13Z"/><path d="M18,18h9a1,1,0,0,0,0-2H18A1,1,0,0,0,18,18Z"/><path d="M18,23h9a1,1,0,0,0,0-2H18A1,1,0,0,0,18,23Z"/><path d="M18,28h9a1,1,0,0,0,0-2H18A1,1,0,0,0,18,28Z"/><path d="M37,8h9a1,1,0,0,0,0-2H37A1,1,0,0,0,37,8Z"/><path d="M37,13h9a1,1,0,0,0,0-2H37A1,1,0,0,0,37,13Z"/><path d="M37,18h9a1,1,0,0,0,0-2H37A1,1,0,0,0,37,18Z"/><path d="M37,23h9a1,1,0,0,0,0-2H37A1,1,0,0,0,37,23Z"/><path d="M37,28h9a1,1,0,0,0,0-2H37A1,1,0,0,0,37,28Z"/></g></svg>