<svg xmlns="http://www.w3.org/2000/svg" viewBox="0 0 64 64"><title>Presentation</title><g id="Presentation"><path d="M63,8a1,1,0,0,0,1-1V1a1,1,0,0,0-1-1H1A1,1,0,0,0,0,1V7A1,1,0,0,0,1,8H2V50H1a1,1,0,0,0,0,2H31v6.18a3,3,0,1,0,2,0V52H63a1,1,0,0,0,0-2H62V8ZM32,62a1,1,0,0,1,0-2A1,1,0,0,1,32,62ZM2,2H62V6H2ZM60,50H4V8H60Z"/><path d="M19,27.52v9c0,3.15,6.12,7.14,13,7.14s13-4,13-7.14v-9l2-.86V39.12a2.6,2.6,0,0,0-1.54,2C44.73,45.58,44.21,45,50,45a1,1,0,0,0,1-1.16c-.4-2.45-.34-4-2-4.72V25.8l4.39-1.88a1,1,0,0,0,0-1.84c-22.92-9.82-21.22-9.24-21.78-9C9,22.77,10,22.06,10,23S9.9,23.62,19,27.52ZM47.18,43c.24-1.48.19-1.87.6-2a.56.56,0,0,0,.44,0c.38.16.34.4.6,2ZM43,36.5c0,1.49-4.76,5.14-11,5.14S21,38,21,36.5V28.37c11.5,4.93,10.84,4.79,11.39,4.55L43,28.37ZM32,15.09,50.46,23l-2.35,1-16-2.14a1,1,0,0,0-.26,2l12.65,1.69L32,30.91,13.54,23Z"/></g></svg>