<svg xmlns="http://www.w3.org/2000/svg" viewBox="0 0 64 64"><title>School Bus</title><g id="School_Bus" data-name="School Bus"><path d="M12,38a4,4,0,1,0,4,4A4,4,0,0,0,12,38Zm0,6a2,2,0,1,1,2-2A2,2,0,0,1,12,44Z"/><path d="M48,42a4,4,0,1,0,4-4A4,4,0,0,0,48,42Zm6,0a2,2,0,1,1-2-2A2,2,0,0,1,54,42Z"/><path d="M37,4H27a1,1,0,0,0-1,1V9a1,1,0,0,0,1,1H37a1,1,0,0,0,1-1V5A1,1,0,0,0,37,4ZM36,8H28V6h8Z"/><path d="M62,16.18V15a3,3,0,0,0-3-3H55.93C55.21,4.47,46.4,0,32,0S8.79,4.47,8.07,12H5a3,3,0,0,0-3,3v1.18A3,3,0,0,0,0,19v4a3,3,0,0,0,6,0V19a3,3,0,0,0-2-2.82V15a1,1,0,0,1,1-1H8V31.64C3.2,36.26,4,41.07,4,48a1,1,0,0,0-1,1v6a1,1,0,0,0,1,1H5v5a3,3,0,0,0,3,3h4a3,3,0,0,0,3-3V56H49v5a3,3,0,0,0,3,3h4a3,3,0,0,0,3-3V56h1a1,1,0,0,0,1-1V49a1,1,0,0,0-1-1c0-6.92.8-11.74-4-16.36V14h3a1,1,0,0,1,1,1v1.18A3,3,0,0,0,58,19v4a3,3,0,0,0,6,0V19A3,3,0,0,0,62,16.18ZM4,23a1,1,0,0,1-2,0V19a1,1,0,0,1,2,0Zm9,38a1,1,0,0,1-1,1H8a1,1,0,0,1-1-1V56h6Zm44,0a1,1,0,0,1-1,1H52a1,1,0,0,1-1-1V56h6Zm2-7H5V50H59ZM37,38v2H27V38Zm7,0v2H39V38ZM27,48V46H37v2Zm-7-6h5v2H20Zm7,0H37v2H27Zm17,2H39V42h5Zm-5,2h5v2H39ZM25,40H20V38h5Zm-5,6h5v2H20Zm38-5v7H46V37a1,1,0,0,0-1-1H19a1,1,0,0,0-1,1V48H6V41A11,11,0,0,1,17,30H47A11,11,0,0,1,58,41ZM14,28V14H31V28ZM50,14V28H33V14Zm2,15V13a1,1,0,0,0-1-1H13a1,1,0,0,0-1,1V29a16.84,16.84,0,0,0-2,1.06V13C10,4.89,21.36,2,32,2S54,4.89,54,13V30.06A14.12,14.12,0,0,0,52,29Zm10-6a1,1,0,0,1-2,0V19a1,1,0,0,1,2,0Z"/><circle cx="43" cy="7" r="2"/><circle cx="21" cy="7" r="2"/></g></svg>