<svg xmlns="http://www.w3.org/2000/svg" viewBox="0 0 64 64"><title>Square root</title><g id="Square_root" data-name="Square root"><path d="M63,40H62V1a1,1,0,0,0-1-1H3A1,1,0,0,0,2,1V40H1a1,1,0,0,0-1,1v6a1,1,0,0,0,1,1h9.47L4.08,62.6A1,1,0,0,0,5,64c5.26,0,5.57.2,5.92-.6l2.8-6.4H50.28c3,6.83,2.84,7,3.72,7,5.33,0,5.44.15,5.84-.45s.58.2-6.31-15.55H63a1,1,0,0,0,1-1V41A1,1,0,0,0,63,40ZM4,2H60V40H58V5a1,1,0,0,0-1-1H7A1,1,0,0,0,6,5V40H4ZM51,40H41V37a1,1,0,0,1,1-1h8a1,1,0,0,1,1,1Zm-1-6H42a3,3,0,0,0-3,3v3H8V6H56V40H53V37A3,3,0,0,0,50,34ZM9.35,62H6.53l6.12-14h2.82C-2.7,89.55,27.65,20.15,9.35,62Zm37-14,1.31,3H16.34l1.31-3ZM14.59,55l.88-2H48.53l.88,2Zm42.88,7H54.65C38.52,25.13,65.39,86.53,48.53,48h2.82ZM62,46H2V42H62Z"/><path d="M49,13H23a1,1,0,0,0-1,.79L19.79,24.21C18.52,20.39,19.34,21,15,21a1,1,0,0,0,0,2h2.28l1.77,5.32A1,1,0,0,0,21,28.21L23.81,15H49A1,1,0,0,0,49,13Z"/><path d="M32.14,17.49,30,21.06l-2.14-3.57a1,1,0,0,0-1.72,1L28.83,23l-2.69,4.49a1,1,0,0,0,1.72,1L30,24.94l2.14,3.57a1,1,0,0,0,1.72-1L31.17,23l2.69-4.49A1,1,0,0,0,32.14,17.49Z"/><path d="M40,22H39V21a1,1,0,0,0-2,0v1H36a1,1,0,0,0,0,2h1v1a1,1,0,0,0,2,0V24h1A1,1,0,0,0,40,22Z"/><path d="M48.14,17.49,46,21.06l-2.14-3.57a1,1,0,0,0-1.72,1L45,23.28V28a1,1,0,0,0,2,0V23.28l2.86-4.77A1,1,0,0,0,48.14,17.49Z"/></g></svg>