<svg xmlns="http://www.w3.org/2000/svg" viewBox="0 0 64 64"><title>Study lamp</title><g id="Study_lamp" data-name="Study lamp"><path d="M61,13.93c0-.64.25-.24-9-7.21A11.63,11.63,0,0,0,41.4,5L38,1.53a5.24,5.24,0,0,0-8,6.66C24.5,12.27,11,24.53,11,45v6H10a1,1,0,0,0-1,1v4H8a5,5,0,0,0-5,5v2a1,1,0,0,0,1,1H38a1,1,0,0,0,1-1V61a5,5,0,0,0-5-5H19V52a1,1,0,0,0-1-1H17V45c0-18,12.58-29,16.89-32.27A11.62,11.62,0,0,0,35.72,23c7,9.29,6.56,9,7.21,9.05s.44,0,4.49-4A7,7,0,0,0,57,18.42C61.05,14.37,61,14.54,61,13.93ZM36.53,3l2.89,2.88a11.39,11.39,0,0,0-4.59,4.59C32,7.6,31,7,31,5.24A3.26,3.26,0,0,1,36.53,3ZM37,61v1H5V61a3,3,0,0,1,3-3H34A3,3,0,0,1,37,61ZM11,56V53h6v3Zm4-11v6H13V45C13,25.23,26.19,13.46,31.26,9.67l1.45,1.45C28.19,14.52,15,26.05,15,45ZM48.9,26.52l6.62-6.62A5,5,0,0,1,48.9,26.52Zm-5.79,3-5.79-7.73A9.59,9.59,0,0,1,50.75,8.32l7.73,5.79Z"/></g></svg>