<svg xmlns="http://www.w3.org/2000/svg" viewBox="0 0 64 64"><title>Student Question</title><g id="Student_Question" data-name="Student Question"><path d="M39,36H27V32h3a5,5,0,0,0,5-5V15a3,3,0,0,0-6,0V25H24.2c2.07-2.16,1.8-4.4,1.8-6.54a6.5,6.5,0,0,0-13,0c0,2.36-.24,4.55,1.94,6.69a12.26,12.26,0,0,0-9.17,6.71A4.21,4.21,0,0,0,6,35.93c.07.1.62.07-5,.07a1,1,0,0,0,0,2H2V63a1,1,0,0,0,2,0V53h8v8a3,3,0,0,0,6,0V53h3v8a3,3,0,0,0,6,0V53h9V63a1,1,0,0,0,2,0V38h1A1,1,0,0,0,39,36ZM15,18.46a4.5,4.5,0,0,1,9,0v2.08a4.5,4.5,0,0,1-9,0ZM13.45,31.57H11a1,1,0,0,0,0,2h2.45A3.49,3.49,0,0,1,16.8,36c-1,0-3.06,0-7.1,0a2.29,2.29,0,0,1-2.13-3.25A10.29,10.29,0,0,1,16.82,27H30a1,1,0,0,0,1-1V15a1,1,0,0,1,2,0V27a3,3,0,0,1-3,3c-4.34,0-4.32-.1-4.71.29S25,30.52,25,36H18.85A5.47,5.47,0,0,0,13.45,31.57ZM16,61a1,1,0,0,1-2,0V53h2Zm9,0a1,1,0,0,1-2,0V53h2ZM36,51H4V38H36Z"/><path d="M51,0a13,13,0,0,0-9.87,21.46c-3,3-3.39,3.11-3.05,3.92S38.31,26,51,26A13,13,0,0,0,51,0Zm0,24H41.41l1.81-1.81a1,1,0,0,0,0-1.41A11,11,0,1,1,51,24Z"/><path d="M52.17,4.13A5,5,0,0,0,46,9a1,1,0,0,0,2,0,3,3,0,1,1,4.59,2.55C50,13.16,49.11,17,51,17a1,1,0,0,0,1-1,3.32,3.32,0,0,1,1.65-2.76A5,5,0,0,0,52.17,4.13Z"/><path d="M51,18a1,1,0,0,0,0,2A1,1,0,0,0,51,18Z"/></g></svg>