<svg xmlns="http://www.w3.org/2000/svg" viewBox="0 0 64 64"><title>Teacher Desk</title><g id="Teacher_Desk" data-name="Teacher Desk"><path d="M63,21c-.43,0,0,.1,0-1a3,3,0,0,0-2-2.82V14a1,1,0,0,0-1-1H50a3,3,0,0,0-2.82,4H46a1,1,0,0,0-1,1v3H43V9a6,6,0,0,0-6-6H27a6,6,0,0,0-6,6V21H16V14a1,1,0,0,0-1-1H14V8a1,1,0,0,0-2,0v5H10V11a1,1,0,0,0-2,0v2H7a1,1,0,0,0-1,1v7H1a1,1,0,0,0-1,1v4a1,1,0,0,0,1,1H3V60a1,1,0,0,0,1,1H8a1,1,0,0,0,1-1V53H21v7a1,1,0,0,0,2,0V53H41v7a1,1,0,0,0,2,0V53H55v7a1,1,0,0,0,1,1h4a1,1,0,0,0,1-1V27h2a1,1,0,0,0,1-1V22A1,1,0,0,0,63,21ZM50,15h9v2H50A1,1,0,0,1,50,15Zm-3,4H60a1,1,0,0,1,0,2H47ZM23,9a4,4,0,0,1,4-4H37a4,4,0,0,1,4,4V21H23ZM8,15h6v6H8ZM7,59H5V53H7Zm52,0H57V53h2Zm0-8H5V27H59Zm3-26H2V23H62Z"/><path d="M9,45a3,3,0,0,1,3,3,1,1,0,0,0,1,1H51a1,1,0,0,0,1-1,3,3,0,0,1,3-3,1,1,0,0,0,1-1V34a1,1,0,0,0-1-1,3,3,0,0,1-3-3,1,1,0,0,0-1-1H13a1,1,0,0,0-1,1,3,3,0,0,1-3,3,1,1,0,0,0-1,1V44A1,1,0,0,0,9,45Zm1-10.1A5,5,0,0,0,13.9,31H50.1A5,5,0,0,0,54,34.9v8.2A5,5,0,0,0,50.1,47H13.9A5,5,0,0,0,10,43.1Z"/><path d="M37,11H27a1,1,0,0,0,0,2H37A1,1,0,0,0,37,11Z"/><path d="M37,17H27a1,1,0,0,0,0,2H37A1,1,0,0,0,37,17Z"/></g></svg>