<svg xmlns="http://www.w3.org/2000/svg" viewBox="0 0 128 128"><defs><style>.cls-1{fill:#47566a;}</style></defs><title>About</title><g id="About"><path class="cls-1" d="M34,71A30,30,0,1,0,64,41,30.06,30.06,0,0,0,34,71Zm58,0A28,28,0,1,1,64,43,28,28,0,0,1,92,71Z"/><path class="cls-1" d="M65,61a1,1,0,0,0-1-1H62a1,1,0,0,0,0,2h1V84H61a1,1,0,0,0,0,2h6a1,1,0,0,0,0-2H65Z"/><path class="cls-1" d="M62,56.5a1.52,1.52,0,0,0,3,0A1.52,1.52,0,0,0,62,56.5Zm2,0a.52.52,0,0,1-1,0A.52.52,0,0,1,64,56.5Z"/><path class="cls-1" d="M127.45,63.91c.8-.39.57.05.57-14.91,0-.77,4,2.52-63.4-48.81-1-.74,2.66-3-64.24,48C-.19,48.62,0,47.92,0,63a1,1,0,0,0,1.64.81L14,54.39V114H1a1,1,0,0,0-1,1v12a1,1,0,0,0,1,1H127a1,1,0,0,0,1-1V115a1,1,0,0,0-1-1H114V54.39C127.23,64.46,126.64,64.32,127.45,63.91ZM2,49.51,64,2.28l62,47.23V60.94L64.62,14.19a1,1,0,0,0-1.24,0L2,60.94ZM126,126H2V116H126Zm-14-12H16V52.84L64,16.28l48,36.56Z"/></g></svg>