<svg xmlns="http://www.w3.org/2000/svg" viewBox="0 0 128 128"><defs><style>.cls-1{fill:#47566a;}</style></defs><title>Bad Gateway</title><g id="Bad_Gateway" data-name="Bad Gateway"><path class="cls-1" d="M40.59,95.44,33,126.76a1,1,0,0,0,2,.48l7.58-31.32A1,1,0,0,0,40.59,95.44Z"/><path class="cls-1" d="M47.26,67.89,42.68,86.78a1,1,0,1,0,2,.46l4.57-18.87A1,1,0,0,0,47.26,67.89Z"/><path class="cls-1" d="M80.74,67.89a1,1,0,0,0-2,.48L88,106.47a1,1,0,0,0,2-.48Z"/><path class="cls-1" d="M93,118.59a1,1,0,0,0-2,.48l2,8.17a1,1,0,0,0,2-.48Z"/><path class="cls-1" d="M56.89,87.12l1.46-15a1,1,0,0,0-2-.2c-1.94,20-1.46,14-1.46,15.13A1,1,0,0,0,56.89,87.12Z"/><path class="cls-1" d="M73.15,86.9l-1.07-11a1,1,0,0,0-2,.2l1.07,11A1,1,0,0,0,73.15,86.9Z"/><path class="cls-1" d="M87.93,18.49A27.16,27.16,0,0,0,72,5.2a1,1,0,0,0-.6,1.94A25.18,25.18,0,0,1,86.13,19.43,1,1,0,0,0,87.93,18.49Z"/><path class="cls-1" d="M115,47.24a21.67,21.67,0,0,0-14-8.92v-1a7.35,7.35,0,0,0-6-7.22,31,31,0,0,0-62,0,7.35,7.35,0,0,0-6,7.22v1a21.67,21.67,0,0,0-14,8.92A5.59,5.59,0,0,0,17.56,56h16c2,1.88,13.82,12,30.4,12S92.36,57.9,94.4,56h16A5.59,5.59,0,0,0,115,47.24ZM64,2A29,29,0,0,1,93,30H35A29,29,0,0,1,64,2ZM29,38v-.66a5.31,5.31,0,0,1,5.3-5.3H93.68a5.31,5.31,0,0,1,5.3,5.3V38Zm7.76,18H91.22C74.57,69.11,53.85,69.41,36.78,56Zm73.66-2H17.56a3.55,3.55,0,0,1-2.9-5.57A19.69,19.69,0,0,1,30.77,40H97.23a19.69,19.69,0,0,1,16.11,8.39A3.54,3.54,0,0,1,110.44,54Z"/><path class="cls-1" d="M64,120a4,4,0,1,0,4,4A4,4,0,0,0,64,120Zm0,6a2,2,0,1,1,2-2A2,2,0,0,1,64,126Z"/><path class="cls-1" d="M45.6,105.6A1,1,0,0,0,47,107,24,24,0,0,1,81,107a1,1,0,0,0,1.44-1.44A26.06,26.06,0,0,0,45.6,105.6Z"/><path class="cls-1" d="M56.21,116.21a1,1,0,0,0,1.44,1.44,9,9,0,0,1,12.7,0,1,1,0,0,0,1.44-1.44A11,11,0,0,0,56.21,116.21Z"/><path class="cls-1" d="M51.26,111.26a1,1,0,0,0,1.44,1.44,16,16,0,0,1,22.6,0,1,1,0,0,0,1.44-1.44A18,18,0,0,0,51.26,111.26Z"/></g></svg>