<svg xmlns="http://www.w3.org/2000/svg" viewBox="0 0 128 128"><defs><style>.cls-1{fill:#47566a;}</style></defs><title>Downloading</title><g id="Downloading"><path class="cls-1" d="M99.78,62a14.27,14.27,0,0,0,0-28.53H98.53a14.27,14.27,0,0,0-18.06-18A26.68,26.68,0,0,0,29.55,25.87,18.17,18.17,0,0,0,32.11,62H56v4c-6.34,0-6.57-.21-6.92.63s0,.86,4.48,5.37H35a1,1,0,0,0-1,1v9H27a1,1,0,0,0-1,1v40a5,5,0,0,0,5,5H97a5,5,0,0,0,5-5V73a1,1,0,0,0-1-1H74.46C79,67.46,79,67.6,79,67A1,1,0,0,0,78,66H72V62ZM32.11,60A16.12,16.12,0,0,1,30.65,27.8a1.09,1.09,0,0,0,.93-1.09A24.64,24.64,0,0,1,79,17.22a1,1,0,0,0,.55.55c.92.38,1.8-.94,5.47-.94A12.23,12.23,0,0,1,96.11,34.09,1,1,0,0,0,97,35.53h2.74a12.23,12.23,0,0,1,0,24.45H72V41a1,1,0,0,0-1-1H57a1,1,0,0,0-1,1V60ZM31,126a3,3,0,0,1-3-3V84H44.45l3.7,5.55c.47.7-1.66.45,43.83.45,0,35.31-.33,33.84.76,35.6C93.06,126.14,99.82,126,31,126Zm69-52v49a3,3,0,0,1-5.9.58C94,123.15,94,125.36,94,89a1,1,0,0,0-1-1H49.55c-4-6-3.81-6-4.55-6H36V74H55.58l7.7,7.7a1,1,0,0,0,1.44,0l7.7-7.7ZM75.54,68,64,79.56,52.46,68H57a1,1,0,0,0,1-1V42H70V67a1,1,0,0,0,1,1Z"/></g></svg>