<svg xmlns="http://www.w3.org/2000/svg" viewBox="0 0 128 128"><defs><style>.cls-1{fill:#47566a;}</style></defs><title>Error 502</title><g id="Error_502" data-name="Error 502"><path class="cls-1" d="M125,96h-6V23a5,5,0,0,0-5-5H14a5,5,0,0,0-5,5V96H3a3,3,0,0,0-3,3c0,5.07-.32,6.21,1,7.36a14.66,14.66,0,0,0,9.7,3.66H117.34a14.66,14.66,0,0,0,9.7-3.66c1.3-1.14,1-2.3,1-7.36A3,3,0,0,0,125,96ZM11,23a3,3,0,0,1,3-3H114a3,3,0,0,1,3,3V96H11ZM76.49,98l-1.18,3H52.69l-1.18-3Zm49.2,6.81a12.63,12.63,0,0,1-8.35,3.15c-116,0-108.2.41-111.52-1a12.63,12.63,0,0,1-3.51-2.19C1.92,104.48,2,104.6,2,99a1,1,0,0,1,1-1H49.31c1.82,4.55,1.78,5,2.69,5,25.91,0,24.58.28,25-.64L78.69,98H125a1,1,0,0,1,1,1C126,104.41,126.08,104.48,125.69,104.83Z"/><path class="cls-1" d="M112,90V26a1,1,0,0,0-1-1H17a1,1,0,0,0-1,1V90a1,1,0,0,0,1,1h94A1,1,0,0,0,112,90Zm-2-1H18V27h92Z"/><path class="cls-1" d="M34.72,54.72,40,49.44l5.28,5.28a1,1,0,0,0,1.44-1.44L41.44,48l5.28-5.28a1,1,0,0,0-1.44-1.44L40,46.56l-5.28-5.28a1,1,0,0,0-1.44,1.44L38.56,48l-5.28,5.28A1,1,0,0,0,34.72,54.72Z"/><path class="cls-1" d="M82.72,54.72,88,49.44l5.28,5.28a1,1,0,0,0,1.44-1.44L89.44,48l5.28-5.28a1,1,0,0,0-1.44-1.44L88,46.56l-5.28-5.28a1,1,0,0,0-1.44,1.44L86.56,48l-5.28,5.28A1,1,0,0,0,82.72,54.72Z"/><path class="cls-1" d="M48,72H80a1,1,0,0,0,0-2H48A1,1,0,0,0,48,72Z"/></g></svg>