<svg xmlns="http://www.w3.org/2000/svg" viewBox="0 0 128 128"><defs><style>.cls-1{fill:#47566a;}</style></defs><title>FAQ</title><g id="FAQ"><path class="cls-1" d="M26.5,40h-10a1,1,0,0,0-1,1V61a1,1,0,0,0,2,0V52H24a1,1,0,0,0,0-2H17.52V42h9A1,1,0,0,0,26.5,40Z"/><path class="cls-1" d="M38.48,40.71a1,1,0,0,0-2,0l-6,20a1,1,0,0,0,2,.58l1.7-5.68h6.64l1.7,5.68a1,1,0,0,0,2-.58ZM34.8,53.57l2.7-9,2.7,9Z"/><path class="cls-1" d="M60.66,60.64l1.13,1.09a1,1,0,0,0,1.42-1.46l-1.1-1.07C64,56.7,63.52,54.73,63.52,47a7,7,0,0,0-14,0v8A7,7,0,0,0,60.66,60.64ZM51.52,47a5,5,0,0,1,10,0c0,8.41.27,9.11-.84,10.77l-3.17-3.08a1,1,0,0,0-1.42,1.46l3.12,3A5,5,0,0,1,51.52,55Z"/><path class="cls-1" d="M103.8,50.15A9,9,0,0,0,93,59a1,1,0,0,0,2,0,7,7,0,0,1,8.39-6.84C110,53.43,111,62.47,105,65.32a7,7,0,0,0-4,6.32V75a1,1,0,0,0,2,0V71.64a5,5,0,0,1,2.83-4.48C113.66,63.47,112.29,51.8,103.8,50.15Z"/><path class="cls-1" d="M102,78a2,2,0,1,0,2,2A2,2,0,0,0,102,78Zm0,2a0,0,0,0,1,0,0C100.65,80,100.67,80,102,80Z"/><path class="cls-1" d="M119,31H79V25a9,9,0,0,0-9-9H9a9,9,0,0,0-9,9V77a9,9,0,0,0,9,9h8c0,10.59-.2,10.46.52,10.87s-.42.87,18.79-10.87H49v6a9,9,0,0,0,9,9H91.71c19.22,11.74,18.05,11.29,18.79,10.87S111,112,111,101h8a9,9,0,0,0,9-9V40A9,9,0,0,0,119,31ZM36,84c-.42,0,.91-.73-17,10.2V85a1,1,0,0,0-1-1H9a7,7,0,0,1-7-7V25a7,7,0,0,1,7-7H70a7,7,0,0,1,7,7V77a7,7,0,0,1-7,7Zm90,8a7,7,0,0,1-7,7h-9a1,1,0,0,0-1,1v9.18C91,98.18,92.41,99,92,99H58a7,7,0,0,1-7-7V86H70a9,9,0,0,0,9-9V33h40a7,7,0,0,1,7,7Z"/></g></svg>