<svg xmlns="http://www.w3.org/2000/svg" viewBox="0 0 128 128"><defs><style>.cls-1{fill:#47566a;}</style></defs><title>Notification</title><g id="Notification"><path class="cls-1" d="M36,60H49.07a6,6,0,1,0,11.86,0H74a4,4,0,0,0,.64-8C71.51,46.53,72,42.39,72,35.45a17.35,17.35,0,0,0-12.7-16.9,5,5,0,1,0-8.65,0,17,17,0,0,0-7.42,4.15C33.53,32,41.54,41.14,35.36,52A4,4,0,0,0,36,60Zm19,5a4,4,0,0,1-3.85-5h7.7A4,4,0,0,1,55,65Zm0-52a3,3,0,0,1,2.06,5.1,14.87,14.87,0,0,0-4.12,0A3,3,0,0,1,55,13ZM44.66,24.16C54.17,15.09,70,21.8,70,35.45c0,6.81-.46,11,2.3,16.53H37.72C43.15,41,36.08,32.35,44.66,24.16ZM36,54H74a2,2,0,1,1,0,4H36a2,2,0,0,1,0-4Z"/><path class="cls-1" d="M128,86a23.05,23.05,0,0,0-18-22.46c0-20,.08-18.71-.2-19.11s1.43,1.28-15.8-14.87V1a1,1,0,0,0-1-1H17a1,1,0,0,0-1,1V29.56C-5.5,49.7,1.71,42.79.27,44.3c-.46.47-.29-1-.29,82.7a1,1,0,0,0,1,1H109a1,1,0,0,0,1-1V108.46A23.05,23.05,0,0,0,128,86ZM107.5,45,94,57.48V32.36ZM92,2V59.37L65.21,84.16a15,15,0,0,1-20.42,0L18,59.37V2ZM2,47.34C4.83,49.93,42.62,85,43.85,86L2,125.07Zm43.47,40a16.89,16.89,0,0,0,19,0L106,126H4ZM16,57.48,2.5,45,16,32.36Zm92,67.59L66.15,86C68.75,83.76,58,93.61,108,47.34V63.18a23,23,0,1,0,0,45.64ZM105,107a21,21,0,1,1,21-21A21,21,0,0,1,105,107Z"/><path class="cls-1" d="M116.28,77.28,101,92.56l-7.28-7.28a1,1,0,0,0-1.44,1.44c8.63,8.63,8.12,8.3,8.72,8.3s-.8,1.22,16.72-16.3A1,1,0,0,0,116.28,77.28Z"/></g></svg>