<svg xmlns="http://www.w3.org/2000/svg" viewBox="0 0 128 128"><defs><style>.cls-1{fill:#47566a;}</style></defs><title>Page Under Construction</title><g id="Page_Under_Construction" data-name="Page Under Construction"><path class="cls-1" d="M127.81,107.75A15.41,15.41,0,0,0,112,95a9.8,9.8,0,0,1-7.19-2.86l-32.3-32.3L107.24,25c6-1,8.11-4.19,16-12.07a1,1,0,0,0,0-1.44l-9-9a1,1,0,0,0-1.44,0c-7.88,7.88-11.07,10-12.08,16L66,53.26,43.12,30.43c-7-7-3.9-12.58-7-17.81C30.38,3.13,22.76,3.13,17.2,3.13S6.07,6.75,5.83,6.9a1,1,0,0,0,.06,1.74L18,15.54V21.6l-4.42,2.95-12-6.89A1,1,0,0,0,0,18.55C0,27,3.07,33.16,9.43,37.4c5.61,3.74,20.19.41,22.24,2.46L55.51,63.7l-4,4-3.93-3.93a1,1,0,0,0-1.44,0l-4.5,4.5c-.74.73.31,3.29-2.51,6.11l-.55.54A7.53,7.53,0,0,1,31.8,77c-.82-.16,1.33-2-30.25,29.6a5.38,5.38,0,0,0,0,7.59L11.61,124.2a5.37,5.37,0,0,0,7.58,0C51.11,92.29,49,94.72,48.8,94c-1-5.13,3.49-9.58,8-9.58.59,0,.44,0,5.22-4.8a1,1,0,0,0,0-1.44l-3.93-3.94,3.95-4,32.3,32.3a9.74,9.74,0,0,1,2.86,7.18,15.42,15.42,0,1,0,30.61-2ZM33.11,38.42c-3.08-3.09-17.42.7-22.54-2.72-5.38-3.58-8.11-8.49-8.5-15.36l11,6.29c.74.43.65.25,6.48-3.63.65-.44.45-.47.45-8,0-.83.25-.45-11.58-7.21A19.92,19.92,0,0,1,17.2,5.17c5.36,0,12,0,17.13,8.51,2.74,4.56-.11,10.73,7.35,18.19L64.51,54.7,57,62.26ZM56.37,82.33c-5.33.21-10.52,5.36-9.66,11.47l-29,29a3.32,3.32,0,0,1-4.7,0C2.56,112.26,2,112.23,2,110.35S.6,110.4,32,79a10.4,10.4,0,0,0,11.46-9.66l3.49-3.49,13,13ZM53,69.1c52.57-52.57,49.59-49.41,49.67-49.95a12.72,12.72,0,0,1,3.61-7.23l7.22-7.23,7.56,7.56-7.23,7.22c-3.53,3.54-7.28,3.38-7.8,3.9L56.65,72.75Zm69.06,50.71c-8.61,8.61-23.41,2.11-22.82-10a11.81,11.81,0,0,0-3.45-8.72l-32.3-32.3L71,61.24l32.3,32.3A11.84,11.84,0,0,0,112.07,97C124,96.37,130.74,111.14,122.06,119.81Z"/><path class="cls-1" d="M117.64,102.64c-.4-.7-.13-.51-9.2-.51-.8,0-.5-.15-5,7.71-.4.69-.38.36,4.16,8.22.4.69.09.51,9.19.51.81,0,.51.14,5-7.71C122.2,110.16,122.17,110.5,117.64,102.64Zm-1.47,13.89H109l-3.57-6.18,3.57-6.18h7.14l3.56,6.18Z"/></g></svg>