<svg xmlns="http://www.w3.org/2000/svg" viewBox="0 0 128 128"><defs><style>.cls-1{fill:#47566a;}</style></defs><title>Paper plane Message</title><g id="Paper_plane_Message" data-name="Paper plane Message"><path class="cls-1" d="M128,5.9A1,1,0,0,0,126.93,5c-.37,0,5.5-3-126.41,67.11A1,1,0,0,0,.67,74L40.15,87.24c6.65,19.62,12,35.31,12,35.2a1,1,0,0,0,.9.58c.65,0-.61,1,24-23.39,36.32,12.22,33.92,11.62,34.54,11.24S128,6,128,5.9Zm-7.34,4.62-80,74.76L3.57,72.79Zm-2.24,4.89C56.22,95.82,59,92.17,58.88,92.52s.43-1.9-6.06,25.77L42.13,86.74ZM54.81,118.77l5.78-24.66,14.24,4.8Zm55.37-10.12L61.54,92.28,125.39,9.75Z"/></g></svg>