<svg xmlns="http://www.w3.org/2000/svg" viewBox="0 0 128 128"><defs><style>.cls-1{fill:#47566a;}</style></defs><title>Privacy</title><g id="Privacy"><path class="cls-1" d="M114,14A95.81,95.81,0,0,1,64.52.12C64.41.06,64-.2,63.29.23A95.78,95.78,0,0,1,14,14a1,1,0,0,0-1,1V58.67c0,32.44,20.87,61,50.75,69.31a1,1,0,0,0,.54,0C94.15,119.62,115,91.11,115,58.67V15A1,1,0,0,0,114,14Zm-1,44.69c0,31.43-20.13,59.05-49,67.27C35.15,117.72,15,90.1,15,58.67V16A98.08,98.08,0,0,0,64,2.19,98.08,98.08,0,0,0,113,16Z"/><path class="cls-1" d="M21.92,21.67a1,1,0,0,0-.94,1v36c0,27.76,17.56,52.83,42.71,61a1.09,1.09,0,0,0,.62,0C89.46,111.5,107,86.43,107,58.67v-36a1,1,0,0,0-.94-1A103.24,103.24,0,0,1,64.49,9.32a1.06,1.06,0,0,0-1,0A103.24,103.24,0,0,1,21.92,21.67Zm83.06,2v35c0,26.77-16.84,50.94-41,58.9-24.14-8-41-32.13-41-58.9v-35A105.26,105.26,0,0,0,64,11.38,105.26,105.26,0,0,0,105,23.63Z"/><path class="cls-1" d="M37,90H91a1,1,0,0,0,1-1V47a1,1,0,0,0-1-1H84V40a20,20,0,1,0-40,0v6H37a1,1,0,0,0-1,1V89A1,1,0,0,0,37,90Zm9-50a18,18,0,0,1,36,0v6H78V40a14,14,0,1,0-28,0v6H46Zm30,6H52V40a12,12,0,0,1,24,0ZM38,48H90V88H38Z"/><path class="cls-1" d="M64,52C49.14,52,42.3,70.72,53.64,80.21A16,16,0,1,0,64,52ZM60,65a4,4,0,1,1,4,4A4,4,0,0,1,60,65ZM55.53,79.1C56.87,74.38,60.35,71,64,71s7.13,3.36,8.47,8.08A13.94,13.94,0,0,1,55.53,79.1Zm18.6-1.48a13,13,0,0,0-6.51-7.82,6,6,0,1,0-7.24,0,13,13,0,0,0-6.51,7.82C45.48,68.81,51.7,54,64,54S82.52,68.82,74.13,77.62Z"/></g></svg>