<svg xmlns="http://www.w3.org/2000/svg" viewBox="0 0 128 128"><defs><style>.cls-1{fill:#47566a;}</style></defs><title>Protection</title><g id="Protection"><path class="cls-1" d="M114,14A95.81,95.81,0,0,1,64.52.12C64.41.06,64-.2,63.29.23A95.78,95.78,0,0,1,14,14a1,1,0,0,0-1,1V58.67c0,32.44,20.87,61,50.75,69.31a1,1,0,0,0,.54,0C94.15,119.62,115,91.11,115,58.67V15A1,1,0,0,0,114,14Zm-1,44.69c0,31.43-20.13,59.05-49,67.27C35.15,117.72,15,90.1,15,58.67V16A98.08,98.08,0,0,0,64,2.19,98.08,98.08,0,0,0,113,16Z"/><path class="cls-1" d="M21.92,21.67a1,1,0,0,0-.94,1v36c0,27.76,17.56,52.83,42.71,61a1.09,1.09,0,0,0,.62,0C89.46,111.5,107,86.43,107,58.67v-36a1,1,0,0,0-.94-1A103.24,103.24,0,0,1,64.49,9.32a1.06,1.06,0,0,0-1,0A103.24,103.24,0,0,1,21.92,21.67Zm83.06,2v35c0,26.77-16.84,50.94-41,58.9-24.14-8-41-32.13-41-58.9v-35A105.26,105.26,0,0,0,64,11.38,105.26,105.26,0,0,0,105,23.63Z"/><path class="cls-1" d="M64,86A24,24,0,1,0,40,62,24,24,0,0,0,64,86Zm0-46A22,22,0,1,1,42,62,22,22,0,0,1,64,40Z"/><path class="cls-1" d="M59.28,70.72a1,1,0,0,0,1.44,0l16-16a1,1,0,0,0-1.44-1.44L60,68.56l-7.28-7.28a1,1,0,0,0-1.44,1.44Z"/></g></svg>