<svg xmlns="http://www.w3.org/2000/svg" viewBox="0 0 128 128"><defs><style>.cls-1{fill:#47566a;}</style></defs><title>Reviews</title><g id="Reviews"><path class="cls-1" d="M95.56,82H72.36c3.34-9,6.45-20.26-1.33-25.91C66.35,52.66,61,54.85,61,59.38c0,12.95,1,8.88-9.12,28.1-.43-.71,1.29-.5-24.86-.5a1,1,0,0,0-1,1v39a1,1,0,0,0,1,1H51a1,1,0,0,0,1-1v-2.87A12.86,12.86,0,0,0,60.13,127H90.67A6.51,6.51,0,0,0,94.9,115.5a6.5,6.5,0,0,0,2-10.62A6.24,6.24,0,0,0,99.26,93.5C104.48,90.11,102.09,82,95.56,82ZM50,126H28V89H50ZM99,91.11a4.25,4.25,0,0,1-3.12,1.37,1,1,0,0,0,0,2,4.23,4.23,0,1,1-.28,8.46h-3.2a1,1,0,0,0,0,2,4.48,4.48,0,1,1,0,9H90.72a1,1,0,0,0,0,2,4.48,4.48,0,1,1,0,9H60.13A10.84,10.84,0,0,1,52,121.34V91.55c12-22.86,11-18.46,11-32.17,0-4.16,6.79-4.06,9.74,1.79a9.51,9.51,0,0,1,1.06,4.39c0,11.4-4.77,16.57-3.76,18,.44.63-1.38.44,25.5.44A4.26,4.26,0,0,1,99,91.11Z"/><path class="cls-1" d="M74,17.12l-6.25-.91-2.79-5.66a1.07,1.07,0,0,0-1.84,0l-2.79,5.66c-6.7,1-6.81.79-7.07,1.6s-.08.72,4.78,5.46c-1.15,6.67-1.35,6.72-.66,7.22s.67.29,6.66-2.86c6.08,3.2,5.71,3.05,6.06,3.05a1,1,0,0,0,1-1.19L70,23.27l4.52-4.41A1,1,0,0,0,74,17.12Zm-5.77,5.06c-.51.51-.35.58.52,5.62C64,25.32,64.34,25.45,64,25.45s-.14-.06-4.71,2.35c.89-5.19,1-5.13.52-5.62l-3.43-3.34,4.73-.69c.72-.1.63-.26,2.89-4.84,2.33,4.72,2.19,4.74,2.89,4.84l4.73.69Z"/><path class="cls-1" d="M98,17.12l-6.25-.91-2.79-5.66a1.07,1.07,0,0,0-1.84,0l-2.79,5.66c-6.7,1-6.81.79-7.07,1.6s-.08.72,4.78,5.46c-1.15,6.67-1.35,6.72-.66,7.22s.67.29,6.66-2.86c6.08,3.2,5.71,3.05,6.06,3.05a1,1,0,0,0,1-1.19L94,23.27l4.52-4.41A1,1,0,0,0,98,17.12Zm-5.77,5.06c-.51.51-.35.58.52,5.62C88,25.32,88.34,25.45,88,25.45s-.14-.06-4.71,2.35c.89-5.19,1-5.13.52-5.62l-3.43-3.34,4.73-.69c.72-.1.63-.26,2.89-4.84,2.33,4.72,2.19,4.74,2.89,4.84l4.73.69Z"/><path class="cls-1" d="M122,17.12l-6.25-.91-2.79-5.66a1.07,1.07,0,0,0-1.84,0l-2.79,5.66c-6.7,1-6.81.79-7.07,1.6s-.08.72,4.78,5.46c-1.15,6.67-1.35,6.72-.66,7.22s.67.29,6.66-2.86c6.08,3.2,5.71,3.05,6.06,3.05a1,1,0,0,0,1-1.19L118,23.27l4.52-4.41A1,1,0,0,0,122,17.12Zm-5.77,5.06c-.51.51-.35.58.52,5.62-4.71-2.48-4.37-2.35-4.71-2.35s-.14-.06-4.71,2.35c.89-5.19,1-5.13.52-5.62l-3.43-3.34,4.73-.69c.72-.1.63-.26,2.89-4.84,2.33,4.72,2.19,4.74,2.89,4.84l4.73.69Z"/><path class="cls-1" d="M50,17.12l-6.25-.91-2.79-5.66a1.07,1.07,0,0,0-1.84,0l-2.79,5.66c-6.7,1-6.81.79-7.07,1.6s-.08.72,4.78,5.46c-1.15,6.67-1.35,6.72-.66,7.22s.66.29,6.66-2.86c6.08,3.2,5.71,3.05,6.06,3.05a1,1,0,0,0,1-1.19L46,23.27l4.52-4.41A1,1,0,0,0,50,17.12Zm-5.77,5.06c-.51.51-.35.58.52,5.62C40,25.32,40.34,25.45,40,25.45s-.14-.06-4.71,2.35c.89-5.19,1-5.13.52-5.62l-3.43-3.34,4.73-.69c.72-.1.63-.26,2.89-4.84,2.33,4.72,2.19,4.74,2.89,4.84l4.73.69Z"/><path class="cls-1" d="M26,17.12l-6.25-.91-2.79-5.66a1.07,1.07,0,0,0-1.84,0l-2.79,5.66c-6.7,1-6.81.79-7.07,1.6s-.08.72,4.78,5.46C8.85,29.94,8.65,30,9.34,30.49s.67.29,6.66-2.86c6.08,3.2,5.71,3.05,6.06,3.05a1,1,0,0,0,1-1.19L22,23.27l4.52-4.41A1,1,0,0,0,26,17.12Zm-5.77,5.06c-.51.51-.35.58.52,5.62C16,25.32,16.34,25.45,16,25.45s-.14-.06-4.71,2.35c.89-5.19,1-5.13.52-5.62L8.38,18.84l4.73-.69c.72-.1.63-.26,2.89-4.84,2.33,4.72,2.19,4.74,2.89,4.84l4.73.69Z"/><path class="cls-1" d="M118.87,0H9.13A9.15,9.15,0,0,0,0,9.13V31.87A9.15,9.15,0,0,0,9.13,41H55.32l7.86,10.59a1,1,0,0,0,1.64,0L72.68,41h46.19A9.15,9.15,0,0,0,128,31.87V9.13A9.15,9.15,0,0,0,118.87,0ZM126,31.87A7.12,7.12,0,0,1,118.87,39H72.16c-.74,0-.32-.26-8.16,10.31C56.13,38.68,56.57,39,55.84,39H9.13A7.12,7.12,0,0,1,2,31.87V9.13A7.12,7.12,0,0,1,9.13,2H118.87A7.12,7.12,0,0,1,126,9.13Z"/></g></svg>