<svg xmlns="http://www.w3.org/2000/svg" viewBox="0 0 128 128"><defs><style>.cls-1{fill:#47566a;}</style></defs><title>See You Soon</title><g id="See_You_Soon" data-name="See You Soon"><path class="cls-1" d="M84.87,77.27l-7-41.18a6.6,6.6,0,0,0-13.1,1.58l1.83,24.6L56.93,36a6.73,6.73,0,0,0-12.78,4.17L51.82,67,40.57,48a6.45,6.45,0,0,0-11.41,6l8.33,18.24-4.57-6.45a6.48,6.48,0,0,0-10.9,7l21.25,36.71c.32.59,8,14.54,23.14,14.54,20.07,0,29.74-15.17,32.11-29.36,2.22-13.34,4.59-22,7.68-28.22C111.74,55.36,96.37,44.67,84.87,77.27Zm19.5-11.74c-3.18,6.36-5.61,15.24-7.87,28.79C94.28,107.69,85.2,122,66.41,122c-13.86,0-21.27-13.34-21.36-13.5L23.79,71.75A4.44,4.44,0,0,1,31.26,67L42.1,82.27a1,1,0,0,0,1.76-1L31,53.14a4.41,4.41,0,0,1,7.8-4.08L54.1,74.84A1,1,0,0,0,56,74L46.12,39.6A4.68,4.68,0,0,1,55,36.69L67.22,69.78a1,1,0,0,0,2-.43L66.84,37.52a4.56,4.56,0,0,1,9-1.09L83.55,81.7a1,1,0,0,0,2,.11c0-.17,5.17-17.84,12.54-22.75C104.93,54.49,106.48,61.32,104.37,65.53Z"/><path class="cls-1" d="M127,67h-8a1,1,0,0,0,0,2h8A1,1,0,0,0,127,67Z"/><path class="cls-1" d="M9,67H1a1,1,0,0,0,0,2H9A1,1,0,0,0,9,67Z"/><path class="cls-1" d="M65,13V5a1,1,0,0,0-2,0v8A1,1,0,0,0,65,13Z"/><path class="cls-1" d="M111.63,41.52c.39,0-.09.21,7.44-4.14a1,1,0,0,0-1-1.76l-6.93,4A1,1,0,0,0,111.63,41.52Z"/><path class="cls-1" d="M15.86,94.62l-6.93,4a1,1,0,0,0,1,1.76l6.93-4A1,1,0,0,0,15.86,94.62Z"/><path class="cls-1" d="M16.88,39.62l-6.93-4a1,1,0,0,0-1,1.76l6.93,4A1,1,0,0,0,16.88,39.62Z"/><path class="cls-1" d="M119.07,98.62l-6.93-4a1,1,0,0,0-1,1.76l6.93,4A1,1,0,0,0,119.07,98.62Z"/><path class="cls-1" d="M35.62,20.88a1,1,0,0,0,1.76-1l-4-6.93a1,1,0,0,0-1.76,1Z"/><path class="cls-1" d="M92.38,20.88l4-6.93a1,1,0,0,0-1.76-1l-4,6.93A1,1,0,0,0,92.38,20.88Z"/></g></svg>