<svg xmlns="http://www.w3.org/2000/svg" viewBox="0 0 128 128"><defs><style>.cls-1{fill:#47566a;}</style></defs><title>Shipping</title><g id="Shipping"><path class="cls-1" d="M128,74.25,117,40a7.08,7.08,0,0,0-6.8-5H84V11a1,1,0,0,0-1-1H1a1,1,0,0,0-1,1v94a1,1,0,0,0,1,1H14.05A13,13,0,0,0,40,106c56.49,0,49.53,0,50.1,0a13,13,0,0,0,25.9,0h11a1,1,0,0,0,1-1C128,72.67,128,74.49,128,74.25ZM53,12V23.35l-2.52-1.26c-.65-.32-.84,0-4.46,1.77-3.78-1.89-3.84-2.08-4.45-1.77L38,23.86l-3.54-1.77c-.59-.3-.8-.06-3.44,1.26V12ZM2,12H29V25a1,1,0,0,0,1,1c.33,0,.19,0,4-1.88,3.79,1.89,3.85,2.08,4.46,1.77L42,24.14l3.54,1.77c.65.32.84,0,4.45-1.77,3.87,1.93,3.91,2.12,4.54,1.73S55,25.93,55,12H82V84H2ZM2,86H82v18H40a13,13,0,0,0-25.9,0H2Zm25,30a11,11,0,1,1,11-11A11,11,0,0,1,27,116Zm76,0a11,11,0,1,1,11-11A11,11,0,0,1,103,116Zm13-12a13,13,0,0,0-25.9,0c-.3,0,1.15,0-6,0V37h26.23a5.09,5.09,0,0,1,4.89,3.56L115.9,43H94a1,1,0,0,0-1,1V74a1,1,0,0,0,1,1h32v8h-3a3,3,0,0,0-3,3v8a3,3,0,0,0,3,3h3v7Zm8.69-31H95V45h20.79ZM126,95h-3a1,1,0,0,1-1-1V86a1,1,0,0,1,1-1h3Z"/><path class="cls-1" d="M99,81H94a1,1,0,0,0,0,2h5A1,1,0,0,0,99,81Z"/><path class="cls-1" d="M103,98a7,7,0,1,0,7,7A7,7,0,0,0,103,98Zm0,12a5,5,0,1,1,5-5A5,5,0,0,1,103,110Z"/><path class="cls-1" d="M27,98a7,7,0,1,0,7,7A7,7,0,0,0,27,98Zm0,12a5,5,0,1,1,5-5A5,5,0,0,1,27,110Z"/><path class="cls-1" d="M42,31A24,24,0,1,0,66,55,24,24,0,0,0,42,31Zm0,46A22,22,0,1,1,64,55,22,22,0,0,1,42,77Z"/><path class="cls-1" d="M53.28,46.28,38,61.56l-7.28-7.28a1,1,0,0,0-1.44,1.44C37.91,64.35,37.4,64,38,64s-.64,1.06,16.72-16.3A1,1,0,0,0,53.28,46.28Z"/></g></svg>