<svg xmlns="http://www.w3.org/2000/svg" viewBox="0 0 128 128"><defs><style>.cls-1{fill:#47566a;}</style></defs><title>Success</title><g id="Success"><path class="cls-1" d="M51,122H77a1,1,0,0,0,1-1V107a1,1,0,0,0-1-1H51a1,1,0,0,0-1,1v14A1,1,0,0,0,51,122Zm1-14H76v12H52Z"/><path class="cls-1" d="M112,2c-5.77,0-10.07,2.4-12.3,6.56L100,1A1,1,0,0,0,99,0C24.24,0,28.73-.19,28.26.29s-.3.19,0,8.25C26.07,4.38,21.77,2,16,2,6,2,0,8,0,18,0,34.63,30.34,40,30.34,48.09,30.34,50.67,29.21,52,27,52c-1.09,0-2.59-1.72-3.15-2.55a1,1,0,0,0-1.7,1.14C22.39,50.92,24.53,54,27,54a5.17,5.17,0,0,0,4.64-2.55C36,65.44,46.71,76.27,60,79.34V94.08A5,5,0,0,0,56,99v1.08H42a1,1,0,0,0-1,.9l-3,25H35a1,1,0,0,0,0,2H93a1,1,0,0,0,0-2H90.1l-3-25a1,1,0,0,0-1-.9H72V99a5,5,0,0,0-4-4.92V79.34c13.27-3.07,24-13.9,28.34-27.87A5.17,5.17,0,0,0,101,54c2.47,0,4.61-3.1,4.85-3.45a1,1,0,0,0-1.7-1.14c-.56.83-2.06,2.55-3.15,2.55-2.21,0-3.34-1.31-3.34-3.89C97.66,40,128,34.6,128,18,128,8,122,2,112,2Zm-24,124H40l2.9-23.86h42.3ZM2,18C2,9.12,7.12,4,16,4c7.61,0,12,4.37,12,12a10,10,0,0,1-5.41,9.07,1,1,0,0,0,.86,1.86,12.34,12.34,0,0,0,5.42-5.58c.85,20,.78,19.46,1.06,21.83C22.82,36.21,2,30.64,2,18ZM70,99v1H58V99a3,3,0,0,1,3-3h6A3,3,0,0,1,70,99Zm-4-5H62V79.75a7.93,7.93,0,0,0,4,0ZM64,78c-17.59-2-31.48-18.4-32.32-38.15L30.06,2H97.94l-1.62,37.8C95.48,59.57,81.59,76,64,78ZM98.09,43.18c.32-2.73.28-3.48,1.06-21.83a12.34,12.34,0,0,0,5.42,5.58,1,1,0,0,0,.86-1.86A10,10,0,0,1,100,16c0-7.61,4.37-12,12-12,8.88,0,14,5.1,14,14C126,30.66,105.2,36.19,98.09,43.18Z"/><path class="cls-1" d="M64,11A24,24,0,1,0,88,35,24,24,0,0,0,64,11Zm0,46A22,22,0,1,1,86,35,22,22,0,0,1,64,57Z"/><path class="cls-1" d="M75.28,26.28,60,41.56l-7.28-7.28a1,1,0,0,0-1.44,1.44C59.91,44.35,59.4,44,60,44s-.8,1.22,16.72-16.3A1,1,0,0,0,75.28,26.28Z"/></g></svg>