<svg xmlns="http://www.w3.org/2000/svg" viewBox="0 0 128 128"><defs><style>.cls-1{fill:#47566a;}</style></defs><title>Term of Use</title><g id="Term_of_Use" data-name="Term of Use"><path class="cls-1" d="M117,0H31A11,11,0,0,0,20,11v97H1a1,1,0,0,0-1,1v8a11,11,0,0,0,11,11H97a11,11,0,0,0,11-11V20h19a1,1,0,0,0,1-1V11A11,11,0,0,0,117,0ZM90.62,126H11a9,9,0,0,1-9-9v-7H86C86,116.29,85,122,90.62,126ZM106,117a9,9,0,0,1-18,0v-8a1,1,0,0,0-1-1H22V11a9,9,0,0,1,9-9h79.62A11.1,11.1,0,0,0,106,11Zm20-99H108V11a9,9,0,0,1,18,0Z"/><path class="cls-1" d="M37,62H31a1,1,0,0,0-1,1v6a1,1,0,0,0,1,1h6a1,1,0,0,0,1-1V63A1,1,0,0,0,37,62Zm-1,6H32V64h4Z"/><path class="cls-1" d="M97,62H44a1,1,0,0,0,0,2H97A1,1,0,0,0,97,62Z"/><path class="cls-1" d="M44,70H80a1,1,0,0,0,0-2H44A1,1,0,0,0,44,70Z"/><path class="cls-1" d="M37,78H31a1,1,0,0,0-1,1v6a1,1,0,0,0,1,1h6a1,1,0,0,0,1-1V79A1,1,0,0,0,37,78Zm-1,6H32V80h4Z"/><path class="cls-1" d="M97,78H44a1,1,0,0,0,0,2H97A1,1,0,0,0,97,78Z"/><path class="cls-1" d="M44,86H80a1,1,0,0,0,0-2H44A1,1,0,0,0,44,86Z"/><path class="cls-1" d="M37,94H31a1,1,0,0,0-1,1v6a1,1,0,0,0,1,1h6a1,1,0,0,0,1-1V95A1,1,0,0,0,37,94Zm-1,6H32V96h4Z"/><path class="cls-1" d="M97,94H44a1,1,0,0,0,0,2H97A1,1,0,0,0,97,94Z"/><path class="cls-1" d="M80,100H44a1,1,0,0,0,0,2H80A1,1,0,0,0,80,100Z"/><path class="cls-1" d="M64,56A24,24,0,1,0,40,32,24,24,0,0,0,64,56Zm0-46A22,22,0,1,1,42,32,22,22,0,0,1,64,10Z"/><path class="cls-1" d="M59.28,40.72a1,1,0,0,0,1.44,0l16-16a1,1,0,0,0-1.44-1.44L60,38.56l-7.28-7.28a1,1,0,0,0-1.44,1.44Z"/></g></svg>