<svg xmlns="http://www.w3.org/2000/svg" xmlns:xlink="http://www.w3.org/1999/xlink" viewBox="0 0 128 128"><defs><style>.cls-1{fill:url(#linear-gradient);}.cls-2{fill:#c7cdd8;}.cls-3{fill:url(#linear-gradient-2);}.cls-4{fill:#5b8dc9;}.cls-5{fill:url(#linear-gradient-3);}.cls-6{fill:#8a6762;}.cls-7{fill:url(#linear-gradient-4);}.cls-8{fill:#cba07a;}.cls-9{fill:#47566a;}</style><linearGradient id="linear-gradient" x1="64" y1="115" x2="64" y2="15" gradientUnits="userSpaceOnUse"><stop offset="0" stop-color="#dde1e8"/><stop offset="1" stop-color="#f3f4f5"/></linearGradient><linearGradient id="linear-gradient-2" x1="64" y1="100" x2="64" y2="42" gradientUnits="userSpaceOnUse"><stop offset="0" stop-color="#7aa8d7"/><stop offset="1" stop-color="#96c8ea"/></linearGradient><linearGradient id="linear-gradient-3" x1="64" y1="127" x2="64" y2="115" gradientUnits="userSpaceOnUse"><stop offset="0" stop-color="#9b756d"/><stop offset="1" stop-color="#bc9388"/></linearGradient><linearGradient id="linear-gradient-4" x1="64" y1="63" x2="64" y2="1" gradientUnits="userSpaceOnUse"><stop offset="0" stop-color="#d1a788"/><stop offset="1" stop-color="#f2d3b8"/></linearGradient></defs><title>About</title><g id="About"><polygon class="cls-1" points="113 52.33 113 115 15 115 15 52.33 64 15 113 52.33"/><path class="cls-2" d="M64,105A29,29,0,0,1,35.12,73.5a29,29,0,0,0,57.76,0A29,29,0,0,1,64,105Z"/><circle class="cls-3" cx="64" cy="71" r="29"/><path class="cls-4" d="M64,100A29,29,0,0,1,35.12,68.5a29,29,0,0,0,57.76,0A29,29,0,0,1,64,100Z"/><rect class="cls-5" x="1" y="115" width="126" height="12"/><rect class="cls-6" x="1" y="123" width="126" height="4"/><rect class="cls-2" x="15" y="111" width="98" height="4"/><path class="cls-2" d="M113,52.33v5c-3.8-2.9,5.24,4-49-37.33L15,57.37v-5L64,15Z"/><path class="cls-7" d="M127,49V63L64,15,1,63V49L64,1Z"/><polygon class="cls-8" points="127 59 127 63 64 15 1 63 1 59 64 11 127 59"/><path class="cls-9" d="M34,71A30,30,0,1,0,64,41,30.06,30.06,0,0,0,34,71Zm58,0A28,28,0,1,1,64,43,28,28,0,0,1,92,71Z"/><path class="cls-9" d="M65,61a1,1,0,0,0-1-1H62a1,1,0,0,0,0,2h1V84H61a1,1,0,0,0,0,2h6a1,1,0,0,0,0-2H65Z"/><path class="cls-9" d="M62,56.5a1.52,1.52,0,0,0,3,0A1.52,1.52,0,0,0,62,56.5Zm2,0a.52.52,0,0,1-1,0A.52.52,0,0,1,64,56.5Z"/><path class="cls-9" d="M127.45,63.91c.8-.39.57.05.57-14.91,0-.77,4,2.52-63.4-48.81-1-.74,2.66-3-64.24,48C-.19,48.62,0,47.92,0,63a1,1,0,0,0,1.64.81L14,54.39V114H1a1,1,0,0,0-1,1v12a1,1,0,0,0,1,1H127a1,1,0,0,0,1-1V115a1,1,0,0,0-1-1H114V54.39C127.23,64.46,126.64,64.32,127.45,63.91ZM2,49.51,64,2.28l62,47.23V60.94L64.62,14.19a1,1,0,0,0-1.24,0L2,60.94ZM126,126H2V116H126Zm-14-12H16V52.84L64,16.28l48,36.56Z"/></g></svg>