<svg xmlns="http://www.w3.org/2000/svg" xmlns:xlink="http://www.w3.org/1999/xlink" viewBox="0 0 128 128"><defs><style>.cls-1{fill:url(#linear-gradient);}.cls-2{fill:#77cacb;}.cls-3{fill:url(#linear-gradient-2);}.cls-4{fill:#8288a1;}.cls-5{fill:url(#linear-gradient-3);}.cls-6{fill:#5b8dc9;}.cls-7{fill:url(#linear-gradient-4);}.cls-8{fill:url(#linear-gradient-5);}.cls-9{fill:#42455e;}.cls-10{fill:#47566a;}</style><linearGradient id="linear-gradient" x1="64" y1="33" x2="64" y2="1" gradientUnits="userSpaceOnUse"><stop offset="0" stop-color="#9dd5df"/><stop offset="1" stop-color="#c3e1f5"/></linearGradient><linearGradient id="linear-gradient-2" x1="63" y1="40" x2="63" y2="31" gradientUnits="userSpaceOnUse"><stop offset="0" stop-color="#949aaf"/><stop offset="1" stop-color="#c6ccda"/></linearGradient><linearGradient id="linear-gradient-3" x1="64" y1="55" x2="64" y2="39" gradientUnits="userSpaceOnUse"><stop offset="0" stop-color="#7aa8d7"/><stop offset="1" stop-color="#96c8ea"/></linearGradient><linearGradient id="linear-gradient-4" x1="64" y1="66.99" x2="64" y2="55" gradientUnits="userSpaceOnUse"><stop offset="0" stop-color="#454b60"/><stop offset="1" stop-color="#575f7c"/></linearGradient><linearGradient id="linear-gradient-5" x1="64" y1="127" x2="64" y2="121" xlink:href="#linear-gradient-3"/></defs><title>Bad Gateway</title><g id="Bad_Gateway" data-name="Bad Gateway"><path class="cls-1" d="M93.57,26a30,30,0,0,0-59.14,0A35.5,35.5,0,0,0,34,33H94A35.45,35.45,0,0,0,93.57,26Z"/><path class="cls-2" d="M93.57,26H34.43A35.5,35.5,0,0,0,34,33H94A35.45,35.45,0,0,0,93.57,26Z"/><path class="cls-3" d="M99,37.32V40H27c0-2.94,0-2.86,0-3a6.31,6.31,0,0,1,6.3-6H92.68A6.33,6.33,0,0,1,99,37.32Z"/><path class="cls-4" d="M99,40H27a19,19,0,0,1,.16-4H98.85A19.44,19.44,0,0,1,99,40Z"/><path class="cls-5" d="M97.23,39H30.77a20.69,20.69,0,0,0-16.95,8.82A4.57,4.57,0,0,0,17.56,55h92.88a4.57,4.57,0,0,0,3.74-7.18A20.7,20.7,0,0,0,97.23,39Z"/><path class="cls-6" d="M110.44,55H17.56a4.56,4.56,0,0,1-3.81-7.06A4.56,4.56,0,0,0,17.56,50h92.88a4.54,4.54,0,0,0,3.81-2.06A4.56,4.56,0,0,1,110.44,55Z"/><path class="cls-7" d="M94,55a42.19,42.19,0,0,1-6.68,5c-15.07,9.32-31.6,9.32-46.63,0A42,42,0,0,1,34,55Z"/><circle class="cls-8" cx="64" cy="124" r="3"/><path class="cls-9" d="M94,55a42.19,42.19,0,0,1-6.68,5H40.69A42,42,0,0,1,34,55Z"/><path class="cls-10" d="M40.59,95.44,33,126.76a1,1,0,0,0,2,.48l7.58-31.32A1,1,0,0,0,40.59,95.44Z"/><path class="cls-10" d="M47.26,67.89,42.68,86.78a1,1,0,1,0,2,.46l4.57-18.87A1,1,0,0,0,47.26,67.89Z"/><path class="cls-10" d="M80.74,67.89a1,1,0,0,0-2,.48L88,106.47a1,1,0,0,0,2-.48Z"/><path class="cls-10" d="M93,118.59a1,1,0,0,0-2,.48l2,8.17a1,1,0,0,0,2-.48Z"/><path class="cls-10" d="M56.89,87.12l1.46-15a1,1,0,0,0-2-.2c-1.94,20-1.46,14-1.46,15.13A1,1,0,0,0,56.89,87.12Z"/><path class="cls-10" d="M73.15,86.9l-1.07-11a1,1,0,0,0-2,.2l1.07,11A1,1,0,0,0,73.15,86.9Z"/><path class="cls-10" d="M87.93,18.49A27.16,27.16,0,0,0,72,5.2a1,1,0,0,0-.6,1.94A25.18,25.18,0,0,1,86.13,19.43,1,1,0,0,0,87.93,18.49Z"/><path class="cls-10" d="M115,47.24a21.67,21.67,0,0,0-14-8.92v-1a7.35,7.35,0,0,0-6-7.22,31,31,0,0,0-62,0,7.35,7.35,0,0,0-6,7.22v1a21.67,21.67,0,0,0-14,8.92A5.59,5.59,0,0,0,17.56,56h16c2,1.88,13.82,12,30.4,12S92.36,57.9,94.4,56h16A5.59,5.59,0,0,0,115,47.24ZM64,2A29,29,0,0,1,93,30H35A29,29,0,0,1,64,2ZM29,38v-.66a5.31,5.31,0,0,1,5.3-5.3H93.68a5.31,5.31,0,0,1,5.3,5.3V38Zm7.76,18H91.22C74.57,69.11,53.85,69.41,36.78,56Zm73.66-2H17.56a3.55,3.55,0,0,1-2.9-5.57A19.69,19.69,0,0,1,30.77,40H97.23a19.69,19.69,0,0,1,16.11,8.39A3.54,3.54,0,0,1,110.44,54Z"/><path class="cls-10" d="M64,120a4,4,0,1,0,4,4A4,4,0,0,0,64,120Zm0,6a2,2,0,1,1,2-2A2,2,0,0,1,64,126Z"/><path class="cls-10" d="M45.6,105.6A1,1,0,0,0,47,107,24,24,0,0,1,81,107a1,1,0,0,0,1.44-1.44A26.06,26.06,0,0,0,45.6,105.6Z"/><path class="cls-10" d="M56.21,116.21a1,1,0,0,0,1.44,1.44,9,9,0,0,1,12.7,0,1,1,0,0,0,1.44-1.44A11,11,0,0,0,56.21,116.21Z"/><path class="cls-10" d="M51.26,111.26a1,1,0,0,0,1.44,1.44,16,16,0,0,1,22.6,0,1,1,0,0,0,1.44-1.44A18,18,0,0,0,51.26,111.26Z"/></g></svg>