<svg xmlns="http://www.w3.org/2000/svg" xmlns:xlink="http://www.w3.org/1999/xlink" viewBox="0 0 128 128"><defs><style>.cls-1{fill:url(#linear-gradient);}.cls-2{fill:#77cacb;}.cls-3{fill:url(#linear-gradient-2);}.cls-4{fill:url(#linear-gradient-3);}.cls-5{fill:#c7cdd8;}.cls-6{fill:#47566a;}</style><linearGradient id="linear-gradient" x1="64" y1="78" x2="64" y2="1" gradientUnits="userSpaceOnUse"><stop offset="0" stop-color="#9dd5df"/><stop offset="1" stop-color="#c3e1f5"/></linearGradient><linearGradient id="linear-gradient-2" x1="64" y1="127" x2="64" y2="49" gradientUnits="userSpaceOnUse"><stop offset="0" stop-color="#dde1e8"/><stop offset="1" stop-color="#f3f4f5"/></linearGradient><linearGradient id="linear-gradient-3" x1="88" y1="63" x2="88" y2="49" gradientUnits="userSpaceOnUse"><stop offset="0" stop-color="#949aaf"/><stop offset="1" stop-color="#c6ccda"/></linearGradient></defs><title>Data Not Avaible</title><g id="Data_Not_Avaible" data-name="Data Not Avaible"><path class="cls-1" d="M110,78a17,17,0,0,0,0-34h-3.52c6.39-14.25-8.1-28.59-22-22.68A33,33,0,0,0,21,34.08,22,22,0,0,0,23,78Z"/><path class="cls-2" d="M110,78H23A22,22,0,0,1,1.28,52.55,22,22,0,0,0,23,71h87a17,17,0,0,0,16.64-13.54A17,17,0,0,1,110,78Z"/><polygon class="cls-3" points="95 63 95 127 33 127 33 49 81 49 95 63"/><polygon class="cls-4" points="95 63 81 63 81 49 95 63"/><rect class="cls-5" x="33" y="122" width="62" height="5"/><path class="cls-6" d="M110,43h-2c5.08-14.37-9-28-23-23A34,34,0,0,0,20,33.17,23,23,0,0,0,23,79h9v48a1,1,0,0,0,1,1H95a1,1,0,0,0,1-1V79h14a18,18,0,1,0,0-36ZM94,126H34V50H80V63a1,1,0,0,0,1,1H94ZM92.54,62H82V51.46ZM110,77H96c0-14.67.14-14.26-.3-14.7C80.74,47.29,81.64,48,81.06,48c-.76-.05,6.16,0-48.06,0a1,1,0,0,0-1,1V77H23A21,21,0,0,1,21.1,35.1,1.11,1.11,0,0,0,22,34a32,32,0,0,1,61.5-12.28,1,1,0,0,0,1.34.55c13-5.54,26.7,7.89,20.68,21.32a1,1,0,0,0,.07,1c.41.63.71.47,4.38.47a16,16,0,1,1,0,32Z"/><path class="cls-6" d="M71.06,71C61.83,65.51,52,71.94,52,81a1,1,0,0,0,2,0c0-7.49,8.14-12.91,16-8.22,5.08,3,6.07,13.69-1.88,17.31A9,9,0,0,0,63,98.36V102a1,1,0,0,0,2,0V98.36A7,7,0,0,1,69,92a12,12,0,0,0,6.51-7.37C77.1,79.39,74.82,73.29,71.06,71Z"/><path class="cls-6" d="M64,107a2,2,0,1,0,2,2A2,2,0,0,0,64,107Zm0,2a0,0,0,0,1,0,0C65.35,109,65.33,109,64,109Z"/></g></svg>