<svg xmlns="http://www.w3.org/2000/svg" xmlns:xlink="http://www.w3.org/1999/xlink" viewBox="0 0 128 128"><defs><style>.cls-1{fill:url(#linear-gradient);}.cls-2{fill:#8288a1;}.cls-3{fill:url(#linear-gradient-2);}.cls-4{fill:url(#linear-gradient-3);}.cls-5{fill:url(#linear-gradient-4);}.cls-6{fill:#adb3c4;}.cls-7{fill:#47566a;}</style><linearGradient id="linear-gradient" x1="64" y1="127" x2="64" y2="39" gradientUnits="userSpaceOnUse"><stop offset="0" stop-color="#949aaf"/><stop offset="1" stop-color="#c6ccda"/></linearGradient><linearGradient id="linear-gradient-2" y1="32.53" y2="8.46" xlink:href="#linear-gradient"/><linearGradient id="linear-gradient-3" x1="108.75" y1="61" x2="108.75" y2="48" xlink:href="#linear-gradient"/><linearGradient id="linear-gradient-4" x1="19.25" y1="61" x2="19.25" y2="48" xlink:href="#linear-gradient"/></defs><title>Delete</title><g id="Delete"><path class="cls-1" d="M105,39c-.49,7.17.37-5.45-5.62,82.41a6,6,0,0,1-6,5.59H34.6a6,6,0,0,1-6-5.59C22.63,33.55,23.48,46.07,23,39Z"/><path class="cls-2" d="M99.62,118l-.24,3.45a6,6,0,0,1-6,5.59H34.6a6,6,0,0,1-6-5.59L28.38,118a6,6,0,0,0,5.22,3H94.4A6,6,0,0,0,99.62,118Z"/><path class="cls-3" d="M107.53,17.17,20.47,32.53c.2-4.76.15-3.56.23-5.42a6,6,0,0,1,4.95-5.65L98.88,8.55a6,6,0,0,1,6.58,3.62Z"/><path class="cls-4" d="M114,48V61H103.5l.89-13Z"/><polyline class="cls-5" points="23.61 48 14 48 14 61 24.5 61"/><polygon class="cls-6" points="114 56 114 61 103.5 61 103.84 56 114 56"/><polygon class="cls-6" points="14 56 14 61 24.5 61 24.16 56 14 56"/><polygon class="cls-6" points="105 39 104.66 44 23.34 44 23 39 105 39"/><path class="cls-7" d="M20.47,33.55c.14,0-3.26.59,87.24-15.37a1,1,0,0,0,.76-1.39l-2.06-5A7.07,7.07,0,0,0,98.7,7.54L77.86,11.22l-.54-3.06a9.89,9.89,0,0,0-11.46-8l-13,2.3a9.89,9.89,0,0,0-8,11.46L45.32,17l-19.85,3.5a7.06,7.06,0,0,0-5.79,6.62l-.23,5.41A1,1,0,0,0,20.47,33.55Zm26.32-20a7.87,7.87,0,0,1,6.38-9.1l13-2.3a7.85,7.85,0,0,1,9.09,6.37l.54,3.06-28.52,5ZM21.72,27.16a5,5,0,0,1,4.11-4.7L99.05,9.55a5,5,0,0,1,5.47,3l1.58,3.83L21.54,31.3Z"/><path class="cls-7" d="M63,55v52a1,1,0,0,0,2,0V55A1,1,0,0,0,63,55Z"/><path class="cls-7" d="M84,54.92l-4,52a1,1,0,0,0,2,.16l4-52A1,1,0,0,0,84,54.92Z"/><path class="cls-7" d="M42,55.08l4,52a1,1,0,0,0,2-.16l-4-52A1,1,0,0,0,42,55.08Z"/><path class="cls-7" d="M114,47h-8.52l.54-7.91A1,1,0,0,0,105,38c-87.81,0-82.28-.18-82.75.32s-.3.28.27,8.68H14a1,1,0,0,0-1,1V61a1,1,0,0,0,1,1h9.55l4.05,59.46a7,7,0,0,0,7,6.54H93.4a7,7,0,0,0,7-6.54l4-59.46H114a1,1,0,0,0,1-1V48A1,1,0,0,0,114,47ZM15,60V49h7.64l.75,11Zm83.34,61.36a5,5,0,0,1-5,4.64H34.6a5,5,0,0,1-5-4.64L24.09,40h79.82ZM113,60h-8.39l.75-11H113Z"/></g></svg>