<svg xmlns="http://www.w3.org/2000/svg" xmlns:xlink="http://www.w3.org/1999/xlink" viewBox="0 0 128 128"><defs><style>.cls-1{fill:url(#linear-gradient);}.cls-2{fill:#4da67f;}.cls-3{fill:url(#linear-gradient-2);}.cls-4{fill:#c7cdd8;}.cls-5{fill:#47566a;}</style><linearGradient id="linear-gradient" x1="64" y1="127" x2="64" y2="1" gradientUnits="userSpaceOnUse"><stop offset="0" stop-color="#6ab891"/><stop offset="1" stop-color="#85cba9"/></linearGradient><linearGradient id="linear-gradient-2" x1="64" y1="110" x2="64" y2="18" gradientUnits="userSpaceOnUse"><stop offset="0" stop-color="#dde1e8"/><stop offset="1" stop-color="#f3f4f5"/></linearGradient></defs><title>Done</title><g id="Done"><path class="cls-1" d="M127,64c0,5.44-5.14,10.13-6.48,15.15-1.39,5.19.68,11.81-2,16.36s-9.46,6.12-13.2,9.86-5.25,10.53-9.86,13.2-11.17.56-16.36,2c-5,1.34-9.71,6.48-15.15,6.48s-10.13-5.14-15.15-6.48c-5.19-1.39-11.81.68-16.36-2s-6.12-9.46-9.86-13.2-10.53-5.25-13.2-9.86S8.87,84.34,7.48,79.15C6.14,74.13,1,69.44,1,64S6.14,53.87,7.48,48.85C8.87,43.66,6.8,37,9.43,32.49s9.46-6.12,13.2-9.86,5.25-10.53,9.86-13.2,11.17-.56,16.36-1.95C53.87,6.14,58.56,1,64,1S74.13,6.14,79.15,7.48C84.34,8.87,91,6.8,95.51,9.43s6.12,9.46,9.86,13.2,10.53,5.25,13.2,9.86.56,11.17,2,16.36C121.86,53.87,127,58.56,127,64Z"/><path class="cls-2" d="M3,57.55A60.74,60.74,0,0,0,5.74,75.13C1.69,67.87-1.09,65.06,3,57.55Z"/><path class="cls-2" d="M120.21,80.71c-.72,4.9.73,10.69-1.64,14.8-2.67,4.61-9.46,6.12-13.2,9.86s-5.25,10.53-9.86,13.2-11.17.56-16.36,2c-5,1.34-9.71,6.48-15.15,6.48s-10.13-5.14-15.15-6.48c-5.19-1.39-11.81.68-16.36-2s-6.12-9.46-9.86-13.2-10.53-5.25-13.2-9.86c-2.37-4.11-.92-9.9-1.64-14.8a61,61,0,0,0,112.42,0Z"/><path class="cls-2" d="M122.26,75.13A60.74,60.74,0,0,0,125,57.55C129.07,65,126.33,67.82,122.26,75.13Z"/><path class="cls-2" d="M7.79,80.71a58.75,58.75,0,0,1-2-5.57A15.09,15.09,0,0,1,7.79,80.71Z"/><path class="cls-2" d="M122.26,75.14a58.75,58.75,0,0,1-2.05,5.57A15.09,15.09,0,0,1,122.26,75.14Z"/><circle class="cls-3" cx="64" cy="64" r="46"/><path class="cls-4" d="M64,18a46,46,0,0,1,45.9,49,46,46,0,0,0-91.8,0A46,46,0,0,1,64,18Z"/><polygon class="cls-2" points="56 85.66 37.17 66.83 42.83 61.17 56 74.34 85.17 45.17 90.83 50.83 56 85.66"/><path class="cls-5" d="M64,17a47,47,0,1,0,47,47A47.07,47.07,0,0,0,64,17Zm0,92a45,45,0,1,1,45-45A45,45,0,0,1,64,109Z"/><path class="cls-5" d="M124.39,54.52c-3.13-5.22-3.48-6.32-3.39-12.76.12-9.2-1.16-11.51-9.33-16.06-5.48-3.05-6.3-3.87-9.37-9.37-4.59-8.24-7-9.45-16.06-9.33-6.43.08-7.52-.25-12.76-3.39-8.07-4.83-10.88-4.84-19,0C49.29,6.75,48.19,7.09,41.76,7c-9.1-.12-11.47,1.09-16.06,9.33-3.05,5.48-3.87,6.3-9.37,9.37C8.14,30.26,6.89,32.57,7,41.76c.09,6.41-.24,7.51-3.39,12.76-4.83,8.07-4.84,10.88,0,19C6.74,78.7,7.09,79.8,7,86.24c-.12,9.2,1.16,11.51,9.33,16.06,5.48,3,6.3,3.87,9.37,9.37,4.6,8.26,7,9.45,16.06,9.33,6.43-.08,7.52.25,12.76,3.39,8.07,4.83,10.88,4.84,19,0,5.23-3.13,6.32-3.47,12.76-3.39,9.17.11,11.49-1.12,16.06-9.33,3-5.48,3.87-6.3,9.37-9.37,8.19-4.56,9.44-6.87,9.33-16.06-.09-6.41.24-7.51,3.39-12.76C129.22,65.41,129.23,62.6,124.39,54.52Zm-1.72,17.93c-3.32,5.54-3.76,7-3.67,13.82.11,8.45-.79,10.1-8.3,14.28-5.82,3.24-6.9,4.32-10.15,10.15-4.19,7.53-5.84,8.4-14.28,8.3-6.81-.09-8.26.35-13.82,3.67-7.38,4.43-9.46,4.46-16.9,0C50.76,119.8,49,119,43.4,119c-3.56,0-7.58.36-10.41-1.28-4.29-2.48-5.79-9.18-9.65-13S12.78,99.29,10.3,95,9.87,84.22,8.45,78.89C7.08,73.79,2,69,2,64s5.1-9.87,6.45-14.89C9.87,43.79,7.86,37.21,10.3,33s9.18-5.79,13-9.65,5.37-10.56,9.65-13,10.8-.43,16.12-1.85C54.21,7.08,59,2,64,2s9.87,5.1,14.89,6.45C84.22,9.87,90.79,7.86,95,10.3s5.79,9.18,9.65,13,10.56,5.37,13,9.65.43,10.79,1.85,16.12C120.92,54.21,126,59,126,64,126,66.9,124.31,69.72,122.67,72.45Z"/><path class="cls-5" d="M85.89,44.45a1.05,1.05,0,0,0-1.44,0L56,72.9,43.55,60.45a1.05,1.05,0,0,0-1.44,0c-6.06,6.06-6,5.79-6,6.38S34.93,66,55.28,86.38a1,1,0,0,0,1.44,0C93.93,49.17,91.85,51.46,91.85,50.83S91.94,50.5,85.89,44.45ZM56,84.21,38.61,66.83l4.22-4.22L55.28,75.06a1,1,0,0,0,1.44,0L85.17,46.61l4.22,4.22Z"/></g></svg>