<svg xmlns="http://www.w3.org/2000/svg" xmlns:xlink="http://www.w3.org/1999/xlink" viewBox="0 0 128 128"><defs><style>.cls-1{fill:url(#linear-gradient);}.cls-2{fill:#dd4e6a;}.cls-3{fill:url(#linear-gradient-2);}.cls-4{fill:#c7cdd8;}.cls-5{fill:url(#linear-gradient-3);}.cls-6{fill:#47566a;}</style><linearGradient id="linear-gradient" x1="64" y1="127" x2="64" y2="1" gradientUnits="userSpaceOnUse"><stop offset="0" stop-color="#da5466"/><stop offset="1" stop-color="#e87092"/></linearGradient><linearGradient id="linear-gradient-2" x1="64" y1="116" x2="64" y2="12" gradientUnits="userSpaceOnUse"><stop offset="0" stop-color="#dde1e8"/><stop offset="1" stop-color="#f3f4f5"/></linearGradient><linearGradient id="linear-gradient-3" y1="88.2" x2="64" y2="37.77" xlink:href="#linear-gradient"/></defs><title>Fatal Error</title><g id="Fatal_Error" data-name="Fatal Error"><polygon class="cls-1" points="90.09 1 37.91 1 1 37.91 1 90.09 37.91 127 90.09 127 127 90.09 127 37.91 90.09 1"/><polygon class="cls-2" points="127 85.1 127 90.1 90.1 127 37.9 127 1 90.1 1 85.1 37.9 122 90.1 122 127 85.1"/><polygon class="cls-3" points="42.46 116 12 85.54 12 42.46 42.46 12 85.54 12 116 42.46 116 85.54 85.54 116 42.46 116"/><polygon class="cls-4" points="12 47.46 12 42.46 42.46 12 85.54 12 116 42.46 116 47.46 85.54 17 42.46 17 12 47.46"/><polygon class="cls-5" points="89.21 45.59 81.39 37.77 64 55.16 46.61 37.77 38.79 45.59 56.18 62.98 38.79 80.37 46.61 88.2 64 70.81 81.39 88.2 89.21 80.37 71.82 62.98 89.21 45.59"/><polygon class="cls-2" points="87.21 78.37 89.21 80.37 81.39 88.2 64 70.81 46.61 88.2 38.79 80.37 40.79 78.37 46.61 84.2 64 66.81 81.39 84.2 87.21 78.37"/><path class="cls-6" d="M127.72,37.18C88-2.52,90.75,0,90.1,0,34,0,37.64-.18,37.18.28-2.52,40,0,37.25,0,37.9c0,56.15-.16,52.46.3,52.92C40,130.52,37.25,128,37.9,128c56.15,0,52.46.16,52.92-.3C130.52,88,128,90.75,128,90.1,128,34,128.18,37.64,127.72,37.18ZM126,89.67,89.67,126H38.33L2,89.67V38.33L38.33,2H89.67L126,38.33Z"/><path class="cls-6" d="M85.54,11c-46,0-43.36-.15-43.8.3C9.23,43.78,11,41.83,11,42.46c0,46-.15,43.36.3,43.8C43.78,118.77,41.83,117,42.46,117c46,0,43.36.15,43.8-.3C118.77,84.22,117,86.17,117,85.54c0-46,.15-43.36-.3-43.8C84.22,9.23,86.17,11,85.54,11ZM115,85.12,85.12,115H42.88L13,85.12V42.88L42.88,13H85.12L115,42.88Z"/><path class="cls-6" d="M80.67,37.05,64,53.72,47.33,37.05a1,1,0,0,0-1.44,0l-7.82,7.82a1,1,0,0,0,0,1.44L54.73,63,38.07,79.65a1,1,0,0,0,0,1.45l7.82,7.82a1,1,0,0,0,1.44,0L64,72.25,80.67,88.92a1,1,0,0,0,1.44,0l7.82-7.82a1,1,0,0,0,0-1.45L73.27,63,89.93,46.31a1,1,0,0,0,0-1.44l-7.82-7.82A1,1,0,0,0,80.67,37.05ZM71.1,62.26a1,1,0,0,0,0,1.45L87.77,80.37l-6.38,6.38L64.72,70.08a1,1,0,0,0-1.44,0L46.61,86.75l-6.38-6.38L56.9,63.71a1,1,0,0,0,0-1.45L40.23,45.59l6.38-6.38L63.28,55.88a1,1,0,0,0,1.44,0L81.39,39.21l6.38,6.38Z"/></g></svg>