<svg xmlns="http://www.w3.org/2000/svg" xmlns:xlink="http://www.w3.org/1999/xlink" viewBox="0 0 128 128"><defs><style>.cls-1{fill:url(#linear-gradient);}.cls-2{fill:#c7cdd8;}.cls-3{fill:url(#linear-gradient-2);}.cls-4{fill:#5b8dc9;}.cls-5{fill:url(#linear-gradient-3);}.cls-6{fill:#77cacb;}.cls-7{fill:url(#linear-gradient-4);}.cls-8{fill:url(#linear-gradient-5);}.cls-9{fill:url(#linear-gradient-6);}.cls-10{fill:url(#linear-gradient-7);}.cls-11{fill:url(#linear-gradient-8);}.cls-12{fill:#47566a;}</style><linearGradient id="linear-gradient" x1="64" y1="95" x2="64" y2="1" gradientUnits="userSpaceOnUse"><stop offset="0" stop-color="#dde1e8"/><stop offset="1" stop-color="#f3f4f5"/></linearGradient><linearGradient id="linear-gradient-2" x1="64" y1="16.6" x2="64" y2="1" gradientUnits="userSpaceOnUse"><stop offset="0" stop-color="#7aa8d7"/><stop offset="1" stop-color="#96c8ea"/></linearGradient><linearGradient id="linear-gradient-3" x1="64" y1="73" x2="64" y2="47" gradientUnits="userSpaceOnUse"><stop offset="0" stop-color="#9dd5df"/><stop offset="1" stop-color="#c3e1f5"/></linearGradient><linearGradient id="linear-gradient-4" x1="64" y1="103" x2="64" y2="95" gradientUnits="userSpaceOnUse"><stop offset="0" stop-color="#949aaf"/><stop offset="1" stop-color="#c6ccda"/></linearGradient><linearGradient id="linear-gradient-5" x1="100" y1="88" x2="100" y2="54" xlink:href="#linear-gradient-2"/><linearGradient id="linear-gradient-6" x1="28" y1="88" x2="28" y2="54" xlink:href="#linear-gradient-2"/><linearGradient id="linear-gradient-7" x1="64" y1="127" x2="64" y2="103" gradientUnits="userSpaceOnUse"><stop offset="0" stop-color="#da5466"/><stop offset="1" stop-color="#e87092"/></linearGradient><linearGradient id="linear-gradient-8" x1="64" y1="117" x2="64" y2="103" gradientUnits="userSpaceOnUse"><stop offset="0" stop-color="#fbcc88"/><stop offset="1" stop-color="#ffe5c3"/></linearGradient></defs><title>Launching</title><g id="Launching"><path class="cls-1" d="M86,37V89.29A5.57,5.57,0,0,1,80.58,95H47.42A5.57,5.57,0,0,1,42,89.29V37A42.7,42.7,0,0,1,59,2.66a8.29,8.29,0,0,1,10,0A42.73,42.73,0,0,1,86,37Z"/><path class="cls-2" d="M86,83.29v6A5.57,5.57,0,0,1,80.58,95H47.42A5.57,5.57,0,0,1,42,89.29v-6A5.57,5.57,0,0,0,47.42,89H80.58A5.57,5.57,0,0,0,86,83.29Z"/><path class="cls-3" d="M79.07,13.43a37.38,37.38,0,0,1-30.14,0A40.85,40.85,0,0,1,59,2.66a8.29,8.29,0,0,1,10,0A40.63,40.63,0,0,1,79.07,13.43Z"/><path class="cls-4" d="M79.07,13.43a37.38,37.38,0,0,1-30.14,0,42.32,42.32,0,0,1,2.82-3.85,38.13,38.13,0,0,0,24.5,0A42.7,42.7,0,0,1,79.07,13.43Z"/><circle class="cls-5" cx="64" cy="60" r="13"/><path class="cls-6" d="M76.85,62a13,13,0,0,0-25.7,0,13,13,0,1,1,25.7,0Z"/><polygon class="cls-7" points="48 95 80 95 78 103 50 103 48 95"/><polygon class="cls-8" points="86 54 114 76.63 114 88 86 88 86 54"/><polygon class="cls-9" points="42 54 14 76.63 14 88 42 88 42 54"/><rect class="cls-4" x="86" y="82" width="28" height="6"/><rect class="cls-4" x="14" y="82" width="28" height="6"/><path class="cls-10" d="M70.69,103A7.43,7.43,0,0,1,73,108.33c0,8-9,18.67-9,18.67s-9-10.67-9-18.67A7.43,7.43,0,0,1,57.31,103"/><path class="cls-11" d="M67.9,103a4.33,4.33,0,0,1,1.35,3.11C69.25,110.78,64,117,64,117s-5.25-6.22-5.25-10.89A4.33,4.33,0,0,1,60.1,103"/><path class="cls-12" d="M64,46A14,14,0,1,0,78,60,14,14,0,0,0,64,46Zm0,26A12,12,0,1,1,76,60,12,12,0,0,1,64,72Z"/><path class="cls-12" d="M114.64,75.83,87,53.51V37c0-14.57-7.28-24.57-7-24,0,0,0-.05,0-.08A41.91,41.91,0,0,0,69.59,1.84a9.31,9.31,0,0,0-11.17,0A43.72,43.72,0,0,0,41,37V53.51L13.36,75.83c-.53.44-.38-.06-.38,12.17a1,1,0,0,0,1,1H41a6.63,6.63,0,0,0,6.22,7L49,103.25a1,1,0,0,0,1,.77h5.21A8.25,8.25,0,0,0,54,108.33c0,8.28,8.86,18.88,9.24,19.33a1,1,0,0,0,1.56,0c.38-.45,9.24-11,9.24-19.33A8.25,8.25,0,0,0,72.79,104H78a1,1,0,0,0,1-.77L80.8,96C84,95.9,87,93.25,87,89h27a1,1,0,0,0,1-1C115,75.77,115.17,76.27,114.64,75.83Zm-55-72.35a7.29,7.29,0,0,1,8.75,0A39.44,39.44,0,0,1,77.53,13a36.47,36.47,0,0,1-27.06,0A39.17,39.17,0,0,1,59.63,3.48ZM15,87V77.12l26-21V87Zm57,21.35c0,6.18-5.83,14.27-8,17-2.15-2.77-8-10.86-8-17A6.41,6.41,0,0,1,57.75,104h12.5A6.41,6.41,0,0,1,72,108.33ZM77.2,102H50.8l-1.49-6H78.69ZM85,89.29A4.55,4.55,0,0,1,80.58,94H47.42A4.55,4.55,0,0,1,43,89.29V37a42.18,42.18,0,0,1,6.33-22.28,38.43,38.43,0,0,0,29.32,0C86.48,27.25,85,38.06,85,54ZM113,87H87V56.14l26,21Z"/></g></svg>