<svg xmlns="http://www.w3.org/2000/svg" xmlns:xlink="http://www.w3.org/1999/xlink" viewBox="0 0 128 128"><defs><style>.cls-1{fill:url(#linear-gradient);}.cls-2{fill:#42455e;}.cls-3{fill:url(#linear-gradient-2);}.cls-4{fill:url(#linear-gradient-3);}.cls-5{fill:#dd4e6a;}.cls-6{fill:#cba07a;}.cls-7{fill:url(#linear-gradient-4);}.cls-8{fill:#c7cdd8;}.cls-9{fill:#47566a;}</style><linearGradient id="linear-gradient" x1="69" y1="114" x2="69" y2="14" gradientUnits="userSpaceOnUse"><stop offset="0" stop-color="#454b60"/><stop offset="1" stop-color="#575f7c"/></linearGradient><linearGradient id="linear-gradient-2" x1="69" y1="114" x2="69" y2="14" gradientUnits="userSpaceOnUse"><stop offset="0" stop-color="#d1a788"/><stop offset="1" stop-color="#f2d3b8"/></linearGradient><linearGradient id="linear-gradient-3" x1="83" y1="84" x2="83" y2="44" gradientUnits="userSpaceOnUse"><stop offset="0" stop-color="#da5466"/><stop offset="1" stop-color="#e87092"/></linearGradient><linearGradient id="linear-gradient-4" x1="34" y1="127" x2="34" y2="1" gradientUnits="userSpaceOnUse"><stop offset="0" stop-color="#dde1e8"/><stop offset="1" stop-color="#f3f4f5"/></linearGradient></defs><title>Log Out</title><g id="Log_Out" data-name="Log Out"><rect class="cls-1" x="53" y="14" width="32" height="100"/><rect class="cls-2" x="53" y="109" width="32" height="5"/><path class="cls-3" d="M53,14v6H78v94h7V14Z"/><polygon class="cls-4" points="113 64 93 44 93 54 53 54 53 74 93 74 93 84 113 64"/><rect class="cls-5" x="53" y="70" width="40" height="4"/><polygon class="cls-5" points="113 64 93 84 93 79 113 64"/><rect class="cls-6" x="78" y="109" width="7" height="5"/><rect class="cls-6" x="78" y="74" width="7" height="5"/><polygon class="cls-7" points="53 127 15 114 15 14 53 1 53 127"/><polygon class="cls-8" points="53 121 53 127 15 114 15 108 53 121"/><path class="cls-9" d="M44,61v6a1,1,0,0,0,2,0V61A1,1,0,0,0,44,61Z"/><path class="cls-9" d="M113,113H86V75h6v9a1,1,0,0,0,1,1c.64,0-.83,1.26,20.72-20.3a1,1,0,0,0,0-1.44l-20-20A1,1,0,0,0,92,44v9H86V14a1,1,0,0,0-1-1H54V1a1,1,0,0,0-1.35-1l-38,13A1,1,0,0,0,14,14c0,106.58-.38,100.6.69,101C55.34,128.88,52.74,128,53,128a1,1,0,0,0,1-1V115h59A1,1,0,0,0,113,113ZM93,55a1,1,0,0,0,1-1V46.46L111.56,64,94,81.54V74a1,1,0,0,0-1-1H54V55ZM54,21H77V53H54Zm30-6V53H79V20a1,1,0,0,0-1-1H54V15ZM52,125.57l-36-12.3V14.73L52,2.43ZM54,75H77v38H54Zm25,38V75h5v38Z"/></g></svg>