<svg xmlns="http://www.w3.org/2000/svg" xmlns:xlink="http://www.w3.org/1999/xlink" viewBox="0 0 128 128"><defs><style>.cls-1{fill:url(#linear-gradient);}.cls-2{fill:url(#linear-gradient-2);}.cls-3{fill:url(#linear-gradient-3);}.cls-4{fill:url(#linear-gradient-4);}.cls-5{fill:url(#linear-gradient-5);}.cls-6{fill:#c7cdd8;}.cls-7{fill:url(#linear-gradient-6);}.cls-8{fill:#8288a1;}.cls-9{fill:url(#linear-gradient-7);}.cls-10{fill:url(#linear-gradient-8);}.cls-11{fill:#47566a;}</style><linearGradient id="linear-gradient" x1="8" y1="124" x2="8" y2="106" gradientTransform="translate(16 230) rotate(180)" gradientUnits="userSpaceOnUse"><stop offset="0" stop-color="#dde1e8"/><stop offset="1" stop-color="#f3f4f5"/></linearGradient><linearGradient id="linear-gradient-2" x1="28" y1="126" x2="28" y2="104" gradientUnits="userSpaceOnUse"><stop offset="0" stop-color="#949aaf"/><stop offset="1" stop-color="#c6ccda"/></linearGradient><linearGradient id="linear-gradient-3" x1="45" y1="120" x2="45" y2="110" xlink:href="#linear-gradient-2"/><linearGradient id="linear-gradient-4" x1="69" y1="118" x2="69" y2="54" gradientTransform="matrix(1, 0, 0, 1, 0, 0)" xlink:href="#linear-gradient"/><linearGradient id="linear-gradient-5" x1="120" y1="124" x2="120" y2="106" gradientTransform="matrix(1, 0, 0, 1, 0, 0)" xlink:href="#linear-gradient"/><linearGradient id="linear-gradient-6" x1="100" y1="126" x2="100" y2="104" xlink:href="#linear-gradient-2"/><linearGradient id="linear-gradient-7" x1="83" y1="120" x2="83" y2="110" xlink:href="#linear-gradient-2"/><linearGradient id="linear-gradient-8" x1="59" y1="118" x2="59" y2="54" gradientTransform="matrix(1, 0, 0, 1, 0, 0)" xlink:href="#linear-gradient"/></defs><title>No Connection</title><g id="No_Connection" data-name="No Connection"><rect class="cls-1" x="1" y="106" width="14" height="18" transform="translate(16 230) rotate(-180)"/><polygon class="cls-2" points="32 104 37 108 41 108 41 122 37 122 32 126 15 126 15 104 32 104"/><polygon class="cls-3" points="49 119 41 120 41 110 49 111 49 119"/><path class="cls-4" d="M89,54V78a39.88,39.88,0,0,1-11.72,28.28c-4.58,4.58-7,5.43-13.28,8.8A38.43,38.43,0,0,1,49,118v-6a34.08,34.08,0,0,0,7.61-.85c7.09-2.52,8-2.59,11.67-5.14A33.94,33.94,0,0,0,83,78V54Z"/><rect class="cls-5" x="113" y="106" width="14" height="18"/><rect class="cls-6" x="1" y="121" width="14" height="3" transform="translate(16 245) rotate(-180)"/><rect class="cls-6" x="113" y="121" width="14" height="3"/><polygon class="cls-7" points="96 104 91 108 87 108 87 122 91 122 96 126 113 126 113 104 96 104"/><polygon class="cls-8" points="41 118 41 122 37 122 32 126 15 126 15 122 32 122 37 118 41 118"/><polygon class="cls-8" points="113 122 113 126 96 126 91 122 87 122 87 118 91 118 96 122 113 122"/><polygon class="cls-9" points="79 119 87 120 87 110 79 111 79 119"/><polygon class="cls-8" points="49 116 49 119 41 120 41 117 49 116"/><polygon class="cls-8" points="87 117 87 120 79 119 79 116 87 117"/><path class="cls-6" d="M75.66,107.81a42.08,42.08,0,0,1-4.27,3.34c-6.31,3.35-7.64,4.45-13,5.73a43,43,0,0,1-7.4-4.94c5.06-.29,6.13-1,13-3.42A33.28,33.28,0,0,0,68.28,106,28.88,28.88,0,0,0,75.66,107.81Z"/><path class="cls-10" d="M45,54V78a34,34,0,0,0,34,34v6A40,40,0,0,1,39,78V54Z"/><path class="cls-11" d="M10,110H6a1,1,0,0,0,0,2h4A1,1,0,0,0,10,110Z"/><path class="cls-11" d="M10,118H6a1,1,0,0,0,0,2h4A1,1,0,0,0,10,118Z"/><path class="cls-11" d="M127,105H114v-2a1,1,0,0,0-2,0H96c-.5,0-.28-.06-5.36,4H87a1,1,0,0,0-1,1v1.1l-7.11.89a1,1,0,0,0-.88,1,32.37,32.37,0,0,1-4.09-.37A40.8,40.8,0,0,0,90,78V54a1,1,0,0,0-1-1H87V50.17c1-3,1.19-3.19.83-3.74l-2-3a1,1,0,0,0-1.7,1.14l1.72,2.58C84.75,50.53,85,49,85,53H83a1,1,0,0,0-1,1V78a32.78,32.78,0,0,1-18,29.36A33,33,0,0,1,46,78V54a1,1,0,0,0-1-1H43c0-3.83.23-2.44-.89-5.83l1.72-2.58a1,1,0,0,0-1.7-1.14l-2,3c-.37.56-.16.76.83,3.74V53H39a1,1,0,0,0-1,1V78a41,41,0,0,0,16.13,32.58A32.87,32.87,0,0,1,50,111a1,1,0,0,0-.88-1L42,109.1V108a1,1,0,0,0-1-1H37.36l-4.72-3.78c-.44-.34.68-.22-16.62-.22a1,1,0,0,0-2,0v2H1a1,1,0,0,0-1,1v18a1,1,0,0,0,1,1H14v2a1,1,0,0,0,2,0H32c.5,0,.28.06,5.36-4H41a1,1,0,0,0,1-1v-1.1l7.11-.89a1,1,0,0,0,.89-1,40.57,40.57,0,0,0,14-2.83A40.87,40.87,0,0,0,78,119a1,1,0,0,0,.89,1l7.11.89V122a1,1,0,0,0,1,1h3.64c5,4,4.86,4,5.36,4h16a1,1,0,0,0,2,0v-2h13a1,1,0,0,0,1-1V106A1,1,0,0,0,127,105ZM84,78V55h4V78A38.85,38.85,0,0,1,71.2,110a32.51,32.51,0,0,1-4.89-1.6A34.79,34.79,0,0,0,84,78ZM2,123V107H14v16Zm38-2c-3.23,0-3.25-.07-3.62.22L31.64,125H16V105H31.64c5.24,4.19,4.88,4,5.36,4h3Zm8-2.88-6,.74v-7.68c6.62.82,6,.7,6,.84ZM50,117v-4a36,36,0,0,0,6.41-.78A41.28,41.28,0,0,0,61.28,115,38.55,38.55,0,0,1,50,117ZM40,78V55h4V78a35.09,35.09,0,0,0,34,35v4A39,39,0,0,1,40,78Zm40,40.1V112c0-.14-.64,0,6-.84v7.68Zm11.62,3.1c-.37-.29-.38-.22-3.62-.22V109h3c.5,0,.28.06,5.36-4H112v20H96.36ZM126,123H114V107h12Z"/><path class="cls-11" d="M118,112h4a1,1,0,0,0,0-2h-4A1,1,0,0,0,118,112Z"/><path class="cls-11" d="M118,120h4a1,1,0,0,0,0-2h-4A1,1,0,0,0,118,120Z"/><path class="cls-11" d="M69.28,37.28,64,42.56l-5.28-5.28a1,1,0,0,0-1.44,1.44L62.56,44l-5.28,5.28a1,1,0,0,0,1.44,1.44L64,45.44l5.28,5.28a1,1,0,0,0,1.44-1.44L65.44,44l5.28-5.28A1,1,0,0,0,69.28,37.28Z"/><path class="cls-11" d="M78.16,29.84a20,20,0,0,0-28.32,0,1,1,0,0,0,1.45,1.45,18,18,0,0,1,25.42,0A1,1,0,0,0,78.16,29.84Z"/><path class="cls-11" d="M34.32,14.32a41.94,41.94,0,0,1,59.36,0,1,1,0,0,0,1.45-1.45,44,44,0,0,0-62.26,0A1,1,0,0,0,34.32,14.32Z"/><path class="cls-11" d="M86.64,21.36a32,32,0,0,0-45.28,0A1,1,0,0,0,42.8,22.8a30,30,0,0,1,42.4,0A1,1,0,0,0,86.64,21.36Z"/></g></svg>