<svg xmlns="http://www.w3.org/2000/svg" xmlns:xlink="http://www.w3.org/1999/xlink" viewBox="0 0 128 128"><defs><style>.cls-1{fill:url(#linear-gradient);}.cls-2{fill:#f6b756;}.cls-3{fill:none;stroke:#47566a;stroke-linecap:round;stroke-linejoin:round;stroke-width:2.04px;}.cls-4{fill:url(#linear-gradient-2);}.cls-5{fill:#5b8dc9;}.cls-6{fill:url(#linear-gradient-3);}.cls-7{fill:url(#linear-gradient-4);}.cls-8{fill:url(#linear-gradient-5);}.cls-9{fill:url(#linear-gradient-6);}.cls-10{fill:#42455e;}.cls-11{fill:url(#linear-gradient-7);}.cls-12{fill:#dd4e6a;}.cls-13{fill:#47566a;}</style><linearGradient id="linear-gradient" x1="88" y1="13" x2="88" y2="1" gradientUnits="userSpaceOnUse"><stop offset="0" stop-color="#fbcc88"/><stop offset="1" stop-color="#ffe5c3"/></linearGradient><linearGradient id="linear-gradient-2" x1="74" y1="82" x2="74" y2="21" gradientUnits="userSpaceOnUse"><stop offset="0" stop-color="#7aa8d7"/><stop offset="1" stop-color="#96c8ea"/></linearGradient><linearGradient id="linear-gradient-3" x1="41" y1="82" x2="41" y2="21" gradientUnits="userSpaceOnUse"><stop offset="0" stop-color="#454b60"/><stop offset="1" stop-color="#575f7c"/></linearGradient><linearGradient id="linear-gradient-4" x1="36" y1="127" x2="36" y2="82" xlink:href="#linear-gradient-2"/><linearGradient id="linear-gradient-5" x1="80" y1="57" x2="80" y2="49" xlink:href="#linear-gradient"/><linearGradient id="linear-gradient-6" x1="83" y1="127" x2="83" y2="82" gradientUnits="userSpaceOnUse"><stop offset="0" stop-color="#d1a788"/><stop offset="1" stop-color="#f2d3b8"/></linearGradient><linearGradient id="linear-gradient-7" x1="24" y1="74" x2="24" y2="28" gradientUnits="userSpaceOnUse"><stop offset="0" stop-color="#da5466"/><stop offset="1" stop-color="#e87092"/></linearGradient></defs><title>No Messages</title><g id="No_Messages" data-name="No Messages"><rect class="cls-1" x="80" y="1" width="16" height="12"/><rect class="cls-2" x="80" y="9" width="16" height="4"/><circle class="cls-3" cx="80" cy="53" r="4"/><path class="cls-4" d="M21,67.57V82H127V41a20,20,0,0,0-20-20H41A20,20,0,0,0,21,41v6.33"/><rect class="cls-5" x="21" y="78" width="106" height="4"/><path class="cls-6" d="M61,41V82H21V41c0-17.87,21.65-26.63,34.14-14.14A19.94,19.94,0,0,1,61,41Z"/><path class="cls-7" d="M21,82H61l-8.71,25.85A28.26,28.26,0,0,1,25.45,127a14.31,14.31,0,0,1-13.7-18.8Z"/><path class="cls-5" d="M61,82l-8.71,25.85c-6.71,19.94-35.12,26.51-40.63,9.12a14.4,14.4,0,0,0,11.79,6,28.26,28.26,0,0,0,26.84-19.15L57.65,82Z"/><circle class="cls-8" cx="80" cy="53" r="4"/><path class="cls-2" d="M80,57a4,4,0,0,1-3.7-5.5,4,4,0,0,0,7.4,0A4,4,0,0,1,80,57Z"/><rect class="cls-9" x="76" y="82" width="14" height="45"/><rect class="cls-10" x="21" y="78" width="40" height="4"/><circle class="cls-11" cx="24" cy="51" r="23"/><path class="cls-12" d="M24,74A23,23,0,0,1,1.09,49a23,23,0,0,0,45.82,0A23,23,0,0,1,24,74Z"/><path class="cls-10" d="M21,77.8v-4A23,23,0,0,0,46.91,53,23,23,0,0,1,21,77.8Z"/><path class="cls-13" d="M107,20H81V14H96a1,1,0,0,0,1-1V1a1,1,0,0,0-1-1H80a1,1,0,0,0-1,1V20H41a21,21,0,0,0-15.69,7A24,24,0,0,0,20,74.68v7.15l-9.19,26A15.31,15.31,0,0,0,25.45,128a29.26,29.26,0,0,0,27.81-19.84L61.73,83H75v44a1,1,0,0,0,2,0V83H89v44a1,1,0,0,0,2,0V83h36a1,1,0,0,0,1-1V41A21,21,0,0,0,107,20ZM95,12H81V2H95ZM2,51A22,22,0,1,1,21.31,72.81a.72.72,0,0,0-.37,0A22,22,0,0,1,2,51Zm46,0A24,24,0,0,0,27.87,27.3C40,15.69,60,24.44,60,41V81H22v-6A24,24,0,0,0,48,51Zm3.3,56.53A27.21,27.21,0,0,1,25.45,126a13.28,13.28,0,0,1-12.74-17.44l9-25.52H59.58ZM126,81H62V41A20.93,20.93,0,0,0,50,22H79V48.08a5,5,0,1,0,2,0V22h26a19,19,0,0,1,19,19ZM80,50a3,3,0,1,1-3,3A3,3,0,0,1,80,50Z"/><path class="cls-13" d="M24,52.44C34.05,62.49,33.4,62,34,62a1,1,0,0,0,.72-1.74L25.44,51l9.28-9.28a1,1,0,0,0-1.44-1.44L24,49.56l-9.28-9.28a1,1,0,0,0-1.44,1.44L22.56,51l-9.28,9.28A1,1,0,0,0,14,62C14.59,62,13.92,62.52,24,52.44Z"/></g></svg>