<svg xmlns="http://www.w3.org/2000/svg" xmlns:xlink="http://www.w3.org/1999/xlink" viewBox="0 0 128 128"><defs><style>.cls-1{fill:url(#linear-gradient);}.cls-2{fill:#c7cdd8;}.cls-3{fill:url(#linear-gradient-2);}.cls-4{fill:url(#linear-gradient-3);}.cls-5{fill:#8288a1;}.cls-6{fill:url(#linear-gradient-4);}.cls-7{fill:url(#linear-gradient-5);}.cls-8{fill:#77cacb;}.cls-9{fill:url(#linear-gradient-6);}.cls-10{fill:#47566a;}</style><linearGradient id="linear-gradient" x1="46.5" y1="127" x2="46.5" y2="1" gradientUnits="userSpaceOnUse"><stop offset="0" stop-color="#dde1e8"/><stop offset="1" stop-color="#f3f4f5"/></linearGradient><linearGradient id="linear-gradient-2" x1="97" y1="102.12" x2="97" y2="91.88" gradientTransform="translate(97 -40.18) rotate(45)" gradientUnits="userSpaceOnUse"><stop offset="0" stop-color="#9b756d"/><stop offset="1" stop-color="#bc9388"/></linearGradient><linearGradient id="linear-gradient-3" x1="76" y1="103" x2="76" y2="49" gradientUnits="userSpaceOnUse"><stop offset="0" stop-color="#949aaf"/><stop offset="1" stop-color="#c6ccda"/></linearGradient><linearGradient id="linear-gradient-4" x1="112" y1="127" x2="112" y2="97" gradientUnits="userSpaceOnUse"><stop offset="0" stop-color="#d1a788"/><stop offset="1" stop-color="#f2d3b8"/></linearGradient><linearGradient id="linear-gradient-5" x1="76" y1="97" x2="76" y2="55" gradientUnits="userSpaceOnUse"><stop offset="0" stop-color="#9dd5df"/><stop offset="1" stop-color="#c3e1f5"/></linearGradient><linearGradient id="linear-gradient-6" x1="92" y1="21" x2="92" y2="1" xlink:href="#linear-gradient-3"/></defs><title>No Results</title><g id="No_Results" data-name="No Results"><path class="cls-1" d="M92,1A11,11,0,0,0,81,12V127l-6.66-4-6.67,4L61,123l-6.66,4-6.66-4L41,127l-6.66-4-6.67,4L21,123l-6.67,4-6.68-4L1,127V12A11,11,0,0,1,12,1Z"/><polygon class="cls-2" points="74.34 117 81 121 81 127 74.34 123 67.67 127 61 123 54.34 127 47.68 123 41.01 127 34.35 123 27.68 127 21.02 123 14.35 127 7.67 123 1 127 1 121 7.67 117 14.35 121 21.02 117 27.68 121 34.35 117 41.01 121 47.68 117 54.34 121 61 117 67.67 121 74.34 117"/><path class="cls-2" d="M81,53.46v53.07a27,27,0,1,1,0-53.07Z"/><rect class="cls-3" x="94" y="92.76" width="6" height="8.49" transform="translate(-40.18 97) rotate(-45)"/><circle class="cls-4" cx="76" cy="76" r="27"/><path class="cls-5" d="M95.09,95.09C77.55,112.64,47.68,99.06,49,74.5c1.26,23,29.42,34.23,46.05,17.59A26.88,26.88,0,0,0,103,74.5,26.9,26.9,0,0,1,95.09,95.09Z"/><path class="cls-6" d="M120,127a2.41,2.41,0,0,0,1.71-.71c4.77-4.77,5.29-5,5.29-6.29a2.41,2.41,0,0,0-.71-1.71C104.27,96.27,105.43,97,104,97a2.41,2.41,0,0,0-1.71.71c-4.77,4.77-5.29,5-5.29,6.29a2.41,2.41,0,0,0,.71,1.71C119.73,127.73,118.57,127,120,127Z"/><circle class="cls-7" cx="76" cy="76" r="21"/><path class="cls-8" d="M96.9,78c-1.63-17.34-23-25.56-35.75-12.84A20.85,20.85,0,0,0,55.1,78a20.91,20.91,0,0,1,6-16.84C75.09,47.21,98.77,58.54,96.9,78Z"/><path class="cls-9" d="M103,12v9H81V12a11,11,0,0,1,22,0Z"/><path class="cls-10" d="M68.91,84.1a1,1,0,0,0,1.45,1.44,8,8,0,0,1,11.28,0,1,1,0,0,0,1.45-1.44A10,10,0,0,0,68.91,84.1Z"/><path class="cls-10" d="M85,73.18v-2a1,1,0,0,0-2,0v2A1,1,0,0,0,85,73.18Z"/><path class="cls-10" d="M69,73.18v-2a1,1,0,0,0-2,0v2A1,1,0,0,0,69,73.18Z"/><path class="cls-10" d="M60.43,60.43C46.54,74.32,56.51,98,76,98s29.45-23.7,15.57-37.58A22,22,0,0,0,60.43,60.43Zm29.7,29.7a20,20,0,1,1,0-28.26A20,20,0,0,1,90.13,90.13Z"/><path class="cls-10" d="M127,117.57,106.43,97a3.52,3.52,0,0,0-4.23-.48l-3.75-3.75A28,28,0,0,0,82,48.65V22h21a1,1,0,0,0,1-1V12A12,12,0,0,0,92,0H12A12,12,0,0,0,0,12C0,134.81-.32,127.48.58,127.9c.65.31.55.19,7.09-3.73l6.16,3.69c.7.42.51.31,7.19-3.69,6.42,3.85,6.47,4.11,7.17,3.69l6.16-3.69,6.15,3.69c.69.41.49.32,7.18-3.69,6.42,3.85,6.47,4.11,7.18,3.69L61,124.17l6.16,3.69c.69.41.49.32,7.17-3.69,6.69,4,6.48,4.09,7.16,3.7S82,129,82,103.35a27.77,27.77,0,0,0,10.76-4.9l3.74,3.74a3.41,3.41,0,0,0,.49,4.24L117.57,127a3.41,3.41,0,0,0,2.43,1c1.89,0,2.33-.91,7-5.59A3.43,3.43,0,0,0,127,117.57ZM102,76A26,26,0,1,1,76,50,26,26,0,0,1,102,76Zm0-64v8H82V12a10,10,0,0,1,20,0ZM80,125.23c-5.54-3.32-5.49-3.5-6.18-3.09l-6.15,3.69-6.15-3.69c-.7-.41-.54-.29-7.18,3.69-6.42-3.85-6.47-4.11-7.18-3.69L41,125.83l-6.15-3.69c-.69-.41-.5-.32-7.18,3.69-6.42-3.85-6.47-4.11-7.18-3.69l-6.15,3.69-6.16-3.69c-.69-.41-.61-.25-6.19,3.1V12A10,10,0,0,1,12,2C88.83,2,85.44,2,85.34,2a12.12,12.12,0,0,0-5.25,8.57C80,11.72,80,8.41,80,48.28a28,28,0,0,0-23.81,7.91C37.26,75.11,53.32,107.54,80,103.72ZM97.16,94.36l3.52,3.52-2.8,2.8-3.52-3.52A25.53,25.53,0,0,0,97.16,94.36ZM121,125.57a1.43,1.43,0,0,1-2,0C96.49,103.05,98,104.82,98,104s.1-.68,5-5.57a1.4,1.4,0,0,1,2,0C127.51,121,126,119.18,126,120S126,120.61,121,125.57Z"/><path class="cls-10" d="M51.48,34.59c1.62-5.2-.66-11.3-4.42-13.56C37.83,15.52,28,21.93,28,31a1,1,0,0,0,2,0c0-7.47,8.11-12.92,16-8.22,5.07,3,6.06,13.7-1.88,17.31A9,9,0,0,0,39,48.36V52a1,1,0,0,0,2,0V48.36A7,7,0,0,1,45,42,12.05,12.05,0,0,0,51.48,34.59Z"/><path class="cls-10" d="M40,57a2,2,0,1,0,2,2A2,2,0,0,0,40,57Zm0,2,0,0C41.35,59,41.33,59,40,59Z"/></g></svg>