<svg xmlns="http://www.w3.org/2000/svg" xmlns:xlink="http://www.w3.org/1999/xlink" viewBox="0 0 128 128"><defs><style>.cls-1{fill:url(#linear-gradient);}.cls-2{fill:url(#linear-gradient-2);}.cls-3{fill:#f6b756;}.cls-4{fill:#7ece67;}.cls-5{fill:url(#linear-gradient-3);}.cls-6{fill:#cba07a;}.cls-7{fill:url(#linear-gradient-4);}.cls-8{fill:#c7cdd8;}.cls-9{fill:url(#linear-gradient-5);}.cls-10{fill:url(#linear-gradient-6);}.cls-11{fill:#47566a;}</style><linearGradient id="linear-gradient" x1="55" y1="127" x2="55" y2="45" gradientUnits="userSpaceOnUse"><stop offset="0" stop-color="#fbcc88"/><stop offset="1" stop-color="#ffe5c3"/></linearGradient><linearGradient id="linear-gradient-2" x1="105" y1="108" x2="105" y2="64" gradientUnits="userSpaceOnUse"><stop offset="0" stop-color="#8cdd79"/><stop offset="1" stop-color="#d4e6b6"/></linearGradient><linearGradient id="linear-gradient-3" x1="55" y1="89.2" x2="55" y2="30" gradientUnits="userSpaceOnUse"><stop offset="0" stop-color="#d1a788"/><stop offset="1" stop-color="#f2d3b8"/></linearGradient><linearGradient id="linear-gradient-4" x1="55" y1="89.2" x2="55" y2="1" gradientUnits="userSpaceOnUse"><stop offset="0" stop-color="#dde1e8"/><stop offset="1" stop-color="#f3f4f5"/></linearGradient><linearGradient id="linear-gradient-5" y1="53" x2="55" y2="19" xlink:href="#linear-gradient"/><linearGradient id="linear-gradient-6" y1="59" x2="55" y2="53" xlink:href="#linear-gradient"/></defs><title>Notification</title><g id="Notification"><rect class="cls-1" x="1" y="45" width="108" height="82"/><circle class="cls-2" cx="105" cy="86" r="22"/><rect class="cls-3" x="1" y="122" width="108" height="5"/><path class="cls-4" d="M105,108A22,22,0,0,1,83.09,84a22,22,0,0,0,43.82,0A22,22,0,0,1,105,108Z"/><path class="cls-3" d="M109,107.63v4A22,22,0,0,1,83.09,88,22,22,0,0,0,109,107.63Z"/><path class="cls-5" d="M93,30l16,15L65.91,84.9a16,16,0,0,1-21.82,0L1,45,17,30Z"/><path class="cls-6" d="M109,45,65.91,84.9a16,16,0,0,1-21.82,0L1,45l2.68-2.52c43.4,40.19,41.54,39.08,45.46,40.6A16,16,0,0,0,65.91,79.9l40.41-37.42Z"/><path class="cls-7" d="M93,1V59.82L65.91,84.9a16,16,0,0,1-16.77,3.18C45.42,86.64,47,87.6,17,59.82V1Z"/><path class="cls-8" d="M74,56c-3.56-5.94-3-10.65-3-17.55a16.43,16.43,0,0,0-12.34-16,5,5,0,1,0-7.32,0A16,16,0,0,0,39,38c0,7.13.59,12-3,18a3,3,0,0,0,0,6H50.41a5,5,0,1,0,9.18,0H74a3,3,0,0,0,0-6ZM53.2,21.37a3,3,0,1,1,3.6,0,1,1,0,0,0-.42.7,11.48,11.48,0,0,0-2.77,0A1,1,0,0,0,53.2,21.37Z"/><path class="cls-8" d="M93,54.81v5L65.91,84.9a16,16,0,0,1-16.77,3.18C45.42,86.64,47,87.6,17,59.82v-5L44.09,79.9a16,16,0,0,0,21.82,0Z"/><path class="cls-9" d="M71,42.17V35.45c0-8.61-6.62-16-15.23-16.43A16,16,0,0,0,39,35c0,7.33.58,12-3,18H74A21.06,21.06,0,0,1,71,42.17Z"/><path class="cls-3" d="M74,53H36a21.36,21.36,0,0,0,1.86-4H72.14A21.36,21.36,0,0,0,74,53Z"/><path class="cls-3" d="M59.59,59a5,5,0,1,1-9.18,0"/><path class="cls-10" d="M74,59H36a3,3,0,0,1,0-6H74a3,3,0,0,1,0,6Z"/><path class="cls-11" d="M36,60H49.07a6,6,0,1,0,11.86,0H74a4,4,0,0,0,.64-8C71.51,46.53,72,42.39,72,35.45a17.35,17.35,0,0,0-12.7-16.9,5,5,0,1,0-8.65,0,17,17,0,0,0-7.42,4.15C33.53,32,41.54,41.14,35.36,52A4,4,0,0,0,36,60Zm19,5a4,4,0,0,1-3.85-5h7.7A4,4,0,0,1,55,65Zm0-52a3,3,0,0,1,2.06,5.1,14.87,14.87,0,0,0-4.12,0A3,3,0,0,1,55,13ZM44.66,24.16C54.17,15.09,70,21.8,70,35.45c0,6.81-.46,11,2.3,16.53H37.72C43.15,41,36.08,32.35,44.66,24.16ZM36,54H74a2,2,0,1,1,0,4H36a2,2,0,0,1,0-4Z"/><path class="cls-11" d="M128,86a23.05,23.05,0,0,0-18-22.46c0-20,.08-18.71-.2-19.11s1.43,1.28-15.8-14.87V1a1,1,0,0,0-1-1H17a1,1,0,0,0-1,1V29.56C-5.5,49.7,1.71,42.79.27,44.3c-.46.47-.29-1-.29,82.7a1,1,0,0,0,1,1H109a1,1,0,0,0,1-1V108.46A23.05,23.05,0,0,0,128,86ZM107.5,45,94,57.48V32.36ZM92,2V59.37L65.21,84.16a15,15,0,0,1-20.42,0L18,59.37V2ZM2,47.34C4.83,49.93,42.62,85,43.85,86L2,125.07Zm43.47,40a16.89,16.89,0,0,0,19,0L106,126H4ZM16,57.48,2.5,45,16,32.36Zm92,67.59L66.15,86C68.75,83.76,58,93.61,108,47.34V63.18a23,23,0,1,0,0,45.64ZM105,107a21,21,0,1,1,21-21A21,21,0,0,1,105,107Z"/><path class="cls-11" d="M116.28,77.28,101,92.56l-7.28-7.28a1,1,0,0,0-1.44,1.44c8.63,8.63,8.12,8.3,8.72,8.3s-.8,1.22,16.72-16.3A1,1,0,0,0,116.28,77.28Z"/></g></svg>