<svg xmlns="http://www.w3.org/2000/svg" xmlns:xlink="http://www.w3.org/1999/xlink" viewBox="0 0 128 128"><defs><style>.cls-1{fill:url(#linear-gradient);}.cls-2{fill:#cba07a;}.cls-3{fill:url(#linear-gradient-2);}.cls-4{fill:#f6b756;}.cls-5{fill:url(#linear-gradient-3);}.cls-6{fill:#7ece67;}.cls-7{fill:url(#linear-gradient-4);}.cls-8{fill:#47566a;}</style><linearGradient id="linear-gradient" x1="52" y1="127" x2="52" y2="31" gradientUnits="userSpaceOnUse"><stop offset="0" stop-color="#d1a788"/><stop offset="1" stop-color="#f2d3b8"/></linearGradient><linearGradient id="linear-gradient-2" x1="53" y1="53" x2="53" y2="31" gradientUnits="userSpaceOnUse"><stop offset="0" stop-color="#fbcc88"/><stop offset="1" stop-color="#ffe5c3"/></linearGradient><linearGradient id="linear-gradient-3" x1="104" y1="47" x2="104" y2="1" gradientUnits="userSpaceOnUse"><stop offset="0" stop-color="#8cdd79"/><stop offset="1" stop-color="#d4e6b6"/></linearGradient><linearGradient id="linear-gradient-4" x1="20" y1="118" x2="20" y2="110" gradientUnits="userSpaceOnUse"><stop offset="0" stop-color="#dde1e8"/><stop offset="1" stop-color="#f3f4f5"/></linearGradient></defs><title>Order Completed</title><g id="Order_Completed" data-name="Order Completed"><path class="cls-1" d="M103,31v96H1V31Z"/><path class="cls-2" d="M103,122v5H1v-5Z"/><polygon class="cls-3" points="66 31 66 53 61.67 51 57.34 53 53.01 51 48.67 53 44.34 51 40 53 40 31 66 31"/><polygon class="cls-4" points="66 49 66 53 61.67 51 57.34 53 53.01 51 48.67 53 44.34 51 40 53 40 49 44.34 47 48.67 49 53.01 47 57.34 49 61.67 47 66 49"/><circle class="cls-5" cx="104" cy="24" r="23"/><path class="cls-6" d="M104,47A23,23,0,0,1,81.09,22a23,23,0,0,0,45.82,0A23,23,0,0,1,104,47Z"/><rect class="cls-7" x="10" y="110" width="20" height="8"/><path class="cls-8" d="M128,24a24,24,0,1,0-47.29,6H1a1,1,0,0,0-1,1v96a1,1,0,0,0,1,1H103a1,1,0,0,0,1-1V48A24,24,0,0,0,128,24ZM65,32V51.4L62.1,50.07c-.57-.26-.53-.15-4.76,1.81-4.18-1.93-4.19-2.07-4.76-1.81l-3.91,1.81-3.9-1.81c-.56-.26-.66-.09-3.75,1.34V32ZM2,126V32H39c0,22.77-.2,21.41.47,21.84s.76.17,4.89-1.74c4.23,2,4.19,2.07,4.76,1.81L53,52.12l3.9,1.81c.57.26.53.15,4.76-1.81,4.21,2,4,1.9,4.33,1.9a1,1,0,0,0,1-1V32H81.36A24.08,24.08,0,0,0,102,47.93V126ZM104,46a22,22,0,1,1,22-22A22,22,0,0,1,104,46Z"/><path class="cls-8" d="M30,109H10a1,1,0,0,0-1,1v8a1,1,0,0,0,1,1H30a1,1,0,0,0,1-1v-8A1,1,0,0,0,30,109Zm-1,8H11v-6H29Z"/><path class="cls-8" d="M115.28,15.28,100,30.56l-7.28-7.28a1,1,0,0,0-1.44,1.44C99.91,33.35,99.4,33,100,33s-.64,1.06,16.72-16.3A1,1,0,0,0,115.28,15.28Z"/></g></svg>