<svg xmlns="http://www.w3.org/2000/svg" xmlns:xlink="http://www.w3.org/1999/xlink" viewBox="0 0 128 128"><defs><style>.cls-1{fill:url(#linear-gradient);}.cls-2{fill:#c7cdd8;}.cls-3{fill:url(#linear-gradient-2);}.cls-4{fill:#8288a1;}.cls-5{fill:#47566a;}</style><linearGradient id="linear-gradient" x1="64" y1="110" x2="64" y2="6" gradientUnits="userSpaceOnUse"><stop offset="0" stop-color="#dde1e8"/><stop offset="1" stop-color="#f3f4f5"/></linearGradient><linearGradient id="linear-gradient-2" x1="83.98" y1="122" x2="83.98" y2="6" gradientUnits="userSpaceOnUse"><stop offset="0" stop-color="#949aaf"/><stop offset="1" stop-color="#c6ccda"/></linearGradient></defs><title>Paper plane Message</title><g id="Paper_plane_Message" data-name="Paper plane Message"><path class="cls-1" d="M127,6,111,110,1,73Z"/><path class="cls-2" d="M111.78,104.92,111,110,1,73l6.16-3.27C112.93,105.29,26.63,76.27,111.78,104.92Z"/><polygon class="cls-3" points="127 6 59.85 92.79 53 122 40.96 86.44 127 6"/><polygon class="cls-4" points="76.72 98.47 53 122 59.85 92.79 76.72 98.47"/><path class="cls-5" d="M128,5.9A1,1,0,0,0,126.93,5c-.37,0,5.5-3-126.41,67.11A1,1,0,0,0,.67,74L40.15,87.24c6.65,19.62,12,35.31,12,35.2a1,1,0,0,0,.9.58c.65,0-.61,1,24-23.39,36.32,12.22,33.92,11.62,34.54,11.24S128,6,128,5.9Zm-7.34,4.62-80,74.76L3.57,72.79Zm-2.24,4.89C56.22,95.82,59,92.17,58.88,92.52s.43-1.9-6.06,25.77L42.13,86.74ZM54.81,118.77l5.78-24.66,14.24,4.8Zm55.37-10.12L61.54,92.28,125.39,9.75Z"/></g></svg>