<svg xmlns="http://www.w3.org/2000/svg" xmlns:xlink="http://www.w3.org/1999/xlink" viewBox="0 0 128 128"><defs><style>.cls-1{fill:url(#linear-gradient);}.cls-2{fill:#5b8dc9;}.cls-3{fill:url(#linear-gradient-2);}.cls-4{fill:#c7cdd8;}.cls-5{fill:url(#linear-gradient-3);}.cls-6{fill:#8288a1;}.cls-7{fill:url(#linear-gradient-4);}.cls-8{fill:url(#linear-gradient-5);}.cls-9{fill:#f6b756;}.cls-10{fill:url(#linear-gradient-6);}.cls-11{fill:url(#linear-gradient-7);}.cls-12{fill:#47566a;}</style><linearGradient id="linear-gradient" x1="64" y1="127" x2="64" y2="1" gradientUnits="userSpaceOnUse"><stop offset="0" stop-color="#7aa8d7"/><stop offset="1" stop-color="#96c8ea"/></linearGradient><linearGradient id="linear-gradient-2" x1="64" y1="118.65" x2="64" y2="10.22" gradientUnits="userSpaceOnUse"><stop offset="0" stop-color="#dde1e8"/><stop offset="1" stop-color="#f3f4f5"/></linearGradient><linearGradient id="linear-gradient-3" x1="64" y1="89" x2="64" y2="47" gradientUnits="userSpaceOnUse"><stop offset="0" stop-color="#949aaf"/><stop offset="1" stop-color="#c6ccda"/></linearGradient><linearGradient id="linear-gradient-4" y1="47" y2="21" xlink:href="#linear-gradient-3"/><linearGradient id="linear-gradient-5" x1="64" y1="83.02" x2="64" y2="53" gradientUnits="userSpaceOnUse"><stop offset="0" stop-color="#fbcc88"/><stop offset="1" stop-color="#ffe5c3"/></linearGradient><linearGradient id="linear-gradient-6" x1="64" y1="83" x2="64" y2="70" xlink:href="#linear-gradient"/><linearGradient id="linear-gradient-7" x1="64" y1="70" x2="64" y2="60" xlink:href="#linear-gradient"/></defs><title>Privacy</title><g id="Privacy"><path class="cls-1" d="M64,127c-29.3-8.2-50-36.1-50-68.33V15A96.74,96.74,0,0,0,64,1a96.72,96.72,0,0,0,50,14V58.67C114,91,93.25,118.81,64,127Z"/><path class="cls-2" d="M114,55.67v3c0,32-20.52,60.07-50,68.33-29.48-8.26-50-36.29-50-68.33v-3c0,32,20.52,60.07,50,68.33C93.48,115.74,114,87.71,114,55.67Z"/><path class="cls-3" d="M64,118.65c-24.84-8-42-32.36-42-60v-36A105,105,0,0,0,64,10.22a105.08,105.08,0,0,0,42,12.47v36C106,86.29,88.84,110.62,64,118.65Z"/><rect class="cls-4" x="37" y="51" width="54" height="42"/><path class="cls-4" d="M83,44v7H77c0-6.89.78-11.6-3.81-16.19C65.06,26.68,51,32.41,51,44v7H45V44a19,19,0,0,1,38,0Z"/><path class="cls-4" d="M106,55.67v3c0,27.62-17.16,52-42,60-24.84-8-42-32.36-42-60v-3c0,27.62,17.16,52,42,60C88.84,107.62,106,83.29,106,55.67Z"/><path class="cls-4" d="M106,22.69v3A105.08,105.08,0,0,1,64,13.22,105,105,0,0,1,22,25.69v-3A105,105,0,0,0,64,10.22,105.08,105.08,0,0,0,106,22.69Z"/><rect class="cls-5" x="37" y="47" width="54" height="42"/><rect class="cls-6" x="37" y="85" width="54" height="4"/><path class="cls-7" d="M83,40v7H77c0-6.89.78-11.6-3.81-16.19C65.06,22.68,51,28.41,51,40v7H45V40a19,19,0,0,1,38,0Z"/><path class="cls-8" d="M73.64,79.48h0A15,15,0,1,1,64,53C78,53,84.3,70.56,73.64,79.48Z"/><path class="cls-9" d="M73.64,79.48h0c-10.34,8.75-26.34.14-24.48-13.5a15,15,0,0,0,29.72,0A14.91,14.91,0,0,1,73.64,79.48Z"/><path class="cls-10" d="M73.62,79.49a14.93,14.93,0,0,1-19.24,0C55.5,74.72,59.12,70,64,70S72.5,74.72,73.62,79.49Z"/><circle class="cls-11" cx="64" cy="65" r="5"/><rect class="cls-6" x="45" y="43" width="6" height="4"/><rect class="cls-6" x="77" y="43" width="6" height="4"/><path class="cls-2" d="M73.62,79.49a14.93,14.93,0,0,1-19.24,0,14.9,14.9,0,0,1,1.12-3.15,14.9,14.9,0,0,0,17,0A14.9,14.9,0,0,1,73.62,79.49Z"/><path class="cls-12" d="M114,14A95.81,95.81,0,0,1,64.52.12C64.41.06,64-.2,63.29.23A95.78,95.78,0,0,1,14,14a1,1,0,0,0-1,1V58.67c0,32.44,20.87,61,50.75,69.31a1,1,0,0,0,.54,0C94.15,119.62,115,91.11,115,58.67V15A1,1,0,0,0,114,14Zm-1,44.69c0,31.43-20.13,59.05-49,67.27C35.15,117.72,15,90.1,15,58.67V16A98.08,98.08,0,0,0,64,2.19,98.08,98.08,0,0,0,113,16Z"/><path class="cls-12" d="M21.92,21.67a1,1,0,0,0-.94,1v36c0,27.76,17.56,52.83,42.71,61a1.09,1.09,0,0,0,.62,0C89.46,111.5,107,86.43,107,58.67v-36a1,1,0,0,0-.94-1A103.24,103.24,0,0,1,64.49,9.32a1.06,1.06,0,0,0-1,0A103.24,103.24,0,0,1,21.92,21.67Zm83.06,2v35c0,26.77-16.84,50.94-41,58.9-24.14-8-41-32.13-41-58.9v-35A105.26,105.26,0,0,0,64,11.38,105.26,105.26,0,0,0,105,23.63Z"/><path class="cls-12" d="M37,90H91a1,1,0,0,0,1-1V47a1,1,0,0,0-1-1H84V40a20,20,0,1,0-40,0v6H37a1,1,0,0,0-1,1V89A1,1,0,0,0,37,90Zm9-50a18,18,0,0,1,36,0v6H78V40a14,14,0,1,0-28,0v6H46Zm30,6H52V40a12,12,0,0,1,24,0ZM38,48H90V88H38Z"/><path class="cls-12" d="M64,52C49.14,52,42.3,70.72,53.64,80.21A16,16,0,1,0,64,52ZM60,65a4,4,0,1,1,4,4A4,4,0,0,1,60,65ZM55.53,79.1C56.87,74.38,60.35,71,64,71s7.13,3.36,8.47,8.08A13.94,13.94,0,0,1,55.53,79.1Zm18.6-1.48a13,13,0,0,0-6.51-7.82,6,6,0,1,0-7.24,0,13,13,0,0,0-6.51,7.82C45.48,68.81,51.7,54,64,54S82.52,68.82,74.13,77.62Z"/></g></svg>