<svg xmlns="http://www.w3.org/2000/svg" xmlns:xlink="http://www.w3.org/1999/xlink" viewBox="0 0 128 128"><defs><style>.cls-1{fill:url(#linear-gradient);}.cls-2{fill:#5b8dc9;}.cls-3{fill:url(#linear-gradient-2);}.cls-4{fill:#c7cdd8;}.cls-5{fill:url(#linear-gradient-3);}.cls-6{fill:#7ece67;}.cls-7{fill:#47566a;}</style><linearGradient id="linear-gradient" x1="64" y1="127" x2="64" y2="1" gradientUnits="userSpaceOnUse"><stop offset="0" stop-color="#7aa8d7"/><stop offset="1" stop-color="#96c8ea"/></linearGradient><linearGradient id="linear-gradient-2" x1="64" y1="118.65" x2="64" y2="10.22" gradientUnits="userSpaceOnUse"><stop offset="0" stop-color="#dde1e8"/><stop offset="1" stop-color="#f3f4f5"/></linearGradient><linearGradient id="linear-gradient-3" x1="64" y1="85" x2="64" y2="39" gradientUnits="userSpaceOnUse"><stop offset="0" stop-color="#8cdd79"/><stop offset="1" stop-color="#d4e6b6"/></linearGradient></defs><title>Protection</title><g id="Protection"><path class="cls-1" d="M64,127c-29.3-8.2-50-36.1-50-68.33V15A96.74,96.74,0,0,0,64,1a96.72,96.72,0,0,0,50,14V58.67C114,91,93.25,118.81,64,127Z"/><path class="cls-2" d="M114,55.67v3c0,32-20.52,60.07-50,68.33-29.48-8.26-50-36.29-50-68.33v-3c0,32,20.52,60.07,50,68.33C93.48,115.74,114,87.71,114,55.67Z"/><path class="cls-3" d="M64,118.65c-24.84-8-42-32.36-42-60v-36A105,105,0,0,0,64,10.22a105.08,105.08,0,0,0,42,12.47v36C106,86.29,88.84,110.62,64,118.65Z"/><path class="cls-4" d="M106,55.67v3c0,27.62-17.16,52-42,60-24.84-8-42-32.36-42-60v-3c0,27.62,17.16,52,42,60C88.84,107.62,106,83.29,106,55.67Z"/><path class="cls-4" d="M106,22.69v3A105.08,105.08,0,0,1,64,13.22,105,105,0,0,1,22,25.69v-3A105,105,0,0,0,64,10.22,105.08,105.08,0,0,0,106,22.69Z"/><circle class="cls-5" cx="64" cy="62" r="23"/><path class="cls-6" d="M64,85A23,23,0,0,1,41.09,60a23,23,0,0,0,45.82,0A23,23,0,0,1,64,85Z"/><path class="cls-4" d="M64,89A23,23,0,0,1,41.09,64a23,23,0,0,0,45.82,0A23,23,0,0,1,64,89Z"/><path class="cls-7" d="M114,14A95.81,95.81,0,0,1,64.52.12C64.41.06,64-.2,63.29.23A95.78,95.78,0,0,1,14,14a1,1,0,0,0-1,1V58.67c0,32.44,20.87,61,50.75,69.31a1,1,0,0,0,.54,0C94.15,119.62,115,91.11,115,58.67V15A1,1,0,0,0,114,14Zm-1,44.69c0,31.43-20.13,59.05-49,67.27C35.15,117.72,15,90.1,15,58.67V16A98.08,98.08,0,0,0,64,2.19,98.08,98.08,0,0,0,113,16Z"/><path class="cls-7" d="M21.92,21.67a1,1,0,0,0-.94,1v36c0,27.76,17.56,52.83,42.71,61a1.09,1.09,0,0,0,.62,0C89.46,111.5,107,86.43,107,58.67v-36a1,1,0,0,0-.94-1A103.24,103.24,0,0,1,64.49,9.32a1.06,1.06,0,0,0-1,0A103.24,103.24,0,0,1,21.92,21.67Zm83.06,2v35c0,26.77-16.84,50.94-41,58.9-24.14-8-41-32.13-41-58.9v-35A105.26,105.26,0,0,0,64,11.38,105.26,105.26,0,0,0,105,23.63Z"/><path class="cls-7" d="M64,86A24,24,0,1,0,40,62,24,24,0,0,0,64,86Zm0-46A22,22,0,1,1,42,62,22,22,0,0,1,64,40Z"/><path class="cls-7" d="M59.28,70.72a1,1,0,0,0,1.44,0l16-16a1,1,0,0,0-1.44-1.44L60,68.56l-7.28-7.28a1,1,0,0,0-1.44,1.44Z"/></g></svg>