<svg xmlns="http://www.w3.org/2000/svg" xmlns:xlink="http://www.w3.org/1999/xlink" viewBox="0 0 128 128"><defs><style>.cls-1{fill:url(#linear-gradient);}.cls-2{fill:#8288a1;}.cls-3{fill:url(#linear-gradient-2);}.cls-4{fill:#cba07a;}.cls-5{fill:url(#linear-gradient-3);}.cls-6{fill:#f6b756;}.cls-7{fill:url(#linear-gradient-4);}.cls-8{fill:#5b8dc9;}.cls-9{fill:url(#linear-gradient-5);}.cls-10{fill:#77cacb;}.cls-11{fill:url(#linear-gradient-6);}.cls-12{fill:#c6ccda;}.cls-13{fill:url(#linear-gradient-7);}.cls-14{fill:#42455e;}.cls-15{fill:#adb3c4;}.cls-16{fill:url(#linear-gradient-8);}.cls-17{fill:url(#linear-gradient-9);}.cls-18{fill:#7ece67;}.cls-19{fill:#47566a;}</style><linearGradient id="linear-gradient" x1="42" y1="105" x2="42" y2="85" gradientUnits="userSpaceOnUse"><stop offset="0" stop-color="#949aaf"/><stop offset="1" stop-color="#c6ccda"/></linearGradient><linearGradient id="linear-gradient-2" x1="42" y1="85" x2="42" y2="11" gradientUnits="userSpaceOnUse"><stop offset="0" stop-color="#d1a788"/><stop offset="1" stop-color="#f2d3b8"/></linearGradient><linearGradient id="linear-gradient-3" x1="42" y1="25" x2="42" y2="11" gradientUnits="userSpaceOnUse"><stop offset="0" stop-color="#fbcc88"/><stop offset="1" stop-color="#ffe5c3"/></linearGradient><linearGradient id="linear-gradient-4" x1="105" y1="105" x2="105" y2="36" gradientUnits="userSpaceOnUse"><stop offset="0" stop-color="#7aa8d7"/><stop offset="1" stop-color="#96c8ea"/></linearGradient><linearGradient id="linear-gradient-5" x1="110.41" y1="74" x2="110.41" y2="43.99" gradientUnits="userSpaceOnUse"><stop offset="0" stop-color="#9dd5df"/><stop offset="1" stop-color="#c3e1f5"/></linearGradient><linearGradient id="linear-gradient-6" x1="103" y1="117" x2="103" y2="93" gradientUnits="userSpaceOnUse"><stop offset="0" stop-color="#454b60"/><stop offset="1" stop-color="#575f7c"/></linearGradient><linearGradient id="linear-gradient-7" x1="27" x2="27" xlink:href="#linear-gradient-6"/><linearGradient id="linear-gradient-8" x1="124" y1="96" x2="124" y2="84" xlink:href="#linear-gradient-3"/><linearGradient id="linear-gradient-9" x1="42" y1="78" x2="42" y2="32" gradientUnits="userSpaceOnUse"><stop offset="0" stop-color="#8cdd79"/><stop offset="1" stop-color="#d4e6b6"/></linearGradient></defs><title>Shipping</title><g id="Shipping"><path class="cls-1" d="M83,105V85H1v20Z"/><path class="cls-2" d="M83,105v-5H1v5Z"/><rect class="cls-3" x="1" y="11" width="82" height="74"/><rect class="cls-4" x="1" y="81" width="82" height="4"/><polygon class="cls-5" points="54 11 54 25 50 23 46.01 25 42.01 23 38 25 34.01 23 30 25 30 11 54 11"/><polygon class="cls-6" points="54 22 54 25 50 23 46.01 25 42.01 23 38 25 34.01 23 30 25 30 22 34.01 20 38 22 42.01 20 46.01 22 50 20 54 22"/><path class="cls-7" d="M127,74.56V105H83V36h27.23a6.12,6.12,0,0,1,5.85,4.26C116.67,42.13,127,74.46,127,74.56Z"/><path class="cls-8" d="M127,105v-5H83v5Z"/><path class="cls-9" d="M126.82,74H94V44c25,0,23.24-.07,23.3.12C126.66,73.48,125,68.32,126.82,74Z"/><polygon class="cls-10" points="126.82 74 94 74 94 70 125.55 70 126.82 74"/><circle class="cls-11" cx="103" cy="105" r="12"/><circle class="cls-12" cx="103" cy="105" r="6"/><circle class="cls-13" cx="27" cy="105" r="12"/><path class="cls-14" d="M103,117a12,12,0,0,1-11.9-13.5,12,12,0,0,0,23.8,0A12,12,0,0,1,103,117Z"/><path class="cls-14" d="M27,117a12,12,0,0,1-11.9-13.5,12,12,0,0,0,23.8,0A12,12,0,0,1,27,117Z"/><circle class="cls-12" cx="27" cy="105" r="6"/><path class="cls-15" d="M108.81,106.5a6,6,0,0,0-11.61,0,6,6,0,1,1,11.61,0Z"/><path class="cls-15" d="M32.81,106.5a6,6,0,0,0-11.61,0,6,6,0,1,1,11.61,0Z"/><path class="cls-16" d="M123,84h4a0,0,0,0,1,0,0V96a0,0,0,0,1,0,0h-4a2,2,0,0,1-2-2V86A2,2,0,0,1,123,84Z"/><path class="cls-6" d="M127,93v3h-4a2,2,0,0,1-2-2V91a2,2,0,0,0,2,2Z"/><circle class="cls-17" cx="42" cy="55" r="23"/><path class="cls-18" d="M42,78A23,23,0,0,1,19.09,53a23,23,0,0,0,45.82,0A23,23,0,0,1,42,78Z"/><path class="cls-19" d="M128,74.25,117,40a7.08,7.08,0,0,0-6.8-5H84V11a1,1,0,0,0-1-1H1a1,1,0,0,0-1,1v94a1,1,0,0,0,1,1H14.05A13,13,0,0,0,40,106c56.49,0,49.53,0,50.1,0a13,13,0,0,0,25.9,0h11a1,1,0,0,0,1-1C128,72.67,128,74.49,128,74.25ZM53,12V23.35l-2.52-1.26c-.65-.32-.84,0-4.46,1.77-3.78-1.89-3.84-2.08-4.45-1.77L38,23.86l-3.54-1.77c-.59-.3-.8-.06-3.44,1.26V12ZM2,12H29V25a1,1,0,0,0,1,1c.33,0,.19,0,4-1.88,3.79,1.89,3.85,2.08,4.46,1.77L42,24.14l3.54,1.77c.65.32.84,0,4.45-1.77,3.87,1.93,3.91,2.12,4.54,1.73S55,25.93,55,12H82V84H2ZM2,86H82v18H40a13,13,0,0,0-25.9,0H2Zm25,30a11,11,0,1,1,11-11A11,11,0,0,1,27,116Zm76,0a11,11,0,1,1,11-11A11,11,0,0,1,103,116Zm13-12a13,13,0,0,0-25.9,0c-.3,0,1.15,0-6,0V37h26.23a5.09,5.09,0,0,1,4.89,3.56L115.9,43H94a1,1,0,0,0-1,1V74a1,1,0,0,0,1,1h32v8h-3a3,3,0,0,0-3,3v8a3,3,0,0,0,3,3h3v7Zm8.69-31H95V45h20.79ZM126,95h-3a1,1,0,0,1-1-1V86a1,1,0,0,1,1-1h3Z"/><path class="cls-19" d="M99,81H94a1,1,0,0,0,0,2h5A1,1,0,0,0,99,81Z"/><path class="cls-19" d="M103,98a7,7,0,1,0,7,7A7,7,0,0,0,103,98Zm0,12a5,5,0,1,1,5-5A5,5,0,0,1,103,110Z"/><path class="cls-19" d="M27,98a7,7,0,1,0,7,7A7,7,0,0,0,27,98Zm0,12a5,5,0,1,1,5-5A5,5,0,0,1,27,110Z"/><path class="cls-19" d="M42,31A24,24,0,1,0,66,55,24,24,0,0,0,42,31Zm0,46A22,22,0,1,1,64,55,22,22,0,0,1,42,77Z"/><path class="cls-19" d="M53.28,46.28,38,61.56l-7.28-7.28a1,1,0,0,0-1.44,1.44C37.91,64.35,37.4,64,38,64s-.64,1.06,16.72-16.3A1,1,0,0,0,53.28,46.28Z"/></g></svg>