<svg xmlns="http://www.w3.org/2000/svg" xmlns:xlink="http://www.w3.org/1999/xlink" viewBox="0 0 128 128"><defs><style>.cls-1{fill:url(#linear-gradient);}.cls-2{fill:#f6b756;}.cls-3{fill:url(#linear-gradient-2);}.cls-4{fill:url(#linear-gradient-3);}.cls-5{fill:#5b8dc9;}.cls-6{fill:url(#linear-gradient-4);}.cls-7{fill:url(#linear-gradient-5);}.cls-8{fill:#c7cdd8;}.cls-9{fill:url(#linear-gradient-6);}.cls-10{fill:url(#linear-gradient-7);}.cls-11{fill:#7ece67;}.cls-12{fill:#dd4e6a;}.cls-13{fill:#47566a;}</style><linearGradient id="linear-gradient" x1="64" y1="65.05" x2="64" y2="1" gradientUnits="userSpaceOnUse"><stop offset="0" stop-color="#fbcc88"/><stop offset="1" stop-color="#ffe5c3"/></linearGradient><linearGradient id="linear-gradient-2" x1="64" y1="65" x2="64" y2="38.99" gradientUnits="userSpaceOnUse"><stop offset="0" stop-color="#7aa8d7"/><stop offset="1" stop-color="#96c8ea"/></linearGradient><linearGradient id="linear-gradient-3" x1="64" y1="39" x2="64" y2="15" xlink:href="#linear-gradient-2"/><linearGradient id="linear-gradient-4" x1="64" y1="108" x2="64" y2="94" gradientUnits="userSpaceOnUse"><stop offset="0" stop-color="#dde1e8"/><stop offset="1" stop-color="#f3f4f5"/></linearGradient><linearGradient id="linear-gradient-5" x1="64" y1="86" x2="64" y2="72" xlink:href="#linear-gradient-4"/><linearGradient id="linear-gradient-6" x1="44" y1="127" x2="44" y2="116" gradientUnits="userSpaceOnUse"><stop offset="0" stop-color="#8cdd79"/><stop offset="1" stop-color="#d4e6b6"/></linearGradient><linearGradient id="linear-gradient-7" x1="84" y1="127" x2="84" y2="116" gradientUnits="userSpaceOnUse"><stop offset="0" stop-color="#da5466"/><stop offset="1" stop-color="#e87092"/></linearGradient></defs><title>Sign Up</title><g id="Sign_Up" data-name="Sign Up"><path class="cls-1" d="M84.56,57.5h0C63.92,74.94,32,60.2,32,33A32,32,0,0,1,64,1C93.91,1,107.3,38.45,84.56,57.5Z"/><path class="cls-2" d="M84.56,57.5h0C63.1,75.66,29.51,58.9,32.14,30a32,32,0,0,0,63.72,0A31.89,31.89,0,0,1,84.56,57.5Z"/><path class="cls-3" d="M84.53,57.51a31.86,31.86,0,0,1-41.06,0C49.35,32.81,78.65,32.84,84.53,57.51Z"/><circle class="cls-4" cx="64" cy="27" r="12"/><path class="cls-5" d="M64,39A12,12,0,0,1,52.17,25a12,12,0,0,0,23.66,0A12,12,0,0,1,64,39Z"/><rect class="cls-6" x="25" y="94" width="78" height="14"/><rect class="cls-7" x="25" y="72" width="78" height="14"/><rect class="cls-8" x="25" y="82" width="78" height="4"/><rect class="cls-8" x="25" y="104" width="78" height="4"/><path class="cls-9" d="M49.5,127h-11a5.5,5.5,0,0,1,0-11h11a5.5,5.5,0,0,1,0,11Z"/><path class="cls-10" d="M89.5,127h-11a5.5,5.5,0,0,1,0-11h11a5.5,5.5,0,0,1,0,11Z"/><path class="cls-11" d="M49.5,127h-11a5.5,5.5,0,0,1-5.29-7,5.49,5.49,0,0,0,5.29,4h11a5.49,5.49,0,0,0,5.29-4A5.5,5.5,0,0,1,49.5,127Z"/><path class="cls-12" d="M89.5,127h-11a5.5,5.5,0,0,1-5.29-7,5.49,5.49,0,0,0,5.29,4h11a5.49,5.49,0,0,0,5.29-4A5.5,5.5,0,0,1,89.5,127Z"/><path class="cls-5" d="M84.53,57.51a31.86,31.86,0,0,1-41.06,0A29.28,29.28,0,0,1,45,52.74a31.86,31.86,0,0,0,37.94,0A29.28,29.28,0,0,1,84.53,57.51Z"/><path class="cls-13" d="M42.79,58.28h0C65.13,76.56,97,60.23,97,33A33,33,0,1,0,42.79,58.28Zm1.83-1.15c5.89-22.82,32.86-22.83,38.76,0A30.86,30.86,0,0,1,44.62,57.13ZM64,2C92.22,2,105.54,36.7,85.09,55.67,82.56,47,76.82,40.83,69.57,38.75a13,13,0,1,0-11.14,0c-7.25,2.08-13,8.24-15.52,16.92C22.48,36.71,35.75,2,64,2Zm0,36A11,11,0,1,1,75,27,11,11,0,0,1,64,38Z"/><path class="cls-13" d="M103,93H25a1,1,0,0,0-1,1v14a1,1,0,0,0,1,1h78a1,1,0,0,0,1-1V94A1,1,0,0,0,103,93Zm-1,14H26V95h76Z"/><path class="cls-13" d="M103,71H25a1,1,0,0,0-1,1V86a1,1,0,0,0,1,1h78a1,1,0,0,0,1-1V72A1,1,0,0,0,103,71Zm-1,14H26V73h76Z"/><path class="cls-13" d="M49.5,115h-11a6.52,6.52,0,1,0,0,13h11a6.52,6.52,0,0,0,0-13Zm0,11h-11a4.48,4.48,0,1,1,0-9h11a4.48,4.48,0,0,1,0,9Z"/><path class="cls-13" d="M89.5,115h-11a6.52,6.52,0,1,0,0,13h11a6.52,6.52,0,0,0,0-13Zm0,11h-11a4.48,4.48,0,0,1,0-9h11a4.48,4.48,0,0,1,0,9Z"/></g></svg>