<svg xmlns="http://www.w3.org/2000/svg" xmlns:xlink="http://www.w3.org/1999/xlink" viewBox="0 0 128 128"><defs><style>.cls-1{fill:url(#linear-gradient);}.cls-2{fill:#f6b756;}.cls-3{fill:url(#linear-gradient-2);}.cls-4{fill:#c7cdd8;}.cls-5{fill:url(#linear-gradient-3);}.cls-6{fill:url(#linear-gradient-4);}.cls-7{fill:#47566a;}</style><linearGradient id="linear-gradient" x1="63.99" y1="117" x2="63.99" y2="11" gradientUnits="userSpaceOnUse"><stop offset="0" stop-color="#fbcc88"/><stop offset="1" stop-color="#ffe5c3"/></linearGradient><linearGradient id="linear-gradient-2" x1="64" y1="106.96" x2="64" y2="22.43" gradientUnits="userSpaceOnUse"><stop offset="0" stop-color="#dde1e8"/><stop offset="1" stop-color="#f3f4f5"/></linearGradient><linearGradient id="linear-gradient-3" x1="64" y1="83" x2="64" y2="46" xlink:href="#linear-gradient"/><linearGradient id="linear-gradient-4" x1="64" y1="100" x2="64" y2="90" xlink:href="#linear-gradient"/></defs><title>Something Went Wrong</title><g id="Something_Went_Wrong" data-name="Something Went Wrong"><path class="cls-1" d="M56.21,15.36C-2.46,110.64,1,103.92,1,107.65A9.18,9.18,0,0,0,10.16,117H117.84a9.3,9.3,0,0,0,7.79-14.19L71.79,15.36A9.14,9.14,0,0,0,56.21,15.36Z"/><path class="cls-2" d="M117.84,117H10.16a9.24,9.24,0,0,1-8.83-11.77A9.16,9.16,0,0,0,10.16,112H117.84a9.16,9.16,0,0,0,8.83-6.77A9.25,9.25,0,0,1,117.84,117Z"/><polygon class="cls-3" points="11.96 106.96 64 22.43 116.04 106.96 11.96 106.96"/><polygon class="cls-4" points="116.04 106.96 11.96 106.96 15.01 102 112.99 102 116.04 106.96"/><path class="cls-5" d="M69,46c-1.61,35.56-1.31,28.93-1.67,37H60.67c-.36-8,0-.93-1.67-37Z"/><circle class="cls-6" cx="64" cy="95" r="5"/><path class="cls-2" d="M64,100a5,5,0,0,1-4.78-6.5,5,5,0,0,0,9.56,0A5,5,0,0,1,64,100Z"/><polygon class="cls-2" points="67.6 77 67.33 83 60.67 83 60.4 77 67.6 77"/><path class="cls-7" d="M126.5,102.27,72.66,14.83a10.16,10.16,0,0,0-17.32,0L1.5,102.27C-2.64,109,2,118,10.16,118H117.84C126.06,118,130.58,108.9,126.5,102.27ZM126,107.8a8.17,8.17,0,0,1-8.14,8.18H10.16A8.17,8.17,0,0,1,2,107.65c0-3.33-3.78,3.81,55.06-91.75a8.11,8.11,0,0,1,13.84,0C130,111.8,126,104.29,126,107.8Z"/><path class="cls-7" d="M64.87,21.89a1.07,1.07,0,0,0-1.74,0l-52,84.53A1,1,0,0,0,12,108c111.3,0,104.53.28,105-.52S120.48,112.22,64.87,21.89ZM13.78,105.94,64,24.38l50.22,81.56Z"/><path class="cls-7" d="M58.26,45.29c-.47.49-.41-2.06,1.39,37.76a1,1,0,0,0,1,1h6.66a1,1,0,0,0,1-1l1.67-37A1,1,0,0,0,69,45C58.24,45,58.69,44.85,58.26,45.29ZM67.93,47,66.36,82H61.64L60.07,47Z"/><path class="cls-7" d="M64,89a6,6,0,1,0,6,6A6,6,0,0,0,64,89Zm0,10a4,4,0,1,1,4-4A4,4,0,0,1,64,99Z"/></g></svg>