<svg xmlns="http://www.w3.org/2000/svg" xmlns:xlink="http://www.w3.org/1999/xlink" viewBox="0 0 128 128"><defs><style>.cls-1{fill:url(#linear-gradient);}.cls-2{fill:#f6b756;}.cls-3{fill:url(#linear-gradient-2);}.cls-4{fill:#cba07a;}.cls-5{fill:url(#linear-gradient-3);}.cls-6{fill:url(#linear-gradient-5);}.cls-7{fill:url(#linear-gradient-6);}.cls-8{fill:#c7cdd8;}.cls-9{fill:url(#linear-gradient-7);}.cls-10{fill:#7ece67;}.cls-11{fill:#47566a;}</style><linearGradient id="linear-gradient" x1="64" y1="95" x2="64" y2="78.53" gradientUnits="userSpaceOnUse"><stop offset="0" stop-color="#fbcc88"/><stop offset="1" stop-color="#ffe5c3"/></linearGradient><linearGradient id="linear-gradient-2" x1="64" y1="127" x2="64" y2="101.1" gradientUnits="userSpaceOnUse"><stop offset="0" stop-color="#d1a788"/><stop offset="1" stop-color="#f2d3b8"/></linearGradient><linearGradient id="linear-gradient-3" y1="79" y2="1" xlink:href="#linear-gradient"/><linearGradient id="linear-gradient-5" y1="101" y2="95" xlink:href="#linear-gradient"/><linearGradient id="linear-gradient-6" x1="64" y1="121" x2="64" y2="107" gradientUnits="userSpaceOnUse"><stop offset="0" stop-color="#dde1e8"/><stop offset="1" stop-color="#f3f4f5"/></linearGradient><linearGradient id="linear-gradient-7" x1="64" y1="58" x2="64" y2="12" gradientUnits="userSpaceOnUse"><stop offset="0" stop-color="#8cdd79"/><stop offset="1" stop-color="#d4e6b6"/></linearGradient></defs><title>Success</title><g id="Success"><rect class="cls-1" x="61" y="78.53" width="6" height="16.47"/><rect class="cls-2" x="61" y="92" width="6" height="3"/><polygon class="cls-3" points="89.2 127 38.8 127 41.95 101.1 86.05 101.1 89.2 127"/><polygon class="cls-4" points="89.2 127 38.8 127 39.29 123 88.71 123 89.2 127"/><path class="cls-5" d="M64,79C45.23,76.91,31.51,59.77,30.66,39.86L29,1H99L97.34,39.86C96.48,59.9,82.65,76.92,64,79Z"/><path class="cls-5" d="M64,79C45.23,76.91,31.51,59.77,30.66,39.86L29,1H99L97.34,39.86C96.48,59.9,82.65,76.92,64,79Z"/><path class="cls-2" d="M97.34,39.86C96.47,60.31,82.28,77,64,79,45.72,77,31.53,60.31,30.66,39.86c-2-47.32-2.18-55.08,0-4C31.53,56.31,45.72,73,64,75c18.28-2,32.47-18.69,33.34-39.14C99.52-15.18,99.36-7.5,97.34,39.86Z"/><path class="cls-6" d="M71,99v2H57V99a4,4,0,0,1,4-4h6A4,4,0,0,1,71,99Z"/><path class="cls-2" d="M71,99.36V101H57V99.36A4,4,0,0,1,60,98C68.14,98,69.44,97.56,71,99.36Z"/><rect class="cls-7" x="51" y="107" width="26" height="14"/><rect class="cls-8" x="51" y="118" width="26" height="3"/><circle class="cls-9" cx="64" cy="35" r="23"/><path class="cls-10" d="M64,58A23,23,0,0,1,41.09,33a23,23,0,0,0,45.82,0A23,23,0,0,1,64,58Z"/><path class="cls-2" d="M64,62A23,23,0,0,1,41.09,37a23,23,0,0,0,45.82,0A23,23,0,0,1,64,62Z"/><path class="cls-11" d="M51,122H77a1,1,0,0,0,1-1V107a1,1,0,0,0-1-1H51a1,1,0,0,0-1,1v14A1,1,0,0,0,51,122Zm1-14H76v12H52Z"/><path class="cls-11" d="M112,2c-5.77,0-10.07,2.4-12.3,6.56L100,1A1,1,0,0,0,99,0C24.24,0,28.73-.19,28.26.29s-.3.19,0,8.25C26.07,4.38,21.77,2,16,2,6,2,0,8,0,18,0,34.63,30.34,40,30.34,48.09,30.34,50.67,29.21,52,27,52c-1.09,0-2.59-1.72-3.15-2.55a1,1,0,0,0-1.7,1.14C22.39,50.92,24.53,54,27,54a5.17,5.17,0,0,0,4.64-2.55C36,65.44,46.71,76.27,60,79.34V94.08A5,5,0,0,0,56,99v1.08H42a1,1,0,0,0-1,.9l-3,25H35a1,1,0,0,0,0,2H93a1,1,0,0,0,0-2H90.1l-3-25a1,1,0,0,0-1-.9H72V99a5,5,0,0,0-4-4.92V79.34c13.27-3.07,24-13.9,28.34-27.87A5.17,5.17,0,0,0,101,54c2.47,0,4.61-3.1,4.85-3.45a1,1,0,0,0-1.7-1.14c-.56.83-2.06,2.55-3.15,2.55-2.21,0-3.34-1.31-3.34-3.89C97.66,40,128,34.6,128,18,128,8,122,2,112,2Zm-24,124H40l2.9-23.86h42.3ZM2,18C2,9.12,7.12,4,16,4c7.61,0,12,4.37,12,12a10,10,0,0,1-5.41,9.07,1,1,0,0,0,.86,1.86,12.34,12.34,0,0,0,5.42-5.58c.85,20,.78,19.46,1.06,21.83C22.82,36.21,2,30.64,2,18ZM70,99v1H58V99a3,3,0,0,1,3-3h6A3,3,0,0,1,70,99Zm-4-5H62V79.75a7.93,7.93,0,0,0,4,0ZM64,78c-17.59-2-31.48-18.4-32.32-38.15L30.06,2H97.94l-1.62,37.8C95.48,59.57,81.59,76,64,78ZM98.09,43.18c.32-2.73.28-3.48,1.06-21.83a12.34,12.34,0,0,0,5.42,5.58,1,1,0,0,0,.86-1.86A10,10,0,0,1,100,16c0-7.61,4.37-12,12-12,8.88,0,14,5.1,14,14C126,30.66,105.2,36.19,98.09,43.18Z"/><path class="cls-11" d="M64,11A24,24,0,1,0,88,35,24,24,0,0,0,64,11Zm0,46A22,22,0,1,1,86,35,22,22,0,0,1,64,57Z"/><path class="cls-11" d="M75.28,26.28,60,41.56l-7.28-7.28a1,1,0,0,0-1.44,1.44C59.91,44.35,59.4,44,60,44s-.8,1.22,16.72-16.3A1,1,0,0,0,75.28,26.28Z"/></g></svg>