<svg xmlns="http://www.w3.org/2000/svg" xmlns:xlink="http://www.w3.org/1999/xlink" viewBox="0 0 128 128"><defs><style>.cls-1{fill:url(#linear-gradient);}.cls-2{fill:url(#linear-gradient-2);}.cls-3{fill:#8a6762;}.cls-4{fill:url(#linear-gradient-3);}.cls-5{fill:#c7cdd8;}.cls-6{fill:#cba07a;}.cls-7{fill:url(#linear-gradient-4);}.cls-8{fill:#7ece67;}.cls-9{fill:#47566a;}</style><linearGradient id="linear-gradient" x1="68" y1="127" x2="68" y2="73" gradientUnits="userSpaceOnUse"><stop offset="0" stop-color="#9b756d"/><stop offset="1" stop-color="#bc9388"/></linearGradient><linearGradient id="linear-gradient-2" x1="62" y1="127" x2="62" y2="83" gradientUnits="userSpaceOnUse"><stop offset="0" stop-color="#d1a788"/><stop offset="1" stop-color="#f2d3b8"/></linearGradient><linearGradient id="linear-gradient-3" x1="64" y1="61" x2="64" y2="1" gradientUnits="userSpaceOnUse"><stop offset="0" stop-color="#dde1e8"/><stop offset="1" stop-color="#f3f4f5"/></linearGradient><linearGradient id="linear-gradient-4" x1="64" y1="81" x2="64" y2="41" gradientUnits="userSpaceOnUse"><stop offset="0" stop-color="#8cdd79"/><stop offset="1" stop-color="#d4e6b6"/></linearGradient></defs><title>Uploading</title><g id="Uploading"><path class="cls-1" d="M101,73v50a4,4,0,1,1-8,0V89H49L35,83V73Z"/><path class="cls-2" d="M93,123V89H49l-4-6H27v40a4,4,0,0,0,4,4H97A4,4,0,0,1,93,123Z"/><path class="cls-3" d="M101,119v4a4,4,0,0,1-8,0v-4a4,4,0,1,0,8,0Z"/><path class="cls-4" d="M32.11,61a17.15,17.15,0,0,1-1.55-34.22,25.66,25.66,0,0,1,49.36-10C90.79,12.23,102,23.46,97,34.51h2.74a13.25,13.25,0,0,1,0,26.49Z"/><path class="cls-5" d="M99.78,61H32.11A17.13,17.13,0,0,1,15.19,41.36,17.11,17.11,0,0,0,32.11,56H99.78a13.22,13.22,0,0,0,13-10.75A13.24,13.24,0,0,1,99.78,61Z"/><path class="cls-6" d="M97,127H31a4,4,0,0,1-4-4v-4a4,4,0,0,0,4,4H93A4,4,0,0,0,97,127Z"/><path class="cls-7" d="M71,55V81H57V55H50L64,41,78,55H71V81H57V55H50L64,41,78,55H72"/><rect class="cls-8" x="57" y="76" width="14" height="5"/><path class="cls-9" d="M99.78,62a14.27,14.27,0,0,0,0-28.53H98.53a14.27,14.27,0,0,0-18.07-18A26.68,26.68,0,0,0,29.55,25.87,18.17,18.17,0,0,0,32.11,62H56V72H35a1,1,0,0,0-1,1v9H27a1,1,0,0,0-1,1v40a5,5,0,0,0,5,5H97a5,5,0,0,0,5-5V73a1,1,0,0,0-1-1H72V62ZM32.11,60A16.12,16.12,0,0,1,30.65,27.8a1.09,1.09,0,0,0,.93-1.09A24.64,24.64,0,0,1,79,17.22a1,1,0,0,0,.55.55c.86.36,1.9-.94,5.47-.94A12.22,12.22,0,0,1,96.11,34.09,1,1,0,0,0,97,35.53h2.74a12.23,12.23,0,0,1,0,24.45H72V56h6a1,1,0,0,0,.72-1.74l-14-14a1,1,0,0,0-1.44,0c-16.8,16.8-14.09,13.66-14.09,15.35.42.53.4.39,6.79.39v4ZM58,55a1,1,0,0,0-1-1H52.46L64,42.44,75.54,54H71a1,1,0,0,0-1,1V80H58ZM31,126a3,3,0,0,1-3-3V84H44.45l3.7,5.55c.47.7-1.66.45,43.83.45,0,35.31-.33,33.84.75,35.6C93.06,126.14,99.86,126,31,126Zm69-52v49a3,3,0,0,1-5.46,1.65C93.81,123.57,94,126,94,89a1,1,0,0,0-1-1H49.55c-4-6-3.81-6-4.55-6H36V74H56v7a1,1,0,0,0,1,1H71a1,1,0,0,0,1-1V74Z"/></g></svg>