<svg xmlns="http://www.w3.org/2000/svg" xmlns:xlink="http://www.w3.org/1999/xlink" viewBox="0 0 128 128"><defs><style>.cls-1{fill:url(#linear-gradient);}.cls-2{fill:#8a6762;}.cls-3{fill:url(#linear-gradient-2);}.cls-4{fill:#c7cdd8;}.cls-5{fill:url(#linear-gradient-3);}.cls-6{fill:#7ece67;}.cls-7{fill:url(#linear-gradient-4);}.cls-8{fill:url(#linear-gradient-5);}.cls-9{fill:#8288a1;}.cls-10{fill:#47566a;}</style><linearGradient id="linear-gradient" x1="47" y1="127" x2="47" y2="12" gradientUnits="userSpaceOnUse"><stop offset="0" stop-color="#9b756d"/><stop offset="1" stop-color="#bc9388"/></linearGradient><linearGradient id="linear-gradient-2" x1="47" y1="119" x2="47" y2="19" gradientUnits="userSpaceOnUse"><stop offset="0" stop-color="#dde1e8"/><stop offset="1" stop-color="#f3f4f5"/></linearGradient><linearGradient id="linear-gradient-3" x1="104" y1="106" x2="104" y2="60" gradientUnits="userSpaceOnUse"><stop offset="0" stop-color="#8cdd79"/><stop offset="1" stop-color="#d4e6b6"/></linearGradient><linearGradient id="linear-gradient-4" x1="47" y1="48" x2="47" y2="35" gradientUnits="userSpaceOnUse"><stop offset="0" stop-color="#9dd5df"/><stop offset="1" stop-color="#c3e1f5"/></linearGradient><linearGradient id="linear-gradient-5" x1="47" y1="24" x2="47" y2="1" gradientUnits="userSpaceOnUse"><stop offset="0" stop-color="#949aaf"/><stop offset="1" stop-color="#c6ccda"/></linearGradient></defs><title>Verification</title><g id="Verification"><rect class="cls-1" x="1" y="12" width="92" height="115" rx="3"/><path class="cls-2" d="M93,121v3a3,3,0,0,1-3,3H4a3,3,0,0,1-3-3v-3a3,3,0,0,0,3,3H90A3,3,0,0,0,93,121Z"/><rect class="cls-3" x="10" y="19" width="74" height="100"/><path class="cls-4" d="M84,114v5H10v-5Z"/><circle class="cls-5" cx="104" cy="83" r="23"/><path class="cls-6" d="M104,106A23,23,0,0,1,81.09,81a23,23,0,0,0,45.82,0A23,23,0,0,1,104,106Z"/><path class="cls-2" d="M93,103.19v4a23.1,23.1,0,0,1-9-8.84v-4A23.08,23.08,0,0,0,93,103.19Z"/><path class="cls-4" d="M84,94.36v4A22.88,22.88,0,0,1,81.09,85,22.92,22.92,0,0,0,84,94.36Z"/><rect class="cls-7" x="18" y="35" width="58" height="13"/><path class="cls-8" d="M54.93,8A8,8,0,0,0,39.07,8H27V24H67V8ZM47,12a3,3,0,1,1,3-3A3,3,0,0,1,47,12Z"/><rect class="cls-9" x="27" y="20" width="40" height="4"/><path class="cls-10" d="M47,13a4,4,0,1,0-4-4A4,4,0,0,0,47,13Zm0-6a2,2,0,1,1-2,2A2,2,0,0,1,47,7Z"/><path class="cls-10" d="M94,61.16V15a4,4,0,0,0-4-4H68V8a1,1,0,0,0-1-1H55.79A9,9,0,0,0,38.21,7H27a1,1,0,0,0-1,1v3H4a4,4,0,0,0-4,4V124a4,4,0,0,0,4,4H90a4,4,0,0,0,4-4V104.84a24,24,0,1,0,0-43.68ZM90,13a2,2,0,0,1,2,2V62.22a24,24,0,0,0-7,6.08V19a1,1,0,0,0-1-1H68V13ZM27,25H67a1,1,0,0,0,1-1V20H83V71.39a24,24,0,0,0,0,23.22V118H11V20H26v4A1,1,0,0,0,27,25ZM28,9H39.07a1,1,0,0,0,1-.89,7,7,0,0,1,13.84,0,1,1,0,0,0,1,.89H66V23H28ZM92,124a2,2,0,0,1-2,2H4a2,2,0,0,1-2-2V15a2,2,0,0,1,2-2H26v5H10a1,1,0,0,0-1,1V119a1,1,0,0,0,1,1H84a1,1,0,0,0,1-1V97.7a24,24,0,0,0,7,6.08Zm12-19a22,22,0,1,1,22-22A22,22,0,0,1,104,105Z"/><path class="cls-10" d="M115.28,74.28,100,89.56l-7.28-7.28a1,1,0,0,0-1.44,1.44C99.91,92.35,99.4,92,100,92s-.8,1.22,16.72-16.3A1,1,0,0,0,115.28,74.28Z"/><path class="cls-10" d="M17,35V48a1,1,0,0,0,1,1H76a1,1,0,0,0,1-1V35a1,1,0,0,0-1-1H18A1,1,0,0,0,17,35Zm2,1H75V47H19Z"/><path class="cls-10" d="M76,58H24a1,1,0,0,0,0,2H76A1,1,0,0,0,76,58Z"/><path class="cls-10" d="M76,66H18a1,1,0,0,0,0,2H76A1,1,0,0,0,76,66Z"/><path class="cls-10" d="M76,74H18a1,1,0,0,0,0,2H76A1,1,0,0,0,76,74Z"/><path class="cls-10" d="M18,84H48a1,1,0,0,0,0-2H18A1,1,0,0,0,18,84Z"/><path class="cls-10" d="M76,90H24a1,1,0,0,0,0,2H76A1,1,0,0,0,76,90Z"/><path class="cls-10" d="M76,98H18a1,1,0,0,0,0,2H76A1,1,0,0,0,76,98Z"/><path class="cls-10" d="M64,106H18a1,1,0,0,0,0,2H64A1,1,0,0,0,64,106Z"/></g></svg>