<svg xmlns="http://www.w3.org/2000/svg" xmlns:xlink="http://www.w3.org/1999/xlink" viewBox="0 0 128 128"><defs><style>.cls-1{fill:url(#linear-gradient);}.cls-2{fill:#5b8dc9;}.cls-3{fill:url(#linear-gradient-2);}.cls-4{fill:#c7cdd8;}.cls-5{fill:url(#linear-gradient-3);}.cls-6{fill:url(#linear-gradient-4);}.cls-7{fill:#8a6762;}.cls-8{fill:url(#linear-gradient-5);}.cls-9{fill:#77cacb;}.cls-10{fill:url(#linear-gradient-6);}.cls-11{fill:url(#linear-gradient-7);}.cls-12{fill:#cba07a;}.cls-13{fill:#47566a;}</style><linearGradient id="linear-gradient" x1="53" y1="105.07" x2="53" y2="1" gradientUnits="userSpaceOnUse"><stop offset="0" stop-color="#7aa8d7"/><stop offset="1" stop-color="#96c8ea"/></linearGradient><linearGradient id="linear-gradient-2" x1="53" y1="97" x2="53" y2="9" gradientUnits="userSpaceOnUse"><stop offset="0" stop-color="#dde1e8"/><stop offset="1" stop-color="#f3f4f5"/></linearGradient><linearGradient id="linear-gradient-3" x1="96" y1="127" x2="96" y2="119" gradientUnits="userSpaceOnUse"><stop offset="0" stop-color="#9b756d"/><stop offset="1" stop-color="#bc9388"/></linearGradient><linearGradient id="linear-gradient-4" y1="61" y2="53" xlink:href="#linear-gradient-3"/><linearGradient id="linear-gradient-5" x1="96" y1="119" x2="96" y2="61" gradientUnits="userSpaceOnUse"><stop offset="0" stop-color="#9dd5df"/><stop offset="1" stop-color="#c3e1f5"/></linearGradient><linearGradient id="linear-gradient-6" x1="96.01" y1="92" x2="96.01" y2="77" gradientUnits="userSpaceOnUse"><stop offset="0" stop-color="#d1a788"/><stop offset="1" stop-color="#f2d3b8"/></linearGradient><linearGradient id="linear-gradient-7" x1="96" y1="119" x2="96" y2="99" xlink:href="#linear-gradient-6"/></defs><title>Waiting</title><g id="Waiting"><path class="cls-1" d="M105,53A52,52,0,0,0,1,53c0,36.63,37.11,62,71.24,48.32v0A52,52,0,0,0,105,53Z"/><path class="cls-2" d="M72.25,101.3v0c-36,14-72.9-13.92-71.2-50.24A52,52,0,0,0,33.75,97.3v0a52.15,52.15,0,0,0,38.48,0v0A52,52,0,0,0,105,51.08,52,52,0,0,1,72.25,101.3Z"/><path class="cls-3" d="M97,53A44,44,0,1,0,55.15,97,44,44,0,0,0,97,53Z"/><path class="cls-4" d="M97,55a44,44,0,0,0-87.9,0C7.59,30.94,27.28,9,53,9S98.41,30.91,97,55Z"/><rect class="cls-5" x="67" y="119" width="58" height="8"/><rect class="cls-6" x="67" y="53" width="58" height="8"/><rect class="cls-7" x="67" y="58" width="58" height="3"/><rect class="cls-7" x="67" y="124" width="58" height="3"/><path class="cls-8" d="M122,71.46V61H70V71.46a12.58,12.58,0,0,0,4.68,9.84L85.6,90,74.68,98.7A12.58,12.58,0,0,0,70,108.54V119h52V108.54a12.58,12.58,0,0,0-4.68-9.84L106.4,90l10.92-8.7A12.58,12.58,0,0,0,122,71.46Z"/><rect class="cls-9" x="70" y="115" width="52" height="4"/><path class="cls-10" d="M78.92,77a64.74,64.74,0,0,0,34.17,0C96.66,90.09,97,89.36,96,92,95,89.27,95.08,89.88,78.92,77Z"/><polygon class="cls-11" points="116 119 76 119 96 99 116 119"/><path class="cls-12" d="M116,119c-42.28,0-39.9,0-40,0C87,113.68,104.92,113.65,116,119Z"/><path class="cls-13" d="M123,71.46V62h2a1,1,0,0,0,1-1V53a1,1,0,0,0-1-1H106A53,53,0,0,0,0,53c0,36.31,35.87,61.89,70.1,50.2C68.7,106.5,69,107.75,69,118H67a1,1,0,0,0-1,1v8a1,1,0,0,0,1,1h58a1,1,0,0,0,1-1v-8a1,1,0,0,0-1-1h-2v-9.44A13.66,13.66,0,0,0,118,97.91L108,90,118,82.09A13.66,13.66,0,0,0,123,71.46ZM124,60H68V54h56ZM67,62h2v9.44A13.66,13.66,0,0,0,74,82.09l5.7,4.55C51.87,108.81,10,89.1,10,53A43,43,0,0,1,96,52H67a1,1,0,0,0-1,1v8A1,1,0,0,0,67,62ZM2,53A51,51,0,0,1,104,52H98A45,45,0,0,0,8,53c0,38,44.21,58.66,73.39,34.94L84,90c-10.78,8.59-10.89,8.47-12.33,10.46C38.43,113.55,2,89,2,53Zm122,73H68v-6h56ZM96,89.78c-1-1.47-.83-1.14-12.9-10.76a65.57,65.57,0,0,0,25.81,0C96.5,88.91,96.94,88.4,96,89.78Zm0,10.66L113.54,118H78.46ZM116.69,80.5c-11.79,9.39-11.31,8.8-11.31,9.5s-.43.15,11.31,9.5a11.61,11.61,0,0,1,4.29,9V118h-4.56L96.9,98.46c.17-.33.12.06.12-6.27.82-2.1.44-1.44,16.71-14.39a1,1,0,0,0-.91-1.79,63.75,63.75,0,0,1-33.63,0,1,1,0,0,0-.91,1.79C94.49,90.71,94.16,90.09,95,92.19V98c0,.83,2.59-2-19.4,20H71v-9.44a11.61,11.61,0,0,1,4.29-9l10.93-8.7a1,1,0,0,0,0-1.6L75.31,80.5a11.61,11.61,0,0,1-4.29-9V62h50v9.44A11.61,11.61,0,0,1,116.69,80.5Z"/><path class="cls-13" d="M54,15V13a1,1,0,0,0-2,0v2A1,1,0,0,0,54,15Z"/><path class="cls-13" d="M52,91v2a1,1,0,0,0,2,0V91A1,1,0,0,0,52,91Z"/><path class="cls-13" d="M15,52H13a1,1,0,0,0,0,2h2A1,1,0,0,0,15,52Z"/><path class="cls-13" d="M33.5,19.22a1,1,0,0,0-1-1.73A1,1,0,0,0,33.5,19.22Z"/><path class="cls-13" d="M73.5,88.51a1,1,0,0,0-1-1.74A1,1,0,0,0,73.5,88.51Z"/><path class="cls-13" d="M72.5,19.22a1,1,0,0,0,1-1.73A1,1,0,0,0,72.5,19.22Z"/><path class="cls-13" d="M33.5,86.77a1,1,0,0,0-1,1.74A1,1,0,0,0,33.5,86.77Z"/><path class="cls-13" d="M88.14,33.87a1,1,0,0,0-1-1.74A1,1,0,0,0,88.14,33.87Z"/><path class="cls-13" d="M17.86,72.13a1,1,0,0,0,1,1.74A1,1,0,0,0,17.86,72.13Z"/><path class="cls-13" d="M18.86,32.13a1,1,0,0,0-1,1.74A1,1,0,0,0,18.86,32.13Z"/><path class="cls-13" d="M57,52H54.73c-1-1.72-.71,4.12-.71-29a1,1,0,0,0-2,0V51.27c-1.72,1,3.58.71-25,.71a1,1,0,0,0,0,2c28.61,0,23.25-.31,25,.71V58a1,1,0,0,0,2,0V54.73a1.86,1.86,0,0,0,.71-.71H57A1,1,0,0,0,57,52Z"/></g></svg>