<svg xmlns="http://www.w3.org/2000/svg" xmlns:xlink="http://www.w3.org/1999/xlink" viewBox="0 0 128 128"><defs><style>.cls-1{fill:url(#linear-gradient);}.cls-2{fill:#dd4e6a;}.cls-3{fill:url(#linear-gradient-2);}.cls-4{fill:url(#linear-gradient-3);}.cls-5{fill:#c7cdd8;}.cls-6{fill:url(#linear-gradient-4);}.cls-7{fill:url(#linear-gradient-5);}.cls-8{fill:#8288a1;}.cls-9{fill:url(#linear-gradient-6);}.cls-10{fill:url(#linear-gradient-7);}.cls-11{fill:url(#linear-gradient-8);}.cls-12{fill:url(#linear-gradient-9);}.cls-13{fill:#47566a;}</style><linearGradient id="linear-gradient" x1="64" y1="64" x2="64" y2="18" gradientUnits="userSpaceOnUse"><stop offset="0" stop-color="#da5466"/><stop offset="1" stop-color="#e87092"/></linearGradient><linearGradient id="linear-gradient-2" x1="60" y1="83" x2="60" y2="77" gradientUnits="userSpaceOnUse"><stop offset="0" stop-color="#dde1e8"/><stop offset="1" stop-color="#f3f4f5"/></linearGradient><linearGradient id="linear-gradient-3" y1="105" y2="99" xlink:href="#linear-gradient-2"/><linearGradient id="linear-gradient-4" x1="40.5" y1="108" x2="40.5" y2="74" gradientUnits="userSpaceOnUse"><stop offset="0" stop-color="#949aaf"/><stop offset="1" stop-color="#c6ccda"/></linearGradient><linearGradient id="linear-gradient-5" x1="24" y1="101" x2="24" y2="81" xlink:href="#linear-gradient-4"/><linearGradient id="linear-gradient-6" x1="10" y1="95" x2="10" y2="87" xlink:href="#linear-gradient-4"/><linearGradient id="linear-gradient-7" x1="87.5" x2="87.5" xlink:href="#linear-gradient-4"/><linearGradient id="linear-gradient-8" x1="104" y1="101" x2="104" y2="81" xlink:href="#linear-gradient-4"/><linearGradient id="linear-gradient-9" x1="118" y1="95" x2="118" y2="87" xlink:href="#linear-gradient-4"/></defs><title>404 Error </title><g id="_404_Error" data-name="404 Error"><circle class="cls-1" cx="64" cy="41" r="23"/><path class="cls-2" d="M64,64A23,23,0,0,1,41.09,39a23,23,0,0,0,45.82,0A23,23,0,0,1,64,64Z"/><path class="cls-3" d="M52,77H65a3,3,0,0,1,0,6H52Z"/><path class="cls-4" d="M52,99H65a3,3,0,0,1,0,6H52Z"/><path class="cls-5" d="M65,83H52V80c13.81,0,14.4.47,15.6-1.5A3,3,0,0,1,65,83Z"/><path class="cls-5" d="M65,105H52v-3c13.81,0,14.4.47,15.6-1.5A3,3,0,0,1,65,105Z"/><path class="cls-6" d="M52,74v34H35a6,6,0,0,1-6-6V80a6,6,0,0,1,6-6Z"/><polygon class="cls-7" points="29 101 19 98.5 19 83.5 29 81 29 101"/><polygon class="cls-8" points="29 81 29 101 26 100.25 26 81.75 29 81"/><rect class="cls-9" x="1" y="87" width="18" height="8"/><rect class="cls-8" x="16" y="87" width="3" height="8"/><path class="cls-10" d="M99,80v22a6,6,0,0,1-6,6H76V74H93A6,6,0,0,1,99,80Z"/><path class="cls-8" d="M52,104v4H35a6,6,0,0,1-6-6V98.91A5.09,5.09,0,0,0,34.09,104Z"/><path class="cls-8" d="M99,98.91V102a6,6,0,0,1-6,6H76v-4H93.91A5.09,5.09,0,0,0,99,98.91Z"/><polygon class="cls-11" points="99 81 109 83.5 109 98.5 99 101 99 81"/><polygon class="cls-8" points="29 97 29 101 19 98.5 19 94.5 29 97"/><polygon class="cls-8" points="109 94.5 109 98.5 99 101 99 97 109 94.5"/><rect class="cls-12" x="109" y="87" width="18" height="8"/><rect class="cls-8" x="1" y="92" width="18" height="3"/><rect class="cls-8" x="109" y="92" width="18" height="3"/><rect class="cls-8" x="109" y="87" width="3" height="8"/><polygon class="cls-8" points="99 101 99 81 102 81.75 102 100.25 99 101"/><path class="cls-13" d="M127,95H110V87h17a1,1,0,0,0,0-2H110V83.5a1,1,0,0,0-.77-1C99,80,100,80.29,100,80a7,7,0,0,0-7-7H77V72a1,1,0,0,0-2,0v38a1,1,0,0,0,2,0v-1H93a7,7,0,0,0,7-7.22l9.23-2.31c.93-.23.77-1.07.77-2.47h17A1,1,0,0,0,127,95Zm-29,7a5,5,0,0,1-5,5H77V75H93a5,5,0,0,1,5,5Zm10-4.3-8,2V82.31l8,2Z"/><path class="cls-13" d="M64,65A24,24,0,1,0,40,41,24,24,0,0,0,64,65Zm0-46A22,22,0,1,1,42,41,22,22,0,0,1,64,19Z"/><path class="cls-13" d="M54.72,51.72,64,42.44l9.28,9.28a1,1,0,0,0,1.44-1.44L65.44,41l9.28-9.28a1,1,0,0,0-1.44-1.44L64,39.56l-9.28-9.28a1,1,0,0,0-1.44,1.44L62.56,41l-9.28,9.28A1,1,0,0,0,54.72,51.72Z"/><path class="cls-13" d="M65,84a4,4,0,0,0,0-8H53V72a1,1,0,0,0-2,0v1H36a8,8,0,0,0-8,7.21l-9.27,2.32c-.93.23-.77,1.07-.77,2.47H1a1,1,0,0,0,0,2H18v8H1a1,1,0,0,0,0,2H18V98.5a1,1,0,0,0,.77,1L28,101.81A8,8,0,0,0,36,109H51v1a1,1,0,0,0,2,0v-4H65a4,4,0,0,0,0-8H53V84Zm0-6a2,2,0,0,1,0,4H53V78ZM20,84.3l8-2V99.69l-8-2ZM36,107a6,6,0,0,1-6-6V81a6,6,0,0,1,6-6H51v32Zm29-7a2,2,0,0,1,0,4H53v-4Z"/></g></svg>