<svg xmlns="http://www.w3.org/2000/svg" xmlns:xlink="http://www.w3.org/1999/xlink" viewBox="0 0 128 128"><defs><style>.cls-1{fill:url(#linear-gradient);}.cls-2{fill:url(#linear-gradient-2);}.cls-3{fill:#dd4e6a;}.cls-4{fill:#77cacb;}.cls-5{fill:url(#linear-gradient-3);}.cls-6{fill:#5b8dc9;}.cls-7{fill:url(#linear-gradient-4);}.cls-8{fill:#c7cdd8;}.cls-9{fill:url(#linear-gradient-5);}.cls-10{fill:#47566a;}</style><linearGradient id="linear-gradient" x1="64" y1="127" x2="64" y2="66" gradientUnits="userSpaceOnUse"><stop offset="0" stop-color="#9dd5df"/><stop offset="1" stop-color="#c3e1f5"/></linearGradient><linearGradient id="linear-gradient-2" x1="64" y1="47" x2="64" y2="1" gradientUnits="userSpaceOnUse"><stop offset="0" stop-color="#da5466"/><stop offset="1" stop-color="#e87092"/></linearGradient><linearGradient id="linear-gradient-3" x1="64" y1="66" x2="64" y2="52" gradientUnits="userSpaceOnUse"><stop offset="0" stop-color="#7aa8d7"/><stop offset="1" stop-color="#96c8ea"/></linearGradient><linearGradient id="linear-gradient-4" x1="25.18" y1="61.13" x2="25.18" y2="13.44" gradientUnits="userSpaceOnUse"><stop offset="0" stop-color="#dde1e8"/><stop offset="1" stop-color="#f3f4f5"/></linearGradient><linearGradient id="linear-gradient-5" x1="101.82" y1="61.13" x2="101.82" y2="13.44" xlink:href="#linear-gradient-4"/></defs><title>Cart or List Is Empty</title><g id="Cart_or_List_Is_Empty" data-name="Cart or List Is Empty"><path class="cls-1" d="M120.89,66l-11.46,57.32a4.57,4.57,0,0,1-4.49,3.68H23.06a4.58,4.58,0,0,1-4.5-3.68L7.11,66Z"/><circle class="cls-2" cx="64" cy="24" r="23"/><path class="cls-3" d="M64,47A23,23,0,0,1,41.09,22a23,23,0,0,0,45.82,0A23,23,0,0,1,64,47Z"/><path class="cls-4" d="M105.94,122H22.06a4.57,4.57,0,0,1-4.49-3.66l1,5a4.58,4.58,0,0,0,4.5,3.68h81.88a4.57,4.57,0,0,0,4.49-3.68l1-5A4.58,4.58,0,0,1,105.94,122Z"/><rect class="cls-5" x="1" y="52" width="126" height="14" rx="2.29"/><path class="cls-6" d="M127,59.71v4A2.3,2.3,0,0,1,124.71,66H3.29A2.3,2.3,0,0,1,1,63.71v-4A2.3,2.3,0,0,0,3.29,62H124.71A2.3,2.3,0,0,0,127,59.71Z"/><path class="cls-7" d="M38.36,60.59a4,4,0,0,1-5.48-1.47L10.54,19.45a4,4,0,1,1,6.94-4L39.83,55.11A4,4,0,0,1,38.36,60.59Z"/><path class="cls-8" d="M40.34,57.6a4,4,0,0,1-7.46,1.52L10.54,19.45A4,4,0,0,1,12,14a4.76,4.76,0,0,0,.54,2.47L34.88,56.12A4,4,0,0,0,40.34,57.6Z"/><path class="cls-9" d="M88.64,60.59a4,4,0,0,0,5.48-1.47l22.34-39.67a4,4,0,1,0-6.94-4L87.17,55.11A4,4,0,0,0,88.64,60.59Z"/><path class="cls-8" d="M116.46,19.45,94.12,59.12A4,4,0,0,1,87,58.77a4,4,0,0,0,5.12-1.65l22.34-39.67a3.94,3.94,0,0,0,.17-3.65A4,4,0,0,1,116.46,19.45Z"/><path class="cls-10" d="M65,111V81a1,1,0,0,0-2,0v30A1,1,0,0,0,65,111Z"/><path class="cls-10" d="M124.71,51H99.87l17.48-31a5,5,0,0,0-5.66-7.37A5,5,0,0,0,108.63,15L88.33,51H38.67l-20.3-36a5,5,0,1,0-8.72,5L27.13,51H3.29A3.31,3.31,0,0,0,0,54.29v9.42A3.31,3.31,0,0,0,3.29,67h3l11.29,56.5a5.63,5.63,0,0,0,5.5,4.5h81.88a5.63,5.63,0,0,0,5.5-4.5L121.73,67h3A3.31,3.31,0,0,0,128,63.71V54.29A3.31,3.31,0,0,0,124.71,51ZM110.4,16a3,3,0,1,1,5.17,3C91.29,62.06,93.15,59.54,91.42,60a3,3,0,0,1-3.36-4.39Zm-95.62-1.4c1.74.47-.08-2,24.17,41.07A3,3,0,0,1,35.58,60c-1.73-.47.11,2-24.16-41.07A3,3,0,0,1,14.78,14.56Zm93.65,108.56a3.56,3.56,0,0,1-3.49,2.86H23.06a3.56,3.56,0,0,1-3.49-2.86L8.35,67h111.3ZM126,63.71A1.27,1.27,0,0,1,124.71,65H3.29A1.27,1.27,0,0,1,2,63.71V54.29A1.27,1.27,0,0,1,3.29,53h25c3.75,6.67,4.15,8.25,6.78,9a5,5,0,0,0,5.66-7.37L39.82,53H87.18l-.89,1.59A5,5,0,0,0,92,62c2.69-.73,3.1-2.44,6.77-9h26A1.27,1.27,0,0,1,126,54.29Z"/><path class="cls-10" d="M64,48A24,24,0,1,0,40,24,24,24,0,0,0,64,48ZM64,2A22,22,0,1,1,42,24,22,22,0,0,1,64,2Z"/><path class="cls-10" d="M54.72,34.72,64,25.44l9.28,9.28a1,1,0,0,0,1.44-1.44L65.44,24l9.28-9.28a1,1,0,0,0-1.44-1.44L64,22.56l-9.28-9.28a1,1,0,0,0-1.44,1.44L62.56,24l-9.28,9.28A1,1,0,0,0,54.72,34.72Z"/><path class="cls-10" d="M90,111.13l4-30a1,1,0,0,0-2-.26l-4,30A1,1,0,0,0,90,111.13Z"/><path class="cls-10" d="M40.31,110.87l-4-30a1,1,0,0,0-2,.26l4,30A1,1,0,0,0,40.31,110.87Z"/></g></svg>