<svg xmlns="http://www.w3.org/2000/svg" xmlns:xlink="http://www.w3.org/1999/xlink" viewBox="0 0 128 128"><defs><style>.cls-1{fill:url(#linear-gradient);}.cls-2{fill:url(#linear-gradient-2);}.cls-3{fill:#c7cdd8;}.cls-4{fill:#cba07a;}.cls-5{fill:#47566a;}</style><linearGradient id="linear-gradient" x1="64" y1="127" x2="64" y2="1" gradientUnits="userSpaceOnUse"><stop offset="0" stop-color="#d1a788"/><stop offset="1" stop-color="#f2d3b8"/></linearGradient><linearGradient id="linear-gradient-2" x1="64" y1="95" x2="64" y2="10" gradientUnits="userSpaceOnUse"><stop offset="0" stop-color="#dde1e8"/><stop offset="1" stop-color="#f3f4f5"/></linearGradient></defs><title>Come Back Later</title><g id="Come_Back_Later" data-name="Come Back Later"><path class="cls-1" d="M69,127H59V1H69Z"/><rect class="cls-2" x="1" y="10" width="126" height="85"/><rect class="cls-3" x="1" y="90" width="126" height="5"/><rect class="cls-4" x="59" y="7" width="10" height="3"/><rect class="cls-4" x="59" y="123" width="10" height="4"/><path class="cls-5" d="M127,9H70V1a1,1,0,0,0-1-1H59a1,1,0,0,0-1,1V9H1a1,1,0,0,0-1,1V95a1,1,0,0,0,1,1H58v31a1,1,0,0,0,2,0V96h8v31a1,1,0,0,0,2,0V96h57a1,1,0,0,0,1-1V10A1,1,0,0,0,127,9ZM60,2h8V9H60Zm66,92H2V11H126Z"/><path class="cls-5" d="M67.22,29.22a1,1,0,0,0-1.44-1.44L53.27,40.3a1,1,0,0,0,0,1.42C66.91,55.35,65.9,54.52,66.5,54.52a1,1,0,0,0,.72-1.74L56.46,42H86a15,15,0,1,1,0,30H26a1,1,0,0,0,0,2H86a17,17,0,0,0,0-34H56.46Z"/></g></svg>