<svg xmlns="http://www.w3.org/2000/svg" xmlns:xlink="http://www.w3.org/1999/xlink" viewBox="0 0 128 128"><defs><style>.cls-1{fill:url(#linear-gradient);}.cls-2{fill:url(#linear-gradient-2);}.cls-3{fill:url(#linear-gradient-3);}.cls-4{fill:#f6b756;}.cls-5{fill:url(#linear-gradient-4);}.cls-6{fill:#8288a1;}.cls-7{fill:url(#linear-gradient-5);}.cls-8{fill:#c7cdd8;}.cls-9{fill:url(#linear-gradient-6);}.cls-10{fill:#42455e;}.cls-11{fill:#47566a;}</style><linearGradient id="linear-gradient" x1="64" y1="21" x2="64" y2="13" gradientUnits="userSpaceOnUse"><stop offset="0" stop-color="#454b60"/><stop offset="1" stop-color="#575f7c"/></linearGradient><linearGradient id="linear-gradient-2" x1="23.42" y1="42.75" x2="23.42" y2="28.18" gradientUnits="userSpaceOnUse"><stop offset="0" stop-color="#fbcc88"/><stop offset="1" stop-color="#ffe5c3"/></linearGradient><linearGradient id="linear-gradient-3" x1="104.58" x2="104.58" y2="28.18" xlink:href="#linear-gradient-2"/><linearGradient id="linear-gradient-4" x1="64" y1="127" x2="64" y2="21" gradientUnits="userSpaceOnUse"><stop offset="0" stop-color="#949aaf"/><stop offset="1" stop-color="#c6ccda"/></linearGradient><linearGradient id="linear-gradient-5" x1="64" y1="116" x2="64" y2="32" gradientUnits="userSpaceOnUse"><stop offset="0" stop-color="#dde1e8"/><stop offset="1" stop-color="#f3f4f5"/></linearGradient><linearGradient id="linear-gradient-6" y1="13" y2="1" xlink:href="#linear-gradient-4"/></defs><title>Coming Soon</title><g id="Coming_Soon" data-name="Coming Soon"><rect class="cls-1" x="61" y="13" width="6" height="8"/><path class="cls-2" d="M21.2,42.75l-2.95-3a6.81,6.81,0,0,1,9.64-9.63l2.69,2.7Z"/><path class="cls-3" d="M97.42,32.87l2.69-2.7a6.81,6.81,0,1,1,9.64,9.63l-3,3Z"/><path class="cls-4" d="M30.58,32.87,21.2,42.75c-2.85-2.85-5.75-5-4.77-9.27.95,4.31,5.15,5.87,7.64,3.24l5.05-5.31Z"/><path class="cls-4" d="M106.8,42.75l-9.38-9.88,1.46-1.46,5.05,5.31c2.45,2.58,6.68,1.12,7.64-3.24C112.54,37.82,109.66,39.89,106.8,42.75Z"/><circle class="cls-5" cx="64" cy="74" r="53"/><path class="cls-6" d="M64,127c-30.68,0-54.28-25.84-53-55A53,53,0,0,0,117,72C118.28,101.16,94.68,127,64,127Z"/><circle class="cls-7" cx="64" cy="74" r="42"/><path class="cls-8" d="M106,76A42,42,0,0,0,22,76c-.77-25.48,19.07-44,42-44S106.73,50.44,106,76Z"/><rect class="cls-9" x="56" y="1" width="16" height="12"/><rect class="cls-6" x="56" y="9" width="16" height="4"/><rect class="cls-10" x="61" y="18" width="6" height="3"/><path class="cls-11" d="M108.11,42.88c2.49-2.48,4.65-4.11,4.65-7.9a7.84,7.84,0,0,0-13.37-5.53l-2.07,2.08A53.74,53.74,0,0,0,68,20.14V14h4a1,1,0,0,0,1-1V1a1,1,0,0,0-1-1H56a1,1,0,0,0-1,1V13a1,1,0,0,0,1,1h4v6.12a53.74,53.74,0,0,0-29.3,11.39c-2.28-2.29-3.87-4.37-7.61-4.37a7.83,7.83,0,0,0-5.54,13.36l2.36,2.36C-5.2,78.33,20.12,128,64,128S133.14,78.25,108.11,42.88Zm-7.28-12A5.8,5.8,0,0,1,110.72,35c0,2.89-1.71,4.11-3.83,6.23a54.61,54.61,0,0,0-8-8.39ZM57,2H71V12H57Zm5,18V14h4v6ZM19,39.08a5.8,5.8,0,0,1,4.1-9.88c2.85,0,4.07,1.67,6,3.62a54.61,54.61,0,0,0-8,8.39ZM64,126a52,52,0,1,1,52-52A52,52,0,0,1,64,126Z"/><path class="cls-11" d="M64,31a43,43,0,1,0,43,43A43.07,43.07,0,0,0,64,31Zm0,84a41,41,0,1,1,41-41A41,41,0,0,1,64,115Z"/><path class="cls-11" d="M65,39V36a1,1,0,0,0-2,0v3A1,1,0,0,0,65,39Z"/><path class="cls-11" d="M63,109v3a1,1,0,0,0,2,0v-3A1,1,0,0,0,63,109Z"/><path class="cls-11" d="M102,73H99a1,1,0,0,0,0,2h3A1,1,0,0,0,102,73Z"/><path class="cls-11" d="M29,73H26a1,1,0,0,0,0,2h3A1,1,0,0,0,29,73Z"/><path class="cls-11" d="M45.5,42a1,1,0,0,0-1-1.74A1,1,0,0,0,45.5,42Z"/><path class="cls-11" d="M82.5,106a1,1,0,0,0,1,1.73A1,1,0,0,0,82.5,106Z"/><path class="cls-11" d="M82.5,42a1,1,0,0,0,1-1.74A1,1,0,0,0,82.5,42Z"/><path class="cls-11" d="M45.5,106a1,1,0,0,0-1,1.73A1,1,0,0,0,45.5,106Z"/><path class="cls-11" d="M30.59,92.13a1,1,0,0,0,1,1.74A1,1,0,0,0,30.59,92.13Z"/><path class="cls-11" d="M96.41,54.13a1,1,0,0,0,1,1.74A1,1,0,0,0,96.41,54.13Z"/><path class="cls-11" d="M31.59,54.13a1,1,0,0,0-1,1.74A1,1,0,0,0,31.59,54.13Z"/><path class="cls-11" d="M97.41,92.13a1,1,0,0,0-1,1.74A1,1,0,0,0,97.41,92.13Z"/><path class="cls-11" d="M83,77A19,19,0,1,1,64,58H77.54l-9.26,9.26A1,1,0,0,0,69,69c.6,0-.25.67,11.72-11.3a1,1,0,0,0,0-1.42c-.21-.23.13.11-11-11a1,1,0,0,0-1.44,1.44L77.54,56H64A21,21,0,1,0,85,77,1,1,0,0,0,83,77Z"/></g></svg>