<svg xmlns="http://www.w3.org/2000/svg" xmlns:xlink="http://www.w3.org/1999/xlink" viewBox="0 0 128 128"><defs><style>.cls-1{fill:url(#linear-gradient);}.cls-2{fill:#8288a1;}.cls-3{fill:url(#linear-gradient-2);}.cls-4{fill:url(#linear-gradient-3);}.cls-5{fill:#77cacb;}.cls-6{fill:#adb3c4;}.cls-7{fill:#47566a;}</style><linearGradient id="linear-gradient" x1="64.01" y1="109" x2="64.01" y2="97" gradientUnits="userSpaceOnUse"><stop offset="0" stop-color="#949aaf"/><stop offset="1" stop-color="#c6ccda"/></linearGradient><linearGradient id="linear-gradient-2" x1="64" y1="97" x2="64" y2="19" xlink:href="#linear-gradient"/><linearGradient id="linear-gradient-3" x1="64" y1="90" x2="64" y2="26" gradientUnits="userSpaceOnUse"><stop offset="0" stop-color="#9dd5df"/><stop offset="1" stop-color="#c3e1f5"/></linearGradient></defs><title>Error 502</title><g id="Error_502" data-name="Error 502"><path class="cls-1" d="M127,99c0,5.39.19,5.87-.63,6.59a13.66,13.66,0,0,1-9,3.41H10.66a13.65,13.65,0,0,1-9-3.41A1.93,1.93,0,0,1,1,104.13V99a2,2,0,0,1,2-2H125A2,2,0,0,1,127,99Z"/><path class="cls-2" d="M127,100.13c0,4,.21,4.72-.63,5.46a13.66,13.66,0,0,1-9,3.41H10.66a13.66,13.66,0,0,1-9-3.41c-.83-.73-.63-1.42-.63-5.46a1.93,1.93,0,0,0,.63,1.46A13.68,13.68,0,0,0,5.43,104c3.58,1.49-4.57,1,111.91,1a13.66,13.66,0,0,0,9-3.41A1.93,1.93,0,0,0,127,100.13Z"/><path class="cls-3" d="M114,19a4,4,0,0,1,4,4V97H10V23a4,4,0,0,1,4-4Z"/><path class="cls-4" d="M17,26V90h94V26Z"/><path class="cls-5" d="M17,85v5h94V85Z"/><polygon class="cls-6" points="76 102 52 102 50 97 78 97 76 102"/><rect class="cls-2" x="10" y="94" width="108" height="3"/><path class="cls-7" d="M125,96h-6V23a5,5,0,0,0-5-5H14a5,5,0,0,0-5,5V96H3a3,3,0,0,0-3,3c0,5.07-.32,6.21,1,7.36a14.66,14.66,0,0,0,9.7,3.66H117.34a14.66,14.66,0,0,0,9.7-3.66c1.3-1.14,1-2.3,1-7.36A3,3,0,0,0,125,96ZM11,23a3,3,0,0,1,3-3H114a3,3,0,0,1,3,3V96H11ZM76.49,98l-1.18,3H52.69l-1.18-3Zm49.2,6.81a12.63,12.63,0,0,1-8.35,3.15c-116,0-108.2.41-111.52-1a12.63,12.63,0,0,1-3.51-2.19C1.92,104.48,2,104.6,2,99a1,1,0,0,1,1-1H49.31c1.82,4.55,1.78,5,2.69,5,25.91,0,24.58.28,25-.64L78.69,98H125a1,1,0,0,1,1,1C126,104.41,126.08,104.48,125.69,104.83Z"/><path class="cls-7" d="M112,90V26a1,1,0,0,0-1-1H17a1,1,0,0,0-1,1V90a1,1,0,0,0,1,1h94A1,1,0,0,0,112,90Zm-2-1H18V27h92Z"/><path class="cls-7" d="M34.72,54.72,40,49.44l5.28,5.28a1,1,0,0,0,1.44-1.44L41.44,48l5.28-5.28a1,1,0,0,0-1.44-1.44L40,46.56l-5.28-5.28a1,1,0,0,0-1.44,1.44L38.56,48l-5.28,5.28A1,1,0,0,0,34.72,54.72Z"/><path class="cls-7" d="M82.72,54.72,88,49.44l5.28,5.28a1,1,0,0,0,1.44-1.44L89.44,48l5.28-5.28a1,1,0,0,0-1.44-1.44L88,46.56l-5.28-5.28a1,1,0,0,0-1.44,1.44L86.56,48l-5.28,5.28A1,1,0,0,0,82.72,54.72Z"/><path class="cls-7" d="M48,72H80a1,1,0,0,0,0-2H48A1,1,0,0,0,48,72Z"/></g></svg>