<svg xmlns="http://www.w3.org/2000/svg" xmlns:xlink="http://www.w3.org/1999/xlink" viewBox="0 0 128 128"><defs><style>.cls-1{fill:none;stroke:#47566a;stroke-linecap:round;stroke-linejoin:round;stroke-width:2.04px;}.cls-2{fill:url(#linear-gradient);}.cls-3{fill:#8a6762;}.cls-4{fill:url(#linear-gradient-2);}.cls-5{fill:url(#linear-gradient-3);}.cls-6{fill:#c7cdd8;}.cls-7{fill:url(#linear-gradient-4);}.cls-8{fill:#8288a1;}.cls-9{fill:url(#linear-gradient-5);}.cls-10{fill:#7ece67;}.cls-11{fill:#cba07a;}.cls-12{fill:#47566a;}</style><linearGradient id="linear-gradient" x1="69" y1="127" x2="69" y2="35" gradientUnits="userSpaceOnUse"><stop offset="0" stop-color="#9b756d"/><stop offset="1" stop-color="#bc9388"/></linearGradient><linearGradient id="linear-gradient-2" x1="60.39" y1="127" x2="60.39" y2="52" gradientUnits="userSpaceOnUse"><stop offset="0" stop-color="#d1a788"/><stop offset="1" stop-color="#f2d3b8"/></linearGradient><linearGradient id="linear-gradient-3" x1="68.5" y1="62" x2="68.5" y2="1" gradientUnits="userSpaceOnUse"><stop offset="0" stop-color="#dde1e8"/><stop offset="1" stop-color="#f3f4f5"/></linearGradient><linearGradient id="linear-gradient-4" x1="114" y1="21" x2="114" y2="1" gradientUnits="userSpaceOnUse"><stop offset="0" stop-color="#949aaf"/><stop offset="1" stop-color="#c6ccda"/></linearGradient><linearGradient id="linear-gradient-5" x1="57" y1="117" x2="57" y2="71" gradientUnits="userSpaceOnUse"><stop offset="0" stop-color="#8cdd79"/><stop offset="1" stop-color="#d4e6b6"/></linearGradient></defs><title>Folder Data</title><g id="Folder_Data" data-name="Folder Data"><line class="cls-1" x1="103" y1="62" x2="38" y2="62"/><path class="cls-2" d="M13,52V35H125v85a7,7,0,0,1-14,0V62H38L31,52Z"/><polygon class="cls-3" points="111 62 38 62 31 52 13 52 13 45 31 45 38 55 111 55 111 62"/><path class="cls-3" d="M125,113v7a7,7,0,0,1-14,0v-7a7,7,0,1,0,14,0Z"/><path class="cls-4" d="M117.79,127H9.81A6.81,6.81,0,0,1,3,120.19V52H31l7,10h73v58.21A6.8,6.8,0,0,0,117.79,127Z"/><path class="cls-5" d="M114,1a11,11,0,0,0-11,11V62H38L31,52H23V12A11,11,0,0,1,34,1Z"/><polygon class="cls-6" points="103 58 103 62 38 62 31 52 23 52 23 48 33.08 48 40.08 58 103 58"/><path class="cls-7" d="M125,12v9H103V12a11,11,0,0,1,22,0Z"/><rect class="cls-8" x="103" y="17" width="22" height="4"/><circle class="cls-9" cx="57" cy="94" r="23"/><path class="cls-10" d="M57,117A23,23,0,0,1,34.14,91.5a23,23,0,0,0,45.72,0A23,23,0,0,1,57,117Z"/><path class="cls-11" d="M117.79,127H9.81A6.81,6.81,0,0,1,3,120.19c0-.3-8.31-.19,108-.19A6.79,6.79,0,0,0,117.79,127Z"/><path class="cls-12" d="M125,34H104V22h21a1,1,0,0,0,1-1V12A12,12,0,0,0,114,0H34A12,12,0,0,0,22,12V34H13a1,1,0,0,0-1,1V51H3a1,1,0,0,0-1,1v68.19A7.84,7.84,0,0,0,9.81,128H118a8,8,0,0,0,8-8V35A1,1,0,0,0,125,34Zm-1-22v8H104V12a10,10,0,0,1,20,0ZM34,2c76.81,0,73.44,0,73.34,0a12.06,12.06,0,0,0-4.58,5.81c-1,2.77-.76-.21-.76,53.14H38.53l-6.69-9.56c-.42-.59-.17-.44-7.84-.44V12A10,10,0,0,1,34,2ZM14,36h8V51H14ZM9.81,126A5.8,5.8,0,0,1,4,120.19V53H30.47l6.69,9.56c.47.68-3.95.44,72.82.44v57a8,8,0,0,0,2.67,6ZM124,120c0,7.61-12,8.47-12-.62V62a1,1,0,0,0-1-1h-7V36h20Z"/><path class="cls-12" d="M57,70A24,24,0,1,0,81,94,24,24,0,0,0,57,70Zm0,46A22,22,0,1,1,79,94,22,22,0,0,1,57,116Z"/><path class="cls-12" d="M68.28,85.28,53,100.56l-7.28-7.28a1,1,0,0,0-1.44,1.44c8.63,8.63,8.12,8.3,8.72,8.3s-.8,1.22,16.72-16.3A1,1,0,0,0,68.28,85.28Z"/><path class="cls-12" d="M36,18H90a1,1,0,0,0,0-2H36A1,1,0,0,0,36,18Z"/><path class="cls-12" d="M36,30H90a1,1,0,0,0,0-2H36A1,1,0,0,0,36,30Z"/><path class="cls-12" d="M36,42H90a1,1,0,0,0,0-2H36A1,1,0,0,0,36,42Z"/></g></svg>