<svg xmlns="http://www.w3.org/2000/svg" xmlns:xlink="http://www.w3.org/1999/xlink" viewBox="0 0 128 128"><defs><style>.cls-1{fill:url(#linear-gradient);}.cls-2{fill:#8288a1;}.cls-3{fill:url(#linear-gradient-2);}.cls-4{fill:#f6b756;}.cls-5{fill:url(#linear-gradient-3);}.cls-6{fill:#c7cdd8;}.cls-7{fill:#47566a;}</style><linearGradient id="linear-gradient" x1="64.01" y1="124.73" x2="64.01" y2="4.15" gradientUnits="userSpaceOnUse"><stop offset="0" stop-color="#949aaf"/><stop offset="1" stop-color="#c6ccda"/></linearGradient><linearGradient id="linear-gradient-2" x1="31.15" y1="124.75" x2="31.15" y2="64.45" gradientUnits="userSpaceOnUse"><stop offset="0" stop-color="#fbcc88"/><stop offset="1" stop-color="#ffe5c3"/></linearGradient><linearGradient id="linear-gradient-3" x1="87.03" y1="74.19" x2="87.03" y2="3.25" gradientUnits="userSpaceOnUse"><stop offset="0" stop-color="#dde1e8"/><stop offset="1" stop-color="#f3f4f5"/></linearGradient></defs><title>Page Under Construction</title><g id="Page_Under_Construction" data-name="Page Under Construction"><path class="cls-1" d="M112,96a10.75,10.75,0,0,1-8-3.15L42.4,31.15c-7.2-7.2-4.27-13.12-7.2-18-5.4-9-12.6-9-18-9S6.4,7.75,6.4,7.75L19,15v7.2l-5.4,3.6c-10.92-6.25-8-4.6-12.6-7.2,0,9,3.6,14.4,9,18s19.8,0,22.39,2.59l62.68,62.68a10.75,10.75,0,0,1,3.15,8c-.73,13.51,16.62,20.41,25.49,9.74C131.67,110.05,124.33,95.3,112,96Zm-3.58,7.18h8.31l4.16,7.2-4.16,7.2h-8.31l-4.16-7.2Z"/><path class="cls-2" d="M124.17,118.92c-8.47,11.43-26.71,4.83-25.95-9.15a10.75,10.75,0,0,0-3.15-8L32.39,39.14c-2.59-2.59-17,1-22.39-2.59s-9-9-9-18L4.42,20.5a18.87,18.87,0,0,0,8.58,13c5.4,3.6,19.8,0,22.39,2.59L98.07,98.82a10.75,10.75,0,0,1,3.15,8C100.58,118.65,114.41,126.16,124.17,118.92Z"/><path class="cls-3" d="M46.9,64.45,42.4,69c0,5.33-5.16,10.13-10.8,9L2.27,107.27a4.36,4.36,0,0,0,0,6.15l10.06,10a4.33,4.33,0,0,0,6.14,0c29.4-29.4,29.31-29.42,29.33-29.32-1.14-5.69,3.75-10.8,9-10.8l4.5-4.5Z"/><path class="cls-4" d="M61.3,78.85c-4.81,4.81-4.45,4.5-4.55,4.5-5.06,0-10.09,5-9,10.8L18.47,123.47a4.32,4.32,0,0,1-3.07,1.28c-2.3,0-3.22-1.43-6.05-4.25a4.35,4.35,0,0,0,5.72-.37L44.4,90.8c-1.13-5.73,3.79-10.8,9-10.8l4.5-4.5C41.14,58.74,44.47,62,61.3,78.85Z"/><path class="cls-5" d="M122.5,12.25l-9-9c-8.11,8.11-11,10-11.84,15.75L51.55,69.1l5.09,5.09,50.11-50.1C112.54,23.24,114.47,20.28,122.5,12.25Z"/><path class="cls-6" d="M122.5,12.25c-8.19,8.18-10,11-15.75,11.84L56.64,74.19l-2.5-2.5,50.11-50.1c5.77-.85,7.64-3.74,15.75-11.84Z"/><path class="cls-7" d="M127.81,107.75A15.41,15.41,0,0,0,112,95a9.8,9.8,0,0,1-7.19-2.86l-32.3-32.3L107.24,25c6-1,8.11-4.19,16-12.07a1,1,0,0,0,0-1.44l-9-9a1,1,0,0,0-1.44,0c-7.88,7.88-11.07,10-12.08,16L66,53.26,43.12,30.43c-7-7-3.9-12.58-7-17.81C30.38,3.13,22.76,3.13,17.2,3.13S6.07,6.75,5.83,6.9a1,1,0,0,0,.06,1.74L18,15.54V21.6l-4.42,2.95-12-6.89A1,1,0,0,0,0,18.55C0,27,3.07,33.16,9.43,37.4c5.61,3.74,20.19.41,22.24,2.46L55.51,63.7l-4,4-3.93-3.93a1,1,0,0,0-1.44,0l-4.5,4.5c-.74.73.31,3.29-2.51,6.11l-.55.54A7.53,7.53,0,0,1,31.8,77c-.82-.16,1.33-2-30.25,29.6a5.38,5.38,0,0,0,0,7.59L11.61,124.2a5.37,5.37,0,0,0,7.58,0C51.11,92.29,49,94.72,48.8,94c-1-5.13,3.49-9.58,8-9.58.59,0,.44,0,5.22-4.8a1,1,0,0,0,0-1.44l-3.93-3.94,3.95-4,32.3,32.3a9.74,9.74,0,0,1,2.86,7.18,15.42,15.42,0,1,0,30.61-2ZM33.11,38.42c-3.08-3.09-17.42.7-22.54-2.72-5.38-3.58-8.11-8.49-8.5-15.36l11,6.29c.74.43.65.25,6.48-3.63.65-.44.45-.47.45-8,0-.83.25-.45-11.58-7.21A19.92,19.92,0,0,1,17.2,5.17c5.36,0,12,0,17.13,8.51,2.74,4.56-.11,10.73,7.35,18.19L64.51,54.7,57,62.26ZM56.37,82.33c-5.33.21-10.52,5.36-9.66,11.47l-29,29a3.32,3.32,0,0,1-4.7,0C2.56,112.26,2,112.23,2,110.35S.6,110.4,32,79a10.4,10.4,0,0,0,11.46-9.66l3.49-3.49,13,13ZM53,69.1c52.57-52.57,49.59-49.41,49.67-49.95a12.72,12.72,0,0,1,3.61-7.23l7.22-7.23,7.56,7.56-7.23,7.22c-3.53,3.54-7.28,3.38-7.8,3.9L56.65,72.75Zm69.06,50.71c-8.61,8.61-23.41,2.11-22.82-10a11.81,11.81,0,0,0-3.45-8.72l-32.3-32.3L71,61.24l32.3,32.3A11.84,11.84,0,0,0,112.07,97C124,96.37,130.74,111.14,122.06,119.81Z"/><path class="cls-7" d="M117.64,102.64c-.4-.7-.13-.51-9.2-.51-.8,0-.5-.15-5,7.71-.4.69-.38.36,4.16,8.22.4.69.09.51,9.19.51.81,0,.51.14,5-7.71C122.2,110.16,122.17,110.5,117.64,102.64Zm-1.47,13.89H109l-3.57-6.18,3.57-6.18h7.14l3.56,6.18Z"/></g></svg>