<svg xmlns="http://www.w3.org/2000/svg" xmlns:xlink="http://www.w3.org/1999/xlink" viewBox="0 0 128 128"><defs><style>.cls-1{fill:url(#linear-gradient);}.cls-2{fill:#4da67f;}.cls-3{fill:url(#linear-gradient-2);}.cls-4{fill:#7ece67;}.cls-5{fill:url(#linear-gradient-3);}.cls-6{fill:url(#linear-gradient-4);}.cls-7{fill:url(#linear-gradient-5);}.cls-8{fill:#eab39b;}.cls-9{fill:#47566a;}</style><linearGradient id="linear-gradient" x1="57" y1="105" x2="57" y2="1" gradientUnits="userSpaceOnUse"><stop offset="0" stop-color="#6ab891"/><stop offset="1" stop-color="#85cba9"/></linearGradient><linearGradient id="linear-gradient-2" x1="57" y1="99" x2="57" y2="7" gradientUnits="userSpaceOnUse"><stop offset="0" stop-color="#8cdd79"/><stop offset="1" stop-color="#d4e6b6"/></linearGradient><linearGradient id="linear-gradient-3" x1="57" y1="66" x2="57" y2="40" xlink:href="#linear-gradient"/><linearGradient id="linear-gradient-4" x1="74" y1="127.5" x2="74" y2="45.99" gradientUnits="userSpaceOnUse"><stop offset="0" stop-color="#f2c4b0"/><stop offset="1" stop-color="#ffe3d7"/></linearGradient><linearGradient id="linear-gradient-5" x1="67.8" y1="105.08" x2="67.8" y2="105" xlink:href="#linear-gradient-4"/></defs><title>Payment Processed</title><g id="Payment_Processed" data-name="Payment Processed"><path class="cls-1" d="M87,1H27V105H87Z"/><path class="cls-2" d="M87,104.74V102H27v3C91.58,105,87,105.14,87,104.74Z"/><path class="cls-3" d="M81,15a8,8,0,0,1-8-8H41a8,8,0,0,1-8,8V91a8,8,0,0,1,8,8H81Z"/><path class="cls-4" d="M81,95v4H41a8,8,0,0,0-8-8V87a8,8,0,0,1,8,8Z"/><ellipse class="cls-5" cx="57" cy="53" rx="17" ry="13"/><path class="cls-2" d="M57,66c-10.84,0-18-7.35-16.88-14.5C41.08,58,48.27,63,57,63s15.92-5,16.88-11.5C75,58.58,67.92,66,57,66Z"/><path class="cls-6" d="M101,79.79V127l-46.5.5A25.6,25.6,0,0,1,47,109.39V105H67.82C69,102.05,72,98.31,72,90.84c0-3.06-.32-4-3.18-20.19a6.75,6.75,0,1,1,13.29-2.34L87,96.13V46A47.85,47.85,0,0,1,101,79.79Z"/><path class="cls-7" d="M67.81,105l0,.08"/><path class="cls-8" d="M101,124v3l-46.5.5A25.6,25.6,0,0,1,47,109.39v-3a25.54,25.54,0,0,0,2,9.8c1.41,4.22,6.54,8.3,12.68,8.23Z"/><path class="cls-8" d="M67.81,105l0,.08"/><path class="cls-8" d="M67.81,102l0,.08"/><path class="cls-8" d="M67.79,105c0,.42-.12.48-.47,1.55C65.83,110.84,66,113.77,66,118a1,1,0,0,1-2,0c0-4-.26-8.18,1.74-13Z"/><path class="cls-9" d="M57,39c-9.94,0-18,6.29-18,14s8.08,14,18,14,18-6.29,18-14S66.93,39,57,39Zm0,26c-8.81,0-16-5.37-16-12s7.17-12,16-12,16,5.37,16,12S65.81,65,57,65Z"/><path class="cls-9" d="M56,83v6a1,1,0,0,0,2,0V83A1,1,0,0,0,56,83Z"/><path class="cls-9" d="M58,23V17a1,1,0,0,0-2,0v6A1,1,0,0,0,58,23Z"/><path class="cls-9" d="M88,45.58V1a1,1,0,0,0-1-1H27a1,1,0,0,0-1,1V105a1,1,0,0,0,1,1H46v3.37a26.44,26.44,0,0,0,7.8,18.83,1,1,0,0,0,1.44-1.44A24.44,24.44,0,0,1,48,109.39V106H66.35c-1.57,4.61-1.37,7.67-1.37,12a1,1,0,0,0,2,0v-3.77c0-7.37,3-10.64,4.46-14.8,1.16-2.44,2-8.07,1.13-13l-2.81-16a5.73,5.73,0,1,1,11.29-2c5.25,29.8,4.84,27.93,5.13,28.28a1,1,0,0,0,1.66-.16c.21-.39.14,2.62.14-48.06a46.45,46.45,0,0,1,12,31.24V127a1,1,0,0,0,2,0V79.79A48.48,48.48,0,0,0,88,45.58ZM67.79,70.83c3,16.84,4.27,20.15,2,27.15H42A9,9,0,0,0,34,90V16A9,9,0,0,0,42,8H72A9,9,0,0,0,80,16V63.18A7.78,7.78,0,0,0,67.79,70.83ZM82,65.33V15a1,1,0,0,0-1-1,7,7,0,0,1-7-7,1,1,0,0,0-1-1H41a1,1,0,0,0-1,1,7,7,0,0,1-7,7,1,1,0,0,0-1,1V91a1,1,0,0,0,1,1,7,7,0,0,1,7,7,1,1,0,0,0,1,1H69.06c-.85,2-1,1.9-1.91,4H28V2H86V84.47C82.89,67,83.11,67.07,82,65.33Z"/></g></svg>