<svg xmlns="http://www.w3.org/2000/svg" xmlns:xlink="http://www.w3.org/1999/xlink" viewBox="0 0 128 128"><defs><style>.cls-1{fill:url(#linear-gradient);}.cls-2{fill:#c7cdd8;}.cls-3{fill:url(#linear-gradient-2);}.cls-4{fill:#5b8dc9;}.cls-5{fill:url(#linear-gradient-3);}.cls-6{fill:#eab39b;}.cls-7{fill:url(#linear-gradient-4);}.cls-8{fill:url(#linear-gradient-5);}.cls-9{fill:url(#linear-gradient-6);}.cls-10{fill:url(#linear-gradient-7);}.cls-11{fill:url(#linear-gradient-8);}.cls-12{fill:#f6b756;}.cls-13{fill:#47566a;}</style><linearGradient id="linear-gradient" x1="64" y1="51" x2="64" y2="1" gradientUnits="userSpaceOnUse"><stop offset="0" stop-color="#dde1e8"/><stop offset="1" stop-color="#f3f4f5"/></linearGradient><linearGradient id="linear-gradient-2" x1="39" y1="127" x2="39" y2="88" gradientUnits="userSpaceOnUse"><stop offset="0" stop-color="#7aa8d7"/><stop offset="1" stop-color="#96c8ea"/></linearGradient><linearGradient id="linear-gradient-3" x1="76.04" y1="126" x2="76.04" y2="55.44" gradientUnits="userSpaceOnUse"><stop offset="0" stop-color="#f2c4b0"/><stop offset="1" stop-color="#ffe3d7"/></linearGradient><linearGradient id="linear-gradient-4" x1="64" y1="29.66" x2="64" y2="11" gradientUnits="userSpaceOnUse"><stop offset="0" stop-color="#fbcc88"/><stop offset="1" stop-color="#ffe5c3"/></linearGradient><linearGradient id="linear-gradient-5" x1="88" y1="29.66" x2="88" xlink:href="#linear-gradient-4"/><linearGradient id="linear-gradient-6" x1="112" y1="29.66" x2="112" xlink:href="#linear-gradient-4"/><linearGradient id="linear-gradient-7" x1="40" y1="29.66" x2="40" xlink:href="#linear-gradient-4"/><linearGradient id="linear-gradient-8" x1="16" y1="29.66" x2="16" xlink:href="#linear-gradient-4"/></defs><title>Reviews</title><g id="Reviews"><path class="cls-1" d="M1,9.13V31.87A8.13,8.13,0,0,0,9.13,40H55.84L64,51l8.16-11h46.71A8.13,8.13,0,0,0,127,31.87V9.13A8.13,8.13,0,0,0,118.87,1H9.13A8.13,8.13,0,0,0,1,9.13Z"/><path class="cls-2" d="M127,26.87v5A8.13,8.13,0,0,1,118.87,40H72.16L64,51,55.84,40H9.13A8.13,8.13,0,0,1,1,31.87v-5A8.13,8.13,0,0,0,9.13,35H118.87A8.13,8.13,0,0,0,127,26.87Z"/><rect class="cls-3" x="27" y="88" width="24" height="39"/><rect class="cls-4" x="27" y="122" width="24" height="5"/><path class="cls-5" d="M51,91.23c12.27-23.3,11-18.58,11-31.85a3.94,3.94,0,0,1,3.94-3.94c5,0,8.9,5,8.9,10.12,0,7.69-2.1,12.44-3.94,17.44H95.56a5.44,5.44,0,0,1,5.51,4.78,5.25,5.25,0,0,1-5.23,5.72,5.25,5.25,0,0,1,5.23,5.72A5.44,5.44,0,0,1,95.56,104h-3.2a5.5,5.5,0,1,1,0,11H90.72a5.5,5.5,0,1,1,0,11H60.13a11.89,11.89,0,0,1-9-4.15c-.17-.2-.11,1.79-.11-27.85"/><path class="cls-6" d="M95.85,118.53A5.47,5.47,0,0,1,90.67,126H60.13a11.89,11.89,0,0,1-9-4.15c-.16-.19-.11.33-.11-4.13A11.9,11.9,0,0,0,60.13,122H90.67A5.49,5.49,0,0,0,95.85,118.53Z"/><polygon class="cls-7" points="64 11 67.03 17.14 73.81 18.13 68.91 22.91 70.06 29.66 64 26.48 57.94 29.66 59.09 22.91 54.19 18.13 60.97 17.14 64 11"/><polygon class="cls-8" points="88 11 91.03 17.14 97.81 18.13 92.91 22.91 94.06 29.66 88 26.48 81.94 29.66 83.09 22.91 78.19 18.13 84.97 17.14 88 11"/><polygon class="cls-9" points="112 11 115.03 17.14 121.81 18.13 116.91 22.91 118.06 29.66 112 26.48 105.94 29.66 107.09 22.91 102.19 18.13 108.97 17.14 112 11"/><polygon class="cls-10" points="40 11 43.03 17.14 49.81 18.13 44.91 22.91 46.06 29.66 40 26.48 33.94 29.66 35.09 22.91 30.19 18.13 36.97 17.14 40 11"/><polygon class="cls-11" points="16 11 19.03 17.14 25.81 18.13 20.91 22.91 22.06 29.66 16 26.48 9.94 29.66 11.09 22.91 6.19 18.13 12.97 17.14 16 11"/><path class="cls-12" d="M21,23.63l1,6L16,26.48,9.94,29.66l1-6A9.9,9.9,0,0,0,21,23.63Z"/><path class="cls-12" d="M45,23.63l1,6L40,26.48l-6.06,3.18,1-6A9.9,9.9,0,0,0,45,23.63Z"/><path class="cls-12" d="M69,23.63l1,6L64,26.48l-6.06,3.18,1-6A9.9,9.9,0,0,0,69,23.63Z"/><path class="cls-12" d="M93,23.63l1,6L88,26.48l-6.06,3.18,1-6A9.9,9.9,0,0,0,93,23.63Z"/><path class="cls-12" d="M117,23.63l1,6L112,26.48l-6.06,3.18,1-6A9.9,9.9,0,0,0,117,23.63Z"/><path class="cls-13" d="M95.56,82H72.36c3.34-9,6.45-20.26-1.33-25.91C66.35,52.66,61,54.85,61,59.38c0,12.95,1,8.88-9.12,28.1-.43-.71,1.29-.5-24.86-.5a1,1,0,0,0-1,1v39a1,1,0,0,0,1,1H51a1,1,0,0,0,1-1v-2.87A12.86,12.86,0,0,0,60.13,127H90.67A6.51,6.51,0,0,0,94.9,115.5a6.5,6.5,0,0,0,2-10.62A6.24,6.24,0,0,0,99.26,93.5C104.48,90.11,102.09,82,95.56,82ZM50,126H28V89H50ZM99,91.11a4.25,4.25,0,0,1-3.12,1.37,1,1,0,0,0,0,2,4.23,4.23,0,1,1-.28,8.46h-3.2a1,1,0,0,0,0,2,4.48,4.48,0,1,1,0,9H90.72a1,1,0,0,0,0,2,4.48,4.48,0,1,1,0,9H60.13A10.84,10.84,0,0,1,52,121.34V91.55c12-22.86,11-18.46,11-32.17,0-4.16,6.79-4.06,9.74,1.79a9.51,9.51,0,0,1,1.06,4.39c0,11.4-4.77,16.57-3.76,18,.44.63-1.38.44,25.5.44A4.26,4.26,0,0,1,99,91.11Z"/><path class="cls-13" d="M74,17.12l-6.25-.91-2.79-5.66a1.07,1.07,0,0,0-1.84,0l-2.79,5.66c-6.7,1-6.81.79-7.07,1.6s-.08.72,4.78,5.46c-1.15,6.67-1.35,6.72-.66,7.22s.67.29,6.66-2.86c6.08,3.2,5.71,3.05,6.06,3.05a1,1,0,0,0,1-1.19L70,23.27l4.52-4.41A1,1,0,0,0,74,17.12Zm-5.77,5.06c-.51.51-.35.58.52,5.62C64,25.32,64.34,25.45,64,25.45s-.14-.06-4.71,2.35c.89-5.19,1-5.13.52-5.62l-3.43-3.34,4.73-.69c.72-.1.63-.26,2.89-4.84,2.33,4.72,2.19,4.74,2.89,4.84l4.73.69Z"/><path class="cls-13" d="M98,17.12l-6.25-.91-2.79-5.66a1.07,1.07,0,0,0-1.84,0l-2.79,5.66c-6.7,1-6.81.79-7.07,1.6s-.08.72,4.78,5.46c-1.15,6.67-1.35,6.72-.66,7.22s.67.29,6.66-2.86c6.08,3.2,5.71,3.05,6.06,3.05a1,1,0,0,0,1-1.19L94,23.27l4.52-4.41A1,1,0,0,0,98,17.12Zm-5.77,5.06c-.51.51-.35.58.52,5.62C88,25.32,88.34,25.45,88,25.45s-.14-.06-4.71,2.35c.89-5.19,1-5.13.52-5.62l-3.43-3.34,4.73-.69c.72-.1.63-.26,2.89-4.84,2.33,4.72,2.19,4.74,2.89,4.84l4.73.69Z"/><path class="cls-13" d="M122,17.12l-6.25-.91-2.79-5.66a1.07,1.07,0,0,0-1.84,0l-2.79,5.66c-6.7,1-6.81.79-7.07,1.6s-.08.72,4.78,5.46c-1.15,6.67-1.35,6.72-.66,7.22s.67.29,6.66-2.86c6.08,3.2,5.71,3.05,6.06,3.05a1,1,0,0,0,1-1.19L118,23.27l4.52-4.41A1,1,0,0,0,122,17.12Zm-5.77,5.06c-.51.51-.35.58.52,5.62-4.71-2.48-4.37-2.35-4.71-2.35s-.14-.06-4.71,2.35c.89-5.19,1-5.13.52-5.62l-3.43-3.34,4.73-.69c.72-.1.63-.26,2.89-4.84,2.33,4.72,2.19,4.74,2.89,4.84l4.73.69Z"/><path class="cls-13" d="M50,17.12l-6.25-.91-2.79-5.66a1.07,1.07,0,0,0-1.84,0l-2.79,5.66c-6.7,1-6.81.79-7.07,1.6s-.08.72,4.78,5.46c-1.15,6.67-1.35,6.72-.66,7.22s.66.29,6.66-2.86c6.08,3.2,5.71,3.05,6.06,3.05a1,1,0,0,0,1-1.19L46,23.27l4.52-4.41A1,1,0,0,0,50,17.12Zm-5.77,5.06c-.51.51-.35.58.52,5.62C40,25.32,40.34,25.45,40,25.45s-.14-.06-4.71,2.35c.89-5.19,1-5.13.52-5.62l-3.43-3.34,4.73-.69c.72-.1.63-.26,2.89-4.84,2.33,4.72,2.19,4.74,2.89,4.84l4.73.69Z"/><path class="cls-13" d="M26,17.12l-6.25-.91-2.79-5.66a1.07,1.07,0,0,0-1.84,0l-2.79,5.66c-6.7,1-6.81.79-7.07,1.6s-.08.72,4.78,5.46C8.85,29.94,8.65,30,9.34,30.49s.67.29,6.66-2.86c6.08,3.2,5.71,3.05,6.06,3.05a1,1,0,0,0,1-1.19L22,23.27l4.52-4.41A1,1,0,0,0,26,17.12Zm-5.77,5.06c-.51.51-.35.58.52,5.62C16,25.32,16.34,25.45,16,25.45s-.14-.06-4.71,2.35c.89-5.19,1-5.13.52-5.62L8.38,18.84l4.73-.69c.72-.1.63-.26,2.89-4.84,2.33,4.72,2.19,4.74,2.89,4.84l4.73.69Z"/><path class="cls-13" d="M118.87,0H9.13A9.15,9.15,0,0,0,0,9.13V31.87A9.15,9.15,0,0,0,9.13,41H55.32l7.86,10.59a1,1,0,0,0,1.64,0L72.68,41h46.19A9.15,9.15,0,0,0,128,31.87V9.13A9.15,9.15,0,0,0,118.87,0ZM126,31.87A7.12,7.12,0,0,1,118.87,39H72.16c-.74,0-.32-.26-8.16,10.31C56.13,38.68,56.57,39,55.84,39H9.13A7.12,7.12,0,0,1,2,31.87V9.13A7.12,7.12,0,0,1,9.13,2H118.87A7.12,7.12,0,0,1,126,9.13Z"/></g></svg>