<svg xmlns="http://www.w3.org/2000/svg" xmlns:xlink="http://www.w3.org/1999/xlink" viewBox="0 0 128 128"><defs><style>.cls-1{fill:url(#linear-gradient);}.cls-2{fill:#c7cdd8;}.cls-3{fill:url(#linear-gradient-2);}.cls-4{fill:url(#linear-gradient-3);}.cls-5{fill:#8288a1;}.cls-6{fill:url(#linear-gradient-4);}.cls-7{fill:url(#linear-gradient-5);}.cls-8{fill:url(#linear-gradient-6);}.cls-9{fill:url(#linear-gradient-7);}.cls-10{fill:#77cacb;}.cls-11{fill:#47566a;}</style><linearGradient id="linear-gradient" x1="69" y1="127" x2="69" y2="1" gradientUnits="userSpaceOnUse"><stop offset="0" stop-color="#dde1e8"/><stop offset="1" stop-color="#f3f4f5"/></linearGradient><linearGradient id="linear-gradient-2" x1="85" y1="78.12" x2="85" y2="67.88" gradientTransform="translate(76.51 -38.72) rotate(45)" gradientUnits="userSpaceOnUse"><stop offset="0" stop-color="#9b756d"/><stop offset="1" stop-color="#bc9388"/></linearGradient><linearGradient id="linear-gradient-3" x1="64" y1="79" x2="64" y2="25" gradientUnits="userSpaceOnUse"><stop offset="0" stop-color="#949aaf"/><stop offset="1" stop-color="#c6ccda"/></linearGradient><linearGradient id="linear-gradient-4" x1="100" y1="103" x2="100" y2="73" gradientUnits="userSpaceOnUse"><stop offset="0" stop-color="#d1a788"/><stop offset="1" stop-color="#f2d3b8"/></linearGradient><linearGradient id="linear-gradient-5" x1="117" y1="19" x2="117" y2="1" xlink:href="#linear-gradient-3"/><linearGradient id="linear-gradient-6" x1="49" y1="127" x2="49" y2="109" xlink:href="#linear-gradient-3"/><linearGradient id="linear-gradient-7" x1="64" y1="73" x2="64" y2="31" gradientUnits="userSpaceOnUse"><stop offset="0" stop-color="#9dd5df"/><stop offset="1" stop-color="#c3e1f5"/></linearGradient></defs><title>Searching</title><g id="Searching"><path class="cls-1" d="M117,1a10,10,0,0,0-10,10V117a10,10,0,0,1-20,0v-8H21V11A10,10,0,0,1,31,1Z"/><path class="cls-2" d="M107,91v15.78a2.44,2.44,0,0,1-.71-.49C84.26,84.26,85,85.43,85,84a2.48,2.48,0,0,1,.88-1.88l-5-5a27,27,0,1,1,4.24-4.24l5,5A2.41,2.41,0,0,1,92,77C93.44,77,92.77,76.77,107,91Z"/><rect class="cls-3" x="82" y="68.76" width="6" height="8.49" transform="translate(-26.72 81.49) rotate(-45)"/><circle class="cls-4" cx="64" cy="52" r="27"/><path class="cls-5" d="M83.09,71.09C65.55,88.64,35.68,75.06,37,50.5c1.26,23,29.42,34.23,46.05,17.59A26.88,26.88,0,0,0,91,50.5,26.9,26.9,0,0,1,83.09,71.09Z"/><path class="cls-6" d="M108,103a2.41,2.41,0,0,0,1.71-.71c4.77-4.77,5.29-5,5.29-6.29a2.41,2.41,0,0,0-.71-1.71C92.27,72.27,93.43,73,92,73a2.41,2.41,0,0,0-1.71.71C85.52,78.48,85,78.66,85,80a2.41,2.41,0,0,0,.71,1.71C107.73,103.73,106.57,103,108,103Z"/><path class="cls-7" d="M127,11v8H107V11a10,10,0,0,1,20,0Z"/><path class="cls-8" d="M97,127H11A10,10,0,0,1,1,117v-8H87v8A10,10,0,0,0,97,127Z"/><rect class="cls-5" x="107" y="15" width="20" height="4"/><path class="cls-5" d="M97,127H11a10,10,0,0,1-8-4H89A10,10,0,0,0,97,127Z"/><circle class="cls-9" cx="64" cy="52" r="21"/><path class="cls-10" d="M84.9,54c-1.63-17.34-23-25.56-35.75-12.84A20.85,20.85,0,0,0,43.1,54a20.91,20.91,0,0,1,6-16.84C63.09,23.21,86.77,34.54,84.9,54Z"/><path class="cls-11" d="M79.57,36.43a22,22,0,1,0,0,31.14A22,22,0,0,0,79.57,36.43Zm-1.44,29.7a20,20,0,1,1,0-28.26A20,20,0,0,1,78.13,66.13Z"/><path class="cls-11" d="M117,0H31A11,11,0,0,0,20,11v97H1a1,1,0,0,0-1,1v8a11,11,0,0,0,11,11H97a11,11,0,0,0,11-11V104a3.42,3.42,0,0,0,2.41-1c4.71-4.71,5.59-5.13,5.59-7s-.66-2.08-8-9.42V20h19a1,1,0,0,0,1-1V11A11,11,0,0,0,117,0ZM90.62,126H11a9,9,0,0,1-9-9v-7H86C86,116.29,85,122,90.62,126ZM114,96c0,.79,0,.61-5,5.57a1.43,1.43,0,0,1-2,0L86.43,81a1.38,1.38,0,0,1,0-2c5.07-5.07,4.8-5,5.57-5s-.17-.75,14.28,13.7C113.87,95.31,114,95.11,114,96ZM82.37,70.37a26,26,0,1,1,0-36.74A26,26,0,0,1,82.37,70.37Zm2.79,0,3.52,3.52-2.8,2.8-3.52-3.52A26.44,26.44,0,0,0,85.16,70.36ZM94.43,73a3.53,3.53,0,0,0-4.23-.47l-3.75-3.75C100.27,50.28,87,24,64,24A28,28,0,0,0,36,52c0,23.37,26.71,36,44.79,22.45l3.73,3.74A3.41,3.41,0,0,0,85,82.43c22.22,22.23,20.57,20.61,21,20.92V117a9,9,0,0,1-18,0v-8a1,1,0,0,0-1-1H22V11a9,9,0,0,1,9-9c85.6,0,79.74-.08,79.41.17a11,11,0,0,0-4.14,6.32c-.41,1.77-.29-4.19-.29,76ZM126,18H108V11a9,9,0,0,1,18,0Z"/></g></svg>