<svg xmlns="http://www.w3.org/2000/svg" xmlns:xlink="http://www.w3.org/1999/xlink" viewBox="0 0 128 128"><defs><style>.cls-1{fill:url(#linear-gradient);}.cls-2{fill:#eab39b;}.cls-3{fill:#47566a;}</style><linearGradient id="linear-gradient" x1="64.21" y1="123" x2="64.21" y2="31.61" gradientUnits="userSpaceOnUse"><stop offset="0" stop-color="#f2c4b0"/><stop offset="1" stop-color="#ffe3d7"/></linearGradient></defs><title>See You Soon</title><g id="See_You_Soon" data-name="See You Soon"><path class="cls-1" d="M66.41,123c18.14,0,28.51-13,31.1-28.51s5.18-23.32,7.78-28.51,0-13-7.78-7.77-13,23.32-13,23.32L76.89,36.26A5.58,5.58,0,0,0,65.82,37.6l2.36,31.83L56,36.34a5.71,5.71,0,0,0-10.84,3.54L55,74.32,39.69,48.54a5.42,5.42,0,0,0-9.6,5L42.93,81.68,32.09,66.37a5.46,5.46,0,0,0-9.19,5.89L44.17,109S51.75,123,66.41,123Z"/><path class="cls-2" d="M105.29,66c-2.6,5.19-5.19,13-7.78,28.51S84.55,123,66.41,123c-14.66,0-22.24-14-22.24-14L22.9,72.26A5.52,5.52,0,0,1,22.77,67c.08.17-1.51-2.59,21.4,37,0,0,7.58,14,22.24,14,18.14,0,28.51-13,31.1-28.51,4-24,7.59-27.09,8.37-30A8.8,8.8,0,0,1,105.29,66Z"/><path class="cls-3" d="M84.87,77.27l-7-41.18a6.6,6.6,0,0,0-13.1,1.58l1.83,24.6L56.93,36a6.73,6.73,0,0,0-12.78,4.17L51.82,67,40.57,48a6.45,6.45,0,0,0-11.41,6l8.33,18.24-4.57-6.45a6.48,6.48,0,0,0-10.9,7l21.25,36.71c.32.59,8,14.54,23.14,14.54,20.07,0,29.74-15.17,32.11-29.36,2.22-13.34,4.59-22,7.68-28.22C111.74,55.36,96.37,44.67,84.87,77.27Zm19.5-11.74c-3.18,6.36-5.61,15.24-7.87,28.79C94.28,107.69,85.2,122,66.41,122c-13.86,0-21.27-13.34-21.36-13.5L23.79,71.75A4.44,4.44,0,0,1,31.26,67L42.1,82.27a1,1,0,0,0,1.76-1L31,53.14a4.41,4.41,0,0,1,7.8-4.08L54.1,74.84A1,1,0,0,0,56,74L46.12,39.6A4.68,4.68,0,0,1,55,36.69L67.22,69.78a1,1,0,0,0,2-.43L66.84,37.52a4.56,4.56,0,0,1,9-1.09L83.55,81.7a1,1,0,0,0,2,.11c0-.17,5.17-17.84,12.54-22.75C104.93,54.49,106.48,61.32,104.37,65.53Z"/><path class="cls-3" d="M127,67h-8a1,1,0,0,0,0,2h8A1,1,0,0,0,127,67Z"/><path class="cls-3" d="M9,67H1a1,1,0,0,0,0,2H9A1,1,0,0,0,9,67Z"/><path class="cls-3" d="M65,13V5a1,1,0,0,0-2,0v8A1,1,0,0,0,65,13Z"/><path class="cls-3" d="M111.63,41.52c.39,0-.09.21,7.44-4.14a1,1,0,0,0-1-1.76l-6.93,4A1,1,0,0,0,111.63,41.52Z"/><path class="cls-3" d="M15.86,94.62l-6.93,4a1,1,0,0,0,1,1.76l6.93-4A1,1,0,0,0,15.86,94.62Z"/><path class="cls-3" d="M16.88,39.62l-6.93-4a1,1,0,0,0-1,1.76l6.93,4A1,1,0,0,0,16.88,39.62Z"/><path class="cls-3" d="M119.07,98.62l-6.93-4a1,1,0,0,0-1,1.76l6.93,4A1,1,0,0,0,119.07,98.62Z"/><path class="cls-3" d="M35.62,20.88a1,1,0,0,0,1.76-1l-4-6.93a1,1,0,0,0-1.76,1Z"/><path class="cls-3" d="M92.38,20.88l4-6.93a1,1,0,0,0-1.76-1l-4,6.93A1,1,0,0,0,92.38,20.88Z"/></g></svg>