<svg xmlns="http://www.w3.org/2000/svg" xmlns:xlink="http://www.w3.org/1999/xlink" viewBox="0 0 128 128"><defs><style>.cls-1{fill:url(#linear-gradient);}.cls-2{fill:#8288a1;}.cls-3{fill:url(#linear-gradient-2);}.cls-4{fill:url(#linear-gradient-3);}.cls-5{fill:#c7cdd8;}.cls-6{fill:url(#linear-gradient-4);}.cls-7{fill:#7ece67;}.cls-8{fill:url(#linear-gradient-5);}.cls-9{fill:url(#linear-gradient-6);}.cls-10{fill:url(#linear-gradient-7);}.cls-11{fill:#47566a;}</style><linearGradient id="linear-gradient" x1="117" y1="19" x2="117" y2="1" gradientUnits="userSpaceOnUse"><stop offset="0" stop-color="#949aaf"/><stop offset="1" stop-color="#c6ccda"/></linearGradient><linearGradient id="linear-gradient-2" x1="49" y1="127" x2="49" y2="109" xlink:href="#linear-gradient"/><linearGradient id="linear-gradient-3" x1="69" y1="127" x2="69" y2="1" gradientUnits="userSpaceOnUse"><stop offset="0" stop-color="#dde1e8"/><stop offset="1" stop-color="#f3f4f5"/></linearGradient><linearGradient id="linear-gradient-4" x1="64" y1="55" x2="64" y2="9" gradientUnits="userSpaceOnUse"><stop offset="0" stop-color="#8cdd79"/><stop offset="1" stop-color="#d4e6b6"/></linearGradient><linearGradient id="linear-gradient-5" x1="34" y1="69" x2="34" y2="63" gradientUnits="userSpaceOnUse"><stop offset="0" stop-color="#9dd5df"/><stop offset="1" stop-color="#c3e1f5"/></linearGradient><linearGradient id="linear-gradient-6" y1="85" y2="79" xlink:href="#linear-gradient-5"/><linearGradient id="linear-gradient-7" y1="101" y2="95" xlink:href="#linear-gradient-5"/></defs><title>Term of Use</title><g id="Term_of_Use" data-name="Term of Use"><path class="cls-1" d="M127,11v8H107V11a10,10,0,0,1,20,0Z"/><rect class="cls-2" x="107" y="15" width="20" height="4"/><path class="cls-3" d="M97,127H11A10,10,0,0,1,1,117v-8H87v8A10,10,0,0,0,97,127Z"/><path class="cls-2" d="M97,127H11A10,10,0,0,1,1,117v-4a10,10,0,0,0,10,10H89A10,10,0,0,0,97,127Z"/><path class="cls-4" d="M117,1a10,10,0,0,0-10,10V117a10,10,0,0,1-20,0v-8H21V11A10,10,0,0,1,31,1Z"/><path class="cls-5" d="M87,109H21v-4H83A4,4,0,0,1,87,109Z"/><path class="cls-5" d="M107,113v4a10,10,0,0,1-20,0v-4a10,10,0,0,0,20,0Z"/><circle class="cls-6" cx="64" cy="32" r="23"/><path class="cls-7" d="M64,55A23,23,0,0,1,41.09,30a23,23,0,0,0,45.82,0A23,23,0,0,1,64,55Z"/><rect class="cls-8" x="31" y="63" width="6" height="6"/><rect class="cls-9" x="31" y="79" width="6" height="6"/><rect class="cls-10" x="31" y="95" width="6" height="6"/><path class="cls-11" d="M117,0H31A11,11,0,0,0,20,11v97H1a1,1,0,0,0-1,1v8a11,11,0,0,0,11,11H97a11,11,0,0,0,11-11V20h19a1,1,0,0,0,1-1V11A11,11,0,0,0,117,0ZM90.62,126H11a9,9,0,0,1-9-9v-7H86C86,116.29,85,122,90.62,126ZM106,117a9,9,0,0,1-18,0v-8a1,1,0,0,0-1-1H22V11a9,9,0,0,1,9-9h79.62A11.1,11.1,0,0,0,106,11Zm20-99H108V11a9,9,0,0,1,18,0Z"/><path class="cls-11" d="M37,62H31a1,1,0,0,0-1,1v6a1,1,0,0,0,1,1h6a1,1,0,0,0,1-1V63A1,1,0,0,0,37,62Zm-1,6H32V64h4Z"/><path class="cls-11" d="M97,62H44a1,1,0,0,0,0,2H97A1,1,0,0,0,97,62Z"/><path class="cls-11" d="M44,70H80a1,1,0,0,0,0-2H44A1,1,0,0,0,44,70Z"/><path class="cls-11" d="M37,78H31a1,1,0,0,0-1,1v6a1,1,0,0,0,1,1h6a1,1,0,0,0,1-1V79A1,1,0,0,0,37,78Zm-1,6H32V80h4Z"/><path class="cls-11" d="M97,78H44a1,1,0,0,0,0,2H97A1,1,0,0,0,97,78Z"/><path class="cls-11" d="M44,86H80a1,1,0,0,0,0-2H44A1,1,0,0,0,44,86Z"/><path class="cls-11" d="M37,94H31a1,1,0,0,0-1,1v6a1,1,0,0,0,1,1h6a1,1,0,0,0,1-1V95A1,1,0,0,0,37,94Zm-1,6H32V96h4Z"/><path class="cls-11" d="M97,94H44a1,1,0,0,0,0,2H97A1,1,0,0,0,97,94Z"/><path class="cls-11" d="M80,100H44a1,1,0,0,0,0,2H80A1,1,0,0,0,80,100Z"/><path class="cls-11" d="M64,56A24,24,0,1,0,40,32,24,24,0,0,0,64,56Zm0-46A22,22,0,1,1,42,32,22,22,0,0,1,64,10Z"/><path class="cls-11" d="M59.28,40.72a1,1,0,0,0,1.44,0l16-16a1,1,0,0,0-1.44-1.44L60,38.56l-7.28-7.28a1,1,0,0,0-1.44,1.44Z"/></g></svg>