<svg xmlns="http://www.w3.org/2000/svg" xmlns:xlink="http://www.w3.org/1999/xlink" viewBox="0 0 128 128"><defs><style>.cls-1{fill:url(#linear-gradient);}.cls-2{fill:#5b8dc9;}.cls-3{fill:url(#linear-gradient-2);}.cls-4{fill:#eab39b;}.cls-5{fill:#47566a;}</style><linearGradient id="linear-gradient" x1="64" y1="37" x2="64" y2="1" gradientUnits="userSpaceOnUse"><stop offset="0" stop-color="#7aa8d7"/><stop offset="1" stop-color="#96c8ea"/></linearGradient><linearGradient id="linear-gradient-2" x1="78" y1="127" x2="78" y2="25" gradientUnits="userSpaceOnUse"><stop offset="0" stop-color="#f2c4b0"/><stop offset="1" stop-color="#ffe3d7"/></linearGradient></defs><title>Unsubscribed</title><g id="Unsubscribed"><path class="cls-1" d="M71,37h38a18,18,0,0,0,12.73-5.27C133,20.42,125,1,109,1H19A18,18,0,0,0,6.27,6.27C-5,17.58,3,37,19,37H57"/><path class="cls-2" d="M109,37H19A18,18,0,0,1,1.34,15.48,18,18,0,0,0,19,30h90a18,18,0,0,0,17.66-14.48A18,18,0,0,1,109,37Z"/><path class="cls-3" d="M113,72.29V92a35,35,0,0,1-70,0V60c0-7.19,14-4.27,14,6V32a7,7,0,1,1,14,0V68a7,7,0,0,1,14,0,7,7,0,0,1,7.21-7A7.19,7.19,0,0,1,99,68.29V72a7,7,0,0,1,7.21-7A7.19,7.19,0,0,1,113,72.29Z"/><path class="cls-4" d="M113,86v6a35,35,0,0,1-70,0V86a34.91,34.91,0,0,0,10.25,24.75C75.1,132.6,113,117.27,113,86Z"/><path class="cls-4" d="M57,66V88a4,4,0,0,1-4-4V58A10,10,0,0,1,57,66Z"/><path class="cls-5" d="M109,38a19,19,0,1,0,0-38H19a19,19,0,0,0,0,38H56v21.6A11,11,0,0,0,47,55a5,5,0,0,0-5,5V92a36,36,0,1,0,72,0V72.29c0-7.61-9.21-11.25-14.13-5.49A8,8,0,0,0,85,64.08a8,8,0,0,0-13-1.42V38ZM19,36C3.86,36-3.62,17.63,7,7A16.93,16.93,0,0,1,19,2h90c15.14,0,22.62,18.35,12,29a16.93,16.93,0,0,1-12,5H72V32a8,8,0,1,0-16,0v4ZM78,62a6,6,0,0,1,6,6,1,1,0,0,0,2,0,5.92,5.92,0,0,1,1.81-4.29C91.69,60,98,62.85,98,68.29V72a1,1,0,0,0,2,0,5.92,5.92,0,0,1,1.81-4.29C105.68,64,112,66.84,112,72.29V92a34,34,0,0,1-68,0V60c0-5.65,12-2.93,12,6V88a1,1,0,0,0,2,0V32a6,6,0,0,1,12,0V68a1,1,0,0,0,2,0A6,6,0,0,1,78,62Z"/></g></svg>