<svg xmlns="http://www.w3.org/2000/svg" xmlns:xlink="http://www.w3.org/1999/xlink" viewBox="0 0 128 128"><defs><style>.cls-1{fill:url(#linear-gradient);}.cls-2{fill:url(#linear-gradient-2);}.cls-3{fill:#c7cdd8;}.cls-4{fill:#8288a1;}.cls-5{fill:url(#linear-gradient-3);}.cls-6{fill:url(#linear-gradient-4);}.cls-7{fill:#5b8dc9;}.cls-8{fill:#47566a;}</style><linearGradient id="linear-gradient" x1="64" y1="127" x2="64" y2="1" gradientUnits="userSpaceOnUse"><stop offset="0" stop-color="#949aaf"/><stop offset="1" stop-color="#c6ccda"/></linearGradient><linearGradient id="linear-gradient-2" x1="64" y1="99" x2="64" y2="29" gradientUnits="userSpaceOnUse"><stop offset="0" stop-color="#dde1e8"/><stop offset="1" stop-color="#f3f4f5"/></linearGradient><linearGradient id="linear-gradient-3" x1="64" y1="75" x2="64" y2="36.43" gradientUnits="userSpaceOnUse"><stop offset="0" stop-color="#7aa8d7"/><stop offset="1" stop-color="#96c8ea"/></linearGradient><linearGradient id="linear-gradient-4" x1="64" y1="89" x2="64" y2="82" xlink:href="#linear-gradient-3"/></defs><title>Upgrade</title><g id="Upgrade"><path class="cls-1" d="M114.43,52,126,45.34,111.15,19.66,99.6,26.33a51.68,51.68,0,0,0-20.78-12V1H49.18V14.29a51.68,51.68,0,0,0-20.78,12L16.85,19.66,2,45.34,13.57,52a50.34,50.34,0,0,0,0,24L2,82.66l14.82,25.68,11.55-6.67a51.68,51.68,0,0,0,20.78,12V127H78.82V113.71a51.68,51.68,0,0,0,20.78-12l11.55,6.67L126,82.66,114.43,76A50.34,50.34,0,0,0,114.43,52Z"/><circle class="cls-2" cx="64" cy="64" r="35"/><path class="cls-3" d="M98.91,66.5a35,35,0,0,0-69.82,0,35,35,0,1,1,69.82,0Z"/><path class="cls-4" d="M126,82.66l-14.82,25.68L99.6,101.67a51.68,51.68,0,0,1-20.78,12V127H49.18V113.71a51.68,51.68,0,0,1-20.78-12l-11.55,6.67L2,82.66,13.57,76a50.87,50.87,0,0,1-1.41-13.91,52,52,0,0,0,103.68,0A50.87,50.87,0,0,1,114.43,76Z"/><polygon class="cls-5" points="64 36.43 45 55 55 55 55 75 73 75 73 55 83 55 64 36.43"/><rect class="cls-6" x="55" y="82" width="18" height="7"/><rect class="cls-7" x="55" y="86" width="18" height="3"/><rect class="cls-7" x="55" y="71" width="18" height="4"/><path class="cls-8" d="M126.48,81.78,115.6,75.49a51.37,51.37,0,0,0,0-23l10.88-6.29a1,1,0,0,0,.38-1.39C110.77,17,112,18.84,111.41,18.68s0-.35-11.66,6.39A53.09,53.09,0,0,0,79.84,13.54V1a1,1,0,0,0-1-1H49.18a1,1,0,0,0-1,1V13.54A53.09,53.09,0,0,0,28.25,25.07L17.36,18.78a1,1,0,0,0-1.39.37C-.12,47,.88,45,1,45.6s-.31.17,11.37,6.91a51.09,51.09,0,0,0,0,23C.63,82.29,1.2,81.81,1,82.4S-.21,80.83,16,108.85a1,1,0,0,0,1.39.37l10.89-6.29a53.09,53.09,0,0,0,19.91,11.53V127a1,1,0,0,0,1,1H78.82a1,1,0,0,0,1-1V114.46a53.09,53.09,0,0,0,19.91-11.53c11.78,6.8,11.08,6.55,11.66,6.39s-.73,1.87,15.45-26.15A1,1,0,0,0,126.48,81.78Zm-15.71,25.16-10.66-6.15a1,1,0,0,0-1.21.14,51.11,51.11,0,0,1-20.37,11.8,1,1,0,0,0-.73,1V126H50.2V113.71a1,1,0,0,0-.73-1,51.11,51.11,0,0,1-20.37-11.8,1,1,0,0,0-1.21-.14l-10.66,6.15L3.42,83l10.66-6.16a1,1,0,0,0,.48-1.12,49.49,49.49,0,0,1,0-23.52,1,1,0,0,0-.48-1.12L3.42,45l13.81-23.9,10.66,6.15a1,1,0,0,0,1.21-.14,51.11,51.11,0,0,1,20.37-11.8,1,1,0,0,0,.73-1V2H77.8V14.29a1,1,0,0,0,.73,1A51.11,51.11,0,0,1,98.9,27.07a1,1,0,0,0,1.21.14l10.66-6.15L124.58,45l-10.66,6.16c-1.51.87.94,2.88.94,12.88s-2.45,12-.94,12.88L124.58,83Z"/><path class="cls-8" d="M64.71,35.7a1,1,0,0,0-1.42,0l-19,18.57A1,1,0,0,0,45,56h9V75a1,1,0,0,0,1,1H73a1,1,0,0,0,1-1V56c9.68,0,9.57.23,9.93-.64S85.28,55.8,64.71,35.7ZM73,54a1,1,0,0,0-1,1V74H56V55a1,1,0,0,0-1-1H47.5L64,37.86,80.5,54Z"/><path class="cls-8" d="M64,28a36,36,0,1,0,36,36A36.06,36.06,0,0,0,64,28Zm0,70A34,34,0,1,1,98,64,34,34,0,0,1,64,98Z"/><path class="cls-8" d="M73,81H55a1,1,0,0,0-1,1v7a1,1,0,0,0,1,1H73a1,1,0,0,0,1-1V82A1,1,0,0,0,73,81Zm-1,7H56V83H72Z"/></g></svg>