<svg xmlns="http://www.w3.org/2000/svg" viewBox="0 0 128 128"><defs><style>.cls-1{fill:#47566a;}</style></defs><title>404 Error </title><g id="_404_Error" data-name="404 Error"><path class="cls-1" d="M127,95H110V87h17a1,1,0,0,0,0-2H110V83.5a1,1,0,0,0-.77-1C99,80,100,80.29,100,80a7,7,0,0,0-7-7H77V72a1,1,0,0,0-2,0v38a1,1,0,0,0,2,0v-1H93a7,7,0,0,0,7-7.22l9.23-2.31c.93-.23.77-1.07.77-2.47h17A1,1,0,0,0,127,95Zm-29,7a5,5,0,0,1-5,5H77V75H93a5,5,0,0,1,5,5Zm10-4.3-8,2V82.31l8,2Z"/><path class="cls-1" d="M64,65A24,24,0,1,0,40,41,24,24,0,0,0,64,65Zm0-46A22,22,0,1,1,42,41,22,22,0,0,1,64,19Z"/><path class="cls-1" d="M54.72,51.72,64,42.44l9.28,9.28a1,1,0,0,0,1.44-1.44L65.44,41l9.28-9.28a1,1,0,0,0-1.44-1.44L64,39.56l-9.28-9.28a1,1,0,0,0-1.44,1.44L62.56,41l-9.28,9.28A1,1,0,0,0,54.72,51.72Z"/><path class="cls-1" d="M65,84a4,4,0,0,0,0-8H53V72a1,1,0,0,0-2,0v1H36a8,8,0,0,0-8,7.21l-9.27,2.32c-.93.23-.77,1.07-.77,2.47H1a1,1,0,0,0,0,2H18v8H1a1,1,0,0,0,0,2H18V98.5a1,1,0,0,0,.77,1L28,101.81A8,8,0,0,0,36,109H51v1a1,1,0,0,0,2,0v-4H65a4,4,0,0,0,0-8H53V84Zm0-6a2,2,0,0,1,0,4H53V78ZM20,84.3l8-2V99.69l-8-2ZM36,107a6,6,0,0,1-6-6V81a6,6,0,0,1,6-6H51v32Zm29-7a2,2,0,0,1,0,4H53v-4Z"/></g></svg>