<svg xmlns="http://www.w3.org/2000/svg" viewBox="0 0 128 128"><defs><style>.cls-1{fill:#47566a;}</style></defs><title>Antivirus</title><g id="Antivirus"><path class="cls-1" d="M59.43,35A5.11,5.11,0,0,1,59,33a1,1,0,0,0-2,0,7.08,7.08,0,0,0,.66,3,11.17,11.17,0,0,0-4.79,9.57,7.79,7.79,0,0,0-6.53,5.92A17.69,17.69,0,0,0,37,48.85a1,1,0,0,0,0,2,15.58,15.58,0,0,1,9.1,2.88v12H37a1,1,0,0,0,0,2h9.1c0,3.1-.12,5.18,1.13,8.55-5,2.72-7.88,6.57-7.88,10.68a1,1,0,0,0,2,0c0-3.3,2.41-6.47,6.65-8.8a17.87,17.87,0,0,0,31.9,0c4.24,2.33,6.65,5.5,6.65,8.8a1,1,0,0,0,2.05,0c0-4.11-2.87-8-7.88-10.68,1.28-3.46,1.13-5.85,1.13-8.55H91a1,1,0,0,0,0-2H81.9v-12A15.58,15.58,0,0,1,91,50.9a1,1,0,0,0,0-2,17.69,17.69,0,0,0-9.32,2.62,7.79,7.79,0,0,0-6.53-5.92A11.19,11.19,0,0,0,70.36,36,7.08,7.08,0,0,0,71,33a1,1,0,0,0-2,0,5.11,5.11,0,0,1-.41,2A11,11,0,0,0,59.43,35ZM79.85,53.25V70.13A15.86,15.86,0,0,1,65,85.93V53a1,1,0,0,0-2,0V85.93a15.86,15.86,0,0,1-14.83-15.8V53.25a5.74,5.74,0,0,1,5.73-5.73H74.13A5.73,5.73,0,0,1,79.85,53.25ZM73.1,45.13c0,.55,2,.35-18.2.35a9.1,9.1,0,1,1,18.2-.35Z"/><path class="cls-1" d="M114,14A95.88,95.88,0,0,1,64.52.12C64.41.06,64-.2,63.29.23A95.78,95.78,0,0,1,14,14a1,1,0,0,0-1,1V58.67c0,32.44,20.87,61,50.74,69.31a1.06,1.06,0,0,0,.56,0C94.15,119.62,115,91.11,115,58.67V15A1,1,0,0,0,114,14Zm-1,44.69c0,31.43-20.13,59.05-49,67.27C35.15,117.72,15,90.1,15,58.67V16A98.05,98.05,0,0,0,64,2.19,98.08,98.08,0,0,0,113,16Z"/><path class="cls-1" d="M63.51,9.32A103.24,103.24,0,0,1,21.92,21.67a1,1,0,0,0-.94,1v36c0,27.76,17.56,52.83,42.71,61a1.09,1.09,0,0,0,.62,0C89.46,111.5,107,86.43,107,58.67v-36a1,1,0,0,0-.94-1A103.24,103.24,0,0,1,64.49,9.32,1.06,1.06,0,0,0,63.51,9.32ZM105,23.63v35c0,26.77-16.84,50.94-41,58.9-24.14-8-41-32.13-41-58.9v-35A105.21,105.21,0,0,0,64,11.38,105.26,105.26,0,0,0,105,23.63Z"/></g></svg>