<svg xmlns="http://www.w3.org/2000/svg" viewBox="0 0 128 128"><defs><style>.cls-1{fill:#47566a;}</style></defs><title>Can Not Reach the Connection</title><g id="Can_Not_Reach_the_Connection" data-name="Can Not Reach the Connection"><path class="cls-1" d="M110,92h-2c5.08-14.37-9-28-23-23A34,34,0,0,0,20,82.17,23,23,0,0,0,23,128h87a18,18,0,1,0,0-36Zm0,34H23A21,21,0,0,1,21.1,84.1,1.11,1.11,0,0,0,22,83a32,32,0,0,1,61.5-12.28,1,1,0,0,0,1.34.55c12.95-5.51,26.73,7.82,20.68,21.32a1,1,0,0,0,.07,1c.41.63.72.47,4.38.47a16,16,0,0,1,0,32Z"/><path class="cls-1" d="M48,93a1,1,0,0,0-1,1,7,7,0,1,1-14,0,1,1,0,0,0-1-1c-2.8,0-.14,10,8,10S50.81,93,48,93Z"/><path class="cls-1" d="M96,93a1,1,0,0,0-1,1,7,7,0,0,1-14,0,1,1,0,0,0-1-1c-2.8,0-.14,10,8,10S98.81,93,96,93Z"/><path class="cls-1" d="M70,115H58a1,1,0,0,0,0,2H70A1,1,0,0,0,70,115Z"/><path class="cls-1" d="M75,36H85L74.18,50.39A1,1,0,0,0,75,52H87a1,1,0,0,0,0-2H77C88.63,34.53,88.31,35.35,87.91,34.54S87.74,34,75,34A1,1,0,0,0,75,36Z"/><path class="cls-1" d="M95,18h10L94.18,32.39A1,1,0,0,0,95,34h12a1,1,0,0,0,0-2H97c11.59-15.45,11.27-14.63,10.87-15.44S107.74,16,95,16A1,1,0,0,0,95,18Z"/><path class="cls-1" d="M115,2h10L114.18,16.39A1,1,0,0,0,115,18h12a1,1,0,0,0,0-2H117C128.63.53,128.31,1.35,127.91.54S127.74,0,115,0A1,1,0,0,0,115,2Z"/></g></svg>