<svg xmlns="http://www.w3.org/2000/svg" viewBox="0 0 128 128"><defs><style>.cls-1{fill:#47566a;}</style></defs><title>Cart or List Is Empty</title><g id="Cart_or_List_Is_Empty" data-name="Cart or List Is Empty"><path class="cls-1" d="M65,111V81a1,1,0,0,0-2,0v30A1,1,0,0,0,65,111Z"/><path class="cls-1" d="M124.71,51H99.87l17.48-31a5,5,0,0,0-5.66-7.37A5,5,0,0,0,108.63,15L88.33,51H38.67l-20.3-36a5,5,0,1,0-8.72,5L27.13,51H3.29A3.31,3.31,0,0,0,0,54.29v9.42A3.31,3.31,0,0,0,3.29,67h3l11.29,56.5a5.63,5.63,0,0,0,5.5,4.5h81.88a5.63,5.63,0,0,0,5.5-4.5L121.73,67h3A3.31,3.31,0,0,0,128,63.71V54.29A3.31,3.31,0,0,0,124.71,51ZM110.4,16a3,3,0,1,1,5.17,3C91.29,62.06,93.15,59.54,91.42,60a3,3,0,0,1-3.36-4.39Zm-95.62-1.4c1.74.47-.08-2,24.17,41.07A3,3,0,0,1,35.58,60c-1.73-.47.11,2-24.16-41.07A3,3,0,0,1,14.78,14.56Zm93.65,108.56a3.56,3.56,0,0,1-3.49,2.86H23.06a3.56,3.56,0,0,1-3.49-2.86L8.35,67h111.3ZM126,63.71A1.27,1.27,0,0,1,124.71,65H3.29A1.27,1.27,0,0,1,2,63.71V54.29A1.27,1.27,0,0,1,3.29,53h25c3.75,6.67,4.15,8.25,6.78,9a5,5,0,0,0,5.66-7.37L39.82,53H87.18l-.89,1.59A5,5,0,0,0,92,62c2.69-.73,3.1-2.44,6.77-9h26A1.27,1.27,0,0,1,126,54.29Z"/><path class="cls-1" d="M64,48A24,24,0,1,0,40,24,24,24,0,0,0,64,48ZM64,2A22,22,0,1,1,42,24,22,22,0,0,1,64,2Z"/><path class="cls-1" d="M54.72,34.72,64,25.44l9.28,9.28a1,1,0,0,0,1.44-1.44L65.44,24l9.28-9.28a1,1,0,0,0-1.44-1.44L64,22.56l-9.28-9.28a1,1,0,0,0-1.44,1.44L62.56,24l-9.28,9.28A1,1,0,0,0,54.72,34.72Z"/><path class="cls-1" d="M90,111.13l4-30a1,1,0,0,0-2-.26l-4,30A1,1,0,0,0,90,111.13Z"/><path class="cls-1" d="M40.31,110.87l-4-30a1,1,0,0,0-2,.26l4,30A1,1,0,0,0,40.31,110.87Z"/></g></svg>