<svg xmlns="http://www.w3.org/2000/svg" viewBox="0 0 128 128"><defs><style>.cls-1{fill:#47566a;}</style></defs><title>Come Back Later</title><g id="Come_Back_Later" data-name="Come Back Later"><path class="cls-1" d="M127,9H70V1a1,1,0,0,0-1-1H59a1,1,0,0,0-1,1V9H1a1,1,0,0,0-1,1V95a1,1,0,0,0,1,1H58v31a1,1,0,0,0,2,0V96h8v31a1,1,0,0,0,2,0V96h57a1,1,0,0,0,1-1V10A1,1,0,0,0,127,9ZM60,2h8V9H60Zm66,92H2V11H126Z"/><path class="cls-1" d="M67.22,29.22a1,1,0,0,0-1.44-1.44L53.27,40.3a1,1,0,0,0,0,1.42C66.91,55.35,65.9,54.52,66.5,54.52a1,1,0,0,0,.72-1.74L56.46,42H86a15,15,0,1,1,0,30H26a1,1,0,0,0,0,2H86a17,17,0,0,0,0-34H56.46Z"/></g></svg>