<svg xmlns="http://www.w3.org/2000/svg" viewBox="0 0 128 128"><defs><style>.cls-1{fill:#47566a;}</style></defs><title>Contact</title><g id="Contact"><path class="cls-1" d="M124,102h-2A40.77,40.77,0,0,0,93.72,64.1,8.21,8.21,0,0,1,88,56.26C88,51.63,84.58,47,78,47V40.81A13.51,13.51,0,0,0,87.33,32c3.5,0,5.88.76,6.69,2a2.83,2.83,0,0,1,0,2.52c-3.25,7.58-3.43,7.47-2.78,8.12C110.36,63.8,121.53,64,122,64c.68,0,.84-.43,1.54-1.55A29.53,29.53,0,0,0,108.24,19c-26.91-9.24-61-9.42-88.48,0A29.52,29.52,0,0,0,4.46,62.47C5.15,63.57,5.31,64,6,64c.47,0,11.64-.22,30.72-19.3a1,1,0,0,0,.22-1.12c-2.92-6.82-3.88-8.06-3-9.52.81-1.29,3.19-2,6.69-2A13.51,13.51,0,0,0,50,40.81V47c-6.39,0-10,4.49-10,9.28a8.21,8.21,0,0,1-5.7,7.84A40.77,40.77,0,0,0,6,102H4a1,1,0,0,0-1,1v12a1,1,0,0,0,1,1H124a1,1,0,0,0,1-1V103A1,1,0,0,0,124,102Zm-2.53-40.05c-2.38-.32-12.48-2.54-28.26-18.17l1.3-3c5.18,4.52,18.24,15.08,29.21,17A28.92,28.92,0,0,1,121.47,61.93Zm-114.94,0a28.81,28.81,0,0,1-2.25-4.21c11-1.9,24-12.46,29.21-17l1.3,3C19,59.39,8.9,61.62,6.53,61.93ZM32.24,33c-1.31,2.12-.32,4,.41,5.74C27.91,43,14.41,54.13,3.53,55.78A27.44,27.44,0,0,1,20.42,20.89c26.53-9.11,60.2-9.25,87.16,0a27.43,27.43,0,0,1,16.89,34.89c-10.88-1.65-24.39-12.83-29.12-17,.73-1.69,1.74-3.59.41-5.74-1.16-1.89-3.84-2.89-7.92-3A21.46,21.46,0,0,0,88,26a3,3,0,0,0-3-3H82a3,3,0,0,0-3,3,4,4,0,0,1-4,4H53a4,4,0,0,1-4-4,3,3,0,0,0-3-3H43a3,3,0,0,0-3,3,21.92,21.92,0,0,0,.18,4C36.08,30.13,33.4,31.13,32.24,33Zm19,6A11.44,11.44,0,0,1,42,27.8V26a1,1,0,0,1,1-1h3a1,1,0,0,1,1,1,6,6,0,0,0,6,6H75a6,6,0,0,0,6-6,1,1,0,0,1,1-1h3a1,1,0,0,1,1,1v1.8A11.44,11.44,0,0,1,76.8,39,1,1,0,0,0,76,40v7H52V40A1,1,0,0,0,51.2,39ZM34.91,66A10.24,10.24,0,0,0,42,56.26,7.25,7.25,0,0,1,49.26,49H78.74A7.25,7.25,0,0,1,86,56.26,10.24,10.24,0,0,0,93.09,66,38.75,38.75,0,0,1,120,102H8A38.75,38.75,0,0,1,34.91,66ZM123,114H5V104H123Z"/><path class="cls-1" d="M64,55A21,21,0,1,0,85,76,21,21,0,0,0,64,55Zm0,40A19,19,0,1,1,83,76,19,19,0,0,1,64,95Z"/><path class="cls-1" d="M64,64A12,12,0,1,0,76,76,12,12,0,0,0,64,64Zm0,22A10,10,0,1,1,74,76,10,10,0,0,1,64,86Z"/></g></svg>