<svg id="Data_User" data-name="Data User" xmlns="http://www.w3.org/2000/svg" viewBox="0 0 128 128"><defs><style>.cls-1{fill:#47566a;}</style></defs><title>Data User</title><path class="cls-1" d="M109,0H23a9,9,0,0,0-9,9c0,118,0,110,0,110.64A9.22,9.22,0,0,0,23.31,128H109a5,5,0,0,0,5-5V5A5,5,0,0,0,109,0Zm3,5V107a3,3,0,0,1-3,3H26V2h83A3,3,0,0,1,112,5ZM16,9a7,7,0,0,1,7-7h1V110H23a9,9,0,0,0-6.94,3.26C16,113.34,16,118.28,16,9Zm96,114a3,3,0,0,1-3,3H23.31c-6.13,0-9.56-6.94-5.68-11.43A6.91,6.91,0,0,1,23,112c90.91,0,87.06.44,89-1Z"/><path class="cls-1" d="M56.15,75.81A33,33,0,1,0,35,45,33.05,33.05,0,0,0,56.15,75.81Zm-7.53-6.68c5.89-22.82,32.86-22.83,38.76,0A30.88,30.88,0,0,1,48.62,69.13ZM68,14c28.07,0,41.61,34.51,21.09,53.65C86.56,59,80.82,52.83,73.57,50.75a13,13,0,1,0-11.14,0c-7.25,2.08-13,8.24-15.52,16.92C26.45,48.69,39.8,14,68,14Zm0,36A11,11,0,1,1,79,39,11,11,0,0,1,68,50Z"/><path class="cls-1" d="M96.5,87h-56a1,1,0,0,0,0,2h56A1,1,0,0,0,96.5,87Z"/><path class="cls-1" d="M96.5,99h-56a1,1,0,0,0,0,2h56A1,1,0,0,0,96.5,99Z"/></svg>