<svg xmlns="http://www.w3.org/2000/svg" viewBox="0 0 128 128"><defs><style>.cls-1{fill:#47566a;}</style></defs><title>Data Not Avaible</title><g id="Data_Not_Avaible" data-name="Data Not Avaible"><path class="cls-1" d="M110,43h-2c5.08-14.37-9-28-23-23A34,34,0,0,0,20,33.17,23,23,0,0,0,23,79h9v48a1,1,0,0,0,1,1H95a1,1,0,0,0,1-1V79h14a18,18,0,1,0,0-36ZM94,126H34V50H80V63a1,1,0,0,0,1,1H94ZM92.54,62H82V51.46ZM110,77H96c0-14.67.14-14.26-.3-14.7C80.74,47.29,81.64,48,81.06,48c-.76-.05,6.16,0-48.06,0a1,1,0,0,0-1,1V77H23A21,21,0,0,1,21.1,35.1,1.11,1.11,0,0,0,22,34a32,32,0,0,1,61.5-12.28,1,1,0,0,0,1.34.55c13-5.54,26.7,7.89,20.68,21.32a1,1,0,0,0,.07,1c.41.63.71.47,4.38.47a16,16,0,1,1,0,32Z"/><path class="cls-1" d="M71.06,71C61.83,65.51,52,71.94,52,81a1,1,0,0,0,2,0c0-7.49,8.14-12.91,16-8.22,5.08,3,6.07,13.69-1.88,17.31A9,9,0,0,0,63,98.36V102a1,1,0,0,0,2,0V98.36A7,7,0,0,1,69,92a12,12,0,0,0,6.51-7.37C77.1,79.39,74.82,73.29,71.06,71Z"/><path class="cls-1" d="M64,107a2,2,0,1,0,2,2A2,2,0,0,0,64,107Zm0,2a0,0,0,0,1,0,0C65.35,109,65.33,109,64,109Z"/></g></svg>