<svg xmlns="http://www.w3.org/2000/svg" viewBox="0 0 128 128"><defs><style>.cls-1{fill:#47566a;}</style></defs><title>Folder Data</title><g id="Folder_Data" data-name="Folder Data"><path class="cls-1" d="M125,34H104V22h21a1,1,0,0,0,1-1V12A12,12,0,0,0,114,0H34A12,12,0,0,0,22,12V34H13a1,1,0,0,0-1,1V51H3a1,1,0,0,0-1,1v68.19A7.84,7.84,0,0,0,9.81,128H118a8,8,0,0,0,8-8V35A1,1,0,0,0,125,34Zm-1-22v8H104V12a10,10,0,0,1,20,0ZM34,2c76.81,0,73.44,0,73.34,0a12.06,12.06,0,0,0-4.58,5.81c-1,2.77-.76-.21-.76,53.14H38.53l-6.69-9.56c-.42-.59-.17-.44-7.84-.44V12A10,10,0,0,1,34,2ZM14,36h8V51H14ZM9.81,126A5.8,5.8,0,0,1,4,120.19V53H30.47l6.69,9.56c.47.68-3.95.44,72.82.44v57a8,8,0,0,0,2.67,6ZM124,120c0,7.61-12,8.47-12-.62V62a1,1,0,0,0-1-1h-7V36h20Z"/><path class="cls-1" d="M57,70A24,24,0,1,0,81,94,24,24,0,0,0,57,70Zm0,46A22,22,0,1,1,79,94,22,22,0,0,1,57,116Z"/><path class="cls-1" d="M68.28,85.28,53,100.56l-7.28-7.28a1,1,0,0,0-1.44,1.44c8.63,8.63,8.12,8.3,8.72,8.3s-.8,1.22,16.72-16.3A1,1,0,0,0,68.28,85.28Z"/><path class="cls-1" d="M36,18H90a1,1,0,0,0,0-2H36A1,1,0,0,0,36,18Z"/><path class="cls-1" d="M36,30H90a1,1,0,0,0,0-2H36A1,1,0,0,0,36,30Z"/><path class="cls-1" d="M36,42H90a1,1,0,0,0,0-2H36A1,1,0,0,0,36,42Z"/></g></svg>