<svg xmlns="http://www.w3.org/2000/svg" viewBox="0 0 128 128"><defs><style>.cls-1{fill:#47566a;}</style></defs><title>Launching</title><g id="Launching"><path class="cls-1" d="M64,46A14,14,0,1,0,78,60,14,14,0,0,0,64,46Zm0,26A12,12,0,1,1,76,60,12,12,0,0,1,64,72Z"/><path class="cls-1" d="M114.64,75.83,87,53.51V37c0-14.57-7.28-24.57-7-24,0,0,0-.05,0-.08A41.91,41.91,0,0,0,69.59,1.84a9.31,9.31,0,0,0-11.17,0A43.72,43.72,0,0,0,41,37V53.51L13.36,75.83c-.53.44-.38-.06-.38,12.17a1,1,0,0,0,1,1H41a6.63,6.63,0,0,0,6.22,7L49,103.25a1,1,0,0,0,1,.77h5.21A8.25,8.25,0,0,0,54,108.33c0,8.28,8.86,18.88,9.24,19.33a1,1,0,0,0,1.56,0c.38-.45,9.24-11,9.24-19.33A8.25,8.25,0,0,0,72.79,104H78a1,1,0,0,0,1-.77L80.8,96C84,95.9,87,93.25,87,89h27a1,1,0,0,0,1-1C115,75.77,115.17,76.27,114.64,75.83Zm-55-72.35a7.29,7.29,0,0,1,8.75,0A39.44,39.44,0,0,1,77.53,13a36.47,36.47,0,0,1-27.06,0A39.17,39.17,0,0,1,59.63,3.48ZM15,87V77.12l26-21V87Zm57,21.35c0,6.18-5.83,14.27-8,17-2.15-2.77-8-10.86-8-17A6.41,6.41,0,0,1,57.75,104h12.5A6.41,6.41,0,0,1,72,108.33ZM77.2,102H50.8l-1.49-6H78.69ZM85,89.29A4.55,4.55,0,0,1,80.58,94H47.42A4.55,4.55,0,0,1,43,89.29V37a42.18,42.18,0,0,1,6.33-22.28,38.43,38.43,0,0,0,29.32,0C86.48,27.25,85,38.06,85,54ZM113,87H87V56.14l26,21Z"/></g></svg>