<svg xmlns="http://www.w3.org/2000/svg" viewBox="0 0 128 128"><defs><style>.cls-1{fill:#47566a;}</style></defs><title>Log Out</title><g id="Log_Out" data-name="Log Out"><path class="cls-1" d="M44,61v6a1,1,0,0,0,2,0V61A1,1,0,0,0,44,61Z"/><path class="cls-1" d="M113,113H86V75h6v9a1,1,0,0,0,1,1c.64,0-.83,1.26,20.72-20.3a1,1,0,0,0,0-1.44l-20-20A1,1,0,0,0,92,44v9H86V14a1,1,0,0,0-1-1H54V1a1,1,0,0,0-1.35-1l-38,13A1,1,0,0,0,14,14c0,106.58-.38,100.6.69,101C55.34,128.88,52.74,128,53,128a1,1,0,0,0,1-1V115h59A1,1,0,0,0,113,113ZM93,55a1,1,0,0,0,1-1V46.46L111.56,64,94,81.54V74a1,1,0,0,0-1-1H54V55ZM54,21H77V53H54Zm30-6V53H79V20a1,1,0,0,0-1-1H54V15ZM52,125.57l-36-12.3V14.73L52,2.43ZM54,75H77v38H54Zm25,38V75h5v38Z"/></g></svg>