<svg xmlns="http://www.w3.org/2000/svg" viewBox="0 0 128 128"><defs><style>.cls-1{fill:#47566a;}</style></defs><title>Log in</title><g id="Log_in" data-name="Log in"><path class="cls-1" d="M113,75a1,1,0,0,0,1-1V54a1,1,0,0,0-1-1H86V14a1,1,0,0,0-1-1H54V1a1,1,0,0,0-1.35-1l-38,13A1,1,0,0,0,14,14c0,106.58-.38,100.6.69,101C55.34,128.88,52.74,128,53,128a1,1,0,0,0,1-1V115h59a1,1,0,0,0,0-2H86V75Zm-1-2H73a1,1,0,0,0-1,1v7.54L54.44,64,72,46.46V54a1,1,0,0,0,1,1h39ZM54,21H77V53H74V44a1,1,0,0,0-1.74-.72L54,61.54Zm30-6V53H79V20a1,1,0,0,0-1-1H54V15ZM52,125.57l-36-12.3V14.73L52,2.43Zm2-59.11C73.92,86.37,72.39,85,73,85a1,1,0,0,0,1-1V75h3v38H54ZM84,113H79V75h5Z"/><path class="cls-1" d="M44,61v6a1,1,0,0,0,2,0V61A1,1,0,0,0,44,61Z"/></g></svg>