<svg xmlns="http://www.w3.org/2000/svg" viewBox="0 0 128 128"><defs><style>.cls-1{fill:#47566a;}</style></defs><title>No Connection</title><g id="No_Connection" data-name="No Connection"><path class="cls-1" d="M10,110H6a1,1,0,0,0,0,2h4A1,1,0,0,0,10,110Z"/><path class="cls-1" d="M10,118H6a1,1,0,0,0,0,2h4A1,1,0,0,0,10,118Z"/><path class="cls-1" d="M127,105H114v-2a1,1,0,0,0-2,0H96c-.5,0-.28-.06-5.36,4H87a1,1,0,0,0-1,1v1.1l-7.11.89a1,1,0,0,0-.88,1,32.37,32.37,0,0,1-4.09-.37A40.8,40.8,0,0,0,90,78V54a1,1,0,0,0-1-1H87V50.17c1-3,1.19-3.19.83-3.74l-2-3a1,1,0,0,0-1.7,1.14l1.72,2.58C84.75,50.53,85,49,85,53H83a1,1,0,0,0-1,1V78a32.78,32.78,0,0,1-18,29.36A33,33,0,0,1,46,78V54a1,1,0,0,0-1-1H43c0-3.83.23-2.44-.89-5.83l1.72-2.58a1,1,0,0,0-1.7-1.14l-2,3c-.37.56-.16.76.83,3.74V53H39a1,1,0,0,0-1,1V78a41,41,0,0,0,16.13,32.58A32.87,32.87,0,0,1,50,111a1,1,0,0,0-.88-1L42,109.1V108a1,1,0,0,0-1-1H37.36l-4.72-3.78c-.44-.34.68-.22-16.62-.22a1,1,0,0,0-2,0v2H1a1,1,0,0,0-1,1v18a1,1,0,0,0,1,1H14v2a1,1,0,0,0,2,0H32c.5,0,.28.06,5.36-4H41a1,1,0,0,0,1-1v-1.1l7.11-.89a1,1,0,0,0,.89-1,40.57,40.57,0,0,0,14-2.83A40.87,40.87,0,0,0,78,119a1,1,0,0,0,.89,1l7.11.89V122a1,1,0,0,0,1,1h3.64c5,4,4.86,4,5.36,4h16a1,1,0,0,0,2,0v-2h13a1,1,0,0,0,1-1V106A1,1,0,0,0,127,105ZM84,78V55h4V78A38.85,38.85,0,0,1,71.2,110a32.51,32.51,0,0,1-4.89-1.6A34.79,34.79,0,0,0,84,78ZM2,123V107H14v16Zm38-2c-3.23,0-3.25-.07-3.62.22L31.64,125H16V105H31.64c5.24,4.19,4.88,4,5.36,4h3Zm8-2.88-6,.74v-7.68c6.62.82,6,.7,6,.84ZM50,117v-4a36,36,0,0,0,6.41-.78A41.28,41.28,0,0,0,61.28,115,38.55,38.55,0,0,1,50,117ZM40,78V55h4V78a35.09,35.09,0,0,0,34,35v4A39,39,0,0,1,40,78Zm40,40.1V112c0-.14-.64,0,6-.84v7.68Zm11.62,3.1c-.37-.29-.38-.22-3.62-.22V109h3c.5,0,.28.06,5.36-4H112v20H96.36ZM126,123H114V107h12Z"/><path class="cls-1" d="M118,112h4a1,1,0,0,0,0-2h-4A1,1,0,0,0,118,112Z"/><path class="cls-1" d="M118,120h4a1,1,0,0,0,0-2h-4A1,1,0,0,0,118,120Z"/><path class="cls-1" d="M69.28,37.28,64,42.56l-5.28-5.28a1,1,0,0,0-1.44,1.44L62.56,44l-5.28,5.28a1,1,0,0,0,1.44,1.44L64,45.44l5.28,5.28a1,1,0,0,0,1.44-1.44L65.44,44l5.28-5.28A1,1,0,0,0,69.28,37.28Z"/><path class="cls-1" d="M78.16,29.84a20,20,0,0,0-28.32,0,1,1,0,0,0,1.45,1.45,18,18,0,0,1,25.42,0A1,1,0,0,0,78.16,29.84Z"/><path class="cls-1" d="M34.32,14.32a41.94,41.94,0,0,1,59.36,0,1,1,0,0,0,1.45-1.45,44,44,0,0,0-62.26,0A1,1,0,0,0,34.32,14.32Z"/><path class="cls-1" d="M86.64,21.36a32,32,0,0,0-45.28,0A1,1,0,0,0,42.8,22.8a30,30,0,0,1,42.4,0A1,1,0,0,0,86.64,21.36Z"/></g></svg>