<svg xmlns="http://www.w3.org/2000/svg" viewBox="0 0 128 128"><defs><style>.cls-1{fill:#47566a;}</style></defs><title>No Comment</title><g id="No_Comment" data-name="No Comment"><path class="cls-1" d="M111,2H17A17,17,0,0,0,0,19V90a17,17,0,0,0,17,17H48V124.8a1,1,0,0,0,1,1c.55,0-1.22,1.36,22.38-18.8H111a17,17,0,0,0,17-17V19A17,17,0,0,0,111,2Zm15,88a15,15,0,0,1-15,15H71c-.57,0,.94-1.13-21,17.61V106a1,1,0,0,0-1-1H17A15,15,0,0,1,2,90V19A15,15,0,0,1,17,4h94a15,15,0,0,1,15,15Z"/><path class="cls-1" d="M64,19A35,35,0,1,0,99,54,35.06,35.06,0,0,0,64,19Zm0,68A33,33,0,1,1,97,54,33,33,0,0,1,64,87Z"/><path class="cls-1" d="M79.93,32.19A26.72,26.72,0,0,0,64,27c-22.26,0-34.71,25.39-21.81,43a1,1,0,0,0,.82.42c.65,0-1.94,2.37,37-36.62A1,1,0,0,0,79.93,32.19ZM43.15,67.75C32.3,51.41,44,29,64,29a24.7,24.7,0,0,1,13.75,4.13Z"/><path class="cls-1" d="M85.07,37.65c-.73,0,1.71-2.21-37.12,36.62a1,1,0,0,0,.12,1.54C65.6,88.69,91,76.3,91,54a26.72,26.72,0,0,0-5.21-15.93A1,1,0,0,0,85.07,37.65ZM64,79a24.7,24.7,0,0,1-13.75-4.13l34.6-34.6C95.7,56.59,84,79,64,79Z"/></g></svg>