<svg xmlns="http://www.w3.org/2000/svg" viewBox="0 0 128 128"><defs><style>.cls-1{fill:#47566a;}</style></defs><title>No Messages</title><g id="No_Messages" data-name="No Messages"><path class="cls-1" d="M107,20H81V14H96a1,1,0,0,0,1-1V1a1,1,0,0,0-1-1H80a1,1,0,0,0-1,1V20H41a21,21,0,0,0-15.69,7A24,24,0,0,0,20,74.68v7.15l-9.19,26A15.31,15.31,0,0,0,25.45,128a29.26,29.26,0,0,0,27.81-19.84L61.73,83H75v44a1,1,0,0,0,2,0V83H89v44a1,1,0,0,0,2,0V83h36a1,1,0,0,0,1-1V41A21,21,0,0,0,107,20ZM95,12H81V2H95ZM2,51A22,22,0,1,1,21.31,72.81a.72.72,0,0,0-.37,0A22,22,0,0,1,2,51Zm46,0A24,24,0,0,0,27.87,27.3C40,15.69,60,24.44,60,41V81H22v-6A24,24,0,0,0,48,51Zm3.3,56.53A27.21,27.21,0,0,1,25.45,126a13.28,13.28,0,0,1-12.74-17.44l9-25.52H59.58ZM126,81H62V41A20.93,20.93,0,0,0,50,22H79V48.08a5,5,0,1,0,2,0V22h26a19,19,0,0,1,19,19ZM80,50a3,3,0,1,1-3,3A3,3,0,0,1,80,50Z"/><path class="cls-1" d="M24,52.44C34.05,62.49,33.4,62,34,62a1,1,0,0,0,.72-1.74L25.44,51l9.28-9.28a1,1,0,0,0-1.44-1.44L24,49.56l-9.28-9.28a1,1,0,0,0-1.44,1.44L22.56,51l-9.28,9.28A1,1,0,0,0,14,62C14.59,62,13.92,62.52,24,52.44Z"/></g></svg>