<svg xmlns="http://www.w3.org/2000/svg" viewBox="0 0 128 128"><defs><style>.cls-1{fill:#47566a;}</style></defs><title>Order Completed</title><g id="Order_Completed" data-name="Order Completed"><path class="cls-1" d="M128,24a24,24,0,1,0-47.29,6H1a1,1,0,0,0-1,1v96a1,1,0,0,0,1,1H103a1,1,0,0,0,1-1V48A24,24,0,0,0,128,24ZM65,32V51.4L62.1,50.07c-.57-.26-.53-.15-4.76,1.81-4.18-1.93-4.19-2.07-4.76-1.81l-3.91,1.81-3.9-1.81c-.56-.26-.66-.09-3.75,1.34V32ZM2,126V32H39c0,22.77-.2,21.41.47,21.84s.76.17,4.89-1.74c4.23,2,4.19,2.07,4.76,1.81L53,52.12l3.9,1.81c.57.26.53.15,4.76-1.81,4.21,2,4,1.9,4.33,1.9a1,1,0,0,0,1-1V32H81.36A24.08,24.08,0,0,0,102,47.93V126ZM104,46a22,22,0,1,1,22-22A22,22,0,0,1,104,46Z"/><path class="cls-1" d="M30,109H10a1,1,0,0,0-1,1v8a1,1,0,0,0,1,1H30a1,1,0,0,0,1-1v-8A1,1,0,0,0,30,109Zm-1,8H11v-6H29Z"/><path class="cls-1" d="M115.28,15.28,100,30.56l-7.28-7.28a1,1,0,0,0-1.44,1.44C99.91,33.35,99.4,33,100,33s-.64,1.06,16.72-16.3A1,1,0,0,0,115.28,15.28Z"/></g></svg>