<svg xmlns="http://www.w3.org/2000/svg" viewBox="0 0 128 128"><defs><style>.cls-1{fill:#47566a;}</style></defs><title>Payment Processed</title><g id="Payment_Processed" data-name="Payment Processed"><path class="cls-1" d="M57,39c-9.94,0-18,6.29-18,14s8.08,14,18,14,18-6.29,18-14S66.93,39,57,39Zm0,26c-8.81,0-16-5.37-16-12s7.17-12,16-12,16,5.37,16,12S65.81,65,57,65Z"/><path class="cls-1" d="M56,83v6a1,1,0,0,0,2,0V83A1,1,0,0,0,56,83Z"/><path class="cls-1" d="M58,23V17a1,1,0,0,0-2,0v6A1,1,0,0,0,58,23Z"/><path class="cls-1" d="M88,45.58V1a1,1,0,0,0-1-1H27a1,1,0,0,0-1,1V105a1,1,0,0,0,1,1H46v3.37a26.44,26.44,0,0,0,7.8,18.83,1,1,0,0,0,1.44-1.44A24.44,24.44,0,0,1,48,109.39V106H66.35c-1.57,4.61-1.37,7.67-1.37,12a1,1,0,0,0,2,0v-3.77c0-7.37,3-10.64,4.46-14.8,1.16-2.44,2-8.07,1.13-13l-2.81-16a5.73,5.73,0,1,1,11.29-2c5.25,29.8,4.84,27.93,5.13,28.28a1,1,0,0,0,1.66-.16c.21-.39.14,2.62.14-48.06a46.45,46.45,0,0,1,12,31.24V127a1,1,0,0,0,2,0V79.79A48.48,48.48,0,0,0,88,45.58ZM67.79,70.83c3,16.84,4.27,20.15,2,27.15H42A9,9,0,0,0,34,90V16A9,9,0,0,0,42,8H72A9,9,0,0,0,80,16V63.18A7.78,7.78,0,0,0,67.79,70.83ZM82,65.33V15a1,1,0,0,0-1-1,7,7,0,0,1-7-7,1,1,0,0,0-1-1H41a1,1,0,0,0-1,1,7,7,0,0,1-7,7,1,1,0,0,0-1,1V91a1,1,0,0,0,1,1,7,7,0,0,1,7,7,1,1,0,0,0,1,1H69.06c-.85,2-1,1.9-1.91,4H28V2H86V84.47C82.89,67,83.11,67.07,82,65.33Z"/></g></svg>