<svg xmlns="http://www.w3.org/2000/svg" viewBox="0 0 128 128"><defs><style>.cls-1{fill:#47566a;}</style></defs><title>Sent Message</title><g id="Sent_Message" data-name="Sent Message"><path class="cls-1" d="M127.79,32.36c-.48-.6,4.3-.38-81.79-.38a1,1,0,0,0-.68.26C44.88,32.64,35,94.77,35,94.87a1,1,0,0,0,.58,1c.17.08,81.59.3,82.1-.16a1.15,1.15,0,0,0,.34-.6C128.66,29.1,128.23,32.89,127.79,32.36ZM116.33,92.74,90.27,63.91l35.3-28.45ZM46.67,35.23C74.78,65.64,72,62.61,72.67,63.3L37.44,92.48Zm42.06,27.3a11.08,11.08,0,0,1-15.07-1.1L48.33,34h75.78ZM74.26,64.64a13,13,0,0,0,14.33.46L114.7,94H38.83Z"/><path class="cls-1" d="M24,62H1a1,1,0,0,0,0,2H24A1,1,0,0,0,24,62Z"/><path class="cls-1" d="M37,41H19a1,1,0,0,0,0,2H37A1,1,0,0,0,37,41Z"/><path class="cls-1" d="M12,23H68a1,1,0,0,0,0-2H12A1,1,0,0,0,12,23Z"/><path class="cls-1" d="M61,105H53a1,1,0,0,0,0,2h8A1,1,0,0,0,61,105Z"/><path class="cls-1" d="M47,105H12a1,1,0,0,0,0,2H47A1,1,0,0,0,47,105Z"/><path class="cls-1" d="M20,84H7a1,1,0,0,0,0,2H20A1,1,0,0,0,20,84Z"/><path class="cls-1" d="M26,84a1,1,0,0,0,0,2h2a1,1,0,0,0,0-2Z"/><path class="cls-1" d="M12,43h2a1,1,0,0,0,0-2H12A1,1,0,0,0,12,43Z"/></g></svg>