<svg xmlns="http://www.w3.org/2000/svg" viewBox="0 0 128 128"><defs><style>.cls-1{fill:#47566a;}</style></defs><title>Something Went Wrong</title><g id="Something_Went_Wrong" data-name="Something Went Wrong"><path class="cls-1" d="M126.5,102.27,72.66,14.83a10.16,10.16,0,0,0-17.32,0L1.5,102.27C-2.64,109,2,118,10.16,118H117.84C126.06,118,130.58,108.9,126.5,102.27ZM126,107.8a8.17,8.17,0,0,1-8.14,8.18H10.16A8.17,8.17,0,0,1,2,107.65c0-3.33-3.78,3.81,55.06-91.75a8.11,8.11,0,0,1,13.84,0C130,111.8,126,104.29,126,107.8Z"/><path class="cls-1" d="M64.87,21.89a1.07,1.07,0,0,0-1.74,0l-52,84.53A1,1,0,0,0,12,108c111.3,0,104.53.28,105-.52S120.48,112.22,64.87,21.89ZM13.78,105.94,64,24.38l50.22,81.56Z"/><path class="cls-1" d="M58.26,45.29c-.47.49-.41-2.06,1.39,37.76a1,1,0,0,0,1,1h6.66a1,1,0,0,0,1-1l1.67-37A1,1,0,0,0,69,45C58.24,45,58.69,44.85,58.26,45.29ZM67.93,47,66.36,82H61.64L60.07,47Z"/><path class="cls-1" d="M64,89a6,6,0,1,0,6,6A6,6,0,0,0,64,89Zm0,10a4,4,0,1,1,4-4A4,4,0,0,1,64,99Z"/></g></svg>