<svg xmlns="http://www.w3.org/2000/svg" viewBox="0 0 128 128"><defs><style>.cls-1{fill:#47566a;}</style></defs><title>Unsubscribed</title><g id="Unsubscribed"><path class="cls-1" d="M109,38a19,19,0,1,0,0-38H19a19,19,0,0,0,0,38H56v21.6A11,11,0,0,0,47,55a5,5,0,0,0-5,5V92a36,36,0,1,0,72,0V72.29c0-7.61-9.21-11.25-14.13-5.49A8,8,0,0,0,85,64.08a8,8,0,0,0-13-1.42V38ZM19,36C3.86,36-3.62,17.63,7,7A16.93,16.93,0,0,1,19,2h90c15.14,0,22.62,18.35,12,29a16.93,16.93,0,0,1-12,5H72V32a8,8,0,1,0-16,0v4ZM78,62a6,6,0,0,1,6,6,1,1,0,0,0,2,0,5.92,5.92,0,0,1,1.81-4.29C91.69,60,98,62.85,98,68.29V72a1,1,0,0,0,2,0,5.92,5.92,0,0,1,1.81-4.29C105.68,64,112,66.84,112,72.29V92a34,34,0,0,1-68,0V60c0-5.65,12-2.93,12,6V88a1,1,0,0,0,2,0V32a6,6,0,0,1,12,0V68a1,1,0,0,0,2,0A6,6,0,0,1,78,62Z"/></g></svg>