<svg xmlns="http://www.w3.org/2000/svg" viewBox="0 0 128 128"><defs><style>.cls-1{fill:#47566a;}</style></defs><title>Upgrade</title><g id="Upgrade"><path class="cls-1" d="M126.48,81.78,115.6,75.49a51.37,51.37,0,0,0,0-23l10.88-6.29a1,1,0,0,0,.38-1.39C110.77,17,112,18.84,111.41,18.68s0-.35-11.66,6.39A53.09,53.09,0,0,0,79.84,13.54V1a1,1,0,0,0-1-1H49.18a1,1,0,0,0-1,1V13.54A53.09,53.09,0,0,0,28.25,25.07L17.36,18.78a1,1,0,0,0-1.39.37C-.12,47,.88,45,1,45.6s-.31.17,11.37,6.91a51.09,51.09,0,0,0,0,23C.63,82.29,1.2,81.81,1,82.4S-.21,80.83,16,108.85a1,1,0,0,0,1.39.37l10.89-6.29a53.09,53.09,0,0,0,19.91,11.53V127a1,1,0,0,0,1,1H78.82a1,1,0,0,0,1-1V114.46a53.09,53.09,0,0,0,19.91-11.53c11.78,6.8,11.08,6.55,11.66,6.39s-.73,1.87,15.45-26.15A1,1,0,0,0,126.48,81.78Zm-15.71,25.16-10.66-6.15a1,1,0,0,0-1.21.14,51.11,51.11,0,0,1-20.37,11.8,1,1,0,0,0-.73,1V126H50.2V113.71a1,1,0,0,0-.73-1,51.11,51.11,0,0,1-20.37-11.8,1,1,0,0,0-1.21-.14l-10.66,6.15L3.42,83l10.66-6.16a1,1,0,0,0,.48-1.12,49.49,49.49,0,0,1,0-23.52,1,1,0,0,0-.48-1.12L3.42,45l13.81-23.9,10.66,6.15a1,1,0,0,0,1.21-.14,51.11,51.11,0,0,1,20.37-11.8,1,1,0,0,0,.73-1V2H77.8V14.29a1,1,0,0,0,.73,1A51.11,51.11,0,0,1,98.9,27.07a1,1,0,0,0,1.21.14l10.66-6.15L124.58,45l-10.66,6.16c-1.51.87.94,2.88.94,12.88s-2.45,12-.94,12.88L124.58,83Z"/><path class="cls-1" d="M64.71,35.7a1,1,0,0,0-1.42,0l-19,18.57A1,1,0,0,0,45,56h9V75a1,1,0,0,0,1,1H73a1,1,0,0,0,1-1V56c9.68,0,9.57.23,9.93-.64S85.28,55.8,64.71,35.7ZM73,54a1,1,0,0,0-1,1V74H56V55a1,1,0,0,0-1-1H47.5L64,37.86,80.5,54Z"/><path class="cls-1" d="M64,28a36,36,0,1,0,36,36A36.06,36.06,0,0,0,64,28Zm0,70A34,34,0,1,1,98,64,34,34,0,0,1,64,98Z"/><path class="cls-1" d="M73,81H55a1,1,0,0,0-1,1v7a1,1,0,0,0,1,1H73a1,1,0,0,0,1-1V82A1,1,0,0,0,73,81Zm-1,7H56V83H72Z"/></g></svg>