<svg xmlns="http://www.w3.org/2000/svg" viewBox="0 0 128 128"><defs><style>.cls-1{fill:#47566a;}</style></defs><title>Uploading</title><g id="Uploading"><path class="cls-1" d="M99.78,62a14.27,14.27,0,0,0,0-28.53H98.53a14.27,14.27,0,0,0-18.07-18A26.68,26.68,0,0,0,29.55,25.87,18.17,18.17,0,0,0,32.11,62H56V72H35a1,1,0,0,0-1,1v9H27a1,1,0,0,0-1,1v40a5,5,0,0,0,5,5H97a5,5,0,0,0,5-5V73a1,1,0,0,0-1-1H72V62ZM32.11,60A16.12,16.12,0,0,1,30.65,27.8a1.09,1.09,0,0,0,.93-1.09A24.64,24.64,0,0,1,79,17.22a1,1,0,0,0,.55.55c.86.36,1.9-.94,5.47-.94A12.22,12.22,0,0,1,96.11,34.09,1,1,0,0,0,97,35.53h2.74a12.23,12.23,0,0,1,0,24.45H72V56h6a1,1,0,0,0,.72-1.74l-14-14a1,1,0,0,0-1.44,0c-16.8,16.8-14.09,13.66-14.09,15.35.42.53.4.39,6.79.39v4ZM58,55a1,1,0,0,0-1-1H52.46L64,42.44,75.54,54H71a1,1,0,0,0-1,1V80H58ZM31,126a3,3,0,0,1-3-3V84H44.45l3.7,5.55c.47.7-1.66.45,43.83.45,0,35.31-.33,33.84.75,35.6C93.06,126.14,99.86,126,31,126Zm69-52v49a3,3,0,0,1-5.46,1.65C93.81,123.57,94,126,94,89a1,1,0,0,0-1-1H49.55c-4-6-3.81-6-4.55-6H36V74H56v7a1,1,0,0,0,1,1H71a1,1,0,0,0,1-1V74Z"/></g></svg>