<svg xmlns="http://www.w3.org/2000/svg" viewBox="0 0 128 128"><defs><style>.cls-1{fill:#47566a;}</style></defs><title>Waiting</title><g id="Waiting"><path class="cls-1" d="M123,71.46V62h2a1,1,0,0,0,1-1V53a1,1,0,0,0-1-1H106A53,53,0,0,0,0,53c0,36.31,35.87,61.89,70.1,50.2C68.7,106.5,69,107.75,69,118H67a1,1,0,0,0-1,1v8a1,1,0,0,0,1,1h58a1,1,0,0,0,1-1v-8a1,1,0,0,0-1-1h-2v-9.44A13.66,13.66,0,0,0,118,97.91L108,90,118,82.09A13.66,13.66,0,0,0,123,71.46ZM124,60H68V54h56ZM67,62h2v9.44A13.66,13.66,0,0,0,74,82.09l5.7,4.55C51.87,108.81,10,89.1,10,53A43,43,0,0,1,96,52H67a1,1,0,0,0-1,1v8A1,1,0,0,0,67,62ZM2,53A51,51,0,0,1,104,52H98A45,45,0,0,0,8,53c0,38,44.21,58.66,73.39,34.94L84,90c-10.78,8.59-10.89,8.47-12.33,10.46C38.43,113.55,2,89,2,53Zm122,73H68v-6h56ZM96,89.78c-1-1.47-.83-1.14-12.9-10.76a65.57,65.57,0,0,0,25.81,0C96.5,88.91,96.94,88.4,96,89.78Zm0,10.66L113.54,118H78.46ZM116.69,80.5c-11.79,9.39-11.31,8.8-11.31,9.5s-.43.15,11.31,9.5a11.61,11.61,0,0,1,4.29,9V118h-4.56L96.9,98.46c.17-.33.12.06.12-6.27.82-2.1.44-1.44,16.71-14.39a1,1,0,0,0-.91-1.79,63.75,63.75,0,0,1-33.63,0,1,1,0,0,0-.91,1.79C94.49,90.71,94.16,90.09,95,92.19V98c0,.83,2.59-2-19.4,20H71v-9.44a11.61,11.61,0,0,1,4.29-9l10.93-8.7a1,1,0,0,0,0-1.6L75.31,80.5a11.61,11.61,0,0,1-4.29-9V62h50v9.44A11.61,11.61,0,0,1,116.69,80.5Z"/><path class="cls-1" d="M54,15V13a1,1,0,0,0-2,0v2A1,1,0,0,0,54,15Z"/><path class="cls-1" d="M52,91v2a1,1,0,0,0,2,0V91A1,1,0,0,0,52,91Z"/><path class="cls-1" d="M15,52H13a1,1,0,0,0,0,2h2A1,1,0,0,0,15,52Z"/><path class="cls-1" d="M33.5,19.22a1,1,0,0,0-1-1.73A1,1,0,0,0,33.5,19.22Z"/><path class="cls-1" d="M73.5,88.51a1,1,0,0,0-1-1.74A1,1,0,0,0,73.5,88.51Z"/><path class="cls-1" d="M72.5,19.22a1,1,0,0,0,1-1.73A1,1,0,0,0,72.5,19.22Z"/><path class="cls-1" d="M33.5,86.77a1,1,0,0,0-1,1.74A1,1,0,0,0,33.5,86.77Z"/><path class="cls-1" d="M88.14,33.87a1,1,0,0,0-1-1.74A1,1,0,0,0,88.14,33.87Z"/><path class="cls-1" d="M17.86,72.13a1,1,0,0,0,1,1.74A1,1,0,0,0,17.86,72.13Z"/><path class="cls-1" d="M18.86,32.13a1,1,0,0,0-1,1.74A1,1,0,0,0,18.86,32.13Z"/><path class="cls-1" d="M57,52H54.73c-1-1.72-.71,4.12-.71-29a1,1,0,0,0-2,0V51.27c-1.72,1,3.58.71-25,.71a1,1,0,0,0,0,2c28.61,0,23.25-.31,25,.71V58a1,1,0,0,0,2,0V54.73a1.86,1.86,0,0,0,.71-.71H57A1,1,0,0,0,57,52Z"/></g></svg>