<svg xmlns="http://www.w3.org/2000/svg" viewBox="0 0 128 128"><defs><style>.cls-1{fill:#47566a;}</style></defs><title>You are Up to date</title><g id="You_are_Up_to_date" data-name="You are Up to date"><path class="cls-1" d="M125,7H113V1a1,1,0,0,0-2,0V7H101V1a1,1,0,0,0-2,0V7H89V1a1,1,0,0,0-2,0V7H77V1a1,1,0,0,0-2,0V7H65V1a1,1,0,0,0-2,0V7H53V1a1,1,0,0,0-2,0V7H41V1a1,1,0,0,0-2,0V7H29V1a1,1,0,0,0-2,0V7H17V1a1,1,0,0,0-2,0V7H3a3,3,0,0,0-3,3V32a3,3,0,0,0,2,2.83c0,96.68-.07,92.25.11,92.62.44.89-7.57.57,122.91.57a1,1,0,0,0,1-1V34.83A3,3,0,0,0,128,32V10A3,3,0,0,0,125,7Zm-1,119H15.12l100-17a11,11,0,0,0,8.86-4.64Zm-102.7-3.12,82.79-23.53a11,11,0,0,0,5.94,8.48ZM124,98a9,9,0,0,1-18,0c0-2,4.73-2.69-102,27.65V35H124Zm2-66a1,1,0,0,1-1,1H3a1,1,0,0,1-1-1V10A1,1,0,0,1,3,9H15v8a1,1,0,0,0,2,0V9H27v8a1,1,0,0,0,2,0V9H39v8a1,1,0,0,0,2,0V9H51v8a1,1,0,0,0,2,0V9H63v8a1,1,0,0,0,2,0V9H75v8a1,1,0,0,0,2,0V9H87v8a1,1,0,0,0,2,0V9H99v8a1,1,0,0,0,2,0V9h10v8a1,1,0,0,0,2,0V9h12a1,1,0,0,1,1,1Z"/><path class="cls-1" d="M64,95A24,24,0,1,0,40,71,24,24,0,0,0,64,95Zm0-46A22,22,0,1,1,42,71,22,22,0,0,1,64,49Z"/><path class="cls-1" d="M59.28,79.72a1,1,0,0,0,1.44,0l16-16a1,1,0,0,0-1.44-1.44L60,77.56l-7.28-7.28a1,1,0,0,0-1.44,1.44Z"/></g></svg>