<svg xmlns="http://www.w3.org/2000/svg" viewBox="0 0 64 64"><title>Astronomy</title><g id="Astronomy"><path d="M47.27,31c-1.55-.44-2.92-.59-3.36-2.23s.69-2.48,1.8-3.61a1,1,0,0,0-1-1.67c-1.55.39-2.81.95-4-.25s-.64-2.47-.25-4a1,1,0,0,0-1.66-1c-1.15,1.12-2,2.24-3.62,1.8S33.4,18.29,33,16.73a1,1,0,0,0-1.92,0c-.44,1.54-.58,2.92-2.23,3.36s-2.48-.69-3.62-1.8a1,1,0,0,0-1.66,1c.39,1.54.95,2.81-.25,4s-2.49.64-4,.25a1,1,0,0,0-1,1.66c1.13,1.15,2.24,2,1.8,3.62S18.28,30.6,16.73,31a1,1,0,0,0,0,1.92c1.55.44,2.92.59,3.36,2.23s-.69,2.48-1.8,3.61a1,1,0,0,0,1,1.67c1.55-.39,2.81-1,4,.25s.64,2.47.25,4a1,1,0,0,0,1.66,1c1.15-1.13,2-2.24,3.62-1.8s1.79,1.8,2.23,3.36a1,1,0,0,0,1.92,0c.44-1.54.58-2.92,2.23-3.36s2.46.67,3.62,1.8a1,1,0,0,0,1.66-1c-.39-1.54-.95-2.81.25-4s2.49-.64,4-.25a1,1,0,0,0,1-1.66c-1.13-1.15-2.24-2-1.8-3.62S45.72,33.4,47.27,33A1,1,0,0,0,47.27,31ZM42.35,38A4.55,4.55,0,0,0,38,42.35,4.54,4.54,0,0,0,32,44a4.54,4.54,0,0,0-6-1.61A4.55,4.55,0,0,0,21.65,38,4.54,4.54,0,0,0,20,32a4.55,4.55,0,0,0,1.61-6A4.55,4.55,0,0,0,26,21.65,4.55,4.55,0,0,0,32,20a4.54,4.54,0,0,0,6,1.61A4.55,4.55,0,0,0,42.35,26,4.54,4.54,0,0,0,44,32,4.55,4.55,0,0,0,42.35,38Z"/><path d="M32,23a9,9,0,1,0,9,9A9,9,0,0,0,32,23Zm0,16a7,7,0,1,1,7-7A7,7,0,0,1,32,39Z"/><path d="M52.71,42A5,5,0,0,0,55,32.42C55.37,13.23,33.4,2.28,18.33,13.53a3.49,3.49,0,0,0-4.8,4.8C2.39,33.26,13,55,32,55A23,23,0,0,0,52.71,42ZM56,37a3,3,0,1,1-3-3A3,3,0,0,1,56,37ZM16.5,15a1.5,1.5,0,0,1,0,3A1.5,1.5,0,0,1,16.5,15ZM32,53C14.74,53,5,33.31,15,19.66A3.48,3.48,0,0,0,19.66,15C33.35,5,53,14.77,53,32a5,5,0,0,0-2.25,9.44A21,21,0,0,1,32,53Z"/><path d="M59,14.87A7,7,0,0,0,49.13,5C28.06-8.41,0,6.67,0,32A31.8,31.8,0,0,0,2.42,44.2,6,6,0,0,0,9,54.21a32,32,0,0,0,38.64,5.71,4.48,4.48,0,0,0,7-5.27A31.9,31.9,0,0,0,59,14.87ZM54,5a5,5,0,1,1-5,5A5,5,0,0,1,54,5ZM2,49a4,4,0,1,1,4,4A4,4,0,0,1,2,49Zm8.52,3.93A6,6,0,0,0,4.2,43.28c-10.95-26.95,19.28-52,43.7-36.7a7,7,0,0,0,9.52,9.52,29.92,29.92,0,0,1-4.06,37,4.48,4.48,0,0,0-7,5.25A30,30,0,0,1,10.52,52.93ZM50.5,59A2.5,2.5,0,1,1,53,56.5,2.5,2.5,0,0,1,50.5,59Z"/></g></svg>