<svg xmlns="http://www.w3.org/2000/svg" viewBox="0 0 64 64"><title>Atom</title><g id="Atom"><path d="M39,32a7,7,0,1,0-7,7A7,7,0,0,0,39,32Zm-7,5a5,5,0,1,1,5-5A5,5,0,0,1,32,37Z"/><path d="M51,32c15.87-13.92,10.6-23.27-9.5-16.44a51.69,51.69,0,0,0-1.3-5.22,4,4,0,0,0-3.27-7.17C35.43,1.07,33.78,0,32,0c-4,0-7.55,5.8-9.49,15.56C2.51,8.77-2.95,18,13,32a53.51,53.51,0,0,0-3.87,3.73,4,4,0,0,0-3.79.11h0a4,4,0,0,0-.79,6.31C3.5,44.5,3.4,46.47,4.28,48c2.76,4.79,13,2.22,18.23.44,4.13,20.8,14.86,20.72,19,0,6.35,2.16,4.9.81,5.3,2.29a4,4,0,0,0,7.72,0c3.17-.31,4.59-1.6,5.21-2.68C61.73,44.5,58.47,38.56,51,32Zm7-15c1.46,2.53-2,8-8.53,13.69a80.48,80.48,0,0,0-6.66-4.93,80,80,0,0,0-.94-8.21C50.09,14.71,56.53,14.47,58,17Zm-18,28.75c-1.87-.7-3.78-1.51-5.71-2.43C36.78,42,38.4,41,40.69,39.59,40.51,41.72,40.26,43.78,39.94,45.75Zm-15.88,0c-.32-2-.57-4-.75-6.16C25.6,41,27.23,42,29.77,43.32,27.84,44.24,25.93,45.05,24.06,45.75Zm0-27.5c1.87.7,3.78,1.51,5.71,2.43C27.22,22,25.6,23,23.31,24.41,23.49,22.28,23.74,20.22,24.06,18.25Zm-3,17.49q-2.64-1.83-5-3.74,2.33-1.91,5-3.74C21,31.07,21,32.93,21.08,35.74Zm2.07,1.38a87.46,87.46,0,0,1,0-10.24A89.91,89.91,0,0,1,32,21.78a90.53,90.53,0,0,1,8.85,5.1,87.46,87.46,0,0,1,0,10.24A89.91,89.91,0,0,1,32,42.22,90.53,90.53,0,0,1,23.15,37.12ZM39.94,18.25c.32,2,.57,4,.75,6.16C38.4,23,36.77,22,34.23,20.68,36.16,19.76,38.07,19,39.94,18.25Zm3,10q2.64,1.83,5,3.74-2.32,1.91-5,3.74C43,32.93,43,31.07,42.92,28.26ZM40,7a2,2,0,1,1-2-2A2,2,0,0,1,40,7ZM35.18,4.17A4,4,0,0,0,38.29,11a51.43,51.43,0,0,1,1.3,5.27A77.94,77.94,0,0,0,32,19.54a79,79,0,0,0-7.59-3.3C26,8,30.18-2.6,35.18,4.17ZM6,17c1.45-2.53,7.89-2.29,16.13.55a80,80,0,0,0-.94,8.21,80.48,80.48,0,0,0-6.66,4.93C8,25,4.56,19.53,6,17Zm-.6,21.79A2,2,0,1,1,8.35,41,2,2,0,0,1,5.42,38.79Zm.88,4.37a4,4,0,0,0,4.34-6.1,50.62,50.62,0,0,1,3.91-3.75,80.48,80.48,0,0,0,6.66,4.93,80,80,0,0,0,.94,8.21C14.19,49.19,3,50.89,6.3,43.16ZM32,62c-2.92,0-5.93-5.69-7.59-14.24A77.94,77.94,0,0,0,32,44.46a79,79,0,0,0,7.59,3.3C37.93,56.31,34.92,62,32,62ZM52.38,50.7a2,2,0,1,1,.2-1.52A2,2,0,0,1,52.38,50.7Zm2.14-2A4,4,0,0,0,47.06,48a51.43,51.43,0,0,1-5.21-1.52,80,80,0,0,0,.94-8.21,80.48,80.48,0,0,0,6.66-4.93C55.81,38.84,62.87,47.73,54.52,48.68Z"/></g></svg>