<svg xmlns="http://www.w3.org/2000/svg" viewBox="0 0 64 64"><title>Book Apple</title><g id="Book_Apple" data-name="Book Apple"><path d="M63,42a1,1,0,0,0,1-1V37a1,1,0,0,0-1-1H40.75A19.7,19.7,0,0,0,47,22.23c0-3.88-2-8.08-5.75-9.62A6.92,6.92,0,0,0,43,8a1,1,0,0,0-1-1c-3.89,0-6.85-.5-9.37,2.52C31.44,5.93,27,5.06,27,7a1,1,0,0,0,1,1c.12,0,3,.05,3,4v.81A26.7,26.7,0,0,0,25.88,12C20.32,12,17,17.2,17,22.23A19.67,19.67,0,0,0,23.26,36H5a5,5,0,0,0-5,5V53a5,5,0,0,0,5,5H63a1,1,0,0,0,1-1V53a1,1,0,0,0-1-1Zm-2,2H9a1,1,0,0,0,0,2h5v6H6V42H61ZM20,52.61c-2.43-.81-1.54-.82-4,0V46h4ZM38,9h2.9A5,5,0,0,1,36,13H33.1A5,5,0,0,1,38,9ZM19,22.23C19,18.18,21.57,14,25.88,14a31.63,31.63,0,0,1,5.12.84v2a6.56,6.56,0,0,1-1.48-.67,1,1,0,0,0-1.37.33C27.27,17.92,30.51,19,32,19a5.87,5.87,0,0,0,3.59-1.19,1,1,0,0,0-1.18-1.62,4,4,0,0,1-1.41.68V15c3,0,4.43.2,6.37-.87C43,14.86,45,18.79,45,22.23c0,6.18-5,13.77-9,13.77-2.26,0-2.89-.92-4-.92S30.25,36,28,36C23.87,36,19,28.54,19,22.23ZM62,56H5a3,3,0,0,1-3-3V41a3,3,0,0,1,3-3H62v2H5a1,1,0,0,0-1,1V53a1,1,0,0,0,1,1c12.13,0,8-.22,9.42.81.54.39.79.18,3.58-.76,2.87,1,2.77,1,3,1a1,1,0,0,0,1-1H62ZM22,52V46H61v2H28a1,1,0,0,0,0,2H61v2Z"/></g></svg>