<svg xmlns="http://www.w3.org/2000/svg" viewBox="0 0 64 64"><title>Boy Student</title><g id="Boy_Student" data-name="Boy Student"><path d="M55.62,54.62A20,20,0,0,0,46.93,41.3,4,4,0,0,0,43,38c-3.25,0-3.32-.09-3.71.3A19.55,19.55,0,0,0,37,38.05V36a13,13,0,0,0,7.83-10c5.28,0,5.59-7.4.61-8A43.43,43.43,0,0,0,46,9.1a7.25,7.25,0,0,0-5.51-7C37.66-.54,34.8,0,29.88,0A11.89,11.89,0,0,0,18,11.88,34.43,34.43,0,0,0,18.56,18c-5,.56-4.68,8,.61,8A12.94,12.94,0,0,0,27,36v2a19.55,19.55,0,0,0-2.29.25c-.39-.4-.51-.3-3.71-.3a4,4,0,0,0-3.93,3.3A20,20,0,0,0,8.38,54.62L7,62.84a1,1,0,0,0,2,.32c1.35-8.13,1.44-14.23,8-19.37V63a1,1,0,0,0,2,0V42a2,2,0,0,1,2-2h2V63a1,1,0,0,0,2,0V47.76c.55.18.46.13,3.08-1.37a4.94,4.94,0,0,0,1.49,2.71c-.94,1-.68.69-2.31,13.78a1,1,0,0,0,2,.24l1.5-12a1.27,1.27,0,0,1,2.52,0l1.5,12a1,1,0,0,0,2-.24c-1.63-13.07-1.38-12.75-2.31-13.78a4.93,4.93,0,0,0,1.49-2.71c2.53,1.45,2.43,1.44,2.78,1.44s.3-2,.3,15.17a1,1,0,0,0,2,0V40h2a2,2,0,0,1,2,2V63a1,1,0,0,0,2,0V43.79c6.57,5.14,6.66,11.24,8,19.37a1,1,0,0,0,2-.32ZM47,22a2,2,0,0,1-2,2c0-4.05,0-3.85,0-4A2,2,0,0,1,47,22ZM29.88,2c4.76,0,7.22-.48,9.41,1.71A1,1,0,0,0,39.8,4,5.23,5.23,0,0,1,44,9.1,55,55,0,0,1,43.85,15a14.22,14.22,0,0,0-3.14-4.74,1,1,0,0,0-1.26-.12C35.88,12.55,33.39,12,23,12c-.94,0-.95.67-2.65,4.64A33,33,0,0,1,20,11.88,9.89,9.89,0,0,1,29.88,2ZM17,22a2,2,0,0,1,2-2c0,.13,0-.24,0,4A2,2,0,0,1,17,22Zm4,2V20.2L23.66,14c9.72,0,12.33.49,16.17-1.72,2.45,2.79,2.76,5.36,3.17,7.8V24a11,11,0,0,1-22,0ZM35,36.65v1.94l-3,3-3-3V36.65A13.34,13.34,0,0,0,35,36.65Zm-9.78,3.59A19,19,0,0,1,27.61,40l2.76,2.76-4.32,2.47Zm8.46,6.55a1.77,1.77,0,0,1-3.36,0l-.47-1.41L32,44.15l2.15,1.23ZM38,45.25l-4.32-2.47L36.39,40a19,19,0,0,1,2.39.22Z"/><path d="M34.83,29.41a1,1,0,0,0-1.42,0,2,2,0,0,1-2.82,0,1,1,0,0,0-1.42,1.42C31.86,33.51,36.32,30.91,34.83,29.41Z"/><path d="M25,20v1a1,1,0,0,0,2,0V20A1,1,0,0,0,25,20Z"/><path d="M39,21V20a1,1,0,0,0-2,0v1A1,1,0,0,0,39,21Z"/></g></svg>