<svg xmlns="http://www.w3.org/2000/svg" viewBox="0 0 64 64"><title>Boy Graduation</title><g id="Boy_Graduation" data-name="Boy Graduation"><path d="M34.83,32.41a1,1,0,0,0-1.42,0,2,2,0,0,1-2.82,0,1,1,0,0,0-1.42,1.42C31.86,36.52,36.32,33.91,34.83,32.41Z"/><path d="M25,23v1a1,1,0,0,0,2,0V23A1,1,0,0,0,25,23Z"/><path d="M39,24V23a1,1,0,0,0-2,0v1A1,1,0,0,0,39,24Z"/><path d="M49,42.85c0-.28,0-.57,0-.85a1,1,0,0,0-1-1H37V39a13,13,0,0,0,7.83-10c5.3,0,5.55-7.42.6-8,.71-3.88.57-6.58.57-19h2V19a1,1,0,0,0,2,0V2h3a1,1,0,0,0,0-2H11a1,1,0,0,0,0,2h7c0,9.83-.16,9.36.41,9.79-.73,2.71-.33,6.58.16,9.25-5,.54-4.7,8,.6,8A12.94,12.94,0,0,0,27,39v2H16a1,1,0,0,0-1,1c0,.28,0,.57,0,.85-6.49,5.59-6.63,11.68-8,20A1,1,0,0,0,7.84,64c3.06.53-.24-11,7.52-18.74A15.06,15.06,0,0,0,27.54,56.79a5,5,0,1,0,8.92,0A15,15,0,0,0,48.64,45.25c5,5,5.06,10.06,6.37,17.91a1,1,0,0,0,2-.32C55.59,54.49,55.46,48.44,49,42.85ZM31,54.11,24.71,43h2.91a6.64,6.64,0,0,0,8.76,0h2.91L33,54.11A5,5,0,0,0,31,54.11ZM20.35,19.64c-.34-2.32-.61-5.39.09-7.64C45.74,12,44,12,44,12.1A52.23,52.23,0,0,1,43.84,18a14.34,14.34,0,0,0-3.13-4.74,1,1,0,0,0-1.26-.12C35.86,15.55,33.39,15,23,15,22.06,15,22.06,15.66,20.35,19.64ZM47,25a2,2,0,0,1-2,2,30.9,30.9,0,0,1,0-4A2,2,0,0,1,47,25ZM44,2v8H20V2ZM17,25a2,2,0,0,1,2-2c0,.15,0-.28,0,4A2,2,0,0,1,17,25Zm4,2V23.2L23.66,17c9.74,0,12.32.49,16.17-1.72,2.42,2.75,2.75,5.28,3.17,7.8V27a11,11,0,0,1-22,0ZM35,39.65v1.91a4.66,4.66,0,0,1-6,0c0-2.17-.05-1.93.13-1.89A13.07,13.07,0,0,0,35,39.65ZM17,43h5.37c7,12.45,6.77,11.89,6.67,12A13,13,0,0,1,17,43ZM32,62c-3.93,0-4-6,0-6S35.93,62,32,62ZM43.2,51.19a12.87,12.87,0,0,1-8.32,3.74L41.59,43H47A13.12,13.12,0,0,1,43.2,51.19Z"/></g></svg>