<svg xmlns="http://www.w3.org/2000/svg" viewBox="0 0 64 64"><title>Certificate</title><g id="Certificate"><path d="M63,5H1A1,1,0,0,0,0,6V54a1,1,0,0,0,1,1H28v3a1,1,0,0,0,1.55.83L32,57.2c2.5,1.67,2.79,2,3.47,1.68S36,57.89,36,55H63a1,1,0,0,0,1-1V6A1,1,0,0,0,63,5ZM27,44a5,5,0,1,1,5,5A5,5,0,0,1,27,44Zm5-7a7,7,0,0,0-4.89,12H9.9A5,5,0,0,0,6,45.1V14.9A5,5,0,0,0,9.9,11H54.1A5,5,0,0,0,58,14.9V45.1A5,5,0,0,0,54.1,49H36.89A7,7,0,0,0,32,37Zm2,19.13c-2.29-1.53-1.73-1.51-4,0V50.71a7,7,0,0,0,4,0ZM62,53H36V51H55a1,1,0,0,0,1-1,3,3,0,0,1,3-3,1,1,0,0,0,1-1V14a1,1,0,0,0-1-1,3,3,0,0,1-3-3,1,1,0,0,0-1-1H9a1,1,0,0,0-1,1,3,3,0,0,1-3,3,1,1,0,0,0-1,1V46a1,1,0,0,0,1,1,3,3,0,0,1,3,3,1,1,0,0,0,1,1H28v2H2V7H62Z"/><path d="M49,15H15a1,1,0,0,0-1,1v6a1,1,0,0,0,1,1H49a1,1,0,0,0,1-1V16A1,1,0,0,0,49,15Zm-1,6H16V17H48Z"/><path d="M49,27H15a1,1,0,0,0,0,2H49A1,1,0,0,0,49,27Z"/><path d="M49,32H15a1,1,0,0,0,0,2H49A1,1,0,0,0,49,32Z"/><path d="M21,42H15a1,1,0,0,0,0,2h6A1,1,0,0,0,21,42Z"/><path d="M49,42H43a1,1,0,0,0,0,2h6A1,1,0,0,0,49,42Z"/></g></svg>