<svg xmlns="http://www.w3.org/2000/svg" viewBox="0 0 64 64"><title>Compass</title><g id="Compass"><path d="M47.43,48.28,38,14.83a6,6,0,0,0-3-5c0-7,.29-7.79-.87-8.92A3,3,0,0,0,29,3V9.81a6,6,0,0,0-3,5L21,32.59V24a1,1,0,0,0-1-1H14a1,1,0,0,0-1,1V39a1,1,0,0,0-1,1v6a1,1,0,0,0,1,1c0,9.84,0,9.12.08,9.39C16.19,63.64,16.08,64,17,64s.68,0,3.92-7.61c.11-.26.08.28.08-9.39a1,1,0,0,0,1-1h3a1,1,0,0,0,1-1c0-4.48.05-4.15-.15-4.5L31.35,21a5.65,5.65,0,0,0,1.3,0L42,54.14c0,3.08-.09,3.18.29,3.57C44.43,59.85,44.45,60,45,60v3a1,1,0,0,0,2,0V60c.54,0,.57-.15,2.71-2.29.39-.4.29-.23.29-5.71A4,4,0,0,0,47.43,48.28ZM31,3a1,1,0,0,1,1.71-.69c.41.4.29.36.29,6.78a5.6,5.6,0,0,0-2,0ZM14,45V41H20c.11,0,.05-.28.05,4Zm1-20h4V39H15Zm2.6,34a6.12,6.12,0,0,0-1.21,0l-1.18-2.77a6,6,0,0,1,3.55,0ZM19,54.27a8,8,0,0,0-4,0V47h4ZM24,44H22V42h2Zm-.09-4H22a1,1,0,0,0-.74-1l5.82-20.63a6,6,0,0,0,2.35,2ZM28,15a4,4,0,1,1,4,4A4,4,0,0,1,28,15Zm8.92,3.42,8.37,29.65a4,4,0,0,0-2.49,1.55L34.57,20.41A6,6,0,0,0,36.92,18.42ZM48,56.59,46.59,58H45.41L44,56.59V52a2,2,0,0,1,4,0Z"/><path d="M46,52a1,1,0,0,0,0,2A1,1,0,0,0,46,52Z"/><circle cx="32" cy="15" r="2"/></g></svg>