<svg xmlns="http://www.w3.org/2000/svg" viewBox="0 0 64 64"><title>Deskchair</title><g id="Deskchair"><path d="M51.86,34.37c1.77-2.07,1.28-2-.78-22.66A13,13,0,0,0,38.14,0H33.86A13,13,0,0,0,20.92,11.71L20,21H10a1,1,0,0,0-1,1v4a1,1,0,0,0,1,1h2.8c-2.67,8.33-2.8,8.43-2.8,9.57A5.43,5.43,0,0,0,15.43,42H21V63a1,1,0,0,0,1,1h4a1,1,0,0,0,1-1V53H45V63a1,1,0,0,0,1,1h4a1,1,0,0,0,1-1V42h1C56.1,42,55.92,36,51.86,34.37ZM22.92,11.91A11,11,0,0,1,33.86,2h4.28a11,11,0,0,1,10.94,9.91C51.35,34.58,51,30.57,51,31.36A2.64,2.64,0,0,1,48.36,34H23.64A2.63,2.63,0,0,1,21,31.38L21.41,27H42a1,1,0,0,0,1-1V22a1,1,0,0,0-1-1H22ZM11,23H41v2H11Zm1,13.57c0-.72-.11-.16,2.9-9.57h4.49c-.39,3.89-.85,5.51.75,7.37a4.82,4.82,0,0,0-3,5.63H15.43A3.44,3.44,0,0,1,12,36.57ZM25,62H23V42h2Zm2-11V42H45v9ZM49,62H47V42h2Zm3-22H20c-1.89,0-1-4,2-4H50C53,36,53.92,40,52,40Z"/></g></svg>