<svg xmlns="http://www.w3.org/2000/svg" viewBox="0 0 64 64"><title>Female Teacher</title><g id="Female_Teacher" data-name="Female Teacher"><path d="M28.83,29.41a1,1,0,0,0-1.42,0,2,2,0,0,1-2.82,0,1,1,0,0,0-1.42,1.42C25.86,33.52,30.32,30.91,28.83,29.41Z"/><path d="M63,35c0-3.95-4.27-5.72-8-4.7V1a1,1,0,0,0-2,0V30c-2.28,0-5,1-5,6,0,3.79-.5,5.57,2,8.39V47a1,1,0,0,0-1,1c0,3,.07,3.34-.06,2.53A15,15,0,0,0,43,40.89V13A13,13,0,0,0,30,0c-4.54,0-7.53-.37-11.3,2A10,10,0,0,0,9,12V40.89a15,15,0,0,0-5.94,9.64L1,62.84a1,1,0,0,0,2,.32L5,50.86A12.94,12.94,0,0,1,16.13,40.13c-3.23,4.7-3.27,4.54-3.09,5.15s.08.43,6.59,3.22l-1.52,3a1,1,0,0,0,.24,1.21L25,58.46V63a1,1,0,0,0,2,0V58.46l6.65-5.7a1,1,0,0,0,.24-1.21l-1.52-3C39,45.66,38.78,45.89,39,45.28s.11-.49-3.09-5.15A12.94,12.94,0,0,1,47,50.86c2.17,13,1.93,12.77,2.67,13.07C51.53,64.68,51,62.54,51,49h8V63a1,1,0,0,0,2,0V48a1,1,0,0,0-1-1V44.5C63.52,41.66,63,39.15,63,35ZM31,38V36a13,13,0,0,0,7.83-10A4,4,0,0,0,41,25.44V39.66C37.3,37.76,34.51,38,31,38Zm-5,8.31c-3.53-8.83-3-6.79-3-9.66a13.34,13.34,0,0,0,6,0C29,39.52,29.49,37.57,26,46.31ZM39,24V20a2,2,0,0,1,0,4ZM27.6,18.29a4.52,4.52,0,0,0-3.2,0A4.48,4.48,0,0,0,16.76,18H15.32a16.17,16.17,0,0,1,3.62-7.47c2.8,3,6,2.47,10.52,2.47a7.06,7.06,0,0,1,6.72,5h-.94A4.48,4.48,0,0,0,27.6,18.29ZM31.5,18A2.5,2.5,0,1,1,29,20.5,2.5,2.5,0,0,1,31.5,18Zm-11,0A2.5,2.5,0,1,1,18,20.5,2.5,2.5,0,0,1,20.5,18ZM13,24a2,2,0,0,1,0-4Zm2-3.93c0-.1-.14-.07,1.05-.07a4.48,4.48,0,1,0,8.92.23c0-.11.68-.23,1-.23.18,0,1,.09,1,.23A4.48,4.48,0,1,0,36,20c1.14,0,1-.06,1,.18V24a11,11,0,0,1-18.78,7.78C14.47,28,15,24,15,20.07ZM19,4c.62,0,2.67-2,6.61-2H30A11,11,0,0,1,41,13v5.56A4.51,4.51,0,0,0,38.32,18l-.44-1.16A9,9,0,0,0,29.46,11H24.61a5.75,5.75,0,0,1-4.78-2.55,1,1,0,0,0-1.54-.16,18.16,18.16,0,0,0-5,9.71,4,4,0,0,0-2.29.56V12A8,8,0,0,1,19,4ZM11,25.44a3.92,3.92,0,0,0,2.17.56A12.94,12.94,0,0,0,21,36v2c-3.68,0-6.31-.23-10,1.66Zm9.24,26.31c1.77-3.54,1.9-3.55,1.7-4.09s-.22-.44-6.43-3.1L18.64,40h2.68L25,49.19v6.64Zm10.37-4.67a1,1,0,0,0-.5,1.37l1.65,3.3L27,55.83V49.19L30.68,40h2.68l3.13,4.56Zm27.84-3.91c-.59.39-.45.7-.45,3.83H52c0-3.26.09-3.32-.29-3.71A5.79,5.79,0,0,1,50,40c0-4.24-.58-7.81,2.66-8-.86,1.65-.66,3.43-.66,6,0,3.12,4,3.86,4,2a1,1,0,0,0-1-1,.91.91,0,0,1-1-1c0-2.47-.15-4,.49-5.14a1.07,1.07,0,0,0,.39-.4C57.07,31.41,61,32.14,61,35v4C61,41.42,58.47,43.15,58.45,43.17Z"/></g></svg>