<svg xmlns="http://www.w3.org/2000/svg" viewBox="0 0 64 64"><title>Girl Student</title><g id="Girl_Student" data-name="Girl Student"><path d="M55.62,54.62A20,20,0,0,0,46.93,41.3a3.72,3.72,0,0,0-.49-1.3H48a1,1,0,0,0,1-1V12A10,10,0,0,0,39.3,2C35.53-.37,32.56,0,28,0A13,13,0,0,0,15,13V39a1,1,0,0,0,1,1h1.56a3.72,3.72,0,0,0-.49,1.3A20,20,0,0,0,8.38,54.62L7,62.84a1,1,0,0,0,2,.32c1.35-8.13,1.44-14.23,8-19.37V63a1,1,0,0,0,2,0V42a2,2,0,0,1,2-2h2V63a1,1,0,0,0,2,0V47.76c.55.18.46.13,3.08-1.37a4.94,4.94,0,0,0,1.49,2.71c-.94,1-.68.69-2.31,13.78a1,1,0,0,0,2,.24l1.5-12a1.27,1.27,0,0,1,2.52,0l1.5,12a1,1,0,0,0,2-.24c-1.63-13.07-1.38-12.75-2.31-13.78a4.93,4.93,0,0,0,1.49-2.71c2.53,1.45,2.43,1.44,2.78,1.44s.3-2,.3,15.17a1,1,0,0,0,2,0V40h2a2,2,0,0,1,2,2V63a1,1,0,0,0,2,0V43.79c6.57,5.14,6.66,11.24,8,19.37a1,1,0,0,0,2-.32ZM45,24V20a2,2,0,0,1,0,4ZM35,36.65v1.94l-3,3-3-3V36.65A13.35,13.35,0,0,0,35,36.65ZM24.22,31.78C20.5,28.07,21,24.1,21,20.2l.84-2A7,7,0,0,1,28.28,14c4.75,0,7.84.42,11.55-1.72,2.45,2.79,2.76,5.36,3.17,7.8V24A11,11,0,0,1,24.22,31.78ZM19,24a2,2,0,0,1,0-4ZM28,2c4.4,0,7.12-.37,10.45,1.83A1,1,0,0,0,39,4a8,8,0,0,1,8,8v6.56A4.07,4.07,0,0,0,44.68,18a14.18,14.18,0,0,0-4-7.71C39.48,9.07,38.51,12,33.39,12H28.28c-3.46,0-6.72,1.82-8.51,6a4.6,4.6,0,0,0-2.77.56V13A11,11,0,0,1,28,2ZM17,38V25.44a3.92,3.92,0,0,0,2.17.56A12.94,12.94,0,0,0,27,36v2Zm8.22,2.24A19,19,0,0,1,27.61,40l2.76,2.76-4.32,2.47Zm8.46,6.55a1.77,1.77,0,0,1-3.36,0l-.47-1.41L32,44.15l2.15,1.23ZM38,45.25l-4.32-2.47L36.39,40a19,19,0,0,1,2.39.22ZM37,38V36a13,13,0,0,0,7.83-10A4,4,0,0,0,47,25.44V38Z"/><path d="M33.41,29.41a2,2,0,0,1-2.82,0,1,1,0,0,0-1.42,0C28,30.57,30.25,32,32,32s4-1.43,2.83-2.59A1,1,0,0,0,33.41,29.41Z"/><path d="M25,20v1a1,1,0,0,0,2,0V20A1,1,0,0,0,25,20Z"/><path d="M37,20v1a1,1,0,0,0,2,0V20A1,1,0,0,0,37,20Z"/></g></svg>