<svg xmlns="http://www.w3.org/2000/svg" viewBox="0 0 64 64"><title>Graduation Cap</title><g id="Graduation_Cap" data-name="Graduation Cap"><path d="M63.39,23.08C30,9.09,32.21,9.83,31.61,10.08-2.17,24.25,0,23.05,0,24s-.18.59,13,6.12V44c0,4,8.51,10,19,10s19-6,19-10V30.12l2-.84V46.16a3.33,3.33,0,0,0-2.31,2.65l-.68,4A1,1,0,0,0,51,54c6.59,0,6.36.12,6.76-.35s.28-.49-.45-4.84A3.33,3.33,0,0,0,55,46.16V28.44c9.16-3.84,9-3.54,9-4.44A1,1,0,0,0,63.39,23.08ZM55.82,52H52.18l.48-2.86a1.36,1.36,0,0,1,2.68,0ZM49,44c0,2.39-7.18,8-17,8s-17-5.61-17-8V31c18.11,7.59,16.83,7.19,17.39,7L49,31Zm4.51-17.11L32.18,23a1,1,0,0,0-.36,2l18.31,3.33L32,35.92,3.59,24,32,12.08,60.41,24Z"/></g></svg>