<svg xmlns="http://www.w3.org/2000/svg" viewBox="0 0 64 64"><title>Language</title><g id="Language"><path d="M53,0H9A5,5,0,0,0,4,5V59a5,5,0,0,0,5,5H53a1,1,0,0,0,1-1V1A1,1,0,0,0,53,0ZM52,54H12V2H52ZM6,5A3,3,0,0,1,9,2h1V54a5.93,5.93,0,0,0-3.88.92C5.94,55.05,6,58.77,6,5ZM9,62a3,3,0,0,1,0-6H52v2H9a1,1,0,0,0,0,2H52v2Z"/><path d="M31,14H27V13a1,1,0,0,0-2,0v1H21a1,1,0,0,0,0,2h1.11a12.07,12.07,0,0,0,2.52,5.38,15.59,15.59,0,0,1-2.23,1.79,1,1,0,0,0,1.1,1.66c3.83-2.53,1.12-2.55,4.95,0a1,1,0,0,0,1.1-1.66,15.74,15.74,0,0,1-2.22-1.8,12.77,12.77,0,0,0,1.81-3,1,1,0,0,0-1.84-.78A11,11,0,0,1,26,19.87,10.28,10.28,0,0,1,24.14,16H31A1,1,0,0,0,31,14Z"/><path d="M39.93,18.63a1,1,0,0,0-1.86,0l-4,10a1,1,0,0,0,1.86.74l1-2.39c.27,0-.83,0,4.11,0,.17,0,0-.39,1.07,2.37a1,1,0,0,0,1.86-.74ZM37.68,25,39,21.69,40.32,25Z"/><path d="M16,35H48a1,1,0,0,0,1-1V8a1,1,0,0,0-1-1H16a1,1,0,0,0-1,1V34A1,1,0,0,0,16,35ZM17,9H47V33H17Z"/></g></svg>