<svg xmlns="http://www.w3.org/2000/svg" viewBox="0 0 64 64"><title>Library</title><g id="Library"><path d="M13,17a1,1,0,0,1-1-1,1,1,0,0,0-1-1H7a1,1,0,0,0-1,1,1,1,0,0,1-1,1,1,1,0,0,0-1,1V56a1,1,0,0,0,1,1,1,1,0,0,1,1,1,1,1,0,0,0,1,1h4a1,1,0,0,0,1-1,1,1,0,0,1,1-1,1,1,0,0,0,1-1V18A1,1,0,0,0,13,17ZM12,55.17A3,3,0,0,0,10.17,57H7.83A3,3,0,0,0,6,55.17V18.83A3,3,0,0,0,7.83,17h2.34A3,3,0,0,0,12,18.83Z"/><path d="M59.21,34.35C54.09,5.32,54.52,7,54,6.63s-.2-.26-8.62,1.22A1,1,0,0,0,44.59,9c1.31,7.45.06.37,1.41,8H38V15a1,1,0,0,0-1-1H30V1a1,1,0,0,0-1-1H17a1,1,0,0,0-1,1v9H1a1,1,0,0,0-1,1V63a1,1,0,0,0,1,1H47a1,1,0,0,0,1-1V28.37c1.83,10.37,3.3,18.72,6.14,34.8a1,1,0,0,0,1,.83c.14,0,1.28-.21,8.05-1.4A1,1,0,0,0,64,61.44C62.87,55.12,65,66.94,59.21,34.35Zm.87,16.46-5.91,1C51.51,36.73,51.72,38,48.49,19.63l5.91-1C57.9,38.47,56.59,31,60.08,50.81Zm-6-34.19-5.91,1-.39-2.25,5.9-1Zm.47,37.2,5.91-1,.4,2.25-5.91,1ZM52.64,8.6l.67,3.8-5.91,1-.67-3.79ZM46,19v2H38V19Zm0,39H38V23h8ZM36,52H30V50h6Zm-6,2h6v2H30Zm6-38V48H30V16ZM2,12H16V62H2ZM18,2H28V62H18ZM30,58h6v4H30Zm8,4V60h8v2Zm17.93-.16-.67-3.79,5.91-1,.67,3.8Z"/><path d="M25,5H21a1,1,0,0,0-1,1V58a1,1,0,0,0,1,1h4a1,1,0,0,0,1-1V6A1,1,0,0,0,25,5ZM24,57H22V7h2Z"/><path d="M43,54V26a1,1,0,0,0-2,0V54A1,1,0,0,0,43,54Z"/></g></svg>