<svg xmlns="http://www.w3.org/2000/svg" viewBox="0 0 64 64"><title>Locker</title><g id="Locker"><path d="M62,0H2A1,1,0,0,0,1,1V61a1,1,0,0,0,1,1H3v1a1,1,0,0,0,2,0V62H19v1a1,1,0,0,0,2,0V62h2v1a1,1,0,0,0,2,0V62H39v1a1,1,0,0,0,2,0V62h2v1a1,1,0,0,0,2,0V62H59v1a1,1,0,0,0,2,0V62h1a1,1,0,0,0,1-1V1A1,1,0,0,0,62,0ZM41,60H23V2H41ZM3,2H21V60H3ZM61,60H43V2H61Z"/><path d="M6,8H18a1,1,0,0,0,0-2H6A1,1,0,0,0,6,8Z"/><path d="M6,13H18a1,1,0,0,0,0-2H6A1,1,0,0,0,6,13Z"/><path d="M6,18H18a1,1,0,0,0,0-2H6A1,1,0,0,0,6,18Z"/><path d="M26,8H38a1,1,0,0,0,0-2H26A1,1,0,0,0,26,8Z"/><path d="M26,13H38a1,1,0,0,0,0-2H26A1,1,0,0,0,26,13Z"/><path d="M26,18H38a1,1,0,0,0,0-2H26A1,1,0,0,0,26,18Z"/><path d="M46,8H58a1,1,0,0,0,0-2H46A1,1,0,0,0,46,8Z"/><path d="M46,13H58a1,1,0,0,0,0-2H46A1,1,0,0,0,46,13Z"/><path d="M46,18H58a1,1,0,0,0,0-2H46A1,1,0,0,0,46,18Z"/><path d="M6,47H18a1,1,0,0,0,0-2H6A1,1,0,0,0,6,47Z"/><path d="M6,52H18a1,1,0,0,0,0-2H6A1,1,0,0,0,6,52Z"/><path d="M6,57H18a1,1,0,0,0,0-2H6A1,1,0,0,0,6,57Z"/><path d="M26,47H38a1,1,0,0,0,0-2H26A1,1,0,0,0,26,47Z"/><path d="M26,52H38a1,1,0,0,0,0-2H26A1,1,0,0,0,26,52Z"/><path d="M26,57H38a1,1,0,0,0,0-2H26A1,1,0,0,0,26,57Z"/><path d="M46,47H58a1,1,0,0,0,0-2H46A1,1,0,0,0,46,47Z"/><path d="M46,52H58a1,1,0,0,0,0-2H46A1,1,0,0,0,46,52Z"/><path d="M46,57H58a1,1,0,0,0,0-2H46A1,1,0,0,0,46,57Z"/><path d="M17,30v4a1,1,0,0,0,2,0V30A1,1,0,0,0,17,30Z"/><path d="M37,30v4a1,1,0,0,0,2,0V30A1,1,0,0,0,37,30Z"/><path d="M57,30v4a1,1,0,0,0,2,0V30A1,1,0,0,0,57,30Z"/></g></svg>