<svg xmlns="http://www.w3.org/2000/svg" viewBox="0 0 64 64"><title>Momentum</title><g id="Momentum"><path d="M62.83,30a4.1,4.1,0,0,0-4.84-.6l-6-6V13a5,5,0,0,0-5-5H9a5,5,0,0,0-5,5V44.56A4,4,0,0,0,2,48H1a1,1,0,0,0-1,1v6a1,1,0,0,0,1,1H55a1,1,0,0,0,1-1V49a1,1,0,0,0-1-1H54a4,4,0,0,0-2-3.44V26.21l4.56,4.57A4,4,0,1,0,62.83,30ZM6,46H8a2,2,0,0,1,2,2H4A2,2,0,0,1,6,46ZM21,14V37.14a4.05,4.05,0,0,0-2,1.24,4.05,4.05,0,0,0-2-1.24V14Zm6,0V37.14a4.05,4.05,0,0,0-2,1.24,4.05,4.05,0,0,0-2-1.24V14Zm6,0V37.14a4.05,4.05,0,0,0-2,1.24,4.05,4.05,0,0,0-2-1.24V14Zm1,25a2,2,0,1,1-2,2A2,2,0,0,1,34,39Zm-6,0a2,2,0,1,1-2,2A2,2,0,0,1,28,39Zm-6,0a2,2,0,1,1-2,2A2,2,0,0,1,22,39Zm-6,0a2,2,0,1,1-2,2A2,2,0,0,1,16,39Zm-1-1.86a4,4,0,1,0,4,6.48,4,4,0,0,0,6,0,4,4,0,0,0,6,0,4,4,0,1,0,4-6.48V14h4.79L46,20.21V44.56A4,4,0,0,0,44,48H12a4,4,0,0,0-2-3.44V14h5ZM46,17.39,42.61,14H46ZM54,54H2V50H54Zm-8-6a2,2,0,0,1,2-2h2a2,2,0,0,1,2,2Zm2-4V13a1,1,0,0,0-1-1H9a1,1,0,0,0-1,1V44H6V13a3,3,0,0,1,3-3H47a3,3,0,0,1,3,3V44Zm13.41-9.79A2,2,0,0,1,58,32.8a1.94,1.94,0,0,1,.59-1.41A2,2,0,0,1,61.41,34.21Z"/></g></svg>