<svg xmlns="http://www.w3.org/2000/svg" viewBox="0 0 64 64"><title>Music</title><g id="Music"><path d="M63.71,10.45c-1.15-1.15-1-.94-.85-1.13.39-.39.29-.47.29-4.09,0-.56,0-.41-3.67-4.09-.4-.39-.48-.29-4.1-.29a1.1,1.1,0,0,0-.84.43l-1-1a1,1,0,0,0-1.41,1.42l1,1-2,2-1-1a1,1,0,0,0-1.42,1.41c1.15,1.15,1,.94.85,1.13-.39.39-.29.52-.29,3.67l-14.4,14.4c-5.15-3.9-10.33-4.51-13.35-1.49-3.65,3.65-2.89,4.72-5.39,7.21S7.33,31.56,3.53,35.36C-3.2,42.09.58,50,7.29,56.71S21.91,67.2,28.64,60.47c2.13-2.13,2.8-5.06,3.39-7.65,1.84-8,3.68-4.89,9.17-10.38,3-3,2.41-8.2-1.49-13.35l14.4-14.4c3.38,0,3.24.15,3.81-.43,1.08,1.08,1.19,1.28,1.7,1.28a1,1,0,0,0,.7-1.71l-1-1,2-2C62.39,12,62.49,12.15,63,12.15A1,1,0,0,0,63.71,10.45ZM39.78,41c-3.49,3.49-4.35,2.53-7.21,5.38-3,3-2,9.3-5.34,12.64-5.86,5.87-12.68,2.1-18.53-3.75S-.91,42.63,5,36.77c3.3-3.3,9.68-2.39,12.64-5.34s1.92-3.75,5.38-7.21c2.66-2.67,7.13-1,10.51,1.5l-7.66,7.66a5.78,5.78,0,1,0,4.8,4.8l7.66-7.66C40.75,33.9,42.45,38.37,39.78,41Zm-12.18.73a3.79,3.79,0,1,1,0-5.36A3.81,3.81,0,0,1,27.6,41.76Zm2.26-5.65a5.11,5.11,0,0,0-2-2L50.31,11.72l2,2ZM54.11,12.69l-2.8-2.8V7.34L55.8,2.85h2.55l2.8,2.8V8.2l-4.49,4.49Z"/><path d="M12.09,45.14a1,1,0,0,0-1.42,1.42c7.5,7.49,6.9,7.06,7.48,7.06a1,1,0,0,0,.71-1.71Z"/><path d="M58,43c-2.48,0-2.73-2-6-2a1,1,0,0,0-1,1v9.56A4,4,0,1,0,53,55V43.11c1.54.38,2.17,1.89,5,1.89A1,1,0,0,0,58,43ZM49,57a2,2,0,1,1,2-2A2,2,0,0,1,49,57Z"/><path d="M5,23a4,4,0,0,0,4-4V6.72L19,3.39v8.17A4,4,0,1,0,21,15c0-14,.18-13.38-.42-13.81s0-.44-12.9,3.86A1,1,0,0,0,7,6v9.56A4,4,0,1,0,5,23Zm12-6a2,2,0,1,1,2-2A2,2,0,0,1,17,17ZM5,17a2,2,0,1,1-2,2A2,2,0,0,1,5,17Z"/></g></svg>