<svg xmlns="http://www.w3.org/2000/svg" viewBox="0 0 64 64"><title>Notes</title><g id="Notes"><path d="M61,2H59a3,3,0,0,0-3,3V55c0,.34-.15-.06,3.11,6.45a1,1,0,0,0,1.78,0C64.15,55,64,55.34,64,55V5A3,3,0,0,0,61,2ZM59.14,57.05l-.89-1.79a6,6,0,0,1,3.5,0l-.89,1.79A8.24,8.24,0,0,0,59.14,57.05ZM62,13H58V11h4ZM58,53.27V15h4V53.27A8,8,0,0,0,58,53.27ZM58,5a1,1,0,0,1,1-1h2a1,1,0,0,1,1,1V9H58Z"/><path d="M47,0H5C-1.09,0-1.81,12.27,4,13.86V63a1,1,0,0,0,1,1H47a1,1,0,0,0,1-1V52h3a1,1,0,0,0,1-1V7C52,3.07,49.8,0,47,0ZM2,7C2,4.29,3.37,2,5,2H43.47a9.24,9.24,0,0,0,0,10H5C3.37,12,2,9.71,2,7Zm44,4.68A5,5,0,0,1,44.06,8H46ZM46,62H6V14H46Zm4-12H48V7a1,1,0,0,0-1-1H44.06c.29-2.25,1.52-4,2.94-4,1.63,0,3,2.29,3,5Z"/><path d="M41,22H11a1,1,0,0,0,0,2H41A1,1,0,0,0,41,22Z"/><path d="M41,28H24a1,1,0,0,0,0,2H41A1,1,0,0,0,41,28Z"/><path d="M11,30h9a1,1,0,0,0,0-2H11A1,1,0,0,0,11,30Z"/><path d="M41,34H35a1,1,0,0,0,0,2h6A1,1,0,0,0,41,34Z"/><path d="M11,36H31a1,1,0,0,0,0-2H11A1,1,0,0,0,11,36Z"/><path d="M41,40H20a1,1,0,0,0,0,2H41A1,1,0,0,0,41,40Z"/><path d="M11,42h5a1,1,0,0,0,0-2H11A1,1,0,0,0,11,42Z"/><path d="M41,46H40a1,1,0,0,0,0,2h1A1,1,0,0,0,41,46Z"/><path d="M11,48H36a1,1,0,0,0,0-2H11A1,1,0,0,0,11,48Z"/><path d="M41,52H28a1,1,0,0,0,0,2H41A1,1,0,0,0,41,52Z"/><path d="M24,52H11a1,1,0,0,0,0,2H24A1,1,0,0,0,24,52Z"/></g></svg>