<svg xmlns="http://www.w3.org/2000/svg" viewBox="0 0 64 64"><title>Notebook</title><g id="Notebook"><path d="M49,0H5A3,3,0,0,0,2,3V7H1A1,1,0,0,0,1,9H2v4H1a1,1,0,0,0,0,2H2v4H1a1,1,0,0,0,0,2H2v4H1a1,1,0,0,0,0,2H2v4H1a1,1,0,0,0,0,2H2v4H1a1,1,0,0,0,0,2H2v4H1a1,1,0,0,0,0,2H2v4H1a1,1,0,0,0,0,2H2v4H1a1,1,0,0,0,0,2H2v4a3,3,0,0,0,3,3H49a3,3,0,0,0,3-3V3A3,3,0,0,0,49,0ZM5,62a1,1,0,0,1-1-1V57H6a1,1,0,0,0,0-2H4V51H6a1,1,0,0,0,0-2H4V45H6a1,1,0,0,0,0-2H4V39H6a1,1,0,0,0,0-2H4V33H6a1,1,0,0,0,0-2H4V27H6a1,1,0,0,0,0-2H4V21H6a1,1,0,0,0,0-2H4V15H6a1,1,0,0,0,0-2H4V9H6A1,1,0,0,0,6,7H4V3A1,1,0,0,1,5,2H8V62Zm45-1a1,1,0,0,1-1,1H10V2H49a1,1,0,0,1,1,1Z"/><path d="M45,7H15a1,1,0,0,0-1,1V26a1,1,0,0,0,1,1H45a1,1,0,0,0,1-1V8A1,1,0,0,0,45,7ZM44,25H16V9H44Z"/><path d="M42,37H18a1,1,0,0,0,0,2H42A1,1,0,0,0,42,37Z"/><path d="M42,43H18a1,1,0,0,0,0,2H42A1,1,0,0,0,42,43Z"/><path d="M61,2H59a3,3,0,0,0-3,3V55c0,.34-.15-.06,3.11,6.45a1,1,0,0,0,1.78,0C64.15,55,64,55.34,64,55V5A3,3,0,0,0,61,2ZM59.14,57.05l-.89-1.79a6,6,0,0,1,3.5,0l-.89,1.79A8.24,8.24,0,0,0,59.14,57.05ZM62,13H58V11h4ZM58,53.27V15h4V53.27A8,8,0,0,0,58,53.27ZM58,5a1,1,0,0,1,1-1h2a1,1,0,0,1,1,1V9H58Z"/></g></svg>