<svg xmlns="http://www.w3.org/2000/svg" viewBox="0 0 64 64"><title>Numeracy</title><g id="Numeracy"><path d="M16,16H15a1,1,0,0,0,0,2v7a1,1,0,0,0,2,0V17A1,1,0,0,0,16,16Z"/><path d="M33,19a3,3,0,0,0-6,0,1,1,0,0,0,2,0,1,1,0,0,1,2,0c0,.86-.14.82-3.78,5.38A1,1,0,0,0,28,26h4a1,1,0,0,0,0-2H30.08C32.09,21.48,33,20.72,33,19Z"/><path d="M24,20H23V19a1,1,0,0,0-2,0v1H20a1,1,0,0,0,0,2h1v1a1,1,0,0,0,2,0V22h1A1,1,0,0,0,24,20Z"/><path d="M40,19H36a1,1,0,0,0,0,2h4A1,1,0,0,0,40,19Z"/><path d="M40,22H36a1,1,0,0,0,0,2h4A1,1,0,0,0,40,22Z"/><path d="M47.42,19.67c1.54-2.31,1.81-2.49,1.46-3.14S48.13,16,44,16a1,1,0,0,0,0,2h2.13l-1,1.45a1,1,0,0,0,.38,1.44l.32.16A2,2,0,0,1,47,22.88a1.12,1.12,0,0,1-1.91.79l-.38-.38a1,1,0,0,0-1.42,1.42l.38.38A3.13,3.13,0,0,0,49,22.88,4,4,0,0,0,47.42,19.67Z"/><path d="M63,40H62V1a1,1,0,0,0-1-1H3A1,1,0,0,0,2,1V40H1a1,1,0,0,0-1,1v6a1,1,0,0,0,1,1h9.47L4.08,62.6A1,1,0,0,0,5,64c5.26,0,5.57.2,5.92-.6l2.8-6.4H50.28c3,6.81,2.84,7,3.72,7,5.33,0,5.44.15,5.84-.45s.58.2-6.31-15.55H63a1,1,0,0,0,1-1V41A1,1,0,0,0,63,40ZM4,2H60V40H58V5a1,1,0,0,0-1-1H7A1,1,0,0,0,6,5V40H4ZM51,40H41V37a1,1,0,0,1,1-1h8a1,1,0,0,1,1,1Zm-1-6H42a3,3,0,0,0-3,3v3H8V6H56V40H53V37A3,3,0,0,0,50,34ZM9.35,62H6.53l6.12-14h2.82C2.77,77,15,49.18,9.35,62Zm37-14,1.31,3H16.34l1.31-3ZM14.59,55l.88-2H48.53l.88,2Zm42.88,7H54.65c-16.19-37,8.52,19.46-6.12-14h2.82ZM62,46H2V42H62Z"/></g></svg>