<svg xmlns="http://www.w3.org/2000/svg" viewBox="0 0 64 64"><title>Open Book</title><g id="Open_Book" data-name="Open Book"><path d="M63,12H60V9a1,1,0,0,0-1-1H41.66A14.54,14.54,0,0,0,32,11.65,14.54,14.54,0,0,0,22.34,8H5A1,1,0,0,0,4,9v3H1a1,1,0,0,0-1,1V55a1,1,0,0,0,1,1H63a1,1,0,0,0,1-1V13A1,1,0,0,0,63,12Zm-5-2V50H41.66A14.53,14.53,0,0,0,33,52.83V13.42A12.56,12.56,0,0,1,41.66,10ZM6,10H22.34A12.56,12.56,0,0,1,31,13.42V52.83A14.53,14.53,0,0,0,22.34,50H6ZM2,14H4V51a1,1,0,0,0,1,1H22.34a12.54,12.54,0,0,1,6.82,2H2ZM62,54H34.84C39,51.33,41.08,52,59,52a1,1,0,0,0,1-1V14h2Z"/><path d="M12,16c10.73,0,12.35-.33,15.59,1.14a1,1,0,0,0,.82-1.82C24.56,13.57,22.1,14,12,14A1,1,0,0,0,12,16Z"/><path d="M28.41,20.32A14.5,14.5,0,0,0,23.05,19a1,1,0,0,0-.1,2,12.54,12.54,0,0,1,4.64,1.12A1,1,0,0,0,28.41,20.32Z"/><path d="M9,21H19a1,1,0,0,0,0-2H9A1,1,0,0,0,9,21Z"/><path d="M9,26c13.91,0,15.27-.37,18.59,1.14a1,1,0,0,0,.82-1.82C24.58,23.58,22.7,24,9,24A1,1,0,0,0,9,26Z"/><path d="M28.41,30.32C25,28.78,22.57,29,19,29a1,1,0,0,0,0,2c3.45,0,5.6-.22,8.59,1.14A1,1,0,0,0,28.41,30.32Z"/><path d="M9,31h6a1,1,0,0,0,0-2H9A1,1,0,0,0,9,31Z"/><path d="M9,36c13.91,0,15.27-.37,18.59,1.14a1,1,0,0,0,.82-1.82C24.58,33.58,22.7,34,9,34A1,1,0,0,0,9,36Z"/><path d="M28.41,40.32C24.65,38.61,22,39,15,39a1,1,0,0,0,0,2c7.28,0,9.4-.31,12.59,1.14A1,1,0,0,0,28.41,40.32Z"/><path d="M9,41h2a1,1,0,0,0,0-2H9A1,1,0,0,0,9,41Z"/><path d="M9,46H22.34a1,1,0,0,0,0-2H9A1,1,0,0,0,9,46Z"/><path d="M41.66,16H55a1,1,0,0,0,0-2H41.66A1,1,0,0,0,41.66,16Z"/><path d="M36,22.23A16.66,16.66,0,0,1,41.66,21H55a1,1,0,0,0,0-2c-14,0-15.67-.38-19.41,1.32A1,1,0,0,0,36,22.23Z"/><path d="M55,24H49a1,1,0,0,0,0,2h6A1,1,0,0,0,55,24Z"/><path d="M36,27.23A16.66,16.66,0,0,1,41.66,26H45a1,1,0,0,0,0-2c-3.59,0-6-.22-9.41,1.32A1,1,0,0,0,36,27.23Z"/><path d="M36,32.23A16.66,16.66,0,0,1,41.66,31H55a1,1,0,0,0,0-2c-14,0-15.67-.38-19.41,1.32A1,1,0,0,0,36,32.23Z"/><path d="M55,34H54a1,1,0,0,0,0,2h1A1,1,0,0,0,55,34Z"/><path d="M36,37.23A16.66,16.66,0,0,1,41.66,36H50a1,1,0,0,0,0-2c-8.17,0-10.73-.36-14.41,1.32A1,1,0,0,0,36,37.23Z"/><path d="M55,39H47a1,1,0,0,0,0,2h8A1,1,0,0,0,55,39Z"/><path d="M36,42.23A16.66,16.66,0,0,1,41.66,41H43a1,1,0,0,0,0-2,15.79,15.79,0,0,0-7.41,1.32A1,1,0,0,0,36,42.23Z"/><path d="M36,47.23A16.66,16.66,0,0,1,41.66,46H52a1,1,0,0,0,0-2c-11,0-12.77-.34-16.41,1.32A1,1,0,0,0,36,47.23Z"/></g></svg>