<svg xmlns="http://www.w3.org/2000/svg" viewBox="0 0 64 64"><title>Shcool</title><g id="Shcool"><path d="M63.87,37.5C55.18,22.3,55.81,23,55,23H42.66L33,14.55V11h7a1,1,0,0,0,1-1V4a1,1,0,0,0-1-1H32a1,1,0,0,0-1,1V14.55L21.34,23c-13.14,0-12.8-.21-13.21.5-8.59,15-8.41,14.29-8,15S.93,39,3,39V58a1,1,0,0,0,1,1H18v1a1,1,0,0,0,1,1H45a1,1,0,0,0,1-1V59H60a1,1,0,0,0,1-1V39h2A1,1,0,0,0,63.87,37.5ZM38,55V48a1,1,0,0,0-1-1H27a1,1,0,0,0-1,1v7H23V29.25l9-7.92,9,7.92V55ZM28,55V49h3v6Zm5-6h3v6H33Zm9.61-21-10-8.75a1,1,0,0,0-1.32,0L21.39,28H18.66L32,16.33,45.34,28ZM39,9H33V5h6ZM9.58,25h9.47l-3.71,3.25A1,1,0,0,0,16,30h5v7H2.72ZM5,57V39H21V55H19a1,1,0,0,0-1,1v1Zm39,2H20V57H44Zm15-2H46V56a1,1,0,0,0-1-1H43V39H59ZM43,37V30c5.2,0,5.61.22,5.94-.65s-.14-1-4-4.35h9.47l6.86,12Z"/><path d="M46,50H56a1,1,0,0,0,1-1V44a1,1,0,0,0-1-1H46a1,1,0,0,0-1,1v5A1,1,0,0,0,46,50Zm9-2H52V45h3Zm-8-3h3v3H47Z"/><path d="M19,49V44a1,1,0,0,0-1-1H8a1,1,0,0,0-1,1v5a1,1,0,0,0,1,1H18A1,1,0,0,0,19,49ZM9,45h3v3H9Zm8,3H14V45h3Z"/><path d="M32,29a5,5,0,1,0,5,5A5,5,0,0,0,32,29Zm0,8a3,3,0,1,1,3-3A3,3,0,0,1,32,37Z"/></g></svg>