<svg xmlns="http://www.w3.org/2000/svg" viewBox="0 0 64 64"><title>Teaching</title><g id="Teaching"><path d="M63,0H13a1,1,0,0,0-1,1V12.18A6.51,6.51,0,0,0,7,18.5c0,2.29-.23,4.37,1.82,6.5H8a7,7,0,0,0-7,7V44a5,5,0,0,0,4.08,4.91,6,6,0,0,0,2.17,3.76A11,11,0,0,0,0,63a1,1,0,0,0,2,0,9,9,0,0,1,18,0,1,1,0,0,0,2,0,9,9,0,0,1,18,0,1,1,0,0,0,2,0,9,9,0,0,1,18,0,1,1,0,0,0,2,0,11,11,0,0,0-7.25-10.33c2.52-2,2.25-4.5,2.25-6.67a6,6,0,0,0-12,0c0,2.24-.27,4.65,2.25,6.67A11.08,11.08,0,0,0,41,58.44a11.08,11.08,0,0,0-6.25-5.77c2.52-2,2.25-4.5,2.25-6.67a6,6,0,0,0-12,0c0,2.24-.27,4.65,2.25,6.67a11.06,11.06,0,0,0-5.25,4V36H63a1,1,0,0,0,1-1V1A1,1,0,0,0,63,0ZM47,48V46a4,4,0,0,1,8,0v2a4,4,0,0,1-8,0ZM27,48V46a4,4,0,0,1,8,0v2a4,4,0,0,1-8,0ZM9,18.5a4.5,4.5,0,0,1,9,0v2a4.5,4.5,0,0,1-9,0ZM7,48V46a4,4,0,0,1,8,0v2a4,4,0,0,1-8,0Zm7.75,4.67c2.52-2,2.25-4.5,2.25-6.67A6,6,0,0,0,7,41.54V32a1,1,0,0,0-2,0V46.82A3,3,0,0,1,3,44V32a5,5,0,0,1,5-5c23.11,0,21.52.15,22-.36,4.88-5.87,5.1-6.64,6.83-6.64a1.22,1.22,0,0,1,.95,2l-6.39,8H21a1,1,0,0,0-1,1V56.7A11.06,11.06,0,0,0,14.75,52.67ZM62,34H22V32c10.51,0,10.18.15,10.6-.38,7.29-9.13,7.4-8.9,7.4-10.4a3.24,3.24,0,0,0-2-3V5a1,1,0,0,0-2,0V18.07c-2.34.38-2.88,1.62-7.29,6.93H18.18C20.25,22.84,20,20.64,20,18.5A6.49,6.49,0,0,0,14,12V2H62Z"/><path d="M5,61v2a1,1,0,0,0,2,0V61A1,1,0,0,0,5,61Z"/><path d="M15,61v2a1,1,0,0,0,2,0V61A1,1,0,0,0,15,61Z"/><path d="M25,61v2a1,1,0,0,0,2,0V61A1,1,0,0,0,25,61Z"/><path d="M35,61v2a1,1,0,0,0,2,0V61A1,1,0,0,0,35,61Z"/><path d="M45,61v2a1,1,0,0,0,2,0V61A1,1,0,0,0,45,61Z"/><path d="M55,61v2a1,1,0,0,0,2,0V61A1,1,0,0,0,55,61Z"/></g></svg>