<svg xmlns="http://www.w3.org/2000/svg" viewBox="0 0 64 64"><title>Theatter</title><g id="Theatter"><path d="M44,16a29.11,29.11,0,0,0-4.28.31c-2.61-13-11.07-18-23.07-15.84C4,2.71-1.78,11.12.52,24.17c2.55,14.5,10.27,26.27,24.74,23.51C27.23,55.71,32.14,64,44,64c18,0,20-19.2,20-27.45C64,23.3,56.9,16,44,16ZM24.63,45.77C11.48,48.08,4.8,37,2.48,23.83.35,11.71,5.23,4.51,17,2.44,28,.48,35.35,4.91,37.74,16.68a20.17,20.17,0,0,0-2.91.92c0-1-.27-2.24-1.2-2.63-1.48-.62-2.72,1.45-4.47,1.76s-3.64-1.21-4.81-.12-.24,5.31,3.28,6.57a19.41,19.41,0,0,0-3.1,7.63c-10.3,0-13.55,9.48-10,11.25,2.17,1.09,5.05-2.3,9.57-2.85C24.4,45.91,25.23,45.66,24.63,45.77ZM29,21.47a3.73,3.73,0,0,1-3.14-3.2,8.52,8.52,0,0,0,3.62.42,8.6,8.6,0,0,0,3.27-1.63,4.2,4.2,0,0,1,0,1.54A15.72,15.72,0,0,0,29,21.47ZM24,37.2c-4.35.46-7.7,3.29-8.59,3.08a1.15,1.15,0,0,1-.19-.55c-.66-3.82,4.36-6.83,9-6.93A31.62,31.62,0,0,0,24,37.2ZM44,62C28.79,62,26.28,46.39,26,38.12,25.6,24.38,31.92,18,44,18s18,6.24,18,18.55C62,44.2,60.25,62,44,62Z"/><path d="M40.22,40.74c2-1.36.22-7.74-5.22-7.74s-7.21,6.41-5.22,7.74c1.38.93,3.16-.92,5.22-.92S38.81,41.68,40.22,40.74ZM31.7,38.65c-.81.33-.7.29-.7.17a4,4,0,0,1,8,0c0,.12.1.16-.7-.17C35.62,37.54,34.39,37.54,31.7,38.65Z"/><path d="M53.5,33c-5,0-6.67,6.51-4.71,7.77,1.35.86,2.94-1,4.71-1,1.41,0,2.76,1.18,3.9,1.18C60.5,41,59.11,33,53.5,33ZM57,38.86a8.72,8.72,0,0,0-3.5-1,8.82,8.82,0,0,0-3.5,1,3.52,3.52,0,1,1,7,0Z"/><path d="M53.33,48.41c-1.84-1.36-5.18,1.17-9.33,1.17S36.51,47,34.67,48.41C32.13,50.3,34.81,58,44,58S55.87,50.31,53.33,48.41ZM44,56c-4.52,0-8.2-2.43-8.2-5.42a2.33,2.33,0,0,1,.06-.56c.8-.33,4.37,1.56,8.14,1.56s7.36-1.9,8.11-1.58c0,0,.09.12.09.58C52.2,53.57,48.52,56,44,56Z"/><path d="M15.92,18.12c-.88-.38-1.71.14-2.6.71-2,1.27-2.68,1.39-5,.88-1-.23-2-.44-2.68.23-1.75,1.68,1.11,7.65,6.49,6.71S18.11,19.09,15.92,18.12Zm-4.15,6.56a3.91,3.91,0,0,1-4.62-3.17,11.21,11.21,0,0,0,4.13.39A11.21,11.21,0,0,0,15,20.13s0,.06,0,.1h0A3.92,3.92,0,0,1,11.77,24.68Z"/></g></svg>