<svg xmlns="http://www.w3.org/2000/svg" viewBox="0 0 64 64"><title>Tools</title><g id="Tools"><path d="M63.47,20.12c-.79-.42,3.15-2.78-63,42.05A1,1,0,0,0,1,64H63a1,1,0,0,0,1-1C64,17.47,64.24,20.53,63.47,20.12ZM62,62H59V59a1,1,0,0,0-2,0v3H54V61a1,1,0,0,0-2,0v1H49V59a1,1,0,0,0-2,0v3H44V61a1,1,0,0,0-2,0v1H39V59a1,1,0,0,0-2,0v3H34V61a1,1,0,0,0-2,0v1H29V59a1,1,0,0,0-2,0v3H24V61a1,1,0,0,0-2,0v1H19V59a1,1,0,0,0-2,0v3H14V61a1,1,0,0,0-2,0v1H4.26L62,22.89Z"/><path d="M33.59,54H53a1,1,0,0,0,1-1c0-14.29.21-13.64-.53-14S54,38,33,52.17A1,1,0,0,0,33.59,54ZM52,41.74V52H36.85Z"/><path d="M1,51c.28,0-.42.26,8.88-3.58.33-.13-1.66,1.78,40.12-40a3.43,3.43,0,0,0,0-4.84L48.42,1a3.51,3.51,0,0,0-4.84,0c-1,1-41.91,41.92-39.79,39.79-.19.2.11-.48-3.71,8.83A1,1,0,0,0,1,51ZM36.5,10.91l3.59,3.59L9.89,44.7A9,9,0,0,0,6.3,41.12ZM3.39,46.82l1.69-4.1a7,7,0,0,1,3.2,3.2l-4.1,1.69A3.7,3.7,0,0,0,3.39,46.82ZM41.5,13.09,37.91,9.5,39.5,7.91l3.59,3.59ZM47,2.42c3,3,3,2.12-2.5,7.67L40.91,6.5,45,2.42A1.44,1.44,0,0,1,47,2.42Z"/><path d="M4,15H16a3,3,0,0,0,3-3V8a3,3,0,0,0-3-3H4A1,1,0,0,0,3,6v8A1,1,0,0,0,4,15ZM17,8v4a1,1,0,0,1-1,1H14V7h2A1,1,0,0,1,17,8ZM5,7h7v6H5Z"/></g></svg>