<svg xmlns="http://www.w3.org/2000/svg" viewBox="0 0 64 64"><title>Tutorial</title><g id="Tutorial"><path d="M63,4H1A1,1,0,0,0,0,5V59a1,1,0,0,0,1,1H63a1,1,0,0,0,1-1V5A1,1,0,0,0,63,4ZM62,6V48H2V6Zm0,52H2V50H62Z"/><path d="M19,25.52v9c0,3.15,6.12,7.14,13,7.14s13-4,13-7.14v-9l2-.86V37.12a2.6,2.6,0,0,0-1.54,2C44.73,43.58,44.21,43,50,43a1,1,0,0,0,1-1.16c-.4-2.45-.34-4-2-4.72V23.8l4.39-1.88a1,1,0,0,0,0-1.84c-23-9.85-21.22-9.24-21.78-9C8.91,20.81,10,20.06,10,21S9.9,21.62,19,25.52ZM47.18,41c.24-1.48.19-1.87.6-2a.56.56,0,0,0,.44,0c.38.16.34.4.6,2ZM43,34.5c0,1.49-4.76,5.14-11,5.14S21,36,21,34.5V26.37c11.48,4.93,10.84,4.79,11.39,4.55L43,26.37ZM32,13.09,50.46,21l-2.35,1-16-2.14a1,1,0,0,0-.26,2l12.65,1.69L32,28.91,13.54,21Z"/><path d="M4.47,55.85a1,1,0,0,0,1,0C7.43,54.9,8,54.79,8,54s-.65-.94-2.55-1.89A1,1,0,0,0,4,53C4,55.08,3.88,55.48,4.47,55.85Z"/><path d="M11,55H34a1,1,0,0,0,2,0V53a1,1,0,0,0-2,0H11A1,1,0,0,0,11,55Z"/><path d="M38,55H59a1,1,0,0,0,0-2H38A1,1,0,0,0,38,55Z"/></g></svg>